<?xml version="1.0" encoding="UTF-8"?><svg xmlns="http://www.w3.org/2000/svg" xmlns:xlink="http://www.w3.org/1999/xlink" width="150pt" zoomAndPan="magnify" viewBox="0 0 150 74.999997" height="74.999997pt" preserveAspectRatio="xMidYMid meet" version="1.2"><defs><g/></defs><g xml:id="surface1" id="surface1"><g style="fill:rgb(11.759949%,10.198975%,13.328552%);fill-opacity:1;"><g transform="translate(23.587822, 42.772273)"><path style="stroke:none;" d="M 28.902344 -25.445312 C 28.609375 -25.445312 28.082031 -25.421875 23.417969 -20.304688 C 20.570312 -17.167969 17.035156 -13.054688 13.476562 -8.753906 C 12.789062 -7.9375 11.761719 -6.671875 10.546875 -5.167969 C 10.152344 -6.59375 9.730469 -7.988281 9.335938 -9.386719 C 6.195312 -20.304688 5.484375 -22.230469 4.507812 -22.28125 C 4.378906 -22.28125 4.007812 -22.257812 3.796875 -21.730469 C 3.691406 -21.464844 3.824219 -21.175781 4.0625 -21.070312 C 4.21875 -21.015625 4.378906 -21.042969 4.507812 -21.097656 C 5.273438 -19.832031 6.910156 -14.160156 8.359375 -9.097656 C 8.832031 -7.488281 9.308594 -5.855469 9.78125 -4.191406 C 5.222656 1.503906 -1.34375 10.019531 -3.058594 14.027344 C -3.558594 15.242188 -3.613281 15.980469 -3.242188 16.429688 C -3.03125 16.664062 -2.769531 16.769531 -2.425781 16.769531 C -2.269531 16.769531 -2.082031 16.746094 -1.898438 16.691406 C -1.636719 16.640625 -1.476562 16.347656 -1.53125 16.085938 C -1.609375 15.820312 -1.871094 15.636719 -2.136719 15.714844 C -2.320312 15.769531 -2.425781 15.769531 -2.480469 15.742188 C -2.480469 15.664062 -2.503906 15.398438 -2.214844 14.6875 C -1.109375 11.867188 3.402344 5.40625 10.125 -3.03125 C 10.152344 -2.980469 10.152344 -2.925781 10.179688 -2.875 C 13.6875 8.886719 15.796875 10.628906 17.21875 10.863281 C 17.378906 10.890625 17.507812 10.890625 17.640625 10.890625 C 18.140625 10.890625 18.5625 10.734375 18.933594 10.441406 C 19.644531 9.863281 20.042969 8.726562 20.148438 7.015625 C 20.148438 6.75 19.9375 6.488281 19.671875 6.488281 C 19.382812 6.460938 19.144531 6.671875 19.117188 6.960938 C 19.039062 8.703125 18.617188 9.386719 18.300781 9.652344 C 18.0625 9.835938 17.773438 9.914062 17.378906 9.863281 C 16.269531 9.675781 14.265625 7.277344 11.15625 -3.164062 C 11.074219 -3.429688 10.996094 -3.71875 10.917969 -3.980469 C 11.8125 -5.117188 12.761719 -6.277344 13.738281 -7.460938 C 21.542969 -16.980469 28.03125 -24.023438 29.03125 -24.445312 C 29.269531 -24.496094 29.453125 -24.707031 29.453125 -24.972656 C 29.429688 -25.261719 29.191406 -25.472656 28.902344 -25.445312 Z M 28.902344 -25.445312 "/></g></g><g style="fill:rgb(11.759949%,10.198975%,13.328552%);fill-opacity:1;"><g transform="translate(46.16018, 42.772273)"><path style="stroke:none;" d="M 10.496094 -5.695312 C 10.257812 -5.828125 9.941406 -5.75 9.808594 -5.511719 C 7.304688 -1.503906 5.195312 0.289062 4.746094 0.132812 C 4.746094 0.132812 4.21875 -0.160156 4.71875 -3.191406 C 4.90625 -4.21875 4.984375 -4.800781 4.484375 -5.011719 C 4.007812 -5.195312 3.71875 -4.800781 3.164062 -4.007812 C 2.714844 -3.375 2.109375 -2.53125 1.449219 -1.953125 C 1.371094 -1.898438 1.082031 -1.636719 0.949219 -1.742188 C 0.554688 -2.058594 0.476562 -3.769531 1.398438 -5.351562 C 1.554688 -5.589844 1.449219 -5.90625 1.214844 -6.066406 C 0.976562 -6.195312 0.660156 -6.117188 0.527344 -5.878906 C -0.527344 -4.035156 -0.632812 -1.742188 0.289062 -0.976562 C 0.527344 -0.765625 1.1875 -0.394531 2.109375 -1.160156 C 2.714844 -1.6875 3.242188 -2.375 3.664062 -2.953125 C 3.296875 -0.5 3.507812 0.738281 4.378906 1.082031 C 4.507812 1.132812 4.640625 1.132812 4.746094 1.132812 C 6.75 1.132812 9.996094 -3.929688 10.652344 -4.984375 C 10.8125 -5.222656 10.734375 -5.539062 10.496094 -5.695312 Z M 10.496094 -5.695312 "/></g></g><g style="fill:rgb(11.759949%,10.198975%,13.328552%);fill-opacity:1;"><g transform="translate(55.600489, 42.772273)"><path style="stroke:none;" d="M 11.023438 -5.855469 C 10.785156 -5.960938 10.46875 -5.855469 10.363281 -5.617188 C 8.359375 -1.53125 6.855469 -0.238281 6.144531 -0.371094 C 5.855469 -0.421875 4.90625 -0.976562 4.667969 -5.589844 C 4.667969 -5.800781 4.507812 -5.984375 4.324219 -6.039062 C 4.113281 -6.089844 3.875 -6.039062 3.769531 -5.855469 C 3.613281 -5.667969 3.453125 -5.457031 3.296875 -5.222656 C 2.636719 -4.324219 1.765625 -3.113281 0.710938 -1.976562 C 0.554688 -1.792969 0.421875 -1.6875 0.34375 -1.636719 C 0.160156 -2.558594 1.132812 -6.089844 2.691406 -7.199219 C 3.136719 -7.515625 3.746094 -7.753906 4.5625 -6.804688 C 4.746094 -6.59375 5.0625 -6.566406 5.273438 -6.75 C 5.484375 -6.910156 5.511719 -7.25 5.351562 -7.460938 C 4.351562 -8.621094 3.402344 -8.597656 2.769531 -8.386719 C 0.738281 -7.671875 -0.632812 -3.769531 -0.6875 -1.976562 C -0.710938 -1.238281 -0.5 -0.765625 -0.078125 -0.605469 C 0.582031 -0.34375 1.238281 -1.054688 1.449219 -1.292969 C 2.347656 -2.269531 3.164062 -3.324219 3.746094 -4.140625 C 4.035156 -1.132812 4.746094 0.371094 5.933594 0.632812 C 6.039062 0.632812 6.144531 0.660156 6.25 0.660156 C 8.042969 0.660156 9.96875 -2.480469 11.261719 -5.167969 C 11.390625 -5.433594 11.285156 -5.722656 11.023438 -5.855469 Z M 11.023438 -5.855469 "/></g></g><g style="fill:rgb(11.759949%,10.198975%,13.328552%);fill-opacity:1;"><g transform="translate(65.409972, 42.772273)"><path style="stroke:none;" d="M 10.601562 -5.878906 C 10.363281 -6.011719 10.046875 -5.933594 9.914062 -5.667969 C 9.28125 -4.589844 7.621094 -1.660156 6.671875 -1.765625 C 6.488281 -1.792969 5.960938 -2.058594 5.433594 -3.902344 C 5.0625 -5.195312 4.5625 -6.40625 3.585938 -6.460938 C 2.875 -6.511719 2.082031 -5.960938 0.871094 -3.691406 C 1.1875 -4.824219 1.53125 -5.960938 1.792969 -6.882812 C 1.898438 -7.226562 1.976562 -7.515625 2.058594 -7.804688 C 2.136719 -8.070312 1.976562 -8.359375 1.714844 -8.4375 C 1.449219 -8.515625 1.160156 -8.359375 1.082031 -8.070312 C 1.003906 -7.804688 0.921875 -7.488281 0.816406 -7.171875 C 0.132812 -4.824219 -0.898438 -1.265625 -1.160156 0.898438 C -1.1875 1.132812 -1.027344 1.371094 -0.792969 1.425781 C -0.738281 1.449219 -0.710938 1.449219 -0.660156 1.449219 C -0.449219 1.449219 -0.265625 1.320312 -0.183594 1.132812 C 2.292969 -5.035156 3.296875 -5.457031 3.535156 -5.457031 C 3.585938 -5.457031 3.957031 -5.351562 4.457031 -3.613281 C 4.984375 -1.792969 5.667969 -0.871094 6.566406 -0.765625 C 7.910156 -0.605469 9.125 -2.269531 10.785156 -5.167969 C 10.945312 -5.433594 10.839844 -5.722656 10.601562 -5.878906 Z M 10.601562 -5.878906 "/></g></g><g style="fill:rgb(11.759949%,10.198975%,13.328552%);fill-opacity:1;"><g transform="translate(74.82391, 42.772273)"><path style="stroke:none;" d="M 7.699219 -5.984375 C 7.460938 -6.144531 7.171875 -6.066406 7.015625 -5.828125 C 5.246094 -2.980469 2.292969 -0.289062 1.398438 -0.660156 C 1.292969 -0.710938 0.449219 -1.214844 1.609375 -5.667969 C 1.660156 -5.960938 1.503906 -6.222656 1.238281 -6.300781 C 0.949219 -6.355469 0.6875 -6.195312 0.605469 -5.933594 C -0.34375 -2.214844 -0.210938 -0.238281 0.976562 0.265625 C 1.160156 0.34375 1.34375 0.371094 1.53125 0.371094 C 3.507812 0.371094 6.539062 -3.164062 7.882812 -5.300781 C 8.015625 -5.539062 7.9375 -5.855469 7.699219 -5.984375 Z M 1.476562 -8.121094 C 2.820312 -8.042969 2.796875 -9.730469 1.714844 -9.359375 C 1.160156 -9.203125 0.449219 -8.175781 1.476562 -8.121094 Z M 1.476562 -8.121094 "/></g></g><g style="fill:rgb(11.759949%,10.198975%,13.328552%);fill-opacity:1;"><g transform="translate(81.495412, 42.772273)"><path style="stroke:none;" d=""/></g></g><g style="fill:rgb(11.759949%,10.198975%,13.328552%);fill-opacity:1;"><g transform="translate(89.590873, 42.772273)"><path style="stroke:none;" d="M 12.894531 -5.800781 C 12.738281 -6.039062 12.421875 -6.089844 12.183594 -5.933594 C 9.914062 -4.457031 7.59375 -2.820312 5.378906 -0.765625 C 5.695312 -2.714844 6.011719 -4.800781 6.300781 -6.988281 C 6.355469 -7.226562 6.195312 -7.460938 5.960938 -7.542969 C 5.75 -7.621094 5.484375 -7.515625 5.378906 -7.304688 C 4.851562 -6.40625 3.691406 -4.5625 2.664062 -3.324219 C 2.292969 -2.875 1.925781 -2.636719 1.742188 -2.769531 C 1.292969 -3.03125 0.976562 -4.851562 2.003906 -7.355469 C 2.109375 -7.621094 1.976562 -7.910156 1.742188 -8.015625 C 1.476562 -8.121094 1.1875 -7.988281 1.082031 -7.726562 C 0 -5.089844 0.0546875 -2.585938 1.238281 -1.898438 C 1.53125 -1.6875 2.375 -1.398438 3.429688 -2.664062 C 3.980469 -3.324219 4.507812 -4.0625 4.984375 -4.773438 C 4.71875 -2.953125 4.457031 -1.214844 4.167969 0.449219 C 1.953125 2.714844 -0.132812 5.457031 -1.925781 8.9375 C -4.929688 14.714844 -5.484375 21.121094 -3.980469 22.96875 C -3.691406 23.335938 -3.324219 23.523438 -2.925781 23.523438 C -2.796875 23.523438 -2.691406 23.496094 -2.558594 23.46875 C -0.84375 22.96875 0.6875 19.171875 1.6875 16.058594 C 2.925781 12.183594 4.0625 7.121094 5.117188 0.921875 C 7.566406 -1.53125 10.179688 -3.429688 12.738281 -5.089844 C 12.972656 -5.246094 13.054688 -5.5625 12.894531 -5.800781 Z M 0.710938 15.742188 C -1.1875 21.753906 -2.558594 22.414062 -2.820312 22.492188 C -2.925781 22.519531 -3.03125 22.519531 -3.191406 22.335938 C -4.140625 21.175781 -4.21875 15.558594 -1.027344 9.386719 C 0.449219 6.566406 2.082031 4.246094 3.851562 2.269531 C 2.902344 7.726562 1.847656 12.234375 0.710938 15.742188 Z M 0.710938 15.742188 "/></g></g><g style="fill:rgb(11.759949%,10.198975%,13.328552%);fill-opacity:1;"><g transform="translate(101.272597, 42.772273)"><path style="stroke:none;" d="M 9.546875 -5.722656 C 9.308594 -5.90625 8.992188 -5.855469 8.832031 -5.644531 C 7.726562 -4.21875 5.90625 -3.03125 4.507812 -3.296875 C 4.535156 -3.480469 4.5625 -3.664062 4.5625 -3.851562 C 4.746094 -6.828125 3.824219 -7.4375 3.269531 -7.542969 C 2.636719 -7.671875 1.976562 -7.199219 1.660156 -6.40625 C 1.53125 -6.460938 1.371094 -6.460938 1.238281 -6.355469 C 0.183594 -5.695312 -0.6875 -4.007812 -0.210938 -2.1875 C 0.105469 -1.109375 0.84375 -0.421875 1.820312 -0.421875 C 2.742188 -0.421875 3.71875 -1.109375 4.21875 -2.320312 C 6.066406 -1.925781 8.28125 -3.296875 9.625 -5.011719 C 9.808594 -5.246094 9.757812 -5.5625 9.546875 -5.722656 Z M 1.847656 -1.425781 C 1.820312 -1.425781 1.820312 -1.425781 1.820312 -1.425781 C 1.160156 -1.449219 0.871094 -2.082031 0.792969 -2.453125 C 0.527344 -3.347656 0.738281 -4.589844 1.476562 -5.273438 C 1.53125 -4.378906 2.03125 -3.402344 3.296875 -2.714844 C 2.925781 -1.871094 2.292969 -1.425781 1.847656 -1.425781 Z M 3.558594 -3.902344 C 3.535156 -3.851562 3.535156 -3.796875 3.535156 -3.746094 C 2.53125 -4.402344 2.375 -5.246094 2.558594 -5.90625 C 2.691406 -6.328125 2.953125 -6.539062 3.085938 -6.539062 C 3.21875 -6.511719 3.664062 -6.011719 3.558594 -3.902344 Z M 3.558594 -3.902344 "/></g></g><g style="fill:rgb(11.759949%,10.198975%,13.328552%);fill-opacity:1;"><g transform="translate(109.710861, 42.772273)"><path style="stroke:none;" d="M 12.078125 -5.828125 C 11.917969 -6.066406 11.601562 -6.117188 11.390625 -5.984375 C 9.546875 -4.800781 7.171875 -3.242188 4.71875 -1.238281 C 4.984375 -3.058594 5.246094 -4.984375 5.511719 -7.039062 C 5.539062 -7.304688 5.378906 -7.515625 5.167969 -7.59375 C 4.929688 -7.671875 4.667969 -7.566406 4.5625 -7.355469 C 4.113281 -6.617188 2.875 -4.71875 1.847656 -3.347656 C 1.425781 -2.820312 1.1875 -2.609375 1.054688 -2.53125 C 0.792969 -3.375 1.609375 -7.144531 3.269531 -8.621094 C 3.929688 -9.230469 4.535156 -9.230469 5.195312 -8.648438 C 5.40625 -8.464844 5.722656 -8.464844 5.90625 -8.675781 C 6.089844 -8.886719 6.066406 -9.203125 5.878906 -9.386719 C 4.824219 -10.335938 3.875 -10.179688 3.269531 -9.863281 C 1.132812 -8.808594 -0.160156 -4.429688 0.0273438 -2.664062 C 0.078125 -1.871094 0.449219 -1.582031 0.738281 -1.503906 C 1.449219 -1.320312 2.136719 -2.058594 2.636719 -2.742188 C 3.164062 -3.429688 3.71875 -4.21875 4.21875 -4.929688 C 4.007812 -3.269531 3.769531 -1.714844 3.535156 -0.238281 C 0.710938 2.214844 -2.109375 5.300781 -4.246094 9.203125 C -5.855469 12.105469 -6.382812 14.554688 -6.539062 16.085938 C -6.75 18.089844 -6.460938 19.75 -5.722656 20.648438 C -5.328125 21.148438 -4.824219 21.414062 -4.273438 21.414062 C -4.113281 21.414062 -3.929688 21.386719 -3.746094 21.332031 C -1.214844 20.621094 2.109375 14.609375 4.457031 0.289062 C 7.199219 -2.058594 9.890625 -3.796875 11.917969 -5.117188 C 12.15625 -5.273438 12.234375 -5.589844 12.078125 -5.828125 Z M -4.007812 20.359375 C -4.378906 20.464844 -4.667969 20.359375 -4.929688 20.015625 C -5.933594 18.773438 -6.089844 14.636719 -3.375 9.703125 C -1.53125 6.355469 0.84375 3.613281 3.242188 1.371094 C 0.84375 15.1875 -2.320312 19.882812 -4.007812 20.359375 Z M -4.007812 20.359375 "/></g></g><g style="fill:rgb(11.759949%,10.198975%,13.328552%);fill-opacity:1;"><g transform="translate(120.575121, 42.772273)"><path style="stroke:none;" d="M 11.023438 -5.855469 C 10.785156 -5.960938 10.46875 -5.855469 10.363281 -5.617188 C 8.359375 -1.53125 6.855469 -0.238281 6.144531 -0.371094 C 5.855469 -0.421875 4.90625 -0.976562 4.667969 -5.589844 C 4.667969 -5.800781 4.507812 -5.984375 4.324219 -6.039062 C 4.113281 -6.089844 3.875 -6.039062 3.769531 -5.855469 C 3.613281 -5.667969 3.453125 -5.457031 3.296875 -5.222656 C 2.636719 -4.324219 1.765625 -3.113281 0.710938 -1.976562 C 0.554688 -1.792969 0.421875 -1.6875 0.34375 -1.636719 C 0.160156 -2.558594 1.132812 -6.089844 2.691406 -7.199219 C 3.136719 -7.515625 3.746094 -7.753906 4.5625 -6.804688 C 4.746094 -6.59375 5.0625 -6.566406 5.273438 -6.75 C 5.484375 -6.910156 5.511719 -7.25 5.351562 -7.460938 C 4.351562 -8.621094 3.402344 -8.597656 2.769531 -8.386719 C 0.738281 -7.671875 -0.632812 -3.769531 -0.6875 -1.976562 C -0.710938 -1.238281 -0.5 -0.765625 -0.078125 -0.605469 C 0.582031 -0.34375 1.238281 -1.054688 1.449219 -1.292969 C 2.347656 -2.269531 3.164062 -3.324219 3.746094 -4.140625 C 4.035156 -1.132812 4.746094 0.371094 5.933594 0.632812 C 6.039062 0.632812 6.144531 0.660156 6.25 0.660156 C 8.042969 0.660156 9.96875 -2.480469 11.261719 -5.167969 C 11.390625 -5.433594 11.285156 -5.722656 11.023438 -5.855469 Z M 11.023438 -5.855469 "/></g></g></g></svg>