<?xml version="1.0" encoding="UTF-8"?><svg xmlns="http://www.w3.org/2000/svg" xmlns:xlink="http://www.w3.org/1999/xlink" width="224.87999pt" zoomAndPan="magnify" viewBox="0 0 224.87999 74.999997" height="74.999997pt" preserveAspectRatio="xMidYMid meet" version="1.2"><defs><g/><clipPath xml:id="clip1" id="clip1"><path d="M 26 0.0195312 L 77 0.0195312 L 77 64 L 26 64 Z M 26 0.0195312 "/></clipPath><clipPath xml:id="clip2" id="clip2"><path d="M 123 26 L 152 26 L 152 74.980469 L 123 74.980469 Z M 123 26 "/></clipPath></defs><g xml:id="surface1" id="surface1"><g clip-rule="nonzero" clip-path="url(#clip1)"><g style="fill:rgb(11.759949%,10.198975%,13.328552%);fill-opacity:1;"><g transform="translate(32.145151, 38.754958)"><path style="stroke:none;" d="M 43.460938 -38.265625 C 43.023438 -38.265625 42.230469 -38.226562 35.210938 -30.535156 C 30.929688 -25.816406 25.617188 -19.628906 20.261719 -13.164062 C 19.230469 -11.9375 17.6875 -10.03125 15.863281 -7.773438 C 15.265625 -9.914062 14.632812 -12.015625 14.039062 -14.117188 C 9.320312 -30.535156 8.246094 -33.429688 6.78125 -33.507812 C 6.582031 -33.507812 6.027344 -33.46875 5.710938 -32.675781 C 5.550781 -32.277344 5.75 -31.84375 6.105469 -31.683594 C 6.34375 -31.605469 6.582031 -31.644531 6.78125 -31.722656 C 7.929688 -29.820312 10.390625 -21.292969 12.570312 -13.679688 C 13.285156 -11.261719 13.996094 -8.804688 14.710938 -6.304688 C 7.851562 2.261719 -2.023438 15.070312 -4.601562 21.097656 C -5.351562 22.917969 -5.433594 24.03125 -4.878906 24.703125 C -4.558594 25.0625 -4.164062 25.21875 -3.648438 25.21875 C -3.410156 25.21875 -3.132812 25.179688 -2.855469 25.101562 C -2.457031 25.023438 -2.21875 24.585938 -2.300781 24.1875 C -2.417969 23.792969 -2.816406 23.515625 -3.210938 23.632812 C -3.488281 23.714844 -3.648438 23.714844 -3.726562 23.671875 C -3.726562 23.554688 -3.765625 23.15625 -3.332031 22.085938 C -1.664062 17.84375 5.117188 8.128906 15.226562 -4.558594 C 15.265625 -4.480469 15.265625 -4.402344 15.304688 -4.324219 C 20.582031 13.363281 23.753906 15.980469 25.894531 16.335938 C 26.132812 16.378906 26.332031 16.378906 26.527344 16.378906 C 27.28125 16.378906 27.917969 16.140625 28.472656 15.703125 C 29.542969 14.832031 30.136719 13.125 30.296875 10.546875 C 30.296875 10.152344 29.976562 9.753906 29.582031 9.753906 C 29.144531 9.714844 28.789062 10.03125 28.75 10.46875 C 28.628906 13.085938 27.996094 14.117188 27.519531 14.511719 C 27.164062 14.789062 26.726562 14.910156 26.132812 14.832031 C 24.464844 14.554688 21.453125 10.945312 16.773438 -4.757812 C 16.65625 -5.15625 16.535156 -5.589844 16.417969 -5.988281 C 17.765625 -7.691406 19.191406 -9.4375 20.660156 -11.222656 C 32.398438 -25.535156 42.152344 -36.125 43.660156 -36.757812 C 44.015625 -36.839844 44.292969 -37.15625 44.292969 -37.550781 C 44.253906 -37.988281 43.898438 -38.304688 43.460938 -38.265625 Z M 43.460938 -38.265625 "/></g></g></g><g style="fill:rgb(11.759949%,10.198975%,13.328552%);fill-opacity:1;"><g transform="translate(66.082769, 38.754958)"><path style="stroke:none;" d="M 15.78125 -8.566406 C 15.425781 -8.761719 14.949219 -8.644531 14.75 -8.289062 C 10.984375 -2.261719 7.8125 0.4375 7.136719 0.199219 C 7.136719 0.199219 6.34375 -0.238281 7.097656 -4.796875 C 7.375 -6.34375 7.496094 -7.21875 6.742188 -7.535156 C 6.027344 -7.8125 5.589844 -7.21875 4.757812 -6.027344 C 4.085938 -5.074219 3.171875 -3.808594 2.179688 -2.933594 C 2.0625 -2.855469 1.625 -2.457031 1.425781 -2.617188 C 0.832031 -3.09375 0.714844 -5.671875 2.101562 -8.050781 C 2.339844 -8.40625 2.179688 -8.882812 1.824219 -9.121094 C 1.46875 -9.320312 0.992188 -9.199219 0.792969 -8.84375 C -0.792969 -6.066406 -0.953125 -2.617188 0.4375 -1.46875 C 0.792969 -1.148438 1.785156 -0.59375 3.171875 -1.746094 C 4.085938 -2.539062 4.878906 -3.570312 5.511719 -4.441406 C 4.957031 -0.753906 5.273438 1.109375 6.582031 1.625 C 6.78125 1.707031 6.980469 1.707031 7.136719 1.707031 C 10.152344 1.707031 15.027344 -5.910156 16.019531 -7.496094 C 16.257812 -7.851562 16.140625 -8.328125 15.78125 -8.566406 Z M 15.78125 -8.566406 "/></g></g><g style="fill:rgb(11.759949%,10.198975%,13.328552%);fill-opacity:1;"><g transform="translate(80.276304, 38.754958)"><path style="stroke:none;" d="M 16.574219 -8.804688 C 16.21875 -8.960938 15.742188 -8.804688 15.582031 -8.445312 C 12.570312 -2.300781 10.308594 -0.355469 9.238281 -0.554688 C 8.804688 -0.632812 7.375 -1.46875 7.019531 -8.40625 C 7.019531 -8.722656 6.78125 -9 6.503906 -9.082031 C 6.1875 -9.160156 5.828125 -9.082031 5.671875 -8.804688 C 5.433594 -8.527344 5.195312 -8.207031 4.957031 -7.851562 C 3.964844 -6.503906 2.65625 -4.679688 1.070312 -2.972656 C 0.832031 -2.695312 0.632812 -2.539062 0.515625 -2.457031 C 0.238281 -3.847656 1.707031 -9.160156 4.042969 -10.824219 C 4.71875 -11.300781 5.628906 -11.660156 6.859375 -10.230469 C 7.136719 -9.914062 7.613281 -9.875 7.929688 -10.152344 C 8.246094 -10.390625 8.289062 -10.90625 8.050781 -11.222656 C 6.542969 -12.96875 5.117188 -12.925781 4.164062 -12.609375 C 1.109375 -11.539062 -0.953125 -5.671875 -1.03125 -2.972656 C -1.070312 -1.863281 -0.753906 -1.148438 -0.117188 -0.910156 C 0.871094 -0.515625 1.863281 -1.585938 2.179688 -1.941406 C 3.527344 -3.410156 4.757812 -4.996094 5.628906 -6.226562 C 6.066406 -1.707031 7.136719 0.554688 8.921875 0.953125 C 9.082031 0.953125 9.238281 0.992188 9.398438 0.992188 C 12.09375 0.992188 14.988281 -3.726562 16.933594 -7.773438 C 17.128906 -8.167969 16.972656 -8.605469 16.574219 -8.804688 Z M 16.574219 -8.804688 "/></g></g><g style="fill:rgb(11.759949%,10.198975%,13.328552%);fill-opacity:1;"><g transform="translate(95.024891, 38.754958)"><path style="stroke:none;" d="M 15.941406 -8.84375 C 15.582031 -9.042969 15.109375 -8.921875 14.910156 -8.527344 C 13.957031 -6.898438 11.460938 -2.5 10.03125 -2.65625 C 9.753906 -2.695312 8.960938 -3.09375 8.167969 -5.867188 C 7.613281 -7.8125 6.859375 -9.636719 5.394531 -9.714844 C 4.324219 -9.792969 3.132812 -8.960938 1.308594 -5.550781 C 1.785156 -7.257812 2.300781 -8.960938 2.695312 -10.351562 C 2.855469 -10.863281 2.972656 -11.300781 3.09375 -11.738281 C 3.210938 -12.132812 2.972656 -12.570312 2.578125 -12.6875 C 2.179688 -12.808594 1.746094 -12.570312 1.625 -12.132812 C 1.507812 -11.738281 1.386719 -11.261719 1.230469 -10.785156 C 0.199219 -7.257812 -1.347656 -1.902344 -1.746094 1.347656 C -1.785156 1.707031 -1.546875 2.0625 -1.191406 2.140625 C -1.109375 2.179688 -1.070312 2.179688 -0.992188 2.179688 C -0.675781 2.179688 -0.398438 1.984375 -0.277344 1.707031 C 3.449219 -7.574219 4.957031 -8.207031 5.3125 -8.207031 C 5.394531 -8.207031 5.949219 -8.050781 6.703125 -5.433594 C 7.496094 -2.695312 8.527344 -1.308594 9.875 -1.148438 C 11.894531 -0.910156 13.71875 -3.410156 16.21875 -7.773438 C 16.457031 -8.167969 16.296875 -8.605469 15.941406 -8.84375 Z M 15.941406 -8.84375 "/></g></g><g style="fill:rgb(11.759949%,10.198975%,13.328552%);fill-opacity:1;"><g transform="translate(109.178783, 38.754958)"><path style="stroke:none;" d="M 11.578125 -9 C 11.222656 -9.238281 10.785156 -9.121094 10.546875 -8.761719 C 7.890625 -4.480469 3.449219 -0.4375 2.101562 -0.992188 C 1.941406 -1.070312 0.675781 -1.824219 2.417969 -8.527344 C 2.5 -8.960938 2.261719 -9.359375 1.863281 -9.476562 C 1.425781 -9.554688 1.03125 -9.320312 0.910156 -8.921875 C -0.515625 -3.332031 -0.316406 -0.355469 1.46875 0.398438 C 1.746094 0.515625 2.023438 0.554688 2.300781 0.554688 C 5.273438 0.554688 9.835938 -4.757812 11.855469 -7.96875 C 12.054688 -8.328125 11.9375 -8.804688 11.578125 -9 Z M 2.21875 -12.214844 C 4.242188 -12.09375 4.203125 -14.632812 2.578125 -14.078125 C 1.746094 -13.839844 0.675781 -12.292969 2.21875 -12.214844 Z M 2.21875 -12.214844 "/></g></g><g style="fill:rgb(11.759949%,10.198975%,13.328552%);fill-opacity:1;"><g transform="translate(119.209406, 38.754958)"><path style="stroke:none;" d=""/></g></g><g clip-rule="nonzero" clip-path="url(#clip2)"><g style="fill:rgb(11.759949%,10.198975%,13.328552%);fill-opacity:1;"><g transform="translate(131.380957, 38.754958)"><path style="stroke:none;" d="M 19.390625 -8.722656 C 19.152344 -9.082031 18.675781 -9.160156 18.320312 -8.921875 C 14.910156 -6.703125 11.421875 -4.242188 8.089844 -1.148438 C 8.566406 -4.085938 9.042969 -7.21875 9.476562 -10.507812 C 9.554688 -10.863281 9.320312 -11.222656 8.960938 -11.339844 C 8.644531 -11.460938 8.246094 -11.300781 8.089844 -10.984375 C 7.296875 -9.636719 5.550781 -6.859375 4.003906 -4.996094 C 3.449219 -4.324219 2.894531 -3.964844 2.617188 -4.164062 C 1.941406 -4.558594 1.46875 -7.296875 3.015625 -11.0625 C 3.171875 -11.460938 2.972656 -11.894531 2.617188 -12.054688 C 2.21875 -12.214844 1.785156 -12.015625 1.625 -11.617188 C 0 -7.652344 0.078125 -3.886719 1.863281 -2.855469 C 2.300781 -2.539062 3.570312 -2.101562 5.15625 -4.003906 C 5.988281 -4.996094 6.78125 -6.105469 7.496094 -7.175781 C 7.097656 -4.441406 6.703125 -1.824219 6.265625 0.675781 C 2.933594 4.085938 -0.199219 8.207031 -2.894531 13.441406 C -7.414062 22.125 -8.246094 31.761719 -5.988281 34.539062 C -5.550781 35.09375 -4.996094 35.371094 -4.402344 35.371094 C -4.203125 35.371094 -4.042969 35.332031 -3.847656 35.292969 C -1.269531 34.539062 1.03125 28.828125 2.539062 24.148438 C 4.402344 18.320312 6.105469 10.707031 7.691406 1.386719 C 11.378906 -2.300781 15.304688 -5.15625 19.152344 -7.652344 C 19.507812 -7.890625 19.628906 -8.367188 19.390625 -8.722656 Z M 1.070312 23.671875 C -1.785156 32.714844 -3.847656 33.707031 -4.242188 33.824219 C -4.402344 33.863281 -4.558594 33.863281 -4.796875 33.585938 C -6.226562 31.84375 -6.34375 23.394531 -1.546875 14.117188 C 0.675781 9.875 3.132812 6.382812 5.789062 3.410156 C 4.363281 11.617188 2.777344 18.398438 1.070312 23.671875 Z M 1.070312 23.671875 "/></g></g></g><g style="fill:rgb(11.759949%,10.198975%,13.328552%);fill-opacity:1;"><g transform="translate(148.944466, 38.754958)"><path style="stroke:none;" d="M 14.355469 -8.605469 C 13.996094 -8.882812 13.523438 -8.804688 13.285156 -8.484375 C 11.617188 -6.34375 8.882812 -4.558594 6.78125 -4.957031 C 6.820312 -5.234375 6.859375 -5.511719 6.859375 -5.789062 C 7.136719 -10.269531 5.75 -11.183594 4.917969 -11.339844 C 3.964844 -11.539062 2.972656 -10.824219 2.5 -9.636719 C 2.300781 -9.714844 2.0625 -9.714844 1.863281 -9.554688 C 0.277344 -8.566406 -1.03125 -6.027344 -0.316406 -3.292969 C 0.160156 -1.664062 1.269531 -0.632812 2.734375 -0.632812 C 4.125 -0.632812 5.589844 -1.664062 6.34375 -3.488281 C 9.121094 -2.894531 12.453125 -4.957031 14.472656 -7.535156 C 14.75 -7.890625 14.671875 -8.367188 14.355469 -8.605469 Z M 2.777344 -2.140625 C 2.734375 -2.140625 2.734375 -2.140625 2.734375 -2.140625 C 1.746094 -2.179688 1.308594 -3.132812 1.191406 -3.6875 C 0.792969 -5.035156 1.109375 -6.898438 2.21875 -7.929688 C 2.300781 -6.582031 3.054688 -5.117188 4.957031 -4.085938 C 4.402344 -2.816406 3.449219 -2.140625 2.777344 -2.140625 Z M 5.351562 -5.867188 C 5.3125 -5.789062 5.3125 -5.710938 5.3125 -5.628906 C 3.808594 -6.621094 3.570312 -7.890625 3.847656 -8.882812 C 4.042969 -9.515625 4.441406 -9.835938 4.640625 -9.835938 C 4.835938 -9.792969 5.511719 -9.042969 5.351562 -5.867188 Z M 5.351562 -5.867188 "/></g></g><g style="fill:rgb(11.759949%,10.198975%,13.328552%);fill-opacity:1;"><g transform="translate(161.631425, 38.754958)"><path style="stroke:none;" d="M 18.160156 -8.761719 C 17.921875 -9.121094 17.449219 -9.199219 17.128906 -9 C 14.355469 -7.21875 10.785156 -4.878906 7.097656 -1.863281 C 7.496094 -4.601562 7.890625 -7.496094 8.289062 -10.585938 C 8.328125 -10.984375 8.089844 -11.300781 7.773438 -11.421875 C 7.414062 -11.539062 7.019531 -11.378906 6.859375 -11.0625 C 6.1875 -9.953125 4.324219 -7.097656 2.777344 -5.035156 C 2.140625 -4.242188 1.785156 -3.925781 1.585938 -3.808594 C 1.191406 -5.074219 2.417969 -10.746094 4.917969 -12.96875 C 5.910156 -13.878906 6.820312 -13.878906 7.8125 -13.007812 C 8.128906 -12.730469 8.605469 -12.730469 8.882812 -13.046875 C 9.160156 -13.363281 9.121094 -13.839844 8.84375 -14.117188 C 7.257812 -15.542969 5.828125 -15.304688 4.917969 -14.832031 C 1.707031 -13.246094 -0.238281 -6.660156 0.0390625 -4.003906 C 0.117188 -2.816406 0.675781 -2.378906 1.109375 -2.261719 C 2.179688 -1.984375 3.210938 -3.09375 3.964844 -4.125 C 4.757812 -5.15625 5.589844 -6.34375 6.34375 -7.414062 C 6.027344 -4.917969 5.671875 -2.578125 5.3125 -0.355469 C 1.070312 3.332031 -3.171875 7.96875 -6.382812 13.839844 C -8.804688 18.199219 -9.597656 21.890625 -9.835938 24.1875 C -10.152344 27.203125 -9.714844 29.699219 -8.605469 31.050781 C -8.011719 31.800781 -7.257812 32.199219 -6.425781 32.199219 C -6.1875 32.199219 -5.910156 32.160156 -5.628906 32.078125 C -1.824219 31.007812 3.171875 21.96875 6.703125 0.4375 C 10.824219 -3.09375 14.871094 -5.710938 17.921875 -7.691406 C 18.28125 -7.929688 18.398438 -8.40625 18.160156 -8.761719 Z M -6.027344 30.613281 C -6.582031 30.769531 -7.019531 30.613281 -7.414062 30.097656 C -8.921875 28.234375 -9.160156 22.007812 -5.074219 14.59375 C -2.300781 9.554688 1.269531 5.433594 4.878906 2.0625 C 1.269531 22.839844 -3.488281 29.898438 -6.027344 30.613281 Z M -6.027344 30.613281 "/></g></g><g style="fill:rgb(11.759949%,10.198975%,13.328552%);fill-opacity:1;"><g transform="translate(177.965889, 38.754958)"><path style="stroke:none;" d="M 16.574219 -8.804688 C 16.21875 -8.960938 15.742188 -8.804688 15.582031 -8.445312 C 12.570312 -2.300781 10.308594 -0.355469 9.238281 -0.554688 C 8.804688 -0.632812 7.375 -1.46875 7.019531 -8.40625 C 7.019531 -8.722656 6.78125 -9 6.503906 -9.082031 C 6.1875 -9.160156 5.828125 -9.082031 5.671875 -8.804688 C 5.433594 -8.527344 5.195312 -8.207031 4.957031 -7.851562 C 3.964844 -6.503906 2.65625 -4.679688 1.070312 -2.972656 C 0.832031 -2.695312 0.632812 -2.539062 0.515625 -2.457031 C 0.238281 -3.847656 1.707031 -9.160156 4.042969 -10.824219 C 4.71875 -11.300781 5.628906 -11.660156 6.859375 -10.230469 C 7.136719 -9.914062 7.613281 -9.875 7.929688 -10.152344 C 8.246094 -10.390625 8.289062 -10.90625 8.050781 -11.222656 C 6.542969 -12.96875 5.117188 -12.925781 4.164062 -12.609375 C 1.109375 -11.539062 -0.953125 -5.671875 -1.03125 -2.972656 C -1.070312 -1.863281 -0.753906 -1.148438 -0.117188 -0.910156 C 0.871094 -0.515625 1.863281 -1.585938 2.179688 -1.941406 C 3.527344 -3.410156 4.757812 -4.996094 5.628906 -6.226562 C 6.066406 -1.707031 7.136719 0.554688 8.921875 0.953125 C 9.082031 0.953125 9.238281 0.992188 9.398438 0.992188 C 12.09375 0.992188 14.988281 -3.726562 16.933594 -7.773438 C 17.128906 -8.167969 16.972656 -8.605469 16.574219 -8.804688 Z M 16.574219 -8.804688 "/></g></g></g></svg>