<?xml version="1.0" encoding="UTF-8"?><svg xmlns="http://www.w3.org/2000/svg" xmlns:xlink="http://www.w3.org/1999/xlink" width="150pt" zoomAndPan="magnify" viewBox="0 0 150 44.999999" height="44.999999pt" preserveAspectRatio="xMidYMid meet" version="1.2"><defs><g/></defs><g xml:id="surface1" id="surface1"><g style="fill:rgb(11.759949%,10.198975%,13.328552%);fill-opacity:1;"><g transform="translate(24.551847, 23.425075)"><path style="stroke:none;" d="M 26.066406 -22.949219 C 25.804688 -22.949219 25.328125 -22.925781 21.121094 -18.3125 C 18.550781 -15.484375 15.363281 -11.773438 12.152344 -7.894531 C 11.535156 -7.160156 10.605469 -6.015625 9.511719 -4.660156 C 9.15625 -5.945312 8.777344 -7.207031 8.417969 -8.464844 C 5.589844 -18.3125 4.945312 -20.050781 4.066406 -20.097656 C 3.949219 -20.097656 3.613281 -20.074219 3.425781 -19.597656 C 3.328125 -19.359375 3.449219 -19.097656 3.664062 -19.003906 C 3.804688 -18.957031 3.949219 -18.980469 4.066406 -19.027344 C 4.757812 -17.886719 6.230469 -12.773438 7.539062 -8.207031 C 7.96875 -6.753906 8.394531 -5.28125 8.824219 -3.78125 C 4.710938 1.355469 -1.214844 9.039062 -2.757812 12.652344 C -3.210938 13.746094 -3.257812 14.414062 -2.925781 14.816406 C -2.734375 15.03125 -2.496094 15.125 -2.1875 15.125 C -2.046875 15.125 -1.878906 15.101562 -1.710938 15.054688 C -1.472656 15.007812 -1.332031 14.746094 -1.378906 14.507812 C -1.449219 14.269531 -1.6875 14.101562 -1.925781 14.175781 C -2.09375 14.222656 -2.1875 14.222656 -2.234375 14.199219 C -2.234375 14.128906 -2.257812 13.890625 -1.996094 13.246094 C -1 10.703125 3.066406 4.875 9.132812 -2.734375 C 9.15625 -2.6875 9.15625 -2.640625 9.179688 -2.59375 C 12.34375 8.015625 14.246094 9.585938 15.53125 9.796875 C 15.671875 9.824219 15.792969 9.824219 15.910156 9.824219 C 16.363281 9.824219 16.742188 9.679688 17.078125 9.417969 C 17.71875 8.894531 18.074219 7.871094 18.171875 6.328125 C 18.171875 6.089844 17.980469 5.851562 17.742188 5.851562 C 17.480469 5.828125 17.265625 6.015625 17.242188 6.277344 C 17.171875 7.847656 16.789062 8.464844 16.503906 8.703125 C 16.292969 8.871094 16.03125 8.941406 15.671875 8.894531 C 14.675781 8.726562 12.867188 6.5625 10.058594 -2.855469 C 9.988281 -3.09375 9.917969 -3.351562 9.847656 -3.589844 C 10.65625 -4.613281 11.511719 -5.660156 12.390625 -6.730469 C 19.429688 -15.316406 25.28125 -21.667969 26.183594 -22.046875 C 26.398438 -22.09375 26.566406 -22.285156 26.566406 -22.523438 C 26.542969 -22.785156 26.328125 -22.972656 26.066406 -22.949219 Z M 26.066406 -22.949219 "/></g></g><g style="fill:rgb(11.759949%,10.198975%,13.328552%);fill-opacity:1;"><g transform="translate(44.909996, 23.425075)"><path style="stroke:none;" d="M 9.464844 -5.136719 C 9.25 -5.257812 8.964844 -5.183594 8.847656 -4.96875 C 6.589844 -1.355469 4.683594 0.261719 4.28125 0.117188 C 4.28125 0.117188 3.804688 -0.144531 4.257812 -2.878906 C 4.421875 -3.804688 4.496094 -4.328125 4.042969 -4.519531 C 3.613281 -4.683594 3.351562 -4.328125 2.855469 -3.613281 C 2.449219 -3.042969 1.902344 -2.28125 1.308594 -1.761719 C 1.238281 -1.710938 0.976562 -1.472656 0.855469 -1.570312 C 0.5 -1.855469 0.429688 -3.402344 1.261719 -4.828125 C 1.402344 -5.042969 1.308594 -5.328125 1.09375 -5.46875 C 0.878906 -5.589844 0.59375 -5.519531 0.476562 -5.304688 C -0.476562 -3.640625 -0.570312 -1.570312 0.261719 -0.878906 C 0.476562 -0.691406 1.070312 -0.355469 1.902344 -1.046875 C 2.449219 -1.523438 2.925781 -2.140625 3.304688 -2.664062 C 2.972656 -0.453125 3.164062 0.664062 3.949219 0.976562 C 4.066406 1.023438 4.1875 1.023438 4.28125 1.023438 C 6.089844 1.023438 9.015625 -3.542969 9.609375 -4.496094 C 9.75 -4.710938 9.679688 -4.996094 9.464844 -5.136719 Z M 9.464844 -5.136719 "/></g></g><g style="fill:rgb(11.759949%,10.198975%,13.328552%);fill-opacity:1;"><g transform="translate(53.424268, 23.425075)"><path style="stroke:none;" d="M 9.941406 -5.28125 C 9.726562 -5.375 9.441406 -5.28125 9.347656 -5.066406 C 7.539062 -1.378906 6.183594 -0.214844 5.542969 -0.332031 C 5.28125 -0.378906 4.421875 -0.878906 4.210938 -5.042969 C 4.210938 -5.230469 4.066406 -5.398438 3.902344 -5.445312 C 3.710938 -5.492188 3.496094 -5.445312 3.402344 -5.28125 C 3.257812 -5.113281 3.117188 -4.921875 2.972656 -4.710938 C 2.378906 -3.902344 1.59375 -2.804688 0.640625 -1.785156 C 0.5 -1.617188 0.378906 -1.523438 0.308594 -1.472656 C 0.144531 -2.308594 1.023438 -5.492188 2.425781 -6.492188 C 2.832031 -6.777344 3.378906 -6.992188 4.113281 -6.136719 C 4.28125 -5.945312 4.566406 -5.921875 4.757812 -6.089844 C 4.945312 -6.230469 4.96875 -6.539062 4.828125 -6.730469 C 3.925781 -7.777344 3.066406 -7.753906 2.496094 -7.5625 C 0.664062 -6.921875 -0.570312 -3.402344 -0.617188 -1.785156 C -0.640625 -1.117188 -0.453125 -0.691406 -0.0703125 -0.546875 C 0.523438 -0.308594 1.117188 -0.953125 1.308594 -1.164062 C 2.117188 -2.046875 2.855469 -2.996094 3.378906 -3.734375 C 3.640625 -1.023438 4.28125 0.332031 5.351562 0.570312 C 5.445312 0.570312 5.542969 0.59375 5.636719 0.59375 C 7.253906 0.59375 8.988281 -2.234375 10.15625 -4.660156 C 10.273438 -4.898438 10.179688 -5.160156 9.941406 -5.28125 Z M 9.941406 -5.28125 "/></g></g><g style="fill:rgb(11.759949%,10.198975%,13.328552%);fill-opacity:1;"><g transform="translate(62.271502, 23.425075)"><path style="stroke:none;" d="M 9.5625 -5.304688 C 9.347656 -5.421875 9.0625 -5.351562 8.941406 -5.113281 C 8.371094 -4.136719 6.875 -1.5 6.015625 -1.59375 C 5.851562 -1.617188 5.375 -1.855469 4.898438 -3.519531 C 4.566406 -4.683594 4.113281 -5.777344 3.234375 -5.828125 C 2.59375 -5.875 1.878906 -5.375 0.785156 -3.328125 C 1.070312 -4.351562 1.378906 -5.375 1.617188 -6.207031 C 1.710938 -6.515625 1.785156 -6.777344 1.855469 -7.039062 C 1.925781 -7.277344 1.785156 -7.539062 1.546875 -7.609375 C 1.308594 -7.683594 1.046875 -7.539062 0.976562 -7.277344 C 0.902344 -7.039062 0.832031 -6.753906 0.738281 -6.46875 C 0.117188 -4.351562 -0.808594 -1.140625 -1.046875 0.808594 C -1.070312 1.023438 -0.925781 1.238281 -0.714844 1.285156 C -0.664062 1.308594 -0.640625 1.308594 -0.59375 1.308594 C -0.40625 1.308594 -0.238281 1.1875 -0.167969 1.023438 C 2.070312 -4.542969 2.972656 -4.921875 3.1875 -4.921875 C 3.234375 -4.921875 3.566406 -4.828125 4.019531 -3.257812 C 4.496094 -1.617188 5.113281 -0.785156 5.921875 -0.691406 C 7.136719 -0.546875 8.230469 -2.046875 9.726562 -4.660156 C 9.871094 -4.898438 9.773438 -5.160156 9.5625 -5.304688 Z M 9.5625 -5.304688 "/></g></g><g style="fill:rgb(11.759949%,10.198975%,13.328552%);fill-opacity:1;"><g transform="translate(70.76199, 23.425075)"><path style="stroke:none;" d="M 6.945312 -5.398438 C 6.730469 -5.542969 6.46875 -5.46875 6.328125 -5.257812 C 4.734375 -2.6875 2.070312 -0.261719 1.261719 -0.59375 C 1.164062 -0.640625 0.40625 -1.09375 1.449219 -5.113281 C 1.5 -5.375 1.355469 -5.613281 1.117188 -5.683594 C 0.855469 -5.730469 0.617188 -5.589844 0.546875 -5.351562 C -0.308594 -1.996094 -0.191406 -0.214844 0.878906 0.238281 C 1.046875 0.308594 1.214844 0.332031 1.378906 0.332031 C 3.164062 0.332031 5.898438 -2.855469 7.109375 -4.78125 C 7.230469 -4.996094 7.160156 -5.28125 6.945312 -5.398438 Z M 1.332031 -7.324219 C 2.542969 -7.253906 2.519531 -8.777344 1.546875 -8.441406 C 1.046875 -8.300781 0.40625 -7.371094 1.332031 -7.324219 Z M 1.332031 -7.324219 "/></g></g><g style="fill:rgb(11.759949%,10.198975%,13.328552%);fill-opacity:1;"><g transform="translate(76.779058, 23.425075)"><path style="stroke:none;" d=""/></g></g><g style="fill:rgb(11.759949%,10.198975%,13.328552%);fill-opacity:1;"><g transform="translate(84.080405, 23.425075)"><path style="stroke:none;" d="M 11.628906 -5.230469 C 11.488281 -5.445312 11.203125 -5.492188 10.988281 -5.351562 C 8.941406 -4.019531 6.847656 -2.542969 4.851562 -0.691406 C 5.136719 -2.449219 5.421875 -4.328125 5.683594 -6.300781 C 5.730469 -6.515625 5.589844 -6.730469 5.375 -6.800781 C 5.183594 -6.875 4.945312 -6.777344 4.851562 -6.589844 C 4.375 -5.777344 3.328125 -4.113281 2.402344 -2.996094 C 2.070312 -2.59375 1.734375 -2.378906 1.570312 -2.496094 C 1.164062 -2.734375 0.878906 -4.375 1.808594 -6.636719 C 1.902344 -6.875 1.785156 -7.136719 1.570312 -7.230469 C 1.332031 -7.324219 1.070312 -7.207031 0.976562 -6.96875 C 0 -4.589844 0.046875 -2.332031 1.117188 -1.710938 C 1.378906 -1.523438 2.140625 -1.261719 3.09375 -2.402344 C 3.589844 -2.996094 4.066406 -3.664062 4.496094 -4.304688 C 4.257812 -2.664062 4.019531 -1.09375 3.757812 0.40625 C 1.761719 2.449219 -0.117188 4.921875 -1.734375 8.0625 C -4.449219 13.269531 -4.945312 19.050781 -3.589844 20.714844 C -3.328125 21.046875 -2.996094 21.214844 -2.640625 21.214844 C -2.519531 21.214844 -2.425781 21.191406 -2.308594 21.167969 C -0.761719 20.714844 0.617188 17.289062 1.523438 14.484375 C 2.640625 10.988281 3.664062 6.421875 4.613281 0.832031 C 6.824219 -1.378906 9.179688 -3.09375 11.488281 -4.589844 C 11.703125 -4.734375 11.773438 -5.019531 11.628906 -5.230469 Z M 0.640625 14.199219 C -1.070312 19.621094 -2.308594 20.214844 -2.542969 20.285156 C -2.640625 20.3125 -2.734375 20.3125 -2.878906 20.144531 C -3.734375 19.097656 -3.804688 14.03125 -0.925781 8.464844 C 0.40625 5.921875 1.878906 3.828125 3.472656 2.046875 C 2.617188 6.96875 1.664062 11.035156 0.640625 14.199219 Z M 0.640625 14.199219 "/></g></g><g style="fill:rgb(11.759949%,10.198975%,13.328552%);fill-opacity:1;"><g transform="translate(94.616223, 23.425075)"><path style="stroke:none;" d="M 8.609375 -5.160156 C 8.394531 -5.328125 8.109375 -5.28125 7.96875 -5.089844 C 6.96875 -3.804688 5.328125 -2.734375 4.066406 -2.972656 C 4.089844 -3.140625 4.113281 -3.304688 4.113281 -3.472656 C 4.28125 -6.160156 3.449219 -6.707031 2.949219 -6.800781 C 2.378906 -6.921875 1.785156 -6.492188 1.5 -5.777344 C 1.378906 -5.828125 1.238281 -5.828125 1.117188 -5.730469 C 0.167969 -5.136719 -0.617188 -3.613281 -0.191406 -1.972656 C 0.09375 -1 0.761719 -0.378906 1.640625 -0.378906 C 2.472656 -0.378906 3.351562 -1 3.804688 -2.09375 C 5.46875 -1.734375 7.46875 -2.972656 8.679688 -4.519531 C 8.847656 -4.734375 8.800781 -5.019531 8.609375 -5.160156 Z M 1.664062 -1.285156 C 1.640625 -1.285156 1.640625 -1.285156 1.640625 -1.285156 C 1.046875 -1.308594 0.785156 -1.878906 0.714844 -2.210938 C 0.476562 -3.019531 0.664062 -4.136719 1.332031 -4.757812 C 1.378906 -3.949219 1.832031 -3.066406 2.972656 -2.449219 C 2.640625 -1.6875 2.070312 -1.285156 1.664062 -1.285156 Z M 3.210938 -3.519531 C 3.1875 -3.472656 3.1875 -3.425781 3.1875 -3.378906 C 2.28125 -3.972656 2.140625 -4.734375 2.308594 -5.328125 C 2.425781 -5.707031 2.664062 -5.898438 2.78125 -5.898438 C 2.902344 -5.875 3.304688 -5.421875 3.210938 -3.519531 Z M 3.210938 -3.519531 "/></g></g><g style="fill:rgb(11.759949%,10.198975%,13.328552%);fill-opacity:1;"><g transform="translate(102.226745, 23.425075)"><path style="stroke:none;" d="M 10.894531 -5.257812 C 10.75 -5.46875 10.464844 -5.519531 10.273438 -5.398438 C 8.609375 -4.328125 6.46875 -2.925781 4.257812 -1.117188 C 4.496094 -2.757812 4.734375 -4.496094 4.96875 -6.351562 C 4.996094 -6.589844 4.851562 -6.777344 4.660156 -6.847656 C 4.449219 -6.921875 4.210938 -6.824219 4.113281 -6.636719 C 3.710938 -5.96875 2.59375 -4.257812 1.664062 -3.019531 C 1.285156 -2.542969 1.070312 -2.355469 0.953125 -2.28125 C 0.714844 -3.042969 1.449219 -6.445312 2.949219 -7.777344 C 3.542969 -8.324219 4.089844 -8.324219 4.683594 -7.800781 C 4.875 -7.632812 5.160156 -7.632812 5.328125 -7.824219 C 5.492188 -8.015625 5.46875 -8.300781 5.304688 -8.464844 C 4.351562 -9.324219 3.496094 -9.179688 2.949219 -8.894531 C 1.023438 -7.945312 -0.144531 -3.996094 0.0234375 -2.402344 C 0.0703125 -1.6875 0.40625 -1.425781 0.664062 -1.355469 C 1.308594 -1.1875 1.925781 -1.855469 2.378906 -2.472656 C 2.855469 -3.09375 3.351562 -3.804688 3.804688 -4.449219 C 3.613281 -2.949219 3.402344 -1.546875 3.1875 -0.214844 C 0.640625 1.996094 -1.902344 4.78125 -3.828125 8.300781 C -5.28125 10.917969 -5.753906 13.128906 -5.898438 14.507812 C -6.089844 16.316406 -5.828125 17.8125 -5.160156 18.621094 C -4.804688 19.074219 -4.351562 19.3125 -3.851562 19.3125 C -3.710938 19.3125 -3.542969 19.289062 -3.378906 19.242188 C -1.09375 18.597656 1.902344 13.175781 4.019531 0.261719 C 6.492188 -1.855469 8.917969 -3.425781 10.75 -4.613281 C 10.964844 -4.757812 11.035156 -5.042969 10.894531 -5.257812 Z M -3.613281 18.359375 C -3.949219 18.457031 -4.210938 18.359375 -4.449219 18.050781 C -5.351562 16.933594 -5.492188 13.199219 -3.042969 8.753906 C -1.378906 5.730469 0.761719 3.257812 2.925781 1.238281 C 0.761719 13.699219 -2.09375 17.933594 -3.613281 18.359375 Z M -3.613281 18.359375 "/></g></g><g style="fill:rgb(11.759949%,10.198975%,13.328552%);fill-opacity:1;"><g transform="translate(112.025288, 23.425075)"><path style="stroke:none;" d="M 9.941406 -5.28125 C 9.726562 -5.375 9.441406 -5.28125 9.347656 -5.066406 C 7.539062 -1.378906 6.183594 -0.214844 5.542969 -0.332031 C 5.28125 -0.378906 4.421875 -0.878906 4.210938 -5.042969 C 4.210938 -5.230469 4.066406 -5.398438 3.902344 -5.445312 C 3.710938 -5.492188 3.496094 -5.445312 3.402344 -5.28125 C 3.257812 -5.113281 3.117188 -4.921875 2.972656 -4.710938 C 2.378906 -3.902344 1.59375 -2.804688 0.640625 -1.785156 C 0.5 -1.617188 0.378906 -1.523438 0.308594 -1.472656 C 0.144531 -2.308594 1.023438 -5.492188 2.425781 -6.492188 C 2.832031 -6.777344 3.378906 -6.992188 4.113281 -6.136719 C 4.28125 -5.945312 4.566406 -5.921875 4.757812 -6.089844 C 4.945312 -6.230469 4.96875 -6.539062 4.828125 -6.730469 C 3.925781 -7.777344 3.066406 -7.753906 2.496094 -7.5625 C 0.664062 -6.921875 -0.570312 -3.402344 -0.617188 -1.785156 C -0.640625 -1.117188 -0.453125 -0.691406 -0.0703125 -0.546875 C 0.523438 -0.308594 1.117188 -0.953125 1.308594 -1.164062 C 2.117188 -2.046875 2.855469 -2.996094 3.378906 -3.734375 C 3.640625 -1.023438 4.28125 0.332031 5.351562 0.570312 C 5.445312 0.570312 5.542969 0.59375 5.636719 0.59375 C 7.253906 0.59375 8.988281 -2.234375 10.15625 -4.660156 C 10.273438 -4.898438 10.179688 -5.160156 9.941406 -5.28125 Z M 9.941406 -5.28125 "/></g></g></g></svg>