<?xml version="1.0" encoding="UTF-8"?><svg xmlns="http://www.w3.org/2000/svg" xmlns:xlink="http://www.w3.org/1999/xlink" width="60pt" zoomAndPan="magnify" viewBox="0 0 60 30.000001" height="30.000001pt" preserveAspectRatio="xMidYMid meet" version="1.2"><defs><g/></defs><g xml:id="surface1" id="surface1"><g style="fill:rgb(11.759949%,10.198975%,13.328552%);fill-opacity:1;"><g transform="translate(2.963938, 16.125683)"><path style="stroke:none;" d="M 14.761719 -13 C 14.617188 -13 14.347656 -12.984375 11.960938 -10.371094 C 10.507812 -8.769531 8.703125 -6.667969 6.882812 -4.472656 C 6.53125 -4.054688 6.007812 -3.40625 5.386719 -2.640625 C 5.1875 -3.367188 4.96875 -4.082031 4.769531 -4.796875 C 3.164062 -10.371094 2.800781 -11.355469 2.304688 -11.382812 C 2.234375 -11.382812 2.046875 -11.367188 1.941406 -11.097656 C 1.886719 -10.964844 1.953125 -10.816406 2.074219 -10.761719 C 2.15625 -10.734375 2.234375 -10.75 2.304688 -10.777344 C 2.695312 -10.128906 3.527344 -7.234375 4.269531 -4.648438 C 4.511719 -3.824219 4.753906 -2.992188 4.996094 -2.140625 C 2.667969 0.769531 -0.6875 5.117188 -1.5625 7.167969 C -1.820312 7.785156 -1.84375 8.164062 -1.65625 8.390625 C -1.550781 8.511719 -1.414062 8.566406 -1.238281 8.566406 C -1.160156 8.566406 -1.0625 8.554688 -0.96875 8.527344 C -0.835938 8.5 -0.753906 8.351562 -0.78125 8.21875 C -0.820312 8.082031 -0.957031 7.988281 -1.089844 8.027344 C -1.183594 8.054688 -1.238281 8.054688 -1.265625 8.042969 C -1.265625 8 -1.28125 7.867188 -1.132812 7.503906 C -0.566406 6.0625 1.738281 2.761719 5.171875 -1.550781 C 5.1875 -1.523438 5.1875 -1.496094 5.199219 -1.46875 C 6.992188 4.539062 8.070312 5.429688 8.796875 5.550781 C 8.878906 5.5625 8.945312 5.5625 9.011719 5.5625 C 9.269531 5.5625 9.484375 5.484375 9.671875 5.335938 C 10.035156 5.039062 10.238281 4.457031 10.292969 3.582031 C 10.292969 3.449219 10.183594 3.3125 10.050781 3.3125 C 9.902344 3.300781 9.78125 3.40625 9.765625 3.554688 C 9.726562 4.445312 9.511719 4.796875 9.347656 4.929688 C 9.226562 5.023438 9.078125 5.066406 8.878906 5.039062 C 8.3125 4.945312 7.289062 3.71875 5.699219 -1.617188 C 5.65625 -1.75 5.617188 -1.898438 5.578125 -2.035156 C 6.035156 -2.613281 6.519531 -3.207031 7.019531 -3.8125 C 11.003906 -8.675781 14.320312 -12.273438 14.832031 -12.488281 C 14.953125 -12.515625 15.046875 -12.621094 15.046875 -12.757812 C 15.03125 -12.90625 14.910156 -13.011719 14.761719 -13 Z M 14.761719 -13 "/></g></g><g style="fill:rgb(11.759949%,10.198975%,13.328552%);fill-opacity:1;"><g transform="translate(14.493231, 16.125683)"><path style="stroke:none;" d="M 5.359375 -2.910156 C 5.238281 -2.976562 5.078125 -2.9375 5.011719 -2.816406 C 3.730469 -0.769531 2.652344 0.148438 2.425781 0.0664062 C 2.425781 0.0664062 2.15625 -0.0820312 2.410156 -1.628906 C 2.503906 -2.15625 2.546875 -2.453125 2.289062 -2.558594 C 2.046875 -2.652344 1.898438 -2.453125 1.617188 -2.046875 C 1.386719 -1.722656 1.078125 -1.292969 0.742188 -0.996094 C 0.699219 -0.96875 0.550781 -0.835938 0.484375 -0.890625 C 0.28125 -1.050781 0.242188 -1.925781 0.714844 -2.734375 C 0.792969 -2.855469 0.742188 -3.015625 0.621094 -3.097656 C 0.5 -3.164062 0.335938 -3.125 0.269531 -3.003906 C -0.269531 -2.0625 -0.324219 -0.890625 0.148438 -0.5 C 0.269531 -0.390625 0.605469 -0.203125 1.078125 -0.59375 C 1.386719 -0.863281 1.65625 -1.210938 1.871094 -1.507812 C 1.683594 -0.257812 1.792969 0.378906 2.234375 0.550781 C 2.304688 0.578125 2.371094 0.578125 2.425781 0.578125 C 3.449219 0.578125 5.105469 -2.007812 5.441406 -2.546875 C 5.523438 -2.667969 5.484375 -2.828125 5.359375 -2.910156 Z M 5.359375 -2.910156 "/></g></g><g style="fill:rgb(11.759949%,10.198975%,13.328552%);fill-opacity:1;"><g transform="translate(19.315064, 16.125683)"><path style="stroke:none;" d="M 5.628906 -2.992188 C 5.507812 -3.042969 5.347656 -2.992188 5.292969 -2.871094 C 4.269531 -0.78125 3.503906 -0.121094 3.136719 -0.1875 C 2.992188 -0.214844 2.503906 -0.5 2.382812 -2.855469 C 2.382812 -2.964844 2.304688 -3.058594 2.210938 -3.085938 C 2.101562 -3.113281 1.980469 -3.085938 1.925781 -2.992188 C 1.84375 -2.894531 1.765625 -2.789062 1.683594 -2.667969 C 1.347656 -2.210938 0.902344 -1.589844 0.363281 -1.011719 C 0.28125 -0.914062 0.214844 -0.863281 0.175781 -0.835938 C 0.0820312 -1.304688 0.578125 -3.113281 1.375 -3.675781 C 1.601562 -3.839844 1.914062 -3.960938 2.332031 -3.476562 C 2.425781 -3.367188 2.585938 -3.355469 2.695312 -3.449219 C 2.800781 -3.527344 2.816406 -3.703125 2.734375 -3.8125 C 2.222656 -4.40625 1.738281 -4.390625 1.414062 -4.285156 C 0.378906 -3.917969 -0.324219 -1.925781 -0.351562 -1.011719 C -0.363281 -0.632812 -0.257812 -0.390625 -0.0390625 -0.308594 C 0.296875 -0.175781 0.632812 -0.539062 0.742188 -0.660156 C 1.199219 -1.160156 1.617188 -1.699219 1.914062 -2.113281 C 2.0625 -0.578125 2.425781 0.1875 3.03125 0.324219 C 3.085938 0.324219 3.136719 0.335938 3.191406 0.335938 C 4.109375 0.335938 5.09375 -1.265625 5.75 -2.640625 C 5.820312 -2.773438 5.765625 -2.921875 5.628906 -2.992188 Z M 5.628906 -2.992188 "/></g></g><g style="fill:rgb(11.759949%,10.198975%,13.328552%);fill-opacity:1;"><g transform="translate(24.325461, 16.125683)"><path style="stroke:none;" d="M 5.414062 -3.003906 C 5.292969 -3.070312 5.132812 -3.03125 5.066406 -2.894531 C 4.742188 -2.34375 3.894531 -0.847656 3.40625 -0.902344 C 3.3125 -0.914062 3.042969 -1.050781 2.773438 -1.992188 C 2.585938 -2.652344 2.332031 -3.273438 1.832031 -3.300781 C 1.46875 -3.328125 1.0625 -3.042969 0.445312 -1.886719 C 0.605469 -2.464844 0.78125 -3.042969 0.914062 -3.515625 C 0.96875 -3.691406 1.011719 -3.839844 1.050781 -3.988281 C 1.089844 -4.121094 1.011719 -4.269531 0.875 -4.308594 C 0.742188 -4.351562 0.59375 -4.269531 0.550781 -4.121094 C 0.511719 -3.988281 0.472656 -3.824219 0.417969 -3.664062 C 0.0664062 -2.464844 -0.457031 -0.648438 -0.59375 0.457031 C -0.605469 0.578125 -0.523438 0.699219 -0.402344 0.726562 C -0.378906 0.742188 -0.363281 0.742188 -0.335938 0.742188 C -0.230469 0.742188 -0.132812 0.671875 -0.09375 0.578125 C 1.171875 -2.574219 1.683594 -2.789062 1.804688 -2.789062 C 1.832031 -2.789062 2.019531 -2.734375 2.277344 -1.84375 C 2.546875 -0.914062 2.894531 -0.445312 3.355469 -0.390625 C 4.042969 -0.308594 4.660156 -1.160156 5.507812 -2.640625 C 5.589844 -2.773438 5.535156 -2.921875 5.414062 -3.003906 Z M 5.414062 -3.003906 "/></g></g><g style="fill:rgb(11.759949%,10.198975%,13.328552%);fill-opacity:1;"><g transform="translate(29.133823, 16.125683)"><path style="stroke:none;" d="M 3.933594 -3.058594 C 3.8125 -3.136719 3.664062 -3.097656 3.582031 -2.976562 C 2.679688 -1.523438 1.171875 -0.148438 0.714844 -0.335938 C 0.660156 -0.363281 0.230469 -0.621094 0.820312 -2.894531 C 0.847656 -3.042969 0.769531 -3.179688 0.632812 -3.21875 C 0.484375 -3.246094 0.351562 -3.164062 0.308594 -3.03125 C -0.175781 -1.132812 -0.109375 -0.121094 0.5 0.132812 C 0.59375 0.175781 0.6875 0.1875 0.78125 0.1875 C 1.792969 0.1875 3.339844 -1.617188 4.027344 -2.707031 C 4.09375 -2.828125 4.054688 -2.992188 3.933594 -3.058594 Z M 0.753906 -4.148438 C 1.441406 -4.109375 1.429688 -4.96875 0.875 -4.78125 C 0.59375 -4.699219 0.230469 -4.175781 0.753906 -4.148438 Z M 0.753906 -4.148438 "/></g></g><g style="fill:rgb(11.759949%,10.198975%,13.328552%);fill-opacity:1;"><g transform="translate(32.541433, 16.125683)"><path style="stroke:none;" d=""/></g></g><g style="fill:rgb(11.759949%,10.198975%,13.328552%);fill-opacity:1;"><g transform="translate(36.676355, 16.125683)"><path style="stroke:none;" d="M 6.585938 -2.964844 C 6.507812 -3.085938 6.34375 -3.113281 6.222656 -3.03125 C 5.066406 -2.277344 3.878906 -1.441406 2.746094 -0.390625 C 2.910156 -1.386719 3.070312 -2.453125 3.21875 -3.570312 C 3.246094 -3.691406 3.164062 -3.8125 3.042969 -3.851562 C 2.9375 -3.894531 2.800781 -3.839844 2.746094 -3.730469 C 2.480469 -3.273438 1.886719 -2.332031 1.359375 -1.699219 C 1.171875 -1.46875 0.984375 -1.347656 0.890625 -1.414062 C 0.660156 -1.550781 0.5 -2.480469 1.023438 -3.757812 C 1.078125 -3.894531 1.011719 -4.042969 0.890625 -4.09375 C 0.753906 -4.148438 0.605469 -4.082031 0.550781 -3.945312 C 0 -2.601562 0.0273438 -1.320312 0.632812 -0.96875 C 0.78125 -0.863281 1.210938 -0.714844 1.75 -1.359375 C 2.035156 -1.699219 2.304688 -2.074219 2.546875 -2.4375 C 2.410156 -1.507812 2.277344 -0.621094 2.128906 0.230469 C 0.996094 1.386719 -0.0664062 2.789062 -0.984375 4.566406 C -2.519531 7.515625 -2.800781 10.789062 -2.035156 11.734375 C -1.886719 11.921875 -1.699219 12.015625 -1.496094 12.015625 C -1.429688 12.015625 -1.375 12.003906 -1.304688 11.988281 C -0.429688 11.734375 0.351562 9.792969 0.863281 8.203125 C 1.496094 6.222656 2.074219 3.636719 2.613281 0.472656 C 3.867188 -0.78125 5.199219 -1.75 6.507812 -2.601562 C 6.628906 -2.679688 6.667969 -2.84375 6.585938 -2.964844 Z M 0.363281 8.042969 C -0.605469 11.113281 -1.304688 11.449219 -1.441406 11.488281 C -1.496094 11.503906 -1.550781 11.503906 -1.628906 11.410156 C -2.113281 10.816406 -2.15625 7.949219 -0.523438 4.796875 C 0.230469 3.355469 1.0625 2.167969 1.964844 1.160156 C 1.480469 3.945312 0.941406 6.25 0.363281 8.042969 Z M 0.363281 8.042969 "/></g></g><g style="fill:rgb(11.759949%,10.198975%,13.328552%);fill-opacity:1;"><g transform="translate(42.643032, 16.125683)"><path style="stroke:none;" d="M 4.875 -2.921875 C 4.753906 -3.015625 4.59375 -2.992188 4.511719 -2.882812 C 3.945312 -2.15625 3.015625 -1.550781 2.304688 -1.683594 C 2.316406 -1.777344 2.332031 -1.871094 2.332031 -1.964844 C 2.425781 -3.488281 1.953125 -3.796875 1.671875 -3.851562 C 1.347656 -3.917969 1.011719 -3.675781 0.847656 -3.273438 C 0.78125 -3.300781 0.699219 -3.300781 0.632812 -3.246094 C 0.09375 -2.910156 -0.351562 -2.046875 -0.109375 -1.117188 C 0.0546875 -0.566406 0.429688 -0.214844 0.929688 -0.214844 C 1.402344 -0.214844 1.898438 -0.566406 2.15625 -1.183594 C 3.097656 -0.984375 4.230469 -1.683594 4.917969 -2.558594 C 5.011719 -2.679688 4.984375 -2.84375 4.875 -2.921875 Z M 0.941406 -0.726562 C 0.929688 -0.726562 0.929688 -0.726562 0.929688 -0.726562 C 0.59375 -0.742188 0.445312 -1.0625 0.402344 -1.253906 C 0.269531 -1.710938 0.378906 -2.34375 0.753906 -2.695312 C 0.78125 -2.234375 1.039062 -1.738281 1.683594 -1.386719 C 1.496094 -0.957031 1.171875 -0.726562 0.941406 -0.726562 Z M 1.820312 -1.992188 C 1.804688 -1.964844 1.804688 -1.941406 1.804688 -1.914062 C 1.292969 -2.25 1.210938 -2.679688 1.304688 -3.015625 C 1.375 -3.234375 1.507812 -3.339844 1.574219 -3.339844 C 1.644531 -3.328125 1.871094 -3.070312 1.820312 -1.992188 Z M 1.820312 -1.992188 "/></g></g><g style="fill:rgb(11.759949%,10.198975%,13.328552%);fill-opacity:1;"><g transform="translate(46.953048, 16.125683)"><path style="stroke:none;" d="M 6.167969 -2.976562 C 6.089844 -3.097656 5.925781 -3.125 5.820312 -3.058594 C 4.875 -2.453125 3.664062 -1.65625 2.410156 -0.632812 C 2.546875 -1.5625 2.679688 -2.546875 2.816406 -3.597656 C 2.828125 -3.730469 2.746094 -3.839844 2.640625 -3.878906 C 2.519531 -3.917969 2.382812 -3.867188 2.332031 -3.757812 C 2.101562 -3.382812 1.46875 -2.410156 0.941406 -1.710938 C 0.726562 -1.441406 0.605469 -1.332031 0.539062 -1.292969 C 0.402344 -1.722656 0.820312 -3.652344 1.671875 -4.40625 C 2.007812 -4.714844 2.316406 -4.714844 2.652344 -4.417969 C 2.761719 -4.324219 2.921875 -4.324219 3.015625 -4.433594 C 3.113281 -4.539062 3.097656 -4.699219 3.003906 -4.796875 C 2.464844 -5.28125 1.980469 -5.199219 1.671875 -5.039062 C 0.578125 -4.5 -0.0820312 -2.261719 0.0117188 -1.359375 C 0.0390625 -0.957031 0.230469 -0.808594 0.378906 -0.769531 C 0.742188 -0.671875 1.089844 -1.050781 1.347656 -1.402344 C 1.617188 -1.75 1.898438 -2.15625 2.15625 -2.519531 C 2.046875 -1.671875 1.925781 -0.875 1.804688 -0.121094 C 0.363281 1.132812 -1.078125 2.707031 -2.167969 4.699219 C -2.992188 6.183594 -3.261719 7.4375 -3.339844 8.21875 C -3.449219 9.242188 -3.300781 10.089844 -2.921875 10.546875 C -2.722656 10.804688 -2.464844 10.9375 -2.183594 10.9375 C -2.101562 10.9375 -2.007812 10.925781 -1.914062 10.898438 C -0.621094 10.535156 1.078125 7.460938 2.277344 0.148438 C 3.675781 -1.050781 5.050781 -1.941406 6.089844 -2.613281 C 6.210938 -2.695312 6.25 -2.855469 6.167969 -2.976562 Z M -2.046875 10.398438 C -2.234375 10.453125 -2.382812 10.398438 -2.519531 10.222656 C -3.03125 9.589844 -3.113281 7.476562 -1.722656 4.957031 C -0.78125 3.246094 0.429688 1.84375 1.65625 0.699219 C 0.429688 7.757812 -1.183594 10.15625 -2.046875 10.398438 Z M -2.046875 10.398438 "/></g></g><g style="fill:rgb(11.759949%,10.198975%,13.328552%);fill-opacity:1;"><g transform="translate(52.502194, 16.125683)"><path style="stroke:none;" d="M 5.628906 -2.992188 C 5.507812 -3.042969 5.347656 -2.992188 5.292969 -2.871094 C 4.269531 -0.78125 3.503906 -0.121094 3.136719 -0.1875 C 2.992188 -0.214844 2.503906 -0.5 2.382812 -2.855469 C 2.382812 -2.964844 2.304688 -3.058594 2.210938 -3.085938 C 2.101562 -3.113281 1.980469 -3.085938 1.925781 -2.992188 C 1.84375 -2.894531 1.765625 -2.789062 1.683594 -2.667969 C 1.347656 -2.210938 0.902344 -1.589844 0.363281 -1.011719 C 0.28125 -0.914062 0.214844 -0.863281 0.175781 -0.835938 C 0.0820312 -1.304688 0.578125 -3.113281 1.375 -3.675781 C 1.601562 -3.839844 1.914062 -3.960938 2.332031 -3.476562 C 2.425781 -3.367188 2.585938 -3.355469 2.695312 -3.449219 C 2.800781 -3.527344 2.816406 -3.703125 2.734375 -3.8125 C 2.222656 -4.40625 1.738281 -4.390625 1.414062 -4.285156 C 0.378906 -3.917969 -0.324219 -1.925781 -0.351562 -1.011719 C -0.363281 -0.632812 -0.257812 -0.390625 -0.0390625 -0.308594 C 0.296875 -0.175781 0.632812 -0.539062 0.742188 -0.660156 C 1.199219 -1.160156 1.617188 -1.699219 1.914062 -2.113281 C 2.0625 -0.578125 2.425781 0.1875 3.03125 0.324219 C 3.085938 0.324219 3.136719 0.335938 3.191406 0.335938 C 4.109375 0.335938 5.09375 -1.265625 5.75 -2.640625 C 5.820312 -2.773438 5.765625 -2.921875 5.628906 -2.992188 Z M 5.628906 -2.992188 "/></g></g></g></svg>