<svg id="Layer_1" data-name="Layer 1" xmlns="http://www.w3.org/2000/svg" viewBox="0 0 68.34 80"><defs><style>.cls-1{fill:#2b2729;}</style></defs><title>7</title><g id="圖層_1" data-name="圖層 1"><path class="cls-1" d="M38.86,5.92A12.57,12.57,0,0,0,35,7.15a10.41,10.41,0,0,0-1.62,1A7.67,7.67,0,0,0,32,9.5a6.94,6.94,0,0,0-1.47,3.27,10.92,10.92,0,0,0-.13,1.89c0,.64.05,1.3.09,2a8.64,8.64,0,0,1-.86-1.88,7.22,7.22,0,0,1-.34-2.06,6,6,0,0,1,.35-2.14,6.68,6.68,0,0,1,1.08-1.93,3.81,3.81,0,0,1,.37-.43l.39-.4.43-.36c.15-.13.31-.23.46-.34a8.41,8.41,0,0,1,2-1,8.31,8.31,0,0,1,2.22-.42A6.83,6.83,0,0,1,38.86,5.92Z" transform="translate(-5.83 0)"/><path class="cls-1" d="M42.73,5.9a4.82,4.82,0,0,1,.93,0c.15,0,.31,0,.46,0l.47.1c.15,0,.3.09.45.13l.23.08.21.09.43.2a4.36,4.36,0,0,1,.42.23l.39.27a2.69,2.69,0,0,1,.37.3l.35.32.32.35a6,6,0,0,1,1,1.6,5.78,5.78,0,0,1,.21,3.58,8,8,0,0,1-1.58,3.08c.12-1.13.32-2.2.35-3.24,0-.26,0-.51,0-.77s0-.24,0-.37l0-.19a1.13,1.13,0,0,0,0-.18l-.06-.36-.09-.36a2,2,0,0,0-.1-.35,2,2,0,0,0-.13-.34l-.13-.34c-.06-.11-.12-.22-.17-.33a3.37,3.37,0,0,0-.19-.32,2.11,2.11,0,0,0-.21-.31,7.31,7.31,0,0,0-1-1.16l-.29-.26c-.1-.09-.21-.16-.32-.25A1,1,0,0,0,44.78,7l-.16-.11a4,4,0,0,0-.34-.23A12.54,12.54,0,0,0,42.73,5.9Z" transform="translate(-5.83 0)"/><path class="cls-1" d="M42.63,5.75a2.51,2.51,0,0,0,1-1.44,2.26,2.26,0,0,0,0-.82,2.41,2.41,0,0,0-.28-.76,2.9,2.9,0,0,0-1.18-1.12,3.19,3.19,0,0,0-.78-.29,3.34,3.34,0,0,0-.84-.11,3.7,3.7,0,0,0-1.61.34,5.83,5.83,0,0,0-1.34.81,3.25,3.25,0,0,0-.92,1.2,3.85,3.85,0,0,0-.26,1.68l-.15,0a2.7,2.7,0,0,1-.69-1.92,3.29,3.29,0,0,1,.86-2,4.13,4.13,0,0,1,2-1.16A5.79,5.79,0,0,1,40.65.05,5.07,5.07,0,0,1,41.74.3a4.68,4.68,0,0,1,1,.5,3.78,3.78,0,0,1,1.33,1.64,2.76,2.76,0,0,1,0,2,2.55,2.55,0,0,1-.55.84,3.15,3.15,0,0,1-.81.58Z" transform="translate(-5.83 0)"/><path class="cls-1" d="M41.78,11.86a2.46,2.46,0,0,1-1,1.19,5.89,5.89,0,0,1-1.46.68,14.85,14.85,0,0,1-1.49.4l-.72.17-.33.09-.17,0-.17.06a21.26,21.26,0,0,0-2.72.93,6,6,0,0,0-1.19.66,3,3,0,0,0-.91,1.05A2.06,2.06,0,0,1,32,15.66a4.42,4.42,0,0,1,1.15-1.13A9.88,9.88,0,0,1,36,13.23l.19-.05.21,0,.4-.09c.27,0,.52-.1.78-.13l1.48-.18a10.94,10.94,0,0,0,1.41-.25A3.68,3.68,0,0,0,41.78,11.86Z" transform="translate(-5.83 0)"/><path class="cls-1" d="M42.23,12.24a4.14,4.14,0,0,1,.84.28c.26.11.5.23.75.36a6.11,6.11,0,0,1,1.34,1,3.78,3.78,0,0,1,1,1.43A1.91,1.91,0,0,1,46,17a5.48,5.48,0,0,0-.88-1.22c-.32-.34-.67-.66-1-1a12.32,12.32,0,0,1-1.06-1.11A5,5,0,0,1,42.6,13,4.35,4.35,0,0,1,42.23,12.24Z" transform="translate(-5.83 0)"/><path class="cls-1" d="M32.24,17.75c.22.71.44,1.36.7,2a13,13,0,0,0,.92,1.78A13.33,13.33,0,0,0,35,23.15c.44.54.93,1,1.47,1.59a5,5,0,0,1-2.17-.93,6.15,6.15,0,0,1-1.58-1.72A5.59,5.59,0,0,1,32,20,4.15,4.15,0,0,1,32.24,17.75Z" transform="translate(-5.83 0)"/><path class="cls-1" d="M47,16.4a4,4,0,0,1,.22,2.69,7.6,7.6,0,0,1-1.14,2.49c-.13.2-.26.37-.4.56s-.28.35-.43.52a9.16,9.16,0,0,1-1,1,6.09,6.09,0,0,1-1.19.81,3.65,3.65,0,0,1-1.38.43,8.62,8.62,0,0,0,1.82-1.85c.26-.34.5-.68.75-1l.37-.52L45,21a17.21,17.21,0,0,0,1.27-2.14A7.68,7.68,0,0,0,47,16.4Z" transform="translate(-5.83 0)"/><path class="cls-1" d="M47,18.16a.49.49,0,0,1,.23-.35,1,1,0,0,1,.45-.16,1.22,1.22,0,0,1,1,.35,1.36,1.36,0,0,1,.37.92,1.78,1.78,0,0,1-.24.89,2.23,2.23,0,0,1-1.38,1,1.87,1.87,0,0,1-1.61-.24A4,4,0,0,0,47,20a2.55,2.55,0,0,0,.68-.75,1.61,1.61,0,0,0,.16-.39.83.83,0,0,0,0-.35.45.45,0,0,0-.24-.3A.64.64,0,0,0,47,18.16Z" transform="translate(-5.83 0)"/><path class="cls-1" d="M31.87,18.51c0-.07-.1-.07-.15-.06l-.09,0-.09,0a1.15,1.15,0,0,0-.29.2,1.13,1.13,0,0,0-.34.78v.12s0,.08,0,.12a1.67,1.67,0,0,0,.21.52,4.5,4.5,0,0,0,.92,1,5.13,5.13,0,0,0,.6.44,2.2,2.2,0,0,0,.78.27,1.45,1.45,0,0,1-.93.29,2.74,2.74,0,0,1-1-.22,3.36,3.36,0,0,1-.84-.49,2.9,2.9,0,0,1-.66-.74,2.13,2.13,0,0,1-.31-1,2.62,2.62,0,0,1,0-.28,2.13,2.13,0,0,1,.07-.27,1.19,1.19,0,0,1,.11-.26,1.14,1.14,0,0,1,.15-.23,1.63,1.63,0,0,1,.9-.6,1.28,1.28,0,0,1,.55,0l.12,0,.07,0,.06,0a.28.28,0,0,1,.09.1A.11.11,0,0,1,31.87,18.51Z" transform="translate(-5.83 0)"/><path class="cls-1" d="M39.44,17.23a1.56,1.56,0,0,1,.46.93,1.92,1.92,0,0,1-.13,1c-.13.32-.27.54-.33.73a.58.58,0,0,0,0,.32.47.47,0,0,0,.21.36.59.59,0,0,1-.6-.13.94.94,0,0,1-.32-.55,1.43,1.43,0,0,1,0-.58,2.69,2.69,0,0,1,.16-.45,7.71,7.71,0,0,0,.27-.77Z" transform="translate(-5.83 0)"/><path class="cls-1" d="M39.75,21.79h-.16l-.23,0c-.1,0-.16.15-.21.23a.64.64,0,0,0,0,.43c.07.21.28.39.5.23a.81.81,0,0,0,.14-.12,1.46,1.46,0,0,0,.16-.19.44.44,0,0,0,0-.4.29.29,0,0,0-.24-.22Z" transform="translate(-5.83 0)"/><path class="cls-1" d="M37.11,18.58a.86.86,0,0,1-.42.63,1.4,1.4,0,0,1-.77.24,1.54,1.54,0,0,1-.79-.19.89.89,0,0,1-.44-.62,5.11,5.11,0,0,0,1.21.08c.18,0,.35,0,.54,0A4.93,4.93,0,0,0,37.11,18.58Z" transform="translate(-5.83 0)"/><path class="cls-1" d="M43.62,18.58a.86.86,0,0,1-.42.63,1.49,1.49,0,0,1-1.56,0,.87.87,0,0,1-.44-.62,4.91,4.91,0,0,0,.67.08h.54l.54,0A4.92,4.92,0,0,0,43.62,18.58Z" transform="translate(-5.83 0)"/><path class="cls-1" d="M36.36,26a2,2,0,0,1,0,1.3,3.37,3.37,0,0,1-.74,1.17,5.9,5.9,0,0,1-2.36,1.38c-.42.14-.83.26-1.25.36a10.93,10.93,0,0,1-1.27.24,10.07,10.07,0,0,1-2.63.08,14.81,14.81,0,0,1,2.27-1.18c.39-.17.78-.32,1.17-.47s.78-.28,1.16-.41a11.72,11.72,0,0,0,2.1-.86,4.82,4.82,0,0,0,.88-.66A3.35,3.35,0,0,0,36.36,26Z" transform="translate(-5.83 0)"/><path class="cls-1" d="M26.05,33.55a19.54,19.54,0,0,0-2.2,4.67c-.26.81-.49,1.63-.69,2.45s-.37,1.67-.52,2.51c-.31,1.67-.57,3.37-.89,5.07-.16.85-.34,1.7-.53,2.55s-.43,1.7-.7,2.54a21.13,21.13,0,0,1-2.25,4.88,17.32,17.32,0,0,1-1.66,2.17,18,18,0,0,1-2,1.93,19.27,19.27,0,0,1-4.73,2.92l-.32.14-.33.12c-.21.08-.44.17-.66.24-.43.14-.85.31-1.26.49a3,3,0,0,0-1,.75,1.77,1.77,0,0,0-.34.53,1.68,1.68,0,0,0-.12.63,1.78,1.78,0,0,1,.26-1.29,3.43,3.43,0,0,1,1-1q.6-.36,1.23-.66c.21-.09.41-.19.61-.3l.29-.16.29-.16a20.7,20.7,0,0,0,4.23-3.11,19,19,0,0,0,3.2-4,18.92,18.92,0,0,0,1.15-2.24A21.42,21.42,0,0,0,19,52.92c1-3.21,1.56-6.62,2.43-10,.22-.84.46-1.68.73-2.51a25.61,25.61,0,0,1,1-2.46A16.05,16.05,0,0,1,26.05,33.55Z" transform="translate(-5.83 0)"/><path class="cls-1" d="M28,42.82A18.88,18.88,0,0,1,27.64,48a24.34,24.34,0,0,1-1.54,5,23.82,23.82,0,0,1-2.57,4.59A20.4,20.4,0,0,1,20,61.44c.85-1.52,1.71-3,2.5-4.5s1.51-3,2.18-4.55,1.25-3.11,1.8-4.7S27.45,44.48,28,42.82Z" transform="translate(-5.83 0)"/><path class="cls-1" d="M8,68.07a4.92,4.92,0,0,0-.38,1c0,.15-.07.31-.1.48a2.26,2.26,0,0,0,0,.45.41.41,0,0,0,0,.16.23.23,0,0,0,.07.07.38.38,0,0,0,.21.07,1.09,1.09,0,0,0,.36,0,3.2,3.2,0,0,0,.42-.1,6,6,0,0,0,1.68-.9c.27-.19.56-.4.84-.62s.57-.42.84-.64c1.13-.85,2.24-1.71,3.36-2.57s2.25-1.75,3.46-2.58a18.41,18.41,0,0,1-2.59,3.4,26.22,26.22,0,0,1-3.24,2.89l-.89.64a10.86,10.86,0,0,1-.94.61,7.46,7.46,0,0,1-1,.55,4.94,4.94,0,0,1-1.21.34,2.77,2.77,0,0,1-1.4-.1,1.58,1.58,0,0,1-.36-.2,1.1,1.1,0,0,1-.29-.32,1,1,0,0,1-.13-.41,1.06,1.06,0,0,1,0-.35,2.52,2.52,0,0,1,.21-.54,2.74,2.74,0,0,1,.29-.49A3,3,0,0,1,8,68.07Z" transform="translate(-5.83 0)"/><path class="cls-1" d="M54,33.55A16.09,16.09,0,0,1,56.88,38a25.53,25.53,0,0,1,1,2.46c.28.83.52,1.67.74,2.51.86,3.37,1.38,6.77,2.42,10a22.39,22.39,0,0,0,.89,2.36A18.72,18.72,0,0,0,63,57.51a20.14,20.14,0,0,0,7.43,7.08l.29.16.3.16c.2.1.4.21.6.3a12,12,0,0,1,1.23.66,3.31,3.31,0,0,1,1,1,1.72,1.72,0,0,1,.26,1.28A1.67,1.67,0,0,0,74,67.5a1.77,1.77,0,0,0-.34-.53,3,3,0,0,0-1-.75c-.41-.18-.83-.35-1.25-.49l-.66-.24-.33-.13-.32-.13a19.58,19.58,0,0,1-4.73-2.92,18,18,0,0,1-2-1.93,16.71,16.71,0,0,1-1.66-2.18,20.87,20.87,0,0,1-2.25-4.87c-.26-.84-.5-1.69-.7-2.54s-.37-1.7-.52-2.54c-.31-1.7-.58-3.4-.89-5.07-.16-.84-.33-1.68-.52-2.5s-.42-1.65-.69-2.46A19.54,19.54,0,0,0,54,33.55Z" transform="translate(-5.83 0)"/><path class="cls-1" d="M52.05,42.82c.5,1.65,1,3.27,1.52,4.86s1.14,3.16,1.8,4.7,1.39,3.06,2.18,4.55,1.64,3,2.5,4.51a20.5,20.5,0,0,1-3.58-3.93,25.18,25.18,0,0,1-2.57-4.58,24.2,24.2,0,0,1-1.53-5A18.86,18.86,0,0,1,52.05,42.82Z" transform="translate(-5.83 0)"/><path class="cls-1" d="M72,68.07a3.25,3.25,0,0,1,.78.79,3.4,3.4,0,0,1,.29.48,2.83,2.83,0,0,1,.21.55,1,1,0,0,1,0,.35,1,1,0,0,1-.13.41,1.1,1.1,0,0,1-.29.32,2.64,2.64,0,0,1-.37.2,2.73,2.73,0,0,1-1.39.1,5.12,5.12,0,0,1-1.22-.33,8.68,8.68,0,0,1-1-.54c-.33-.2-.63-.41-.93-.61s-.6-.43-.89-.65a25.44,25.44,0,0,1-3.24-2.88,18.6,18.6,0,0,1-2.6-3.42c1.21.84,2.33,1.72,3.46,2.58S66.9,67.15,68,68c.28.21.56.43.84.63s.56.43.84.62a6.07,6.07,0,0,0,1.68.91l.42.1h.36a.57.57,0,0,0,.22-.07.27.27,0,0,0,.07-.08.4.4,0,0,0,0-.15,1.75,1.75,0,0,0,0-.46,4,4,0,0,0-.09-.48A4.79,4.79,0,0,0,72,68.07Z" transform="translate(-5.83 0)"/><path class="cls-1" d="M30.5,33.93A12.28,12.28,0,0,1,31,39.79c-.08.49-.17,1-.24,1.43a8.3,8.3,0,0,0-.11,1.32,8,8,0,0,0,.65,2.58c.08.24.16.47.23.72s.14.49.2.74A12.55,12.55,0,0,1,32,48.07a16.49,16.49,0,0,1,0,3A25.75,25.75,0,0,1,30.9,56.8c-.07-1.94,0-3.87-.08-5.76a22,22,0,0,0-.29-2.79c0-.22-.09-.45-.13-.68s-.11-.44-.16-.67-.13-.44-.19-.66-.15-.44-.23-.67c-.15-.45-.32-.93-.45-1.43a5.49,5.49,0,0,1-.18-1.61A6.76,6.76,0,0,1,29.43,41c.11-.49.26-.95.38-1.41A20.66,20.66,0,0,0,30.5,33.93Z" transform="translate(-5.83 0)"/><path class="cls-1" d="M49.07,33.93a20.66,20.66,0,0,0,.69,5.64c.12.46.26.92.38,1.41a8.07,8.07,0,0,1,.24,1.55,6.26,6.26,0,0,1-.18,1.61c-.13.5-.3,1-.46,1.43-.07.23-.15.45-.22.67s-.13.44-.19.66-.12.45-.16.67-.1.46-.14.68A24,24,0,0,0,48.74,51c-.09,1.89,0,3.81-.07,5.76a25.75,25.75,0,0,1-1.17-5.75,15.62,15.62,0,0,1,0-3,15,15,0,0,1,.26-1.49c.06-.25.13-.49.2-.74s.15-.48.23-.72a8.5,8.5,0,0,0,.65-2.58,8.3,8.3,0,0,0-.11-1.32c-.08-.46-.17-.94-.24-1.43A12.28,12.28,0,0,1,49.07,33.93Z" transform="translate(-5.83 0)"/><path class="cls-1" d="M32.82,31.72a20.52,20.52,0,0,0,.94,1.94,3.93,3.93,0,0,0,1.31,1.44,4.27,4.27,0,0,0,.87.39,6.9,6.9,0,0,0,1,.23,7.2,7.2,0,0,0,1,.12,9.2,9.2,0,0,0,1.05,0A8.61,8.61,0,0,0,43,34.64a9.52,9.52,0,0,0,3.06-3,6.21,6.21,0,0,1-2.31,3.87,7.41,7.41,0,0,1-2.13,1.23,7.57,7.57,0,0,1-1.21.35,7.78,7.78,0,0,1-1.26.17,8.52,8.52,0,0,1-2.52-.22,8.4,8.4,0,0,1-1.2-.39A4,4,0,0,1,34.28,36a3.58,3.58,0,0,1-.81-1A4.7,4.7,0,0,1,33,33.94,7.58,7.58,0,0,1,32.82,31.72Z" transform="translate(-5.83 0)"/><path class="cls-1" d="M47,57.32a8.85,8.85,0,0,1-3.36,2.5A11.32,11.32,0,0,1,35,60a9,9,0,0,1-3.51-2.33A22.87,22.87,0,0,0,35.36,59a16.46,16.46,0,0,0,7.8-.2A21.78,21.78,0,0,0,47,57.32Z" transform="translate(-5.83 0)"/><path class="cls-1" d="M30.11,59.55c-.77.34-1.55.64-2.36.91s-1.53.51-2.3.75l-2.31.71a25.32,25.32,0,0,1-2.46.63,7.13,7.13,0,0,1,1.92-1.66,10.92,10.92,0,0,1,4.9-1.56A7.9,7.9,0,0,1,30.11,59.55Z" transform="translate(-5.83 0)"/><path class="cls-1" d="M7.48,73.76a4.25,4.25,0,0,0,.18.86c0,.14.09.27.14.4s.13.26.2.39a5.13,5.13,0,0,0,1.08,1.33,6.86,6.86,0,0,0,3.09,1.52,14.79,14.79,0,0,0,3.58.34l.92,0c.31,0,.62,0,.92,0l.93-.06.92-.09a58.75,58.75,0,0,0,7.35-1.25c2.44-.54,4.87-1.2,7.35-1.77a45.67,45.67,0,0,1-7,2.88,36.88,36.88,0,0,1-7.52,1.6l-1,.08-1,0c-.33,0-.65,0-1,0h-1a16.55,16.55,0,0,1-2-.18,11,11,0,0,1-2-.45A8.63,8.63,0,0,1,10,78.51a6.53,6.53,0,0,1-1.47-1.3,4.86,4.86,0,0,1-.91-1.65A3.66,3.66,0,0,1,7.48,73.76Z" transform="translate(-5.83 0)"/><path class="cls-1" d="M49.26,59.46a15.37,15.37,0,0,1,3.18.06,24.54,24.54,0,0,1,3.08.56,23,23,0,0,1,2.95,1c.24.1.48.19.72.3s.49.24.73.37a3.24,3.24,0,0,1,.66.51,1.81,1.81,0,0,1,.42.67,3.43,3.43,0,0,0-1.39-.51c-.24,0-.48-.08-.74-.12l-.76-.12c-1-.17-2-.39-3-.64s-2-.53-3-.86A20.67,20.67,0,0,1,49.26,59.46Z" transform="translate(-5.83 0)"/><path class="cls-1" d="M58.08,72.11c-2.49,0-4.94,0-7.38.07s-4.87.23-7.28.47l-1.86.17a18,18,0,0,1-1.94,0c-.33,0-.66,0-1-.1s-.64-.11-1-.18c-.63-.14-1.23-.32-1.82-.51a30.93,30.93,0,0,0-3.46-1,10.44,10.44,0,0,0-1.77-.21,6,6,0,0,0-1.8.21,4,4,0,0,1,.84-.39,5.9,5.9,0,0,1,.92-.23,8.14,8.14,0,0,1,1.91-.1,14.8,14.8,0,0,1,1.89.25c.62.12,1.22.26,1.82.39a15.14,15.14,0,0,0,3.46.5,14.81,14.81,0,0,0,1.76-.08l1.82-.2A47.77,47.77,0,0,1,50.71,71,38.92,38.92,0,0,1,58.08,72.11Z" transform="translate(-5.83 0)"/><path class="cls-1" d="M25.63,71.42a1.72,1.72,0,0,0,.57.81,2.94,2.94,0,0,0,.84.49A8.16,8.16,0,0,0,28,73c.34.08.67.14,1,.21,1.42.29,2.82.56,4.22.83l4.22.79c1.41.26,2.84.52,4.29.86a16.46,16.46,0,0,1-2.21.27c-.74,0-1.48,0-2.22,0a28.8,28.8,0,0,1-8.64-1.68,8,8,0,0,1-1.05-.43,5.51,5.51,0,0,1-1-.59,3.14,3.14,0,0,1-.78-.85A1.64,1.64,0,0,1,25.63,71.42Z" transform="translate(-5.83 0)"/><path class="cls-1" d="M67.05,71.42a2.63,2.63,0,0,1,.91.47,2.81,2.81,0,0,1,.64.78,2.92,2.92,0,0,1,.34,2,4,4,0,0,1-1,1.86,6,6,0,0,1-1.72,1.3,9.42,9.42,0,0,1-2,.72,18.12,18.12,0,0,1-2.06.36,40,40,0,0,1-4.09.31H56c-.35,0-.69,0-1,0l-1-.07a34.19,34.19,0,0,1-4.06-.57,33.17,33.17,0,0,1-3.95-1l-1-.34L44.53,77l-.47-.2c-.3-.13-.63-.25-.92-.39L42.23,76c.66.14,1.31.31,2,.44l.49.11.49.09,1,.2c1.31.25,2.62.43,3.94.58.66.08,1.32.14,2,.2s1.32.1,2,.12l.49,0h.5c.33,0,.66,0,1,0h1l1,0q.51,0,1,0c.33,0,.67,0,1,0s.66,0,1-.06l1-.08a13.35,13.35,0,0,0,3.72-.73,5.6,5.6,0,0,0,1.5-.92,3.46,3.46,0,0,0,1-1.39,2.58,2.58,0,0,0,0-1.67,2.51,2.51,0,0,0-.42-.79A2.29,2.29,0,0,0,67.05,71.42Z" transform="translate(-5.83 0)"/><path class="cls-1" d="M42.16,25.6l.58.71a3.8,3.8,0,0,0,.62.58,2,2,0,0,0,.68.33,7.39,7.39,0,0,0,.82.14c.29,0,.61.06.93.12s.65.1,1,.17a13.68,13.68,0,0,1,1.89.56l.45.18.45.2c.29.15.59.28.87.46A9.27,9.27,0,0,1,52,30.18l.35.32c.12.11.22.23.33.35s.21.24.31.37a2.66,2.66,0,0,1,.28.38l.26.38c.08.13.14.28.21.41a6.36,6.36,0,0,1,.33.86c-.47-.42-.91-.83-1.39-1.19-.11-.09-.24-.17-.36-.26a2.9,2.9,0,0,0-.36-.25l-.37-.25-.38-.23-.38-.22a3.41,3.41,0,0,0-.38-.21l-.39-.2-.39-.19c-.53-.25-1.07-.48-1.63-.69l-.42-.16-.42-.14L46.35,29l-.87-.25-.91-.25a5.56,5.56,0,0,1-1-.39,2.83,2.83,0,0,1-.45-.32,2.19,2.19,0,0,1-.36-.39,2.94,2.94,0,0,1-.43-.87A5.66,5.66,0,0,1,42.16,25.6Z" transform="translate(-5.83 0)"/><path class="cls-1" d="M50.5,68.26a3.14,3.14,0,0,0-1.43,0,6.13,6.13,0,0,0-1.27.43,23.14,23.14,0,0,1-2.71,1.28,7.35,7.35,0,0,1-.84.19,5.93,5.93,0,0,1-.84.06c-.54,0-1,0-1.5-.07l-.34,0h-.34a5,5,0,0,0-.66.08,2.33,2.33,0,0,0-1.23.62,1.43,1.43,0,0,1,.29-.71,2.33,2.33,0,0,1,.61-.56,3.6,3.6,0,0,1,.77-.36,2.77,2.77,0,0,1,.41-.12,2.83,2.83,0,0,1,.4-.08c.54-.1,1-.12,1.51-.17.22,0,.44-.06.65-.1a4.21,4.21,0,0,0,.61-.16c.21-.06.42-.14.63-.22l.67-.27a9.82,9.82,0,0,1,1.51-.48,4.74,4.74,0,0,1,1.68-.06A2.35,2.35,0,0,1,50.5,68.26Z" transform="translate(-5.83 0)"/></g></svg>