<svg xmlns="http://www.w3.org/2000/svg" xmlns:xlink="http://www.w3.org/1999/xlink" width="360" zoomAndPan="magnify" viewBox="0 0 270 60" height="80" preserveAspectRatio="xMidYMid meet" version="1.0"><defs><g><g id="id1"/></g></defs><g fill="rgb(0%, 0%, 0%)" fill-opacity="1"><g transform="translate(29.464078, 36.534795)"><g><path d="M 12.484375 -26 L 12.484375 -26.640625 L 1.109375 -26.640625 L 1.109375 -26 L 4.515625 -26 L 12.046875 -12.765625 L 4.484375 -0.640625 L 1.03125 -0.640625 L 1.03125 0 L 9.3125 0 L 9.3125 -0.640625 L 5.34375 -0.640625 L 12.484375 -12.015625 L 18.953125 -0.640625 L 15.734375 -0.640625 L 15.734375 0 L 26.359375 0 L 26.359375 -0.640625 L 23.3125 -0.640625 L 14.859375 -15.5 L 21.359375 -26 L 24.9375 -26 L 24.9375 -26.640625 L 16.609375 -26.640625 L 16.609375 -26 L 20.453125 -26 L 14.421875 -16.25 L 8.875 -26 Z M 12.484375 -26 "/></g></g></g><g fill="rgb(0%, 0%, 0%)" fill-opacity="1"><g transform="translate(56.620541, 36.534795)"><g><path d="M 11.53125 -26.640625 L 0.875 -26.640625 L 0.875 -26 L 4.28125 -26 L 4.28125 -6.625 C 4.28125 -5.21875 4.550781 -4.046875 5.09375 -3.109375 C 5.632812 -2.171875 6.332031 -1.410156 7.1875 -0.828125 C 8.050781 -0.242188 9.007812 0.160156 10.0625 0.390625 C 11.125 0.628906 12.171875 0.75 13.203125 0.75 C 15.710938 0.75 17.664062 0.132812 19.0625 -1.09375 C 20.46875 -2.320312 21.171875 -4.164062 21.171875 -6.625 L 21.171875 -26 L 24.578125 -26 L 24.578125 -26.640625 L 17.125 -26.640625 L 17.125 -26 L 20.53125 -26 L 20.53125 -6.625 C 20.53125 -5.5625 20.363281 -4.613281 20.03125 -3.78125 C 19.707031 -2.945312 19.253906 -2.242188 18.671875 -1.671875 C 18.085938 -1.109375 17.40625 -0.679688 16.625 -0.390625 C 15.84375 -0.0976562 15.003906 0.046875 14.109375 0.046875 C 12.265625 0.046875 10.804688 -0.523438 9.734375 -1.671875 C 8.660156 -2.828125 8.125 -4.476562 8.125 -6.625 L 8.125 -26 L 11.53125 -26 Z M 11.53125 -26.640625 "/></g></g></g><g fill="rgb(0%, 0%, 0%)" fill-opacity="1"><g transform="translate(81.913722, 36.534795)"><g><path d="M 0.875 -0.640625 L 0.875 0 L 9.671875 0 L 9.671875 -0.640625 L 5 -0.640625 L 7.484375 -8.28125 L 15.453125 -8.28125 L 18.03125 -0.640625 L 13.953125 -0.640625 L 13.953125 0 L 25.5625 0 L 25.5625 -0.640625 L 22.125 -0.640625 L 13.4375 -27 L 12.96875 -27 L 4.28125 -0.640625 Z M 11.453125 -20.25 L 15.265625 -8.921875 L 7.734375 -8.921875 Z M 11.453125 -20.25 "/></g></g></g><g fill="rgb(0%, 0%, 0%)" fill-opacity="1"><g transform="translate(108.118722, 36.534795)"><g><path d="M 1.0625 -0.640625 L 1.0625 0 L 8.515625 0 L 8.515625 -0.640625 L 5.109375 -0.640625 L 5.109375 -24.859375 L 20.453125 0.3125 L 21.796875 0.3125 L 21.796875 -26 L 25.21875 -26 L 25.21875 -26.640625 L 17.765625 -26.640625 L 17.765625 -26 L 21.171875 -26 L 21.171875 -6.546875 L 8.875 -26.640625 L 1.0625 -26.640625 L 1.0625 -26 L 4.484375 -26 L 4.484375 -0.640625 Z M 1.0625 -0.640625 "/></g></g></g><g fill="rgb(0%, 0%, 0%)" fill-opacity="1"><g transform="translate(134.165142, 36.534795)"><g><path d="M 12.328125 -26.640625 L 1.265625 -26.640625 L 1.265625 -26 L 4.4375 -26 L 12.125 -13.078125 L 12.125 -0.640625 L 8.328125 -0.640625 L 8.328125 0 L 19.78125 0 L 19.78125 -0.640625 L 15.96875 -0.640625 L 15.96875 -14.109375 L 22.515625 -26 L 25.734375 -26 L 25.734375 -26.640625 L 17.640625 -26.640625 L 17.640625 -26 L 21.484375 -26 L 15.34375 -14.828125 L 8.6875 -26 L 12.328125 -26 Z M 12.328125 -26.640625 "/></g></g></g><g fill="rgb(0%, 0%, 0%)" fill-opacity="1"><g transform="translate(160.409785, 36.534795)"><g><path d="M 13.875 0.75 C 15.5625 0.75 17.148438 0.363281 18.640625 -0.40625 C 20.140625 -1.1875 21.441406 -2.222656 22.546875 -3.515625 C 23.660156 -4.816406 24.539062 -6.304688 25.1875 -7.984375 C 25.832031 -9.660156 26.15625 -11.398438 26.15625 -13.203125 C 26.15625 -14.992188 25.832031 -16.726562 25.1875 -18.40625 C 24.539062 -20.09375 23.660156 -21.578125 22.546875 -22.859375 C 21.441406 -24.140625 20.140625 -25.160156 18.640625 -25.921875 C 17.148438 -26.691406 15.5625 -27.078125 13.875 -27.078125 C 12.1875 -27.078125 10.59375 -26.691406 9.09375 -25.921875 C 7.601562 -25.160156 6.300781 -24.140625 5.1875 -22.859375 C 4.082031 -21.578125 3.203125 -20.09375 2.546875 -18.40625 C 1.898438 -16.726562 1.578125 -14.992188 1.578125 -13.203125 C 1.578125 -11.398438 1.898438 -9.660156 2.546875 -7.984375 C 3.203125 -6.304688 4.082031 -4.816406 5.1875 -3.515625 C 6.300781 -2.222656 7.601562 -1.1875 9.09375 -0.40625 C 10.59375 0.363281 12.1875 0.75 13.875 0.75 Z M 13.875 -26.359375 C 15.0625 -26.359375 16.117188 -26.171875 17.046875 -25.796875 C 17.972656 -25.429688 18.742188 -24.8125 19.359375 -23.9375 C 19.984375 -23.070312 20.457031 -21.925781 20.78125 -20.5 C 21.113281 -19.070312 21.28125 -17.300781 21.28125 -15.1875 L 21.28125 -11.21875 C 21.28125 -7.382812 20.644531 -4.546875 19.375 -2.703125 C 18.113281 -0.867188 16.28125 0.046875 13.875 0.046875 C 11.46875 0.046875 9.628906 -0.867188 8.359375 -2.703125 C 7.097656 -4.546875 6.46875 -7.382812 6.46875 -11.21875 L 6.46875 -15.1875 C 6.46875 -17.25 6.628906 -18.984375 6.953125 -20.390625 C 7.285156 -21.804688 7.757812 -22.957031 8.375 -23.84375 C 9 -24.726562 9.773438 -25.367188 10.703125 -25.765625 C 11.628906 -26.160156 12.6875 -26.359375 13.875 -26.359375 Z M 13.875 -26.359375 "/></g></g></g><g fill="rgb(0%, 0%, 0%)" fill-opacity="1"><g transform="translate(187.804124, 36.534795)"><g><path d="M 13.59375 -27.078125 C 11.925781 -27.078125 10.351562 -26.707031 8.875 -25.96875 C 7.394531 -25.226562 6.109375 -24.222656 5.015625 -22.953125 C 3.921875 -21.679688 3.046875 -20.195312 2.390625 -18.5 C 1.742188 -16.8125 1.421875 -15.03125 1.421875 -13.15625 C 1.421875 -11.28125 1.75 -9.492188 2.40625 -7.796875 C 3.070312 -6.109375 3.957031 -4.628906 5.0625 -3.359375 C 6.175781 -2.097656 7.457031 -1.097656 8.90625 -0.359375 C 10.363281 0.378906 11.890625 0.75 13.484375 0.75 C 14.742188 0.75 15.9375 0.582031 17.0625 0.25 C 18.1875 -0.0703125 19.175781 -0.578125 20.03125 -1.265625 C 20.894531 -1.953125 21.570312 -2.832031 22.0625 -3.90625 C 22.550781 -4.976562 22.796875 -6.253906 22.796875 -7.734375 L 22.796875 -9.078125 L 26.234375 -9.078125 L 26.234375 -9.71875 L 14.46875 -9.71875 L 14.46875 -9.078125 L 18.703125 -9.078125 L 18.703125 -5.34375 C 18.703125 -4.71875 18.632812 -4.085938 18.5 -3.453125 C 18.375 -2.816406 18.125 -2.238281 17.75 -1.71875 C 17.382812 -1.207031 16.863281 -0.785156 16.1875 -0.453125 C 15.519531 -0.117188 14.644531 0.046875 13.5625 0.046875 C 11.257812 0.046875 9.472656 -0.863281 8.203125 -2.6875 C 6.929688 -4.519531 6.296875 -7.234375 6.296875 -10.828125 L 6.296875 -15.703125 C 6.296875 -17.578125 6.472656 -19.1875 6.828125 -20.53125 C 7.191406 -21.882812 7.695312 -22.988281 8.34375 -23.84375 C 8.988281 -24.695312 9.753906 -25.328125 10.640625 -25.734375 C 11.523438 -26.148438 12.507812 -26.359375 13.59375 -26.359375 C 15.519531 -26.359375 17.171875 -25.796875 18.546875 -24.671875 C 19.921875 -23.546875 21.03125 -21.640625 21.875 -18.953125 C 21.957031 -18.710938 22.078125 -18.59375 22.234375 -18.59375 C 22.390625 -18.59375 22.46875 -18.710938 22.46875 -18.953125 L 22.46875 -26.4375 C 22.46875 -26.726562 22.363281 -26.875 22.15625 -26.875 C 22.019531 -26.875 21.921875 -26.847656 21.859375 -26.796875 C 21.796875 -26.742188 21.710938 -26.664062 21.609375 -26.5625 L 19.90625 -24.859375 C 19.132812 -25.546875 18.195312 -26.085938 17.09375 -26.484375 C 16 -26.878906 14.832031 -27.078125 13.59375 -27.078125 Z M 13.59375 -27.078125 "/></g></g></g><g fill="rgb(0%, 0%, 0%)" fill-opacity="1"><g transform="translate(214.326275, 36.534795)"><g><path d="M 0.875 -0.640625 L 0.875 0 L 9.671875 0 L 9.671875 -0.640625 L 5 -0.640625 L 7.484375 -8.28125 L 15.453125 -8.28125 L 18.03125 -0.640625 L 13.953125 -0.640625 L 13.953125 0 L 25.5625 0 L 25.5625 -0.640625 L 22.125 -0.640625 L 13.4375 -27 L 12.96875 -27 L 4.28125 -0.640625 Z M 11.453125 -20.25 L 15.265625 -8.921875 L 7.734375 -8.921875 Z M 11.453125 -20.25 "/></g></g></g><g fill="rgb(20.388794%, 27.449036%, 28.239441%)" fill-opacity="1"><g transform="translate(57.598143, 48.834994)"><g><path d="M 4.113281 0 L 4.53125 0 L 3.605469 -4.25 L 2.296875 -0.839844 L 0.992188 -4.25 L 0.0585938 0 L 0.480469 0 L 1.097656 -2.835938 L 2.296875 0.234375 L 3.492188 -2.835938 Z M 4.113281 0 "/></g></g></g><g fill="rgb(20.388794%, 27.449036%, 28.239441%)" fill-opacity="1"><g transform="translate(62.187442, 48.834994)"><g><path d="M 2.492188 -1.289062 C 2.492188 -1.039062 2.402344 -0.816406 2.226562 -0.632812 C 2.050781 -0.445312 1.835938 -0.351562 1.582031 -0.351562 C 1.324219 -0.351562 1.109375 -0.445312 0.933594 -0.632812 C 0.757812 -0.816406 0.675781 -1.039062 0.675781 -1.289062 C 0.675781 -1.535156 0.757812 -1.757812 0.933594 -1.945312 C 1.109375 -2.132812 1.324219 -2.226562 1.582031 -2.226562 C 1.835938 -2.226562 2.050781 -2.132812 2.226562 -1.945312 C 2.402344 -1.757812 2.492188 -1.535156 2.492188 -1.289062 Z M 2.902344 0 L 2.902344 -2.578125 L 2.492188 -2.578125 L 2.492188 -2.132812 C 2.46875 -2.167969 2.4375 -2.199219 2.414062 -2.226562 C 2.167969 -2.496094 1.871094 -2.636719 1.519531 -2.636719 C 1.160156 -2.636719 0.863281 -2.496094 0.617188 -2.226562 C 0.382812 -1.957031 0.265625 -1.648438 0.265625 -1.289062 C 0.265625 -0.925781 0.382812 -0.617188 0.617188 -0.351562 C 0.863281 -0.078125 1.160156 0.0585938 1.519531 0.0585938 C 1.871094 0.0585938 2.167969 -0.078125 2.414062 -0.351562 C 2.4375 -0.375 2.46875 -0.40625 2.492188 -0.441406 L 2.492188 0 Z M 2.902344 0 "/></g></g></g><g fill="rgb(20.388794%, 27.449036%, 28.239441%)" fill-opacity="1"><g transform="translate(65.528306, 48.834994)"><g><path d="M 0.769531 1.464844 L 2.550781 -2.578125 L 2.09375 -2.578125 L 1.355469 -0.851562 L 0.527344 -2.578125 L 0.0585938 -2.578125 L 1.136719 -0.421875 L 0.269531 1.464844 Z M 0.769531 1.464844 "/></g></g></g><g fill="rgb(20.388794%, 27.449036%, 28.239441%)" fill-opacity="1"><g transform="translate(68.019304, 48.834994)"><g/></g></g><g fill="rgb(20.388794%, 27.449036%, 28.239441%)" fill-opacity="1"><g transform="translate(69.601819, 48.834994)"><g><path d="M 0.769531 1.464844 L 2.550781 -2.578125 L 2.09375 -2.578125 L 1.355469 -0.851562 L 0.527344 -2.578125 L 0.0585938 -2.578125 L 1.136719 -0.421875 L 0.269531 1.464844 Z M 0.769531 1.464844 "/></g></g></g><g fill="rgb(20.388794%, 27.449036%, 28.239441%)" fill-opacity="1"><g transform="translate(72.092817, 48.834994)"><g><path d="M 2.550781 -1.300781 C 2.550781 -1.042969 2.457031 -0.828125 2.273438 -0.644531 C 2.085938 -0.457031 1.871094 -0.371094 1.613281 -0.371094 C 1.355469 -0.371094 1.132812 -0.457031 0.949219 -0.644531 C 0.761719 -0.828125 0.675781 -1.042969 0.675781 -1.300781 C 0.675781 -1.558594 0.761719 -1.777344 0.949219 -1.964844 C 1.132812 -2.144531 1.355469 -2.238281 1.613281 -2.238281 C 1.871094 -2.238281 2.085938 -2.144531 2.273438 -1.964844 C 2.457031 -1.777344 2.550781 -1.558594 2.550781 -1.300781 Z M 2.960938 -1.300781 C 2.960938 -1.671875 2.824219 -1.988281 2.5625 -2.25 C 2.296875 -2.515625 1.980469 -2.648438 1.613281 -2.648438 C 1.238281 -2.648438 0.921875 -2.515625 0.65625 -2.25 C 0.394531 -1.988281 0.265625 -1.671875 0.265625 -1.300781 C 0.265625 -0.925781 0.394531 -0.609375 0.65625 -0.351562 C 0.921875 -0.0898438 1.242188 0.0429688 1.613281 0.0429688 C 1.976562 0.0429688 2.296875 -0.0898438 2.5625 -0.351562 C 2.824219 -0.609375 2.960938 -0.925781 2.960938 -1.300781 Z M 2.960938 -1.300781 "/></g></g></g><g fill="rgb(20.388794%, 27.449036%, 28.239441%)" fill-opacity="1"><g transform="translate(75.316463, 48.834994)"><g><path d="M 2.222656 -0.441406 L 2.222656 0 L 2.632812 0 L 2.632812 -2.578125 L 2.222656 -2.578125 L 2.222656 -1.5 C 2.222656 -1.136719 2.152344 -0.863281 2.015625 -0.65625 C 1.886719 -0.457031 1.660156 -0.359375 1.34375 -0.359375 C 1.167969 -0.359375 1.039062 -0.417969 0.960938 -0.535156 C 0.886719 -0.652344 0.851562 -0.796875 0.851562 -0.96875 L 0.851562 -2.578125 L 0.441406 -2.578125 L 0.441406 -0.96875 C 0.441406 -0.667969 0.515625 -0.421875 0.679688 -0.230469 C 0.84375 -0.0429688 1.066406 0.0546875 1.359375 0.0546875 C 1.742188 0.0546875 2.027344 -0.113281 2.222656 -0.441406 Z M 2.222656 -0.441406 "/></g></g></g><g fill="rgb(20.388794%, 27.449036%, 28.239441%)" fill-opacity="1"><g transform="translate(78.299801, 48.834994)"><g/></g></g><g fill="rgb(20.388794%, 27.449036%, 28.239441%)" fill-opacity="1"><g transform="translate(79.882316, 48.834994)"><g><path d="M 0.851562 0 L 0.851562 -0.441406 C 0.867188 -0.40625 0.898438 -0.375 0.921875 -0.351562 C 1.167969 -0.078125 1.464844 0.0585938 1.824219 0.0585938 C 2.175781 0.0585938 2.472656 -0.078125 2.71875 -0.351562 C 2.953125 -0.617188 3.078125 -0.925781 3.078125 -1.289062 C 3.078125 -1.648438 2.953125 -1.957031 2.71875 -2.226562 C 2.472656 -2.496094 2.175781 -2.636719 1.824219 -2.636719 C 1.464844 -2.636719 1.167969 -2.496094 0.921875 -2.226562 C 0.898438 -2.199219 0.867188 -2.167969 0.851562 -2.132812 L 0.851562 -4.394531 L 0.441406 -4.394531 L 0.441406 0 Z M 2.667969 -1.289062 C 2.667969 -1.039062 2.578125 -0.816406 2.402344 -0.632812 C 2.226562 -0.445312 2.011719 -0.351562 1.757812 -0.351562 C 1.5 -0.351562 1.285156 -0.445312 1.109375 -0.632812 C 0.933594 -0.816406 0.851562 -1.039062 0.851562 -1.289062 C 0.851562 -1.535156 0.933594 -1.757812 1.109375 -1.945312 C 1.285156 -2.132812 1.5 -2.226562 1.757812 -2.226562 C 2.011719 -2.226562 2.226562 -2.132812 2.402344 -1.945312 C 2.578125 -1.757812 2.667969 -1.535156 2.667969 -1.289062 Z M 2.667969 -1.289062 "/></g></g></g><g fill="rgb(20.388794%, 27.449036%, 28.239441%)" fill-opacity="1"><g transform="translate(83.22318, 48.834994)"><g><path d="M 2.960938 -1.347656 C 2.960938 -1.699219 2.820312 -2.003906 2.550781 -2.269531 C 2.285156 -2.519531 1.96875 -2.648438 1.613281 -2.648438 C 1.238281 -2.648438 0.921875 -2.515625 0.65625 -2.25 C 0.394531 -1.988281 0.265625 -1.671875 0.265625 -1.300781 C 0.265625 -0.925781 0.394531 -0.609375 0.65625 -0.351562 C 0.78125 -0.230469 0.921875 -0.136719 1.085938 -0.0664062 C 1.25 0.0078125 1.441406 0.0429688 1.671875 0.0429688 C 1.898438 0.0429688 2.121094 -0.03125 2.34375 -0.171875 C 2.566406 -0.3125 2.730469 -0.511719 2.84375 -0.757812 L 2.375 -0.757812 C 2.28125 -0.632812 2.167969 -0.539062 2.035156 -0.46875 C 1.898438 -0.398438 1.757812 -0.371094 1.613281 -0.371094 C 1.390625 -0.371094 1.191406 -0.441406 1.015625 -0.585938 C 0.839844 -0.726562 0.726562 -0.910156 0.691406 -1.132812 L 2.960938 -1.132812 Z M 2.527344 -1.484375 L 0.699219 -1.484375 C 0.722656 -1.589844 0.761719 -1.6875 0.820312 -1.78125 C 1.007812 -2.085938 1.273438 -2.238281 1.613281 -2.238281 C 1.828125 -2.238281 2.023438 -2.167969 2.191406 -2.027344 C 2.367188 -1.882812 2.472656 -1.699219 2.527344 -1.484375 Z M 2.527344 -1.484375 "/></g></g></g><g fill="rgb(20.388794%, 27.449036%, 28.239441%)" fill-opacity="1"><g transform="translate(86.417514, 48.834994)"><g/></g></g><g fill="rgb(20.388794%, 27.449036%, 28.239441%)" fill-opacity="1"><g transform="translate(88.000029, 48.834994)"><g><path d="M 1.824219 -4.015625 L 1.824219 -4.394531 L 1.53125 -4.394531 C 1.238281 -4.394531 1.03125 -4.320312 0.910156 -4.179688 C 0.785156 -4.039062 0.726562 -3.832031 0.726562 -3.574219 L 0.726562 -2.578125 L 0.207031 -2.578125 L 0.207031 -2.199219 L 0.726562 -2.199219 L 0.726562 0 L 1.136719 0 L 1.136719 -2.199219 L 1.824219 -2.199219 L 1.824219 -2.578125 L 1.136719 -2.578125 L 1.136719 -3.691406 C 1.136719 -3.78125 1.15625 -3.855469 1.203125 -3.921875 C 1.242188 -3.980469 1.332031 -4.015625 1.472656 -4.015625 Z M 1.824219 -4.015625 "/></g></g></g><g fill="rgb(20.388794%, 27.449036%, 28.239441%)" fill-opacity="1"><g transform="translate(89.998687, 48.834994)"><g><path d="M 2.492188 -1.289062 C 2.492188 -1.039062 2.402344 -0.816406 2.226562 -0.632812 C 2.050781 -0.445312 1.835938 -0.351562 1.582031 -0.351562 C 1.324219 -0.351562 1.109375 -0.445312 0.933594 -0.632812 C 0.757812 -0.816406 0.675781 -1.039062 0.675781 -1.289062 C 0.675781 -1.535156 0.757812 -1.757812 0.933594 -1.945312 C 1.109375 -2.132812 1.324219 -2.226562 1.582031 -2.226562 C 1.835938 -2.226562 2.050781 -2.132812 2.226562 -1.945312 C 2.402344 -1.757812 2.492188 -1.535156 2.492188 -1.289062 Z M 2.902344 0 L 2.902344 -2.578125 L 2.492188 -2.578125 L 2.492188 -2.132812 C 2.46875 -2.167969 2.4375 -2.199219 2.414062 -2.226562 C 2.167969 -2.496094 1.871094 -2.636719 1.519531 -2.636719 C 1.160156 -2.636719 0.863281 -2.496094 0.617188 -2.226562 C 0.382812 -1.957031 0.265625 -1.648438 0.265625 -1.289062 C 0.265625 -0.925781 0.382812 -0.617188 0.617188 -0.351562 C 0.863281 -0.078125 1.160156 0.0585938 1.519531 0.0585938 C 1.871094 0.0585938 2.167969 -0.078125 2.414062 -0.351562 C 2.4375 -0.375 2.46875 -0.40625 2.492188 -0.441406 L 2.492188 0 Z M 2.902344 0 "/></g></g></g><g fill="rgb(20.388794%, 27.449036%, 28.239441%)" fill-opacity="1"><g transform="translate(93.339551, 48.834994)"><g><path d="M 0.855469 -3.46875 C 0.804688 -3.515625 0.738281 -3.546875 0.667969 -3.546875 C 0.597656 -3.546875 0.535156 -3.515625 0.488281 -3.46875 C 0.433594 -3.417969 0.410156 -3.351562 0.410156 -3.28125 C 0.410156 -3.210938 0.433594 -3.148438 0.488281 -3.101562 C 0.535156 -3.046875 0.597656 -3.023438 0.667969 -3.023438 C 0.738281 -3.023438 0.804688 -3.046875 0.855469 -3.101562 C 0.902344 -3.148438 0.933594 -3.210938 0.933594 -3.28125 C 0.933594 -3.351562 0.902344 -3.417969 0.855469 -3.46875 Z M 0.878906 0 L 0.878906 -2.578125 L 0.46875 -2.578125 L 0.46875 0 Z M 0.878906 0 "/></g></g></g><g fill="rgb(20.388794%, 27.449036%, 28.239441%)" fill-opacity="1"><g transform="translate(94.681757, 48.834994)"><g><path d="M 0.117188 -2.199219 L 0.761719 -2.199219 L 0.761719 0 L 1.171875 0 L 1.171875 -2.199219 L 1.8125 -2.199219 L 1.8125 -2.578125 L 1.171875 -2.578125 L 1.171875 -3.582031 L 0.761719 -3.582031 L 0.761719 -2.578125 L 0.117188 -2.578125 Z M 0.117188 -2.199219 "/></g></g></g><g fill="rgb(20.388794%, 27.449036%, 28.239441%)" fill-opacity="1"><g transform="translate(96.610083, 48.834994)"><g><path d="M 0.851562 0 L 0.851562 -1.078125 C 0.851562 -1.4375 0.910156 -1.707031 1.03125 -1.894531 C 1.101562 -2 1.191406 -2.074219 1.300781 -2.132812 C 1.40625 -2.191406 1.554688 -2.222656 1.730469 -2.222656 C 1.90625 -2.222656 2.027344 -2.15625 2.105469 -2.039062 C 2.179688 -1.921875 2.222656 -1.777344 2.222656 -1.613281 L 2.222656 0 L 2.632812 0 L 2.632812 -1.613281 C 2.632812 -1.910156 2.550781 -2.152344 2.398438 -2.332031 C 2.316406 -2.425781 2.222656 -2.496094 2.109375 -2.550781 C 1.992188 -2.601562 1.847656 -2.632812 1.664062 -2.632812 C 1.476562 -2.632812 1.320312 -2.578125 1.179688 -2.484375 C 1.042969 -2.398438 0.933594 -2.28125 0.851562 -2.132812 L 0.851562 -4.394531 L 0.441406 -4.394531 L 0.441406 0 Z M 0.851562 0 "/></g></g></g><g fill="rgb(20.388794%, 27.449036%, 28.239441%)" fill-opacity="1"><g transform="translate(99.593421, 48.834994)"><g><path d="M 1.824219 -4.015625 L 1.824219 -4.394531 L 1.53125 -4.394531 C 1.238281 -4.394531 1.03125 -4.320312 0.910156 -4.179688 C 0.785156 -4.039062 0.726562 -3.832031 0.726562 -3.574219 L 0.726562 -2.578125 L 0.207031 -2.578125 L 0.207031 -2.199219 L 0.726562 -2.199219 L 0.726562 0 L 1.136719 0 L 1.136719 -2.199219 L 1.824219 -2.199219 L 1.824219 -2.578125 L 1.136719 -2.578125 L 1.136719 -3.691406 C 1.136719 -3.78125 1.15625 -3.855469 1.203125 -3.921875 C 1.242188 -3.980469 1.332031 -4.015625 1.472656 -4.015625 Z M 1.824219 -4.015625 "/></g></g></g><g fill="rgb(20.388794%, 27.449036%, 28.239441%)" fill-opacity="1"><g transform="translate(101.592078, 48.834994)"><g><path d="M 2.222656 -0.441406 L 2.222656 0 L 2.632812 0 L 2.632812 -2.578125 L 2.222656 -2.578125 L 2.222656 -1.5 C 2.222656 -1.136719 2.152344 -0.863281 2.015625 -0.65625 C 1.886719 -0.457031 1.660156 -0.359375 1.34375 -0.359375 C 1.167969 -0.359375 1.039062 -0.417969 0.960938 -0.535156 C 0.886719 -0.652344 0.851562 -0.796875 0.851562 -0.96875 L 0.851562 -2.578125 L 0.441406 -2.578125 L 0.441406 -0.96875 C 0.441406 -0.667969 0.515625 -0.421875 0.679688 -0.230469 C 0.84375 -0.0429688 1.066406 0.0546875 1.359375 0.0546875 C 1.742188 0.0546875 2.027344 -0.113281 2.222656 -0.441406 Z M 2.222656 -0.441406 "/></g></g></g><g fill="rgb(20.388794%, 27.449036%, 28.239441%)" fill-opacity="1"><g transform="translate(104.575416, 48.834994)"><g><path d="M 0.851562 0 L 0.851562 -4.394531 L 0.441406 -4.394531 L 0.441406 0 Z M 0.851562 0 "/></g></g></g><g fill="rgb(20.388794%, 27.449036%, 28.239441%)" fill-opacity="1"><g transform="translate(105.864872, 48.834994)"><g/></g></g><g fill="rgb(20.388794%, 27.449036%, 28.239441%)" fill-opacity="1"><g transform="translate(107.447387, 48.834994)"><g><path d="M 0.117188 -2.199219 L 0.761719 -2.199219 L 0.761719 0 L 1.171875 0 L 1.171875 -2.199219 L 1.8125 -2.199219 L 1.8125 -2.578125 L 1.171875 -2.578125 L 1.171875 -3.582031 L 0.761719 -3.582031 L 0.761719 -2.578125 L 0.117188 -2.578125 Z M 0.117188 -2.199219 "/></g></g></g><g fill="rgb(20.388794%, 27.449036%, 28.239441%)" fill-opacity="1"><g transform="translate(109.375712, 48.834994)"><g><path d="M 2.550781 -1.300781 C 2.550781 -1.042969 2.457031 -0.828125 2.273438 -0.644531 C 2.085938 -0.457031 1.871094 -0.371094 1.613281 -0.371094 C 1.355469 -0.371094 1.132812 -0.457031 0.949219 -0.644531 C 0.761719 -0.828125 0.675781 -1.042969 0.675781 -1.300781 C 0.675781 -1.558594 0.761719 -1.777344 0.949219 -1.964844 C 1.132812 -2.144531 1.355469 -2.238281 1.613281 -2.238281 C 1.871094 -2.238281 2.085938 -2.144531 2.273438 -1.964844 C 2.457031 -1.777344 2.550781 -1.558594 2.550781 -1.300781 Z M 2.960938 -1.300781 C 2.960938 -1.671875 2.824219 -1.988281 2.5625 -2.25 C 2.296875 -2.515625 1.980469 -2.648438 1.613281 -2.648438 C 1.238281 -2.648438 0.921875 -2.515625 0.65625 -2.25 C 0.394531 -1.988281 0.265625 -1.671875 0.265625 -1.300781 C 0.265625 -0.925781 0.394531 -0.609375 0.65625 -0.351562 C 0.921875 -0.0898438 1.242188 0.0429688 1.613281 0.0429688 C 1.976562 0.0429688 2.296875 -0.0898438 2.5625 -0.351562 C 2.824219 -0.609375 2.960938 -0.925781 2.960938 -1.300781 Z M 2.960938 -1.300781 "/></g></g></g><g fill="rgb(20.388794%, 27.449036%, 28.239441%)" fill-opacity="1"><g transform="translate(112.599358, 48.834994)"><g/></g></g><g fill="rgb(20.388794%, 27.449036%, 28.239441%)" fill-opacity="1"><g transform="translate(114.181873, 48.834994)"><g><path d="M 0.769531 1.464844 L 2.550781 -2.578125 L 2.09375 -2.578125 L 1.355469 -0.851562 L 0.527344 -2.578125 L 0.0585938 -2.578125 L 1.136719 -0.421875 L 0.269531 1.464844 Z M 0.769531 1.464844 "/></g></g></g><g fill="rgb(20.388794%, 27.449036%, 28.239441%)" fill-opacity="1"><g transform="translate(116.672871, 48.834994)"><g><path d="M 2.550781 -1.300781 C 2.550781 -1.042969 2.457031 -0.828125 2.273438 -0.644531 C 2.085938 -0.457031 1.871094 -0.371094 1.613281 -0.371094 C 1.355469 -0.371094 1.132812 -0.457031 0.949219 -0.644531 C 0.761719 -0.828125 0.675781 -1.042969 0.675781 -1.300781 C 0.675781 -1.558594 0.761719 -1.777344 0.949219 -1.964844 C 1.132812 -2.144531 1.355469 -2.238281 1.613281 -2.238281 C 1.871094 -2.238281 2.085938 -2.144531 2.273438 -1.964844 C 2.457031 -1.777344 2.550781 -1.558594 2.550781 -1.300781 Z M 2.960938 -1.300781 C 2.960938 -1.671875 2.824219 -1.988281 2.5625 -2.25 C 2.296875 -2.515625 1.980469 -2.648438 1.613281 -2.648438 C 1.238281 -2.648438 0.921875 -2.515625 0.65625 -2.25 C 0.394531 -1.988281 0.265625 -1.671875 0.265625 -1.300781 C 0.265625 -0.925781 0.394531 -0.609375 0.65625 -0.351562 C 0.921875 -0.0898438 1.242188 0.0429688 1.613281 0.0429688 C 1.976562 0.0429688 2.296875 -0.0898438 2.5625 -0.351562 C 2.824219 -0.609375 2.960938 -0.925781 2.960938 -1.300781 Z M 2.960938 -1.300781 "/></g></g></g><g fill="rgb(20.388794%, 27.449036%, 28.239441%)" fill-opacity="1"><g transform="translate(119.896517, 48.834994)"><g><path d="M 2.222656 -0.441406 L 2.222656 0 L 2.632812 0 L 2.632812 -2.578125 L 2.222656 -2.578125 L 2.222656 -1.5 C 2.222656 -1.136719 2.152344 -0.863281 2.015625 -0.65625 C 1.886719 -0.457031 1.660156 -0.359375 1.34375 -0.359375 C 1.167969 -0.359375 1.039062 -0.417969 0.960938 -0.535156 C 0.886719 -0.652344 0.851562 -0.796875 0.851562 -0.96875 L 0.851562 -2.578125 L 0.441406 -2.578125 L 0.441406 -0.96875 C 0.441406 -0.667969 0.515625 -0.421875 0.679688 -0.230469 C 0.84375 -0.0429688 1.066406 0.0546875 1.359375 0.0546875 C 1.742188 0.0546875 2.027344 -0.113281 2.222656 -0.441406 Z M 2.222656 -0.441406 "/></g></g></g><g fill="rgb(20.388794%, 27.449036%, 28.239441%)" fill-opacity="1"><g transform="translate(122.879855, 48.834994)"><g><path d="M 1.765625 -2.046875 L 1.765625 -2.578125 C 1.683594 -2.613281 1.59375 -2.632812 1.507812 -2.632812 C 1.214844 -2.632812 1.003906 -2.46875 0.867188 -2.152344 L 0.851562 -2.046875 L 0.851562 -2.578125 L 0.441406 -2.578125 L 0.441406 0 L 0.851562 0 L 0.851562 -1.289062 C 0.851562 -1.5 0.898438 -1.6875 0.996094 -1.859375 C 1.042969 -1.945312 1.109375 -2.023438 1.183594 -2.082031 C 1.261719 -2.140625 1.355469 -2.175781 1.460938 -2.175781 C 1.566406 -2.175781 1.664062 -2.128906 1.765625 -2.046875 Z M 1.765625 -2.046875 "/></g></g></g><g fill="rgb(20.388794%, 27.449036%, 28.239441%)" fill-opacity="1"><g transform="translate(124.702678, 48.834994)"><g><path d="M 0.808594 -0.363281 C 0.710938 -0.433594 0.632812 -0.550781 0.59375 -0.722656 L 0.160156 -0.722656 C 0.246094 -0.1875 0.585938 0.078125 1.183594 0.078125 C 1.324219 0.078125 1.453125 0.0664062 1.578125 0.03125 C 1.699219 -0.0078125 1.804688 -0.0546875 1.90625 -0.117188 C 2.105469 -0.253906 2.203125 -0.457031 2.203125 -0.734375 C 2.203125 -1.015625 2.074219 -1.214844 1.804688 -1.34375 C 1.695312 -1.394531 1.570312 -1.4375 1.4375 -1.464844 C 1.308594 -1.496094 1.183594 -1.53125 1.074219 -1.566406 C 0.957031 -1.601562 0.863281 -1.648438 0.785156 -1.699219 C 0.710938 -1.753906 0.667969 -1.835938 0.667969 -1.953125 C 0.667969 -2.070312 0.714844 -2.15625 0.808594 -2.210938 C 0.902344 -2.269531 1.015625 -2.296875 1.136719 -2.296875 C 1.265625 -2.296875 1.378906 -2.269531 1.464844 -2.222656 C 1.554688 -2.175781 1.625 -2.082031 1.664062 -1.941406 L 2.105469 -1.941406 C 2.050781 -2.199219 1.941406 -2.378906 1.777344 -2.480469 C 1.605469 -2.585938 1.402344 -2.636719 1.148438 -2.636719 C 0.902344 -2.636719 0.6875 -2.566406 0.503906 -2.4375 C 0.328125 -2.304688 0.234375 -2.109375 0.234375 -1.851562 C 0.234375 -1.730469 0.269531 -1.617188 0.335938 -1.523438 C 0.40625 -1.425781 0.503906 -1.347656 0.632812 -1.289062 C 0.75 -1.238281 0.875 -1.195312 1.003906 -1.160156 C 1.132812 -1.132812 1.253906 -1.097656 1.371094 -1.0625 C 1.636719 -0.972656 1.769531 -0.84375 1.769531 -0.679688 C 1.769531 -0.398438 1.582031 -0.265625 1.207031 -0.265625 C 1.050781 -0.265625 0.914062 -0.292969 0.808594 -0.363281 Z M 0.808594 -0.363281 "/></g></g></g><g fill="rgb(20.388794%, 27.449036%, 28.239441%)" fill-opacity="1"><g transform="translate(127.058869, 48.834994)"><g><path d="M 2.960938 -1.347656 C 2.960938 -1.699219 2.820312 -2.003906 2.550781 -2.269531 C 2.285156 -2.519531 1.96875 -2.648438 1.613281 -2.648438 C 1.238281 -2.648438 0.921875 -2.515625 0.65625 -2.25 C 0.394531 -1.988281 0.265625 -1.671875 0.265625 -1.300781 C 0.265625 -0.925781 0.394531 -0.609375 0.65625 -0.351562 C 0.78125 -0.230469 0.921875 -0.136719 1.085938 -0.0664062 C 1.25 0.0078125 1.441406 0.0429688 1.671875 0.0429688 C 1.898438 0.0429688 2.121094 -0.03125 2.34375 -0.171875 C 2.566406 -0.3125 2.730469 -0.511719 2.84375 -0.757812 L 2.375 -0.757812 C 2.28125 -0.632812 2.167969 -0.539062 2.035156 -0.46875 C 1.898438 -0.398438 1.757812 -0.371094 1.613281 -0.371094 C 1.390625 -0.371094 1.191406 -0.441406 1.015625 -0.585938 C 0.839844 -0.726562 0.726562 -0.910156 0.691406 -1.132812 L 2.960938 -1.132812 Z M 2.527344 -1.484375 L 0.699219 -1.484375 C 0.722656 -1.589844 0.761719 -1.6875 0.820312 -1.78125 C 1.007812 -2.085938 1.273438 -2.238281 1.613281 -2.238281 C 1.828125 -2.238281 2.023438 -2.167969 2.191406 -2.027344 C 2.367188 -1.882812 2.472656 -1.699219 2.527344 -1.484375 Z M 2.527344 -1.484375 "/></g></g></g><g fill="rgb(20.388794%, 27.449036%, 28.239441%)" fill-opacity="1"><g transform="translate(130.253204, 48.834994)"><g><path d="M 0.851562 0 L 0.851562 -4.394531 L 0.441406 -4.394531 L 0.441406 0 Z M 0.851562 0 "/></g></g></g><g fill="rgb(20.388794%, 27.449036%, 28.239441%)" fill-opacity="1"><g transform="translate(131.542659, 48.834994)"><g><path d="M 1.824219 -4.015625 L 1.824219 -4.394531 L 1.53125 -4.394531 C 1.238281 -4.394531 1.03125 -4.320312 0.910156 -4.179688 C 0.785156 -4.039062 0.726562 -3.832031 0.726562 -3.574219 L 0.726562 -2.578125 L 0.207031 -2.578125 L 0.207031 -2.199219 L 0.726562 -2.199219 L 0.726562 0 L 1.136719 0 L 1.136719 -2.199219 L 1.824219 -2.199219 L 1.824219 -2.578125 L 1.136719 -2.578125 L 1.136719 -3.691406 C 1.136719 -3.78125 1.15625 -3.855469 1.203125 -3.921875 C 1.242188 -3.980469 1.332031 -4.015625 1.472656 -4.015625 Z M 1.824219 -4.015625 "/></g></g></g><g fill="rgb(20.388794%, 27.449036%, 28.239441%)" fill-opacity="1"><g transform="translate(133.541317, 48.834994)"><g><path d="M 1.195312 -0.691406 L 0.632812 -0.691406 L 0.292969 0.828125 L 0.539062 0.828125 Z M 1.195312 -0.691406 "/></g></g></g><g fill="rgb(20.388794%, 27.449036%, 28.239441%)" fill-opacity="1"><g transform="translate(134.899415, 48.834994)"><g/></g></g><g fill="rgb(20.388794%, 27.449036%, 28.239441%)" fill-opacity="1"><g transform="translate(136.48193, 48.834994)"><g/></g></g><g fill="rgb(20.388794%, 27.449036%, 28.239441%)" fill-opacity="1"><g transform="translate(138.05893, 48.834994)"><g><path d="M 0.851562 0 L 0.851562 -4.394531 L 0.441406 -4.394531 L 0.441406 0 Z M 0.851562 0 "/></g></g></g><g fill="rgb(20.388794%, 27.449036%, 28.239441%)" fill-opacity="1"><g transform="translate(139.348385, 48.834994)"><g><path d="M 0.855469 -3.46875 C 0.804688 -3.515625 0.738281 -3.546875 0.667969 -3.546875 C 0.597656 -3.546875 0.535156 -3.515625 0.488281 -3.46875 C 0.433594 -3.417969 0.410156 -3.351562 0.410156 -3.28125 C 0.410156 -3.210938 0.433594 -3.148438 0.488281 -3.101562 C 0.535156 -3.046875 0.597656 -3.023438 0.667969 -3.023438 C 0.738281 -3.023438 0.804688 -3.046875 0.855469 -3.101562 C 0.902344 -3.148438 0.933594 -3.210938 0.933594 -3.28125 C 0.933594 -3.351562 0.902344 -3.417969 0.855469 -3.46875 Z M 0.878906 0 L 0.878906 -2.578125 L 0.46875 -2.578125 L 0.46875 0 Z M 0.878906 0 "/></g></g></g><g fill="rgb(20.388794%, 27.449036%, 28.239441%)" fill-opacity="1"><g transform="translate(140.690592, 48.834994)"><g><path d="M 1.25 0.246094 L 2.433594 -2.578125 L 1.988281 -2.578125 L 1.25 -0.664062 L 0.503906 -2.578125 L 0.0585938 -2.578125 Z M 1.25 0.246094 "/></g></g></g><g fill="rgb(20.388794%, 27.449036%, 28.239441%)" fill-opacity="1"><g transform="translate(143.18159, 48.834994)"><g><path d="M 2.960938 -1.347656 C 2.960938 -1.699219 2.820312 -2.003906 2.550781 -2.269531 C 2.285156 -2.519531 1.96875 -2.648438 1.613281 -2.648438 C 1.238281 -2.648438 0.921875 -2.515625 0.65625 -2.25 C 0.394531 -1.988281 0.265625 -1.671875 0.265625 -1.300781 C 0.265625 -0.925781 0.394531 -0.609375 0.65625 -0.351562 C 0.78125 -0.230469 0.921875 -0.136719 1.085938 -0.0664062 C 1.25 0.0078125 1.441406 0.0429688 1.671875 0.0429688 C 1.898438 0.0429688 2.121094 -0.03125 2.34375 -0.171875 C 2.566406 -0.3125 2.730469 -0.511719 2.84375 -0.757812 L 2.375 -0.757812 C 2.28125 -0.632812 2.167969 -0.539062 2.035156 -0.46875 C 1.898438 -0.398438 1.757812 -0.371094 1.613281 -0.371094 C 1.390625 -0.371094 1.191406 -0.441406 1.015625 -0.585938 C 0.839844 -0.726562 0.726562 -0.910156 0.691406 -1.132812 L 2.960938 -1.132812 Z M 2.527344 -1.484375 L 0.699219 -1.484375 C 0.722656 -1.589844 0.761719 -1.6875 0.820312 -1.78125 C 1.007812 -2.085938 1.273438 -2.238281 1.613281 -2.238281 C 1.828125 -2.238281 2.023438 -2.167969 2.191406 -2.027344 C 2.367188 -1.882812 2.472656 -1.699219 2.527344 -1.484375 Z M 2.527344 -1.484375 "/></g></g></g><g fill="rgb(20.388794%, 27.449036%, 28.239441%)" fill-opacity="1"><g transform="translate(146.375924, 48.834994)"><g/></g></g><g fill="rgb(20.388794%, 27.449036%, 28.239441%)" fill-opacity="1"><g transform="translate(147.958439, 48.834994)"><g><path d="M 2.960938 -1.347656 C 2.960938 -1.699219 2.820312 -2.003906 2.550781 -2.269531 C 2.285156 -2.519531 1.96875 -2.648438 1.613281 -2.648438 C 1.238281 -2.648438 0.921875 -2.515625 0.65625 -2.25 C 0.394531 -1.988281 0.265625 -1.671875 0.265625 -1.300781 C 0.265625 -0.925781 0.394531 -0.609375 0.65625 -0.351562 C 0.78125 -0.230469 0.921875 -0.136719 1.085938 -0.0664062 C 1.25 0.0078125 1.441406 0.0429688 1.671875 0.0429688 C 1.898438 0.0429688 2.121094 -0.03125 2.34375 -0.171875 C 2.566406 -0.3125 2.730469 -0.511719 2.84375 -0.757812 L 2.375 -0.757812 C 2.28125 -0.632812 2.167969 -0.539062 2.035156 -0.46875 C 1.898438 -0.398438 1.757812 -0.371094 1.613281 -0.371094 C 1.390625 -0.371094 1.191406 -0.441406 1.015625 -0.585938 C 0.839844 -0.726562 0.726562 -0.910156 0.691406 -1.132812 L 2.960938 -1.132812 Z M 2.527344 -1.484375 L 0.699219 -1.484375 C 0.722656 -1.589844 0.761719 -1.6875 0.820312 -1.78125 C 1.007812 -2.085938 1.273438 -2.238281 1.613281 -2.238281 C 1.828125 -2.238281 2.023438 -2.167969 2.191406 -2.027344 C 2.367188 -1.882812 2.472656 -1.699219 2.527344 -1.484375 Z M 2.527344 -1.484375 "/></g></g></g><g fill="rgb(20.388794%, 27.449036%, 28.239441%)" fill-opacity="1"><g transform="translate(151.152773, 48.834994)"><g><path d="M 2.492188 -1.289062 C 2.492188 -1.039062 2.402344 -0.816406 2.226562 -0.632812 C 2.050781 -0.445312 1.835938 -0.351562 1.582031 -0.351562 C 1.324219 -0.351562 1.109375 -0.445312 0.933594 -0.632812 C 0.757812 -0.816406 0.675781 -1.039062 0.675781 -1.289062 C 0.675781 -1.535156 0.757812 -1.757812 0.933594 -1.945312 C 1.109375 -2.132812 1.324219 -2.226562 1.582031 -2.226562 C 1.835938 -2.226562 2.050781 -2.132812 2.226562 -1.945312 C 2.402344 -1.757812 2.492188 -1.535156 2.492188 -1.289062 Z M 2.902344 0 L 2.902344 -2.578125 L 2.492188 -2.578125 L 2.492188 -2.132812 C 2.46875 -2.167969 2.4375 -2.199219 2.414062 -2.226562 C 2.167969 -2.496094 1.871094 -2.636719 1.519531 -2.636719 C 1.160156 -2.636719 0.863281 -2.496094 0.617188 -2.226562 C 0.382812 -1.957031 0.265625 -1.648438 0.265625 -1.289062 C 0.265625 -0.925781 0.382812 -0.617188 0.617188 -0.351562 C 0.863281 -0.078125 1.160156 0.0585938 1.519531 0.0585938 C 1.871094 0.0585938 2.167969 -0.078125 2.414062 -0.351562 C 2.4375 -0.375 2.46875 -0.40625 2.492188 -0.441406 L 2.492188 0 Z M 2.902344 0 "/></g></g></g><g fill="rgb(20.388794%, 27.449036%, 28.239441%)" fill-opacity="1"><g transform="translate(154.493637, 48.834994)"><g><path d="M 1.765625 -2.046875 L 1.765625 -2.578125 C 1.683594 -2.613281 1.59375 -2.632812 1.507812 -2.632812 C 1.214844 -2.632812 1.003906 -2.46875 0.867188 -2.152344 L 0.851562 -2.046875 L 0.851562 -2.578125 L 0.441406 -2.578125 L 0.441406 0 L 0.851562 0 L 0.851562 -1.289062 C 0.851562 -1.5 0.898438 -1.6875 0.996094 -1.859375 C 1.042969 -1.945312 1.109375 -2.023438 1.183594 -2.082031 C 1.261719 -2.140625 1.355469 -2.175781 1.460938 -2.175781 C 1.566406 -2.175781 1.664062 -2.128906 1.765625 -2.046875 Z M 1.765625 -2.046875 "/></g></g></g><g fill="rgb(20.388794%, 27.449036%, 28.239441%)" fill-opacity="1"><g transform="translate(156.316461, 48.834994)"><g><path d="M 2.222656 0 L 2.632812 0 L 2.632812 -1.613281 C 2.632812 -1.910156 2.550781 -2.152344 2.398438 -2.332031 C 2.316406 -2.425781 2.222656 -2.496094 2.109375 -2.550781 C 1.992188 -2.601562 1.847656 -2.632812 1.664062 -2.632812 C 1.476562 -2.632812 1.320312 -2.578125 1.179688 -2.484375 C 1.042969 -2.398438 0.933594 -2.28125 0.851562 -2.132812 L 0.851562 -2.578125 L 0.441406 -2.578125 L 0.441406 0 L 0.851562 0 L 0.851562 -1.078125 C 0.851562 -1.40625 0.910156 -1.664062 1.03125 -1.859375 C 1.101562 -1.964844 1.191406 -2.050781 1.300781 -2.121094 C 1.40625 -2.1875 1.554688 -2.222656 1.730469 -2.222656 C 1.90625 -2.222656 2.027344 -2.15625 2.105469 -2.039062 C 2.179688 -1.921875 2.222656 -1.777344 2.222656 -1.613281 Z M 2.222656 0 "/></g></g></g><g fill="rgb(20.388794%, 27.449036%, 28.239441%)" fill-opacity="1"><g transform="translate(159.299799, 48.834994)"><g><path d="M 2.960938 -1.347656 C 2.960938 -1.699219 2.820312 -2.003906 2.550781 -2.269531 C 2.285156 -2.519531 1.96875 -2.648438 1.613281 -2.648438 C 1.238281 -2.648438 0.921875 -2.515625 0.65625 -2.25 C 0.394531 -1.988281 0.265625 -1.671875 0.265625 -1.300781 C 0.265625 -0.925781 0.394531 -0.609375 0.65625 -0.351562 C 0.78125 -0.230469 0.921875 -0.136719 1.085938 -0.0664062 C 1.25 0.0078125 1.441406 0.0429688 1.671875 0.0429688 C 1.898438 0.0429688 2.121094 -0.03125 2.34375 -0.171875 C 2.566406 -0.3125 2.730469 -0.511719 2.84375 -0.757812 L 2.375 -0.757812 C 2.28125 -0.632812 2.167969 -0.539062 2.035156 -0.46875 C 1.898438 -0.398438 1.757812 -0.371094 1.613281 -0.371094 C 1.390625 -0.371094 1.191406 -0.441406 1.015625 -0.585938 C 0.839844 -0.726562 0.726562 -0.910156 0.691406 -1.132812 L 2.960938 -1.132812 Z M 2.527344 -1.484375 L 0.699219 -1.484375 C 0.722656 -1.589844 0.761719 -1.6875 0.820312 -1.78125 C 1.007812 -2.085938 1.273438 -2.238281 1.613281 -2.238281 C 1.828125 -2.238281 2.023438 -2.167969 2.191406 -2.027344 C 2.367188 -1.882812 2.472656 -1.699219 2.527344 -1.484375 Z M 2.527344 -1.484375 "/></g></g></g><g fill="rgb(20.388794%, 27.449036%, 28.239441%)" fill-opacity="1"><g transform="translate(162.494133, 48.834994)"><g><path d="M 0.808594 -0.363281 C 0.710938 -0.433594 0.632812 -0.550781 0.59375 -0.722656 L 0.160156 -0.722656 C 0.246094 -0.1875 0.585938 0.078125 1.183594 0.078125 C 1.324219 0.078125 1.453125 0.0664062 1.578125 0.03125 C 1.699219 -0.0078125 1.804688 -0.0546875 1.90625 -0.117188 C 2.105469 -0.253906 2.203125 -0.457031 2.203125 -0.734375 C 2.203125 -1.015625 2.074219 -1.214844 1.804688 -1.34375 C 1.695312 -1.394531 1.570312 -1.4375 1.4375 -1.464844 C 1.308594 -1.496094 1.183594 -1.53125 1.074219 -1.566406 C 0.957031 -1.601562 0.863281 -1.648438 0.785156 -1.699219 C 0.710938 -1.753906 0.667969 -1.835938 0.667969 -1.953125 C 0.667969 -2.070312 0.714844 -2.15625 0.808594 -2.210938 C 0.902344 -2.269531 1.015625 -2.296875 1.136719 -2.296875 C 1.265625 -2.296875 1.378906 -2.269531 1.464844 -2.222656 C 1.554688 -2.175781 1.625 -2.082031 1.664062 -1.941406 L 2.105469 -1.941406 C 2.050781 -2.199219 1.941406 -2.378906 1.777344 -2.480469 C 1.605469 -2.585938 1.402344 -2.636719 1.148438 -2.636719 C 0.902344 -2.636719 0.6875 -2.566406 0.503906 -2.4375 C 0.328125 -2.304688 0.234375 -2.109375 0.234375 -1.851562 C 0.234375 -1.730469 0.269531 -1.617188 0.335938 -1.523438 C 0.40625 -1.425781 0.503906 -1.347656 0.632812 -1.289062 C 0.75 -1.238281 0.875 -1.195312 1.003906 -1.160156 C 1.132812 -1.132812 1.253906 -1.097656 1.371094 -1.0625 C 1.636719 -0.972656 1.769531 -0.84375 1.769531 -0.679688 C 1.769531 -0.398438 1.582031 -0.265625 1.207031 -0.265625 C 1.050781 -0.265625 0.914062 -0.292969 0.808594 -0.363281 Z M 0.808594 -0.363281 "/></g></g></g><g fill="rgb(20.388794%, 27.449036%, 28.239441%)" fill-opacity="1"><g transform="translate(164.850324, 48.834994)"><g><path d="M 0.117188 -2.199219 L 0.761719 -2.199219 L 0.761719 0 L 1.171875 0 L 1.171875 -2.199219 L 1.8125 -2.199219 L 1.8125 -2.578125 L 1.171875 -2.578125 L 1.171875 -3.582031 L 0.761719 -3.582031 L 0.761719 -2.578125 L 0.117188 -2.578125 Z M 0.117188 -2.199219 "/></g></g></g><g fill="rgb(20.388794%, 27.449036%, 28.239441%)" fill-opacity="1"><g transform="translate(166.77865, 48.834994)"><g><path d="M 0.851562 0 L 0.851562 -4.394531 L 0.441406 -4.394531 L 0.441406 0 Z M 0.851562 0 "/></g></g></g><g fill="rgb(20.388794%, 27.449036%, 28.239441%)" fill-opacity="1"><g transform="translate(168.068105, 48.834994)"><g><path d="M 0.769531 1.464844 L 2.550781 -2.578125 L 2.09375 -2.578125 L 1.355469 -0.851562 L 0.527344 -2.578125 L 0.0585938 -2.578125 L 1.136719 -0.421875 L 0.269531 1.464844 Z M 0.769531 1.464844 "/></g></g></g><g fill="rgb(20.388794%, 27.449036%, 28.239441%)" fill-opacity="1"><g transform="translate(170.559103, 48.834994)"><g/></g></g><g fill="rgb(20.388794%, 27.449036%, 28.239441%)" fill-opacity="1"><g transform="translate(172.141618, 48.834994)"><g><path d="M 2.492188 -1.289062 C 2.492188 -1.039062 2.402344 -0.816406 2.226562 -0.632812 C 2.050781 -0.445312 1.835938 -0.351562 1.582031 -0.351562 C 1.324219 -0.351562 1.109375 -0.445312 0.933594 -0.632812 C 0.757812 -0.816406 0.675781 -1.039062 0.675781 -1.289062 C 0.675781 -1.535156 0.757812 -1.757812 0.933594 -1.945312 C 1.109375 -2.132812 1.324219 -2.226562 1.582031 -2.226562 C 1.835938 -2.226562 2.050781 -2.132812 2.226562 -1.945312 C 2.402344 -1.757812 2.492188 -1.535156 2.492188 -1.289062 Z M 2.902344 0 L 2.902344 -2.578125 L 2.492188 -2.578125 L 2.492188 -2.132812 C 2.46875 -2.167969 2.4375 -2.199219 2.414062 -2.226562 C 2.167969 -2.496094 1.871094 -2.636719 1.519531 -2.636719 C 1.160156 -2.636719 0.863281 -2.496094 0.617188 -2.226562 C 0.382812 -1.957031 0.265625 -1.648438 0.265625 -1.289062 C 0.265625 -0.925781 0.382812 -0.617188 0.617188 -0.351562 C 0.863281 -0.078125 1.160156 0.0585938 1.519531 0.0585938 C 1.871094 0.0585938 2.167969 -0.078125 2.414062 -0.351562 C 2.4375 -0.375 2.46875 -0.40625 2.492188 -0.441406 L 2.492188 0 Z M 2.902344 0 "/></g></g></g><g fill="rgb(20.388794%, 27.449036%, 28.239441%)" fill-opacity="1"><g transform="translate(175.482482, 48.834994)"><g><path d="M 2.222656 0 L 2.632812 0 L 2.632812 -1.613281 C 2.632812 -1.910156 2.550781 -2.152344 2.398438 -2.332031 C 2.316406 -2.425781 2.222656 -2.496094 2.109375 -2.550781 C 1.992188 -2.601562 1.847656 -2.632812 1.664062 -2.632812 C 1.476562 -2.632812 1.320312 -2.578125 1.179688 -2.484375 C 1.042969 -2.398438 0.933594 -2.28125 0.851562 -2.132812 L 0.851562 -2.578125 L 0.441406 -2.578125 L 0.441406 0 L 0.851562 0 L 0.851562 -1.078125 C 0.851562 -1.40625 0.910156 -1.664062 1.03125 -1.859375 C 1.101562 -1.964844 1.191406 -2.050781 1.300781 -2.121094 C 1.40625 -2.1875 1.554688 -2.222656 1.730469 -2.222656 C 1.90625 -2.222656 2.027344 -2.15625 2.105469 -2.039062 C 2.179688 -1.921875 2.222656 -1.777344 2.222656 -1.613281 Z M 2.222656 0 "/></g></g></g><g fill="rgb(20.388794%, 27.449036%, 28.239441%)" fill-opacity="1"><g transform="translate(178.46582, 48.834994)"><g><path d="M 2.492188 -1.289062 C 2.492188 -1.039062 2.402344 -0.816406 2.226562 -0.632812 C 2.050781 -0.445312 1.835938 -0.351562 1.582031 -0.351562 C 1.324219 -0.351562 1.109375 -0.445312 0.933594 -0.632812 C 0.757812 -0.816406 0.675781 -1.039062 0.675781 -1.289062 C 0.675781 -1.535156 0.757812 -1.757812 0.933594 -1.945312 C 1.109375 -2.132812 1.324219 -2.226562 1.582031 -2.226562 C 1.835938 -2.226562 2.050781 -2.132812 2.226562 -1.945312 C 2.402344 -1.757812 2.492188 -1.535156 2.492188 -1.289062 Z M 2.902344 0 L 2.902344 -4.394531 L 2.492188 -4.394531 L 2.492188 -2.132812 C 2.46875 -2.167969 2.4375 -2.199219 2.414062 -2.226562 C 2.167969 -2.496094 1.871094 -2.636719 1.519531 -2.636719 C 1.160156 -2.636719 0.863281 -2.496094 0.617188 -2.226562 C 0.382812 -1.957031 0.265625 -1.648438 0.265625 -1.289062 C 0.265625 -0.925781 0.382812 -0.617188 0.617188 -0.351562 C 0.863281 -0.078125 1.160156 0.0585938 1.519531 0.0585938 C 1.871094 0.0585938 2.167969 -0.078125 2.414062 -0.351562 C 2.4375 -0.375 2.46875 -0.40625 2.492188 -0.441406 L 2.492188 0 Z M 2.902344 0 "/></g></g></g><g fill="rgb(20.388794%, 27.449036%, 28.239441%)" fill-opacity="1"><g transform="translate(181.806684, 48.834994)"><g/></g></g><g fill="rgb(20.388794%, 27.449036%, 28.239441%)" fill-opacity="1"><g transform="translate(183.389199, 48.834994)"><g><path d="M 0.851562 0 L 0.851562 -4.394531 L 0.441406 -4.394531 L 0.441406 0 Z M 0.851562 0 "/></g></g></g><g fill="rgb(20.388794%, 27.449036%, 28.239441%)" fill-opacity="1"><g transform="translate(184.678654, 48.834994)"><g><path d="M 2.492188 -1.289062 C 2.492188 -1.039062 2.402344 -0.816406 2.226562 -0.632812 C 2.050781 -0.445312 1.835938 -0.351562 1.582031 -0.351562 C 1.324219 -0.351562 1.109375 -0.445312 0.933594 -0.632812 C 0.757812 -0.816406 0.675781 -1.039062 0.675781 -1.289062 C 0.675781 -1.535156 0.757812 -1.757812 0.933594 -1.945312 C 1.109375 -2.132812 1.324219 -2.226562 1.582031 -2.226562 C 1.835938 -2.226562 2.050781 -2.132812 2.226562 -1.945312 C 2.402344 -1.757812 2.492188 -1.535156 2.492188 -1.289062 Z M 2.902344 0 L 2.902344 -2.578125 L 2.492188 -2.578125 L 2.492188 -2.132812 C 2.46875 -2.167969 2.4375 -2.199219 2.414062 -2.226562 C 2.167969 -2.496094 1.871094 -2.636719 1.519531 -2.636719 C 1.160156 -2.636719 0.863281 -2.496094 0.617188 -2.226562 C 0.382812 -1.957031 0.265625 -1.648438 0.265625 -1.289062 C 0.265625 -0.925781 0.382812 -0.617188 0.617188 -0.351562 C 0.863281 -0.078125 1.160156 0.0585938 1.519531 0.0585938 C 1.871094 0.0585938 2.167969 -0.078125 2.414062 -0.351562 C 2.4375 -0.375 2.46875 -0.40625 2.492188 -0.441406 L 2.492188 0 Z M 2.902344 0 "/></g></g></g><g fill="rgb(20.388794%, 27.449036%, 28.239441%)" fill-opacity="1"><g transform="translate(188.019518, 48.834994)"><g><path d="M 2.222656 -0.441406 L 2.222656 0 L 2.632812 0 L 2.632812 -2.578125 L 2.222656 -2.578125 L 2.222656 -1.5 C 2.222656 -1.136719 2.152344 -0.863281 2.015625 -0.65625 C 1.886719 -0.457031 1.660156 -0.359375 1.34375 -0.359375 C 1.167969 -0.359375 1.039062 -0.417969 0.960938 -0.535156 C 0.886719 -0.652344 0.851562 -0.796875 0.851562 -0.96875 L 0.851562 -2.578125 L 0.441406 -2.578125 L 0.441406 -0.96875 C 0.441406 -0.667969 0.515625 -0.421875 0.679688 -0.230469 C 0.84375 -0.0429688 1.066406 0.0546875 1.359375 0.0546875 C 1.742188 0.0546875 2.027344 -0.113281 2.222656 -0.441406 Z M 2.222656 -0.441406 "/></g></g></g><g fill="rgb(20.388794%, 27.449036%, 28.239441%)" fill-opacity="1"><g transform="translate(191.002856, 48.834994)"><g><path d="M 2.527344 -1.289062 C 2.527344 -1.039062 2.4375 -0.816406 2.261719 -0.632812 C 2.085938 -0.445312 1.871094 -0.351562 1.617188 -0.351562 C 1.367188 -0.351562 1.148438 -0.445312 0.972656 -0.632812 C 0.796875 -0.816406 0.710938 -1.03125 0.710938 -1.289062 C 0.710938 -1.542969 0.796875 -1.757812 0.972656 -1.945312 C 1.148438 -2.132812 1.367188 -2.226562 1.617188 -2.226562 C 1.871094 -2.226562 2.085938 -2.132812 2.261719 -1.945312 C 2.4375 -1.757812 2.527344 -1.535156 2.527344 -1.289062 Z M 0.699219 0.351562 L 0.277344 0.351562 C 0.324219 0.628906 0.445312 0.867188 0.65625 1.074219 C 0.914062 1.335938 1.230469 1.464844 1.601562 1.464844 C 1.964844 1.464844 2.28125 1.335938 2.542969 1.074219 C 2.800781 0.816406 2.9375 0.5 2.9375 0.128906 L 2.9375 -2.578125 L 2.527344 -2.578125 L 2.527344 -2.144531 C 2.503906 -2.167969 2.480469 -2.199219 2.457031 -2.226562 C 2.199219 -2.496094 1.898438 -2.636719 1.558594 -2.636719 C 1.195312 -2.636719 0.898438 -2.496094 0.652344 -2.226562 C 0.417969 -1.957031 0.300781 -1.648438 0.300781 -1.289062 C 0.300781 -0.925781 0.417969 -0.617188 0.652344 -0.351562 C 0.898438 -0.078125 1.195312 0.0585938 1.558594 0.0585938 C 1.910156 0.0585938 2.210938 -0.078125 2.457031 -0.351562 C 2.480469 -0.375 2.503906 -0.40625 2.527344 -0.429688 L 2.527344 0.128906 C 2.527344 0.386719 2.433594 0.605469 2.25 0.785156 C 2.070312 0.96875 1.851562 1.054688 1.601562 1.054688 C 1.34375 1.054688 1.125 0.96875 0.945312 0.785156 C 0.816406 0.65625 0.734375 0.515625 0.699219 0.351562 Z M 0.699219 0.351562 "/></g></g></g><g fill="rgb(20.388794%, 27.449036%, 28.239441%)" fill-opacity="1"><g transform="translate(194.37889, 48.834994)"><g><path d="M 0.851562 0 L 0.851562 -1.078125 C 0.851562 -1.4375 0.910156 -1.707031 1.03125 -1.894531 C 1.101562 -2 1.191406 -2.074219 1.300781 -2.132812 C 1.40625 -2.191406 1.554688 -2.222656 1.730469 -2.222656 C 1.90625 -2.222656 2.027344 -2.15625 2.105469 -2.039062 C 2.179688 -1.921875 2.222656 -1.777344 2.222656 -1.613281 L 2.222656 0 L 2.632812 0 L 2.632812 -1.613281 C 2.632812 -1.910156 2.550781 -2.152344 2.398438 -2.332031 C 2.316406 -2.425781 2.222656 -2.496094 2.109375 -2.550781 C 1.992188 -2.601562 1.847656 -2.632812 1.664062 -2.632812 C 1.476562 -2.632812 1.320312 -2.578125 1.179688 -2.484375 C 1.042969 -2.398438 0.933594 -2.28125 0.851562 -2.132812 L 0.851562 -4.394531 L 0.441406 -4.394531 L 0.441406 0 Z M 0.851562 0 "/></g></g></g><g fill="rgb(20.388794%, 27.449036%, 28.239441%)" fill-opacity="1"><g transform="translate(197.362228, 48.834994)"><g/></g></g><g fill="rgb(20.388794%, 27.449036%, 28.239441%)" fill-opacity="1"><g transform="translate(198.944743, 48.834994)"><g><path d="M 1.824219 -4.015625 L 1.824219 -4.394531 L 1.53125 -4.394531 C 1.238281 -4.394531 1.03125 -4.320312 0.910156 -4.179688 C 0.785156 -4.039062 0.726562 -3.832031 0.726562 -3.574219 L 0.726562 -2.578125 L 0.207031 -2.578125 L 0.207031 -2.199219 L 0.726562 -2.199219 L 0.726562 0 L 1.136719 0 L 1.136719 -2.199219 L 1.824219 -2.199219 L 1.824219 -2.578125 L 1.136719 -2.578125 L 1.136719 -3.691406 C 1.136719 -3.78125 1.15625 -3.855469 1.203125 -3.921875 C 1.242188 -3.980469 1.332031 -4.015625 1.472656 -4.015625 Z M 1.824219 -4.015625 "/></g></g></g><g fill="rgb(20.388794%, 27.449036%, 28.239441%)" fill-opacity="1"><g transform="translate(200.9434, 48.834994)"><g><path d="M 1.765625 -2.046875 L 1.765625 -2.578125 C 1.683594 -2.613281 1.59375 -2.632812 1.507812 -2.632812 C 1.214844 -2.632812 1.003906 -2.46875 0.867188 -2.152344 L 0.851562 -2.046875 L 0.851562 -2.578125 L 0.441406 -2.578125 L 0.441406 0 L 0.851562 0 L 0.851562 -1.289062 C 0.851562 -1.5 0.898438 -1.6875 0.996094 -1.859375 C 1.042969 -1.945312 1.109375 -2.023438 1.183594 -2.082031 C 1.261719 -2.140625 1.355469 -2.175781 1.460938 -2.175781 C 1.566406 -2.175781 1.664062 -2.128906 1.765625 -2.046875 Z M 1.765625 -2.046875 "/></g></g></g><g fill="rgb(20.388794%, 27.449036%, 28.239441%)" fill-opacity="1"><g transform="translate(202.766224, 48.834994)"><g><path d="M 2.960938 -1.347656 C 2.960938 -1.699219 2.820312 -2.003906 2.550781 -2.269531 C 2.285156 -2.519531 1.96875 -2.648438 1.613281 -2.648438 C 1.238281 -2.648438 0.921875 -2.515625 0.65625 -2.25 C 0.394531 -1.988281 0.265625 -1.671875 0.265625 -1.300781 C 0.265625 -0.925781 0.394531 -0.609375 0.65625 -0.351562 C 0.78125 -0.230469 0.921875 -0.136719 1.085938 -0.0664062 C 1.25 0.0078125 1.441406 0.0429688 1.671875 0.0429688 C 1.898438 0.0429688 2.121094 -0.03125 2.34375 -0.171875 C 2.566406 -0.3125 2.730469 -0.511719 2.84375 -0.757812 L 2.375 -0.757812 C 2.28125 -0.632812 2.167969 -0.539062 2.035156 -0.46875 C 1.898438 -0.398438 1.757812 -0.371094 1.613281 -0.371094 C 1.390625 -0.371094 1.191406 -0.441406 1.015625 -0.585938 C 0.839844 -0.726562 0.726562 -0.910156 0.691406 -1.132812 L 2.960938 -1.132812 Z M 2.527344 -1.484375 L 0.699219 -1.484375 C 0.722656 -1.589844 0.761719 -1.6875 0.820312 -1.78125 C 1.007812 -2.085938 1.273438 -2.238281 1.613281 -2.238281 C 1.828125 -2.238281 2.023438 -2.167969 2.191406 -2.027344 C 2.367188 -1.882812 2.472656 -1.699219 2.527344 -1.484375 Z M 2.527344 -1.484375 "/></g></g></g><g fill="rgb(20.388794%, 27.449036%, 28.239441%)" fill-opacity="1"><g transform="translate(205.960558, 48.834994)"><g><path d="M 2.960938 -1.347656 C 2.960938 -1.699219 2.820312 -2.003906 2.550781 -2.269531 C 2.285156 -2.519531 1.96875 -2.648438 1.613281 -2.648438 C 1.238281 -2.648438 0.921875 -2.515625 0.65625 -2.25 C 0.394531 -1.988281 0.265625 -1.671875 0.265625 -1.300781 C 0.265625 -0.925781 0.394531 -0.609375 0.65625 -0.351562 C 0.78125 -0.230469 0.921875 -0.136719 1.085938 -0.0664062 C 1.25 0.0078125 1.441406 0.0429688 1.671875 0.0429688 C 1.898438 0.0429688 2.121094 -0.03125 2.34375 -0.171875 C 2.566406 -0.3125 2.730469 -0.511719 2.84375 -0.757812 L 2.375 -0.757812 C 2.28125 -0.632812 2.167969 -0.539062 2.035156 -0.46875 C 1.898438 -0.398438 1.757812 -0.371094 1.613281 -0.371094 C 1.390625 -0.371094 1.191406 -0.441406 1.015625 -0.585938 C 0.839844 -0.726562 0.726562 -0.910156 0.691406 -1.132812 L 2.960938 -1.132812 Z M 2.527344 -1.484375 L 0.699219 -1.484375 C 0.722656 -1.589844 0.761719 -1.6875 0.820312 -1.78125 C 1.007812 -2.085938 1.273438 -2.238281 1.613281 -2.238281 C 1.828125 -2.238281 2.023438 -2.167969 2.191406 -2.027344 C 2.367188 -1.882812 2.472656 -1.699219 2.527344 -1.484375 Z M 2.527344 -1.484375 "/></g></g></g><g fill="rgb(20.388794%, 27.449036%, 28.239441%)" fill-opacity="1"><g transform="translate(209.154892, 48.834994)"><g><path d="M 0.851562 0 L 0.851562 -4.394531 L 0.441406 -4.394531 L 0.441406 0 Z M 0.851562 0 "/></g></g></g><g fill="rgb(20.388794%, 27.449036%, 28.239441%)" fill-opacity="1"><g transform="translate(210.444348, 48.834994)"><g><path d="M 0.769531 1.464844 L 2.550781 -2.578125 L 2.09375 -2.578125 L 1.355469 -0.851562 L 0.527344 -2.578125 L 0.0585938 -2.578125 L 1.136719 -0.421875 L 0.269531 1.464844 Z M 0.769531 1.464844 "/></g></g></g><g fill="rgb(20.388794%, 27.449036%, 28.239441%)" fill-opacity="1"><g transform="translate(212.935346, 48.834994)"><g><path d="M 0.78125 0.0585938 C 0.867188 0.0585938 0.949219 0.03125 1.019531 -0.0351562 C 1.089844 -0.101562 1.125 -0.175781 1.125 -0.269531 C 1.125 -0.363281 1.089844 -0.441406 1.019531 -0.503906 C 0.949219 -0.570312 0.875 -0.605469 0.78125 -0.605469 C 0.6875 -0.605469 0.605469 -0.570312 0.539062 -0.503906 C 0.46875 -0.433594 0.441406 -0.359375 0.441406 -0.269531 C 0.441406 -0.175781 0.46875 -0.101562 0.539062 -0.0351562 C 0.609375 0.03125 0.6875 0.0585938 0.78125 0.0585938 Z M 0.78125 0.0585938 "/></g></g></g></svg>