<svg xmlns="http://www.w3.org/2000/svg" xmlns:xlink="http://www.w3.org/1999/xlink" width="135.75" viewBox="0 0 135.75 30.75" height="30.75" version="1.0"><defs><clipPath id="d"><path d="M 1.273438 12.808594 L 16.566406 12.808594 L 16.566406 24 L 1.273438 24 Z M 1.273438 12.808594"/></clipPath><clipPath id="e"><path d="M 4 18.589844 L 13.65625 18.589844 L 13.65625 24.167969 L 4 24.167969 Z M 4 18.589844"/></clipPath><clipPath id="f"><path d="M 7.828125 23 L 22.394531 23 L 22.394531 24 L 7.828125 24 Z M 7.828125 23"/></clipPath><clipPath id="g"><path d="M 23.851562 22.203125 L 33.320312 22.203125 L 33.320312 24 L 23.851562 24 Z M 23.851562 22.203125"/></clipPath><clipPath id="h"><path d="M 21 0.476562 L 33.320312 0.476562 L 33.320312 23 L 21 23 Z M 21 0.476562"/></clipPath><clipPath id="i"><path d="M 15 0.476562 L 21 0.476562 L 21 9 L 15 9 Z M 15 0.476562"/></clipPath><clipPath id="c"><path d="M0 0H34V25H0z"/></clipPath><clipPath id="j"><path d="M 63 22 L 109 22 L 109 30.503906 L 63 30.503906 Z M 63 22"/></clipPath><clipPath id="m"><path d="M 0.273438 3 L 4 3 L 4 8.503906 L 0.273438 8.503906 Z M 0.273438 3"/></clipPath><clipPath id="n"><path d="M 7 3 L 11 3 L 11 8.503906 L 7 8.503906 Z M 7 3"/></clipPath><clipPath id="o"><path d="M 36 3 L 40 3 L 40 8.503906 L 36 8.503906 Z M 36 3"/></clipPath><clipPath id="l"><path d="M0 0H46V9H0z"/></clipPath><mask id="b"><g filter="url(#a)"><path fill-opacity=".859" d="M-13.575 -3.075H149.32500000000002V33.824999999999996H-13.575z"/></g></mask><mask id="k"><g filter="url(#a)"><path fill-opacity=".859" d="M-13.575 -3.075H149.32500000000002V33.824999999999996H-13.575z"/></g></mask><filter x="0%" y="0%" width="100%" xmlns:xlink="http://www.w3.org/1999/xlink" xlink:type="simple" xlink:actuate="onLoad" height="100%" id="a" xlink:show="other"><feColorMatrix values="0 0 0 0 1 0 0 0 0 1 0 0 0 0 1 0 0 0 1 0" color-interpolation-filters="sRGB"/></filter></defs><g mask="url(#b)"><g><g clip-path="url(#c)" transform="translate(8 5)"><g clip-path="url(#d)"><path d="M 15.976562 12.859375 C 15.742188 13.074219 15.539062 13.308594 15.359375 13.570312 C 15.175781 13.804688 14.996094 14.046875 14.808594 14.28125 C 14.425781 14.773438 14.027344 15.261719 13.613281 15.726562 C 13.203125 16.191406 12.765625 16.628906 12.308594 17.046875 C 11.859375 17.472656 11.382812 17.871094 10.878906 18.238281 C 10.367188 18.59375 9.878906 18.976562 9.382812 19.347656 L 8.808594 19.765625 L 8.785156 19.769531 C 8.648438 19.789062 8.507812 19.792969 8.367188 19.777344 C 8.121094 19.757812 7.875 19.734375 7.621094 19.734375 C 7.117188 19.726562 6.617188 19.746094 6.113281 19.785156 C 5.128906 19.78125 4.21875 20.28125 3.699219 21.109375 C 3.480469 21.566406 3.601562 22.113281 3.996094 22.4375 C 4.03125 22.464844 4.082031 22.453125 4.109375 22.417969 C 4.128906 22.390625 4.128906 22.351562 4.109375 22.324219 C 3.898438 21.984375 3.902344 21.554688 4.121094 21.21875 C 4.351562 20.882812 4.683594 20.628906 5.066406 20.492188 C 5.921875 20.25 6.808594 20.140625 7.695312 20.175781 C 7.941406 20.160156 8.1875 20.113281 8.421875 20.046875 L 8.433594 20.046875 C 8.210938 20.210938 7.992188 20.375 7.773438 20.539062 C 7.273438 20.925781 6.785156 21.320312 6.28125 21.699219 C 6.046875 21.875 5.808594 22.046875 5.5625 22.207031 C 5.316406 22.363281 5.054688 22.476562 4.800781 22.617188 C 4.527344 22.753906 4.230469 22.847656 3.925781 22.890625 C 3.621094 22.957031 3.316406 23.019531 3.011719 23.085938 C 2.710938 23.15625 2.410156 23.21875 2.113281 23.320312 C 1.828125 23.417969 1.554688 23.554688 1.304688 23.730469 C 1.21875 23.789062 1.316406 23.910156 1.40625 23.859375 C 1.660156 23.726562 1.929688 23.621094 2.207031 23.546875 C 2.472656 23.46875 2.746094 23.410156 3.023438 23.371094 C 3.582031 23.3125 4.132812 23.210938 4.679688 23.074219 C 4.804688 23.039062 4.9375 23.015625 5.058594 22.972656 C 5.210938 22.921875 5.355469 22.863281 5.496094 22.792969 C 5.765625 22.664062 6.023438 22.519531 6.273438 22.359375 C 6.792969 22.027344 7.28125 21.652344 7.769531 21.28125 C 8.304688 20.878906 8.839844 20.476562 9.359375 20.054688 C 9.855469 19.652344 10.375 19.28125 10.859375 18.867188 C 11.097656 18.667969 11.320312 18.453125 11.558594 18.253906 C 11.800781 18.054688 12.035156 17.851562 12.265625 17.644531 C 12.738281 17.230469 13.195312 16.796875 13.625 16.335938 C 14.101562 15.832031 14.550781 15.296875 14.984375 14.753906 C 15.207031 14.476562 15.421875 14.199219 15.636719 13.917969 C 15.863281 13.652344 16.054688 13.359375 16.210938 13.042969 C 16.242188 12.964844 16.207031 12.875 16.128906 12.839844 C 16.074219 12.820312 16.019531 12.828125 15.976562 12.859375"/></g><g clip-path="url(#e)"><path d="M 12.84375 18.960938 C 12.730469 19.054688 12.621094 19.15625 12.519531 19.265625 C 12.417969 19.371094 12.328125 19.492188 12.230469 19.605469 C 12.042969 19.8125 11.832031 20 11.613281 20.171875 C 11.109375 20.539062 10.585938 20.886719 10.046875 21.203125 C 9.445312 21.582031 8.847656 21.976562 8.226562 22.332031 C 7.613281 22.679688 7.003906 23.027344 6.371094 23.335938 C 6.03125 23.503906 5.683594 23.644531 5.324219 23.765625 C 4.964844 23.894531 4.59375 23.980469 4.21875 24.023438 C 4.144531 24.03125 4.140625 24.152344 4.214844 24.15625 C 4.550781 24.1875 4.886719 24.164062 5.214844 24.097656 C 5.554688 24.011719 5.882812 23.902344 6.207031 23.757812 C 6.855469 23.472656 7.484375 23.128906 8.113281 22.800781 C 8.441406 22.625 8.769531 22.433594 9.105469 22.261719 C 9.445312 22.09375 9.78125 21.925781 10.113281 21.742188 C 10.691406 21.429688 11.25 21.082031 11.785156 20.703125 C 12.074219 20.492188 12.34375 20.253906 12.585938 20 C 12.839844 19.753906 13.007812 19.4375 13.0625 19.09375 C 13.074219 18.980469 12.9375 18.878906 12.84375 18.960938"/></g><path d="M 20.191406 17.910156 C 19.726562 17.882812 19.261719 17.832031 18.796875 17.757812 C 18.457031 17.707031 17.972656 17.699219 17.757812 17.386719 C 17.566406 17.050781 17.53125 16.648438 17.65625 16.285156 C 17.722656 16.074219 17.800781 15.867188 17.894531 15.664062 L 17.941406 15.5625 C 18.480469 14.96875 18.894531 14.265625 19.15625 13.503906 C 19.273438 13.164062 19.335938 12.8125 19.351562 12.453125 C 19.34375 12.09375 19.273438 11.746094 19.136719 11.414062 C 19.109375 11.351562 19.035156 11.320312 18.964844 11.347656 C 18.914062 11.371094 18.882812 11.421875 18.890625 11.476562 C 18.894531 11.777344 18.871094 12.074219 18.820312 12.367188 C 18.78125 12.652344 18.726562 12.929688 18.652344 13.207031 C 18.472656 13.765625 18.214844 14.289062 17.875 14.765625 C 17.164062 15.734375 16.339844 16.617188 15.421875 17.390625 C 15.164062 17.621094 14.898438 17.847656 14.625 18.0625 C 14.355469 18.285156 14.09375 18.515625 13.824219 18.734375 C 13.765625 18.78125 13.824219 18.898438 13.894531 18.859375 C 14.179688 18.703125 14.460938 18.558594 14.730469 18.375 C 14.996094 18.195312 15.257812 18.007812 15.515625 17.8125 C 16.035156 17.421875 16.527344 16.996094 16.992188 16.546875 L 17.1875 16.355469 C 17.039062 16.789062 17.046875 17.261719 17.210938 17.691406 C 17.328125 17.933594 17.535156 18.117188 17.792969 18.199219 C 18.03125 18.261719 18.273438 18.289062 18.523438 18.28125 C 19.082031 18.289062 19.636719 18.25 20.1875 18.164062 C 20.324219 18.144531 20.34375 17.917969 20.191406 17.910156"/><path d="M 18.25 11.308594 C 17.722656 11.132812 17.148438 11.152344 16.632812 11.363281 C 16.117188 11.511719 15.632812 11.734375 15.128906 11.914062 C 14.996094 11.960938 14.863281 12.015625 14.726562 12.050781 C 14.671875 12.066406 14.613281 12.074219 14.554688 12.078125 L 14.46875 12.070312 C 14.324219 12.003906 14.210938 11.898438 14.136719 11.757812 C 14.054688 11.570312 14.058594 11.355469 14.148438 11.167969 C 14.230469 10.925781 14.363281 10.707031 14.445312 10.460938 C 14.460938 10.414062 14.441406 10.363281 14.394531 10.347656 C 14.367188 10.335938 14.335938 10.339844 14.3125 10.355469 C 13.996094 10.597656 13.769531 10.9375 13.675781 11.320312 C 13.410156 11.617188 13.164062 11.929688 12.941406 12.261719 C 12.90625 12.308594 12.917969 12.371094 12.964844 12.40625 C 13.007812 12.4375 13.070312 12.429688 13.101562 12.390625 C 13.289062 12.1875 13.46875 11.976562 13.632812 11.757812 C 13.632812 12.058594 13.765625 12.347656 13.996094 12.542969 C 14.183594 12.683594 14.417969 12.75 14.652344 12.726562 C 14.90625 12.683594 15.152344 12.59375 15.375 12.460938 C 15.804688 12.238281 16.253906 12.054688 16.714844 11.90625 C 17.21875 11.75 17.738281 11.734375 18.246094 11.605469 C 18.394531 11.570312 18.363281 11.363281 18.25 11.308594"/><path d="M 12.820312 15.253906 C 12.753906 15.105469 12.679688 14.960938 12.59375 14.824219 C 12.523438 14.683594 12.472656 14.535156 12.441406 14.382812 C 12.40625 14.203125 12.398438 14.019531 12.417969 13.839844 C 12.433594 13.632812 12.472656 13.429688 12.527344 13.226562 C 12.5625 13.128906 12.410156 13.0625 12.375 13.164062 C 12.304688 13.378906 12.1875 13.578125 12.128906 13.796875 C 12.070312 14.007812 12.042969 14.226562 12.0625 14.445312 C 12.074219 14.847656 12.296875 15.21875 12.648438 15.414062 C 12.71875 15.441406 12.792969 15.410156 12.816406 15.34375 C 12.828125 15.3125 12.832031 15.28125 12.820312 15.253906"/><path d="M 15.484375 9.273438 C 15.046875 9.386719 14.613281 9.507812 14.191406 9.660156 C 13.761719 9.828125 13.351562 10.035156 12.960938 10.28125 C 12.578125 10.496094 12.230469 10.761719 11.917969 11.066406 C 11.640625 11.402344 11.480469 11.820312 11.460938 12.257812 C 11.347656 12.714844 11.460938 13.199219 11.769531 13.558594 C 11.828125 13.601562 11.90625 13.589844 11.949219 13.53125 C 11.976562 13.496094 11.984375 13.449219 11.96875 13.410156 C 11.898438 13.191406 11.886719 12.957031 11.925781 12.726562 C 11.960938 12.496094 12 12.257812 12.046875 12.03125 C 12.085938 11.8125 12.175781 11.605469 12.308594 11.429688 C 12.46875 11.253906 12.648438 11.097656 12.847656 10.964844 C 13.257812 10.65625 13.6875 10.378906 14.136719 10.128906 C 14.589844 9.863281 15.058594 9.625 15.542969 9.425781 C 15.644531 9.386719 15.582031 9.246094 15.484375 9.273438"/><path d="M 19.203125 21.914062 C 19.078125 21.921875 18.957031 21.914062 18.832031 21.910156 C 18.695312 21.90625 18.558594 21.917969 18.421875 21.90625 C 18.300781 21.898438 18.179688 21.871094 18.054688 21.863281 C 17.921875 21.851562 17.789062 21.855469 17.65625 21.859375 C 17.144531 21.871094 16.632812 21.882812 16.121094 21.890625 L 16.074219 21.894531 C 15.738281 21.714844 15.4375 21.484375 15.175781 21.210938 C 15.007812 21.027344 14.855469 20.835938 14.710938 20.632812 L 14.492188 20.332031 C 14.402344 20.226562 14.316406 20.113281 14.242188 19.992188 C 14.199219 19.898438 14.054688 19.957031 14.09375 20.050781 C 14.144531 20.183594 14.179688 20.324219 14.210938 20.464844 C 14.253906 20.597656 14.300781 20.734375 14.355469 20.863281 C 14.460938 21.128906 14.609375 21.382812 14.785156 21.609375 C 14.871094 21.714844 14.964844 21.8125 15.066406 21.90625 C 14.449219 21.910156 13.828125 21.90625 13.210938 21.863281 C 12.679688 21.871094 12.15625 21.789062 11.65625 21.621094 C 11.617188 21.601562 11.570312 21.621094 11.554688 21.660156 C 11.539062 21.699219 11.554688 21.746094 11.59375 21.761719 C 11.8125 21.855469 12.019531 21.964844 12.242188 22.046875 C 12.457031 22.125 12.671875 22.1875 12.894531 22.230469 C 13.367188 22.3125 13.84375 22.355469 14.324219 22.363281 C 15.367188 22.414062 16.410156 22.410156 17.453125 22.351562 C 17.746094 22.347656 18.035156 22.3125 18.320312 22.25 C 18.46875 22.210938 18.621094 22.183594 18.773438 22.167969 C 18.925781 22.148438 19.070312 22.117188 19.222656 22.101562 C 19.277344 22.097656 19.3125 22.046875 19.308594 21.996094 C 19.300781 21.945312 19.253906 21.910156 19.203125 21.914062"/><path d="M 30.460938 20.78125 C 30.246094 20.742188 30.042969 20.648438 29.875 20.507812 C 29.703125 20.351562 29.566406 20.164062 29.472656 19.949219 C 29.246094 19.453125 29.074219 18.929688 28.964844 18.398438 C 28.839844 17.839844 28.765625 17.273438 28.699219 16.710938 C 28.628906 16.136719 28.519531 15.574219 28.4375 15.007812 C 28.425781 14.417969 28.230469 13.84375 27.875 13.367188 C 27.839844 13.324219 27.773438 13.316406 27.726562 13.351562 C 27.683594 13.386719 27.671875 13.449219 27.707031 13.496094 C 27.832031 13.734375 27.894531 14.003906 27.890625 14.273438 C 27.917969 14.570312 27.945312 14.867188 27.964844 15.160156 C 27.984375 15.457031 27.972656 15.753906 27.988281 16.050781 C 28.007812 16.351562 28.023438 16.65625 28.058594 16.960938 C 28.117188 17.554688 28.214844 18.140625 28.351562 18.71875 C 28.46875 19.285156 28.664062 19.835938 28.929688 20.347656 C 28.648438 20.3125 28.371094 20.269531 28.089844 20.21875 C 27.507812 20.113281 26.929688 19.980469 26.355469 19.839844 C 25.214844 19.511719 24.050781 19.277344 22.871094 19.144531 L 22.800781 19.144531 C 22.644531 18.867188 22.429688 18.632812 22.164062 18.460938 C 21.867188 18.28125 21.535156 18.15625 21.1875 18.09375 C 21.09375 18.074219 21.070312 18.222656 21.167969 18.246094 C 21.648438 18.390625 22.0625 18.707031 22.335938 19.128906 C 22.1875 19.132812 22.039062 19.136719 21.890625 19.152344 C 21.722656 19.164062 21.554688 19.175781 21.386719 19.203125 C 21.230469 19.234375 21.078125 19.292969 20.921875 19.335938 C 20.839844 19.359375 20.863281 19.484375 20.9375 19.488281 C 21.082031 19.503906 21.21875 19.535156 21.355469 19.558594 C 21.503906 19.578125 21.65625 19.585938 21.804688 19.605469 C 22.089844 19.640625 22.371094 19.6875 22.652344 19.730469 C 23.230469 19.816406 23.804688 19.929688 24.378906 20.054688 C 25.535156 20.304688 26.671875 20.632812 27.835938 20.855469 C 28.390625 20.996094 28.964844 21.054688 29.535156 21.023438 L 29.652344 21.089844 C 29.792969 21.15625 29.945312 21.199219 30.101562 21.210938 C 30.25 21.210938 30.40625 21.175781 30.542969 21.105469 C 30.628906 21.070312 30.667969 20.96875 30.632812 20.882812 C 30.605469 20.8125 30.53125 20.773438 30.460938 20.78125"/><g clip-path="url(#f)"><path d="M 22.199219 23.617188 C 21.851562 23.375 21.445312 23.226562 21.019531 23.179688 C 20.613281 23.105469 20.203125 23.066406 19.789062 23.0625 C 18.914062 23.046875 18.042969 23.140625 17.164062 23.179688 C 16.195312 23.21875 15.226562 23.296875 14.253906 23.335938 C 13.285156 23.371094 12.316406 23.398438 11.347656 23.414062 C 10.8125 23.425781 10.277344 23.421875 9.742188 23.425781 C 9.46875 23.429688 9.199219 23.429688 8.925781 23.425781 C 8.636719 23.421875 8.34375 23.449219 8.050781 23.4375 C 7.957031 23.433594 7.925781 23.574219 8.027344 23.585938 C 8.261719 23.613281 8.492188 23.664062 8.722656 23.695312 C 8.964844 23.726562 9.210938 23.746094 9.453125 23.769531 C 9.929688 23.8125 10.40625 23.84375 10.886719 23.871094 C 11.851562 23.914062 12.8125 23.933594 13.777344 23.90625 C 14.730469 23.878906 15.683594 23.839844 16.628906 23.75 C 17.519531 23.664062 18.398438 23.519531 19.289062 23.472656 C 19.753906 23.441406 20.21875 23.464844 20.675781 23.535156 C 20.90625 23.574219 21.125 23.628906 21.339844 23.707031 C 21.558594 23.789062 21.761719 23.90625 21.988281 23.972656 C 22.097656 24.011719 22.21875 23.960938 22.261719 23.855469 C 22.292969 23.769531 22.269531 23.675781 22.199219 23.617188"/></g><path d="M 22.03125 22.597656 C 21.820312 22.433594 21.585938 22.300781 21.328125 22.210938 C 21.238281 22.175781 21.15625 22.300781 21.238281 22.355469 C 21.4375 22.5 21.609375 22.671875 21.753906 22.867188 C 21.910156 23.046875 22.003906 23.308594 22.214844 23.421875 C 22.304688 23.460938 22.40625 23.417969 22.445312 23.332031 C 22.449219 23.316406 22.453125 23.300781 22.457031 23.289062 C 22.476562 23.003906 22.222656 22.777344 22.03125 22.597656"/><g clip-path="url(#g)"><path d="M 32.949219 22.535156 C 32.824219 22.585938 32.714844 22.65625 32.617188 22.742188 C 32.527344 22.808594 32.433594 22.863281 32.332031 22.910156 C 32.113281 23.007812 31.886719 23.074219 31.65625 23.117188 C 31.113281 23.1875 30.566406 23.230469 30.019531 23.230469 C 28.75 23.28125 27.484375 23.308594 26.214844 23.253906 C 25.859375 23.238281 25.503906 23.214844 25.144531 23.191406 C 24.777344 23.1875 24.414062 23.164062 24.046875 23.105469 C 23.941406 23.085938 23.921875 23.25 24.023438 23.269531 C 24.355469 23.34375 24.671875 23.484375 25.003906 23.5625 C 25.324219 23.632812 25.648438 23.6875 25.972656 23.726562 C 26.640625 23.808594 27.304688 23.855469 27.972656 23.863281 C 28.652344 23.882812 29.332031 23.871094 30.007812 23.855469 C 30.582031 23.859375 31.15625 23.820312 31.726562 23.738281 C 32.019531 23.695312 32.3125 23.609375 32.585938 23.484375 C 32.722656 23.421875 32.855469 23.34375 32.980469 23.257812 C 33.144531 23.15625 33.261719 23.003906 33.3125 22.824219 C 33.371094 22.609375 33.117188 22.484375 32.949219 22.535156"/></g><g clip-path="url(#h)"><path d="M 33.039062 21.070312 C 32.976562 20.8125 32.898438 20.558594 32.820312 20.308594 C 32.671875 19.832031 32.496094 19.359375 32.320312 18.890625 C 31.964844 17.953125 31.59375 17.015625 31.234375 16.078125 C 30.867188 15.136719 30.496094 14.191406 30.15625 13.234375 C 29.992188 12.761719 29.828125 12.289062 29.675781 11.808594 C 29.523438 11.320312 29.378906 10.832031 29.210938 10.34375 C 29.019531 9.8125 28.769531 9.304688 28.46875 8.824219 C 28.320312 8.589844 28.160156 8.367188 27.996094 8.144531 C 27.890625 8.007812 27.785156 7.882812 27.671875 7.757812 C 27.773438 7.753906 27.84375 7.671875 27.839844 7.578125 C 27.839844 7.578125 27.839844 7.574219 27.839844 7.570312 C 27.824219 7.425781 27.773438 7.285156 27.691406 7.160156 C 27.617188 7.019531 27.535156 6.878906 27.445312 6.742188 C 27.273438 6.492188 27.085938 6.25 26.886719 6.019531 C 26.511719 5.550781 26.113281 5.097656 25.707031 4.65625 C 24.882812 3.769531 24 2.9375 23.0625 2.167969 C 22.539062 1.730469 21.980469 1.328125 21.425781 0.917969 C 21.375 0.886719 21.3125 0.894531 21.273438 0.941406 C 21.238281 0.992188 21.25 1.050781 21.292969 1.089844 C 22.1875 1.878906 23.027344 2.730469 23.847656 3.589844 C 24.671875 4.449219 25.449219 5.359375 26.210938 6.273438 C 26.425781 6.53125 26.628906 6.808594 26.847656 7.0625 C 26.957031 7.195312 27.074219 7.316406 27.199219 7.4375 L 27.285156 7.519531 C 27.277344 7.542969 27.28125 7.570312 27.292969 7.59375 C 27.417969 7.816406 27.53125 8.046875 27.660156 8.265625 C 27.78125 8.476562 27.898438 8.6875 28.011719 8.90625 C 28.242188 9.34375 28.429688 9.804688 28.574219 10.28125 C 28.867188 11.25 29.105469 12.226562 29.429688 13.183594 C 30.074219 15.085938 30.929688 16.910156 31.632812 18.792969 C 31.828125 19.3125 32.011719 19.835938 32.175781 20.363281 C 32.265625 20.632812 32.355469 20.898438 32.4375 21.164062 C 32.480469 21.304688 32.53125 21.4375 32.59375 21.566406 L 32.8125 21.9375 C 32.902344 22.09375 33.101562 21.960938 33.105469 21.824219 C 33.117188 21.570312 33.09375 21.320312 33.039062 21.070312"/></g><path d="M 27.414062 10.324219 C 27.441406 10.109375 27.441406 9.890625 27.417969 9.675781 C 27.402344 9.558594 27.386719 9.445312 27.367188 9.332031 C 27.355469 9.222656 27.328125 9.117188 27.289062 9.015625 C 27.269531 8.96875 27.214844 8.945312 27.167969 8.964844 C 27.148438 8.976562 27.125 8.992188 27.117188 9.015625 L 27.113281 9.011719 C 27.078125 9.128906 27.0625 9.253906 27.0625 9.375 L 27.015625 9.714844 C 26.992188 9.957031 26.945312 10.191406 26.882812 10.425781 C 26.707031 10.835938 26.492188 11.230469 26.242188 11.597656 C 26.027344 11.976562 26.015625 12.441406 26.207031 12.828125 C 26.308594 13.023438 26.441406 13.199219 26.597656 13.347656 C 26.753906 13.496094 27.082031 13.675781 27.269531 13.492188 C 27.347656 13.425781 27.378906 13.316406 27.347656 13.214844 C 27.292969 13.015625 27.027344 12.96875 26.875 12.875 C 26.742188 12.785156 26.652344 12.652344 26.617188 12.5 C 26.570312 12.144531 26.675781 11.789062 26.90625 11.515625 C 27.160156 11.160156 27.335938 10.753906 27.414062 10.324219"/><path d="M 20.921875 6.214844 C 20.738281 6.316406 20.578125 6.441406 20.441406 6.597656 C 20.292969 6.742188 20.15625 6.898438 20.019531 7.050781 C 19.882812 7.214844 19.71875 7.355469 19.53125 7.460938 C 19.324219 7.582031 19.128906 7.71875 18.945312 7.871094 C 18.558594 8.160156 18.222656 8.488281 17.824219 8.753906 C 17.445312 9.015625 17.070312 9.277344 16.683594 9.519531 C 16.242188 9.8125 15.789062 10.082031 15.320312 10.328125 C 15.269531 10.347656 15.246094 10.402344 15.269531 10.453125 C 15.289062 10.5 15.34375 10.527344 15.394531 10.503906 C 15.835938 10.371094 16.265625 10.191406 16.671875 9.96875 C 17.078125 9.738281 17.46875 9.484375 17.839844 9.207031 C 18.03125 9.070312 18.210938 8.917969 18.410156 8.792969 C 18.621094 8.65625 18.84375 8.554688 19.050781 8.414062 C 19.25 8.285156 19.449219 8.144531 19.632812 7.996094 C 19.785156 7.828125 19.925781 7.652344 20.054688 7.46875 C 20.222656 7.285156 20.378906 7.101562 20.546875 6.917969 C 20.710938 6.738281 20.90625 6.59375 21.070312 6.417969 C 21.164062 6.324219 21.039062 6.164062 20.921875 6.214844"/><path d="M 22.535156 13.863281 C 22.179688 13.96875 21.804688 13.976562 21.445312 13.886719 C 21.097656 13.804688 20.777344 13.628906 20.515625 13.378906 C 20.382812 13.261719 20.304688 13.09375 20.292969 12.917969 C 20.292969 12.789062 20.320312 12.65625 20.371094 12.539062 C 20.519531 12.667969 20.6875 12.777344 20.867188 12.867188 C 21.59375 13.214844 22.417969 13.304688 23.203125 13.125 L 23.28125 13.101562 C 23.1875 13.46875 22.902344 13.757812 22.535156 13.863281 Z M 25.972656 9.628906 C 25.941406 9.183594 25.832031 8.75 25.648438 8.347656 C 25.492188 7.933594 25.242188 7.566406 24.917969 7.269531 C 24.851562 7.226562 24.769531 7.238281 24.722656 7.296875 C 24.6875 7.347656 24.6875 7.410156 24.71875 7.460938 C 24.9375 7.730469 25.121094 8.03125 25.261719 8.347656 C 25.378906 8.667969 25.433594 9.003906 25.4375 9.34375 C 25.453125 10 25.265625 10.644531 24.902344 11.195312 C 24.539062 11.726562 24.011719 12.125 23.394531 12.328125 C 22.800781 12.53125 22.152344 12.550781 21.550781 12.378906 C 21.15625 12.269531 20.800781 12.0625 20.511719 11.78125 C 20.378906 11.632812 20.273438 11.464844 20.191406 11.28125 C 20.085938 11.09375 20.03125 10.878906 20.035156 10.660156 C 20.042969 10.597656 19.996094 10.539062 19.929688 10.535156 C 19.871094 10.527344 19.816406 10.566406 19.804688 10.628906 C 19.761719 10.832031 19.738281 11.035156 19.730469 11.246094 C 19.738281 11.460938 19.785156 11.671875 19.878906 11.871094 C 19.949219 12.03125 20.046875 12.183594 20.15625 12.320312 C 19.886719 12.554688 19.769531 12.917969 19.847656 13.265625 C 19.972656 13.671875 20.25 14.019531 20.621094 14.238281 C 21.363281 14.71875 22.3125 14.742188 23.074219 14.296875 C 23.285156 14.164062 23.449219 13.96875 23.546875 13.738281 C 23.648438 13.523438 23.636719 13.269531 23.511719 13.066406 L 23.496094 13.042969 C 24.183594 12.84375 24.800781 12.449219 25.265625 11.90625 C 25.777344 11.257812 26.027344 10.449219 25.972656 9.628906"/><g clip-path="url(#i)"><path d="M 20.195312 0.5625 C 19.929688 0.757812 19.695312 0.980469 19.496094 1.238281 C 19.292969 1.480469 19.089844 1.722656 18.894531 1.972656 C 18.492188 2.476562 18.132812 3.011719 17.820312 3.574219 C 17.304688 4.628906 16.886719 5.726562 16.570312 6.851562 C 16.464844 7.167969 16.347656 7.480469 16.222656 7.785156 C 16.105469 8.101562 15.953125 8.402344 15.769531 8.683594 C 15.6875 8.792969 15.855469 8.925781 15.9375 8.8125 C 16.304688 8.359375 16.628906 7.871094 16.902344 7.359375 C 17.164062 6.828125 17.371094 6.277344 17.585938 5.730469 C 17.800781 5.1875 18.011719 4.648438 18.273438 4.128906 C 18.558594 3.589844 18.890625 3.070312 19.261719 2.585938 C 19.476562 2.296875 19.699219 2.015625 19.929688 1.738281 C 20.179688 1.46875 20.390625 1.171875 20.558594 0.847656 C 20.609375 0.726562 20.550781 0.585938 20.421875 0.535156 C 20.347656 0.507812 20.261719 0.515625 20.195312 0.5625"/></g><path d="M 26.132812 6.769531 C 25.972656 6.300781 25.671875 5.890625 25.273438 5.597656 C 24.878906 5.285156 24.457031 5.019531 24.003906 4.800781 C 23.113281 4.414062 22.253906 3.964844 21.429688 3.457031 C 21.207031 3.304688 21 3.132812 20.804688 2.953125 C 20.601562 2.785156 20.421875 2.585938 20.277344 2.367188 C 20.21875 2.273438 20.074219 2.367188 20.109375 2.460938 C 20.175781 2.652344 20.253906 2.839844 20.339844 3.019531 C 20.195312 3.324219 20.078125 3.636719 19.980469 3.957031 C 19.84375 4.34375 19.707031 4.726562 19.5625 5.105469 C 19.425781 5.480469 19.289062 5.855469 19.148438 6.226562 C 19.078125 6.414062 19.011719 6.601562 18.945312 6.789062 C 18.871094 6.996094 18.828125 7.207031 18.746094 7.414062 C 18.730469 7.457031 18.75 7.507812 18.796875 7.523438 C 18.839844 7.539062 18.886719 7.519531 18.90625 7.480469 C 19.003906 7.296875 19.128906 7.125 19.226562 6.941406 C 19.324219 6.757812 19.417969 6.570312 19.507812 6.378906 C 19.679688 6.011719 19.839844 5.636719 19.992188 5.257812 C 20.140625 4.882812 20.285156 4.503906 20.417969 4.117188 C 20.496094 3.894531 20.582031 3.671875 20.640625 3.441406 C 20.714844 3.527344 20.789062 3.605469 20.871094 3.679688 C 21.238281 4.015625 21.644531 4.300781 22.089844 4.527344 C 22.976562 4.933594 23.847656 5.382812 24.691406 5.882812 C 24.910156 6.035156 25.117188 6.195312 25.3125 6.378906 C 25.511719 6.5625 25.691406 6.765625 25.882812 6.957031 C 26.015625 7.082031 26.167969 6.902344 26.132812 6.769531"/><path d="M 24.886719 8.898438 C 24.554688 9.074219 24.28125 9.332031 23.949219 9.507812 C 23.667969 9.671875 23.417969 9.875 23.195312 10.113281 C 23.199219 9.996094 23.171875 9.878906 23.109375 9.78125 C 23.066406 9.710938 22.980469 9.78125 23 9.84375 C 23.046875 10.019531 22.882812 10.136719 22.742188 10.210938 C 22.554688 10.28125 22.34375 10.269531 22.164062 10.179688 C 21.984375 10.097656 21.820312 9.988281 21.679688 9.851562 C 21.5625 9.734375 21.363281 9.515625 21.484375 9.347656 C 21.511719 9.308594 21.503906 9.253906 21.46875 9.226562 C 21.429688 9.203125 21.375 9.207031 21.347656 9.242188 C 21.1875 9.457031 21.191406 9.761719 21.367188 9.96875 C 21.5625 10.234375 21.824219 10.4375 22.132812 10.558594 C 22.265625 10.609375 22.402344 10.640625 22.539062 10.648438 C 22.421875 10.722656 22.296875 10.789062 22.171875 10.847656 C 22 10.921875 21.820312 10.972656 21.636719 11.003906 C 21.445312 11.046875 21.242188 11.035156 21.054688 10.972656 C 20.949219 10.921875 20.871094 11.089844 20.980469 11.144531 C 21.15625 11.246094 21.339844 11.328125 21.53125 11.382812 C 21.722656 11.417969 21.917969 11.421875 22.109375 11.386719 C 22.527344 11.300781 22.921875 11.109375 23.246094 10.828125 C 23.570312 10.566406 23.855469 10.257812 24.082031 9.910156 C 24.183594 9.722656 24.300781 9.546875 24.441406 9.386719 C 24.59375 9.242188 24.761719 9.109375 24.941406 9 C 25 8.964844 24.945312 8.867188 24.886719 8.898438"/><path d="M 24.078125 6.929688 C 23.890625 7.140625 23.75 7.378906 23.648438 7.636719 C 23.601562 7.84375 23.613281 8.246094 23.847656 8.347656 C 23.941406 8.386719 24.054688 8.34375 24.09375 8.25 C 24.144531 8.121094 24.046875 8.007812 24.019531 7.886719 C 23.992188 7.59375 24.0625 7.296875 24.226562 7.046875 C 24.289062 6.945312 24.140625 6.828125 24.078125 6.929688"/><path d="M 23.960938 6.828125 C 23.878906 6.5 23.679688 6.246094 23.304688 6.308594 C 23.230469 6.320312 23.15625 6.34375 23.089844 6.375 C 23 6.410156 22.902344 6.417969 22.8125 6.386719 C 22.613281 6.335938 22.417969 6.296875 22.214844 6.277344 C 22.191406 6.273438 22.164062 6.289062 22.160156 6.320312 C 22.15625 6.339844 22.167969 6.359375 22.191406 6.371094 C 22.347656 6.441406 22.511719 6.5 22.683594 6.550781 C 22.808594 6.605469 22.945312 6.625 23.082031 6.597656 C 23.148438 6.574219 23.21875 6.511719 23.285156 6.5 C 23.363281 6.488281 23.425781 6.546875 23.480469 6.59375 C 23.597656 6.691406 23.695312 6.808594 23.808594 6.914062 C 23.847656 6.945312 23.910156 6.9375 23.941406 6.894531 C 23.957031 6.875 23.964844 6.851562 23.960938 6.828125"/></g></g></g><g><g><g><path d="M 11.398438 -4.601562 C 11.316406 -4.6875 11.214844 -4.71875 11.101562 -4.71875 C 10.984375 -4.71875 10.867188 -4.6875 10.785156 -4.601562 C 9.1875 -3.089844 7.230469 -2.027344 5.085938 -1.511719 C 5 -1.480469 4.902344 -1.511719 4.851562 -1.578125 C 4.800781 -1.660156 4.785156 -1.746094 4.835938 -1.828125 C 5.136719 -2.410156 5.066406 -3.109375 4.6875 -3.640625 C 4.453125 -3.953125 4.15625 -4.222656 3.804688 -4.421875 C 3.339844 -4.734375 2.824219 -5.101562 2.808594 -5.484375 C 2.824219 -5.699219 2.90625 -5.898438 3.058594 -6.066406 L 3.953125 -6.914062 C 4.121094 -7.078125 4.136719 -7.34375 3.988281 -7.511719 C 3.839844 -7.695312 3.589844 -7.726562 3.390625 -7.578125 C 3.039062 -7.3125 2.707031 -7.011719 2.425781 -6.664062 L -0.132812 -4.269531 C -0.25 -4.171875 -0.300781 -4.003906 -0.265625 -3.855469 C -0.234375 -3.6875 -0.117188 -3.574219 0.0351562 -3.523438 C 0.183594 -3.488281 0.347656 -3.523438 0.464844 -3.640625 L 1.726562 -4.820312 C 1.792969 -4.886719 1.878906 -4.902344 1.960938 -4.902344 C 2.042969 -4.886719 2.109375 -4.835938 2.144531 -4.769531 C 2.460938 -4.335938 2.859375 -3.972656 3.308594 -3.707031 C 3.554688 -3.554688 3.773438 -3.390625 3.953125 -3.175781 C 4.121094 -2.992188 4.203125 -2.742188 4.15625 -2.492188 C 4.105469 -2.242188 3.953125 -2.027344 3.738281 -1.910156 C 2.675781 -1.3125 1.328125 -1.59375 0.597656 -2.574219 C 0.480469 -2.757812 0.214844 -2.824219 0.015625 -2.691406 C -0.183594 -2.574219 -0.25 -2.328125 -0.132812 -2.109375 C 0.414062 -1.164062 1.394531 -0.546875 2.492188 -0.464844 C 2.773438 -0.414062 3.039062 -0.398438 3.324219 -0.398438 C 6.132812 -0.398438 9.589844 -2.160156 11.398438 -3.988281 C 11.566406 -4.15625 11.566406 -4.4375 11.398438 -4.601562 Z M 11.398438 -4.601562" transform="translate(49.608 19.641)"/></g></g></g><g><g><g><path d="M 13.109375 -3.972656 C 12.945312 -4.15625 12.679688 -4.171875 12.496094 -4.003906 C 12.464844 -3.988281 9.039062 -0.996094 6.53125 -1.394531 C 5.78125 -1.511719 5.136719 -1.960938 4.769531 -2.625 C 4.453125 -3.207031 3.871094 -3.574219 3.222656 -3.640625 C 2.410156 -3.6875 1.511719 -3.207031 0.566406 -2.210938 C 0.515625 -2.160156 0.433594 -2.144531 0.367188 -2.175781 C 0.300781 -2.210938 0.265625 -2.277344 0.28125 -2.359375 C 0.332031 -2.675781 0.480469 -3.472656 0.546875 -3.773438 C 0.546875 -3.722656 0.664062 -3.953125 0.664062 -3.972656 C 2.078125 -5.898438 6.296875 -12.015625 4.652344 -13.976562 C 4.4375 -14.273438 4.039062 -14.40625 3.671875 -14.308594 C 3.339844 -14.207031 2.328125 -13.890625 0.765625 -8.34375 C 0.382812 -6.996094 0.0351562 -5.550781 -0.25 -4.1875 L -0.367188 -4.039062 C -0.480469 -3.886719 -0.480469 -3.6875 -0.382812 -3.523438 C -0.632812 -2.292969 -0.796875 -1.164062 -0.878906 -0.300781 C -0.898438 -0.101562 -0.78125 0.0820312 -0.597656 0.148438 C -0.414062 0.214844 -0.199219 0.148438 -0.0820312 -0.015625 C 1.613281 -2.476562 2.691406 -2.792969 3.175781 -2.773438 C 3.523438 -2.742188 3.839844 -2.527344 4.003906 -2.210938 C 4.503906 -1.3125 5.382812 -0.679688 6.414062 -0.53125 C 9.304688 -0.0820312 12.910156 -3.222656 13.078125 -3.355469 C 13.242188 -3.523438 13.261719 -3.789062 13.109375 -3.972656 Z M 3.921875 -13.476562 C 3.953125 -13.476562 3.972656 -13.425781 3.988281 -13.410156 C 4.785156 -12.511719 1.480469 -5.832031 1.0625 -6.097656 C 0.664062 -6.347656 3.222656 -13.476562 3.921875 -13.476562 Z M 3.921875 -13.476562" transform="translate(60.342 19.641)"/></g></g></g><g><g><g><path d="M 13.890625 -4.019531 C 13.726562 -4.203125 13.445312 -4.222656 13.261719 -4.054688 C 13.210938 -4.003906 8.277344 0.433594 5.21875 -1.578125 C 4.003906 -2.375 3.707031 -4.304688 3.707031 -4.320312 C 3.6875 -4.519531 3.539062 -4.667969 3.339844 -4.703125 C 3.15625 -4.71875 2.957031 -4.621094 2.875 -4.453125 C 2.09375 -2.726562 0.714844 -0.53125 0.332031 -0.78125 C 0.300781 -0.78125 0.234375 -0.847656 0.183594 -0.964844 C -0.015625 -1.511719 0.0507812 -2.109375 0.332031 -2.625 C 0.964844 -3.921875 2.128906 -4.851562 3.523438 -5.203125 C 3.671875 -5.234375 3.789062 -5.351562 3.839844 -5.5 C 3.886719 -5.648438 3.839844 -5.816406 3.738281 -5.933594 C 3.621094 -6.03125 3.472656 -6.082031 3.324219 -6.046875 C 1.660156 -5.648438 0.28125 -4.519531 -0.464844 -2.992188 C -0.863281 -2.242188 -0.914062 -1.347656 -0.597656 -0.566406 C -0.449219 -0.183594 -0.0820312 0.0820312 0.332031 0.0820312 L 0.347656 0.0820312 C 1.164062 0.0664062 2.175781 -0.945312 2.875 -2.042969 C 2.957031 -2.175781 3.109375 -2.242188 3.257812 -2.226562 C 3.40625 -2.226562 3.539062 -2.144531 3.605469 -2.011719 C 3.886719 -1.546875 4.269531 -1.148438 4.734375 -0.863281 C 8.359375 1.546875 13.625 -3.207031 13.859375 -3.40625 C 13.941406 -3.488281 13.992188 -3.605469 13.992188 -3.707031 C 14.007812 -3.820312 13.957031 -3.9375 13.890625 -4.019531 Z M 13.890625 -4.019531" transform="translate(72.904 19.641)"/></g></g></g><g><g><g><path d="M 14.523438 -4.136719 C 14.425781 -4.203125 14.324219 -4.253906 14.207031 -4.253906 C 14.089844 -4.238281 13.976562 -4.1875 13.910156 -4.105469 C 13.859375 -4.070312 10.203125 -0.167969 7.027344 -1.445312 C 6.347656 -1.8125 5.800781 -2.359375 5.417969 -3.039062 C 5.285156 -3.257812 5.117188 -3.472656 4.917969 -3.671875 C 4.703125 -3.9375 4.371094 -4.085938 4.019531 -4.105469 C 3.175781 -4.171875 2.144531 -3.605469 0.914062 -2.441406 C 0.878906 -2.410156 0.832031 -2.394531 0.78125 -2.425781 C 0.730469 -2.441406 0.699219 -2.507812 0.714844 -2.558594 L 1.082031 -4.1875 C 1.148438 -4.421875 0.996094 -4.667969 0.765625 -4.71875 C 0.53125 -4.769531 0.300781 -4.621094 0.234375 -4.386719 L -0.597656 -0.746094 C -0.648438 -0.546875 -0.546875 -0.347656 -0.367188 -0.265625 C -0.183594 -0.167969 0.0351562 -0.214844 0.167969 -0.367188 C 2.394531 -2.972656 3.523438 -3.222656 3.921875 -3.242188 C 4.320312 -3.257812 4.570312 -2.742188 4.703125 -2.542969 C 5.167969 -1.726562 5.867188 -1.0625 6.695312 -0.648438 C 10.417969 0.863281 14.375 -3.339844 14.539062 -3.523438 C 14.707031 -3.6875 14.691406 -3.972656 14.523438 -4.136719 Z M 14.523438 -4.136719" transform="translate(86.33 19.641)"/></g></g></g><g><g><g><path d="M 10.769531 -4.488281 C 10.585938 -4.652344 10.320312 -4.652344 10.152344 -4.46875 C 10.085938 -4.421875 4.703125 1.0625 1.128906 -1.546875 C 0.0351562 -2.34375 1.097656 -4.421875 1.113281 -4.4375 C 1.214844 -4.652344 1.128906 -4.902344 0.914062 -5.019531 C 0.699219 -5.117188 0.449219 -5.050781 0.332031 -4.835938 C 0.265625 -4.734375 -1.082031 -2.09375 0.613281 -0.847656 C 1.394531 -0.265625 2.359375 0.0507812 3.339844 0.0351562 C 6.929688 0.0351562 10.570312 -3.671875 10.769531 -3.871094 C 10.851562 -3.953125 10.902344 -4.054688 10.902344 -4.171875 C 10.882812 -4.289062 10.851562 -4.402344 10.769531 -4.488281 Z M 0.148438 -5.800781 C 0.214844 -5.800781 0.28125 -5.816406 0.347656 -5.847656 C 0.746094 -6.046875 1.097656 -6.316406 1.414062 -6.628906 C 1.578125 -6.8125 1.5625 -7.078125 1.394531 -7.246094 C 1.214844 -7.410156 0.945312 -7.410156 0.78125 -7.230469 C 0.53125 -6.980469 0.25 -6.78125 -0.0664062 -6.613281 C -0.234375 -6.53125 -0.332031 -6.316406 -0.28125 -6.132812 C -0.234375 -5.933594 -0.0507812 -5.800781 0.148438 -5.800781 Z M 0.148438 -5.800781" transform="translate(100.172 19.641)"/></g></g></g><g clip-path="url(#j)"><g mask="url(#k)"><g><g clip-path="url(#l)" transform="translate(63 22)"><g clip-path="url(#m)"><g><g><g><path d="M 0.871094 1.660156 L 2.890625 -2.925781 L 2.375 -2.925781 L 1.535156 -0.964844 L 0.597656 -2.925781 L 0.0664062 -2.925781 L 1.289062 -0.480469 L 0.304688 1.660156 Z M 0.871094 1.660156" transform="translate(.757 6.834)"/></g></g></g></g><g><g><g><path d="M 2.890625 -1.476562 C 2.890625 -1.183594 2.785156 -0.9375 2.578125 -0.730469 C 2.367188 -0.519531 2.121094 -0.417969 1.828125 -0.417969 C 1.535156 -0.417969 1.28125 -0.519531 1.078125 -0.730469 C 0.863281 -0.9375 0.765625 -1.183594 0.765625 -1.476562 C 0.765625 -1.769531 0.863281 -2.015625 1.078125 -2.226562 C 1.28125 -2.433594 1.535156 -2.539062 1.828125 -2.539062 C 2.121094 -2.539062 2.367188 -2.433594 2.578125 -2.226562 C 2.785156 -2.015625 2.890625 -1.769531 2.890625 -1.476562 Z M 3.355469 -1.476562 C 3.355469 -1.894531 3.203125 -2.253906 2.90625 -2.550781 C 2.605469 -2.851562 2.246094 -3.003906 1.828125 -3.003906 C 1.402344 -3.003906 1.042969 -2.851562 0.746094 -2.550781 C 0.445312 -2.253906 0.300781 -1.894531 0.300781 -1.476562 C 0.300781 -1.050781 0.445312 -0.691406 0.746094 -0.398438 C 1.042969 -0.101562 1.410156 0.046875 1.828125 0.046875 C 2.238281 0.046875 2.605469 -0.101562 2.90625 -0.398438 C 3.203125 -0.691406 3.355469 -1.050781 3.355469 -1.476562 Z M 3.355469 -1.476562" transform="translate(3.582 6.834)"/></g></g></g><g clip-path="url(#n)"><g><g><g><path d="M 2.863281 -1.460938 C 2.863281 -1.175781 2.765625 -0.925781 2.566406 -0.71875 C 2.367188 -0.503906 2.121094 -0.398438 1.835938 -0.398438 C 1.550781 -0.398438 1.304688 -0.503906 1.101562 -0.71875 C 0.902344 -0.925781 0.804688 -1.171875 0.804688 -1.460938 C 0.804688 -1.75 0.902344 -1.996094 1.101562 -2.207031 C 1.304688 -2.417969 1.550781 -2.527344 1.835938 -2.527344 C 2.121094 -2.527344 2.367188 -2.417969 2.566406 -2.207031 C 2.765625 -1.996094 2.863281 -1.742188 2.863281 -1.460938 Z M 0.792969 0.398438 L 0.3125 0.398438 C 0.367188 0.710938 0.503906 0.984375 0.746094 1.214844 C 1.035156 1.515625 1.394531 1.660156 1.816406 1.660156 C 2.226562 1.660156 2.585938 1.515625 2.886719 1.214844 C 3.175781 0.925781 3.332031 0.566406 3.332031 0.144531 L 3.332031 -2.925781 L 2.863281 -2.925781 L 2.863281 -2.433594 C 2.839844 -2.460938 2.8125 -2.492188 2.785156 -2.527344 C 2.492188 -2.832031 2.152344 -2.992188 1.769531 -2.992188 C 1.355469 -2.992188 1.015625 -2.832031 0.738281 -2.527344 C 0.472656 -2.21875 0.339844 -1.867188 0.339844 -1.460938 C 0.339844 -1.050781 0.472656 -0.699219 0.738281 -0.398438 C 1.015625 -0.0859375 1.355469 0.0664062 1.769531 0.0664062 C 2.167969 0.0664062 2.507812 -0.0859375 2.785156 -0.398438 C 2.8125 -0.425781 2.839844 -0.457031 2.863281 -0.484375 L 2.863281 0.144531 C 2.863281 0.4375 2.757812 0.683594 2.550781 0.890625 C 2.347656 1.097656 2.101562 1.195312 1.816406 1.195312 C 1.523438 1.195312 1.277344 1.097656 1.070312 0.890625 C 0.925781 0.746094 0.832031 0.585938 0.792969 0.398438 Z M 0.792969 0.398438" transform="translate(7.238 6.834)"/></g></g></g></g><g><g><g><path d="M 2.824219 -1.460938 C 2.824219 -1.175781 2.726562 -0.925781 2.527344 -0.71875 C 2.328125 -0.503906 2.082031 -0.398438 1.792969 -0.398438 C 1.503906 -0.398438 1.257812 -0.503906 1.058594 -0.71875 C 0.859375 -0.925781 0.765625 -1.175781 0.765625 -1.460938 C 0.765625 -1.742188 0.859375 -1.996094 1.058594 -2.207031 C 1.257812 -2.417969 1.503906 -2.527344 1.792969 -2.527344 C 2.082031 -2.527344 2.328125 -2.417969 2.527344 -2.207031 C 2.726562 -1.996094 2.824219 -1.742188 2.824219 -1.460938 Z M 3.289062 0 L 3.289062 -2.925781 L 2.824219 -2.925781 L 2.824219 -2.417969 C 2.796875 -2.460938 2.765625 -2.492188 2.738281 -2.527344 C 2.460938 -2.832031 2.121094 -2.992188 1.722656 -2.992188 C 1.316406 -2.992188 0.976562 -2.832031 0.699219 -2.527344 C 0.433594 -2.21875 0.300781 -1.867188 0.300781 -1.460938 C 0.300781 -1.050781 0.433594 -0.699219 0.699219 -0.398438 C 0.976562 -0.0859375 1.316406 0.0664062 1.722656 0.0664062 C 2.121094 0.0664062 2.460938 -0.0859375 2.738281 -0.398438 C 2.765625 -0.425781 2.796875 -0.457031 2.824219 -0.5 L 2.824219 0 Z M 3.289062 0" transform="translate(11.067 6.834)"/></g></g></g><g><g><g><path d="M 1.75 -2.292969 L 2.738281 -1.023438 C 2.671875 -0.957031 2.597656 -0.882812 2.519531 -0.8125 C 2.226562 -0.53125 1.953125 -0.398438 1.714844 -0.398438 C 1.488281 -0.398438 1.289062 -0.484375 1.128906 -0.664062 C 0.96875 -0.835938 0.890625 -1.035156 0.890625 -1.261719 C 0.890625 -1.449219 0.996094 -1.648438 1.214844 -1.867188 C 1.316406 -1.96875 1.488281 -2.105469 1.75 -2.292969 Z M 1.707031 -3.03125 C 1.507812 -3.238281 1.414062 -3.429688 1.414062 -3.628906 C 1.414062 -3.820312 1.46875 -3.960938 1.582031 -4.054688 C 1.6875 -4.140625 1.816406 -4.179688 1.949219 -4.175781 C 2.082031 -4.167969 2.207031 -4.121094 2.320312 -4.027344 C 2.425781 -3.933594 2.484375 -3.800781 2.484375 -3.644531 C 2.484375 -3.476562 2.414062 -3.324219 2.273438 -3.183594 C 2.207031 -3.117188 2.140625 -3.0625 2.066406 -3.011719 C 1.996094 -2.957031 1.929688 -2.910156 1.859375 -2.863281 C 1.808594 -2.917969 1.761719 -2.976562 1.707031 -3.03125 Z M 3.957031 -1.761719 L 3.578125 -2.015625 L 3.324219 -1.695312 C 3.238281 -1.589844 3.152344 -1.480469 3.0625 -1.375 L 2.132812 -2.566406 C 2.214844 -2.632812 2.308594 -2.699219 2.398438 -2.777344 C 2.746094 -3.0625 2.917969 -3.355469 2.917969 -3.648438 C 2.917969 -3.921875 2.824219 -4.148438 2.640625 -4.328125 C 2.460938 -4.5 2.234375 -4.585938 1.953125 -4.585938 C 1.660156 -4.585938 1.421875 -4.492188 1.25 -4.308594 C 1.070312 -4.121094 0.984375 -3.890625 0.984375 -3.609375 C 0.984375 -3.332031 1.144531 -3.003906 1.460938 -2.640625 C 1.328125 -2.539062 1.195312 -2.445312 1.078125 -2.351562 C 0.644531 -2.039062 0.433594 -1.660156 0.433594 -1.230469 C 0.433594 -0.851562 0.550781 -0.539062 0.804688 -0.285156 C 0.925781 -0.167969 1.0625 -0.078125 1.222656 -0.0117188 C 1.382812 0.0546875 1.570312 0.078125 1.773438 0.078125 C 1.988281 0.078125 2.21875 0 2.492188 -0.171875 C 2.632812 -0.253906 2.804688 -0.40625 3.03125 -0.632812 L 3.523438 0.0117188 L 4.132812 0 L 3.355469 -1.015625 C 3.6875 -1.414062 3.890625 -1.667969 3.957031 -1.761719 Z M 3.957031 -1.761719" transform="translate(16.65 6.834)"/></g></g></g><g><g><g><path d="M 0.964844 0 L 0.964844 -4.984375 L 0.5 -4.984375 L 0.5 0 Z M 0.964844 0" transform="translate(23.026 6.834)"/></g></g></g><g><g><g><path d="M 0.96875 -3.933594 C 0.910156 -3.988281 0.835938 -4.023438 0.757812 -4.023438 C 0.679688 -4.023438 0.605469 -3.988281 0.550781 -3.933594 C 0.492188 -3.875 0.464844 -3.800781 0.464844 -3.722656 C 0.464844 -3.644531 0.492188 -3.570312 0.550781 -3.515625 C 0.605469 -3.457031 0.679688 -3.429688 0.757812 -3.429688 C 0.835938 -3.429688 0.910156 -3.457031 0.96875 -3.515625 C 1.023438 -3.570312 1.058594 -3.644531 1.058594 -3.722656 C 1.058594 -3.800781 1.023438 -3.875 0.96875 -3.933594 Z M 0.996094 0 L 0.996094 -2.925781 L 0.53125 -2.925781 L 0.53125 0 Z M 0.996094 0" transform="translate(24.488 6.834)"/></g></g></g><g><g><g><path d="M 2.066406 -4.554688 L 2.066406 -4.984375 L 1.734375 -4.984375 C 1.402344 -4.984375 1.171875 -4.898438 1.03125 -4.738281 C 0.890625 -4.578125 0.824219 -4.347656 0.824219 -4.054688 L 0.824219 -2.925781 L 0.234375 -2.925781 L 0.234375 -2.492188 L 0.824219 -2.492188 L 0.824219 0 L 1.289062 0 L 1.289062 -2.492188 L 2.066406 -2.492188 L 2.066406 -2.925781 L 1.289062 -2.925781 L 1.289062 -4.1875 C 1.289062 -4.289062 1.308594 -4.375 1.363281 -4.445312 C 1.410156 -4.511719 1.507812 -4.554688 1.667969 -4.554688 Z M 2.066406 -4.554688" transform="translate(26.01 6.834)"/></g></g></g><g><g><g><path d="M 3.355469 -1.527344 C 3.355469 -1.929688 3.199219 -2.273438 2.890625 -2.574219 C 2.59375 -2.859375 2.234375 -3.003906 1.828125 -3.003906 C 1.402344 -3.003906 1.042969 -2.851562 0.746094 -2.550781 C 0.445312 -2.253906 0.300781 -1.894531 0.300781 -1.476562 C 0.300781 -1.050781 0.445312 -0.691406 0.746094 -0.398438 C 0.882812 -0.257812 1.042969 -0.152344 1.230469 -0.0742188 C 1.414062 0.0078125 1.636719 0.046875 1.894531 0.046875 C 2.152344 0.046875 2.40625 -0.0351562 2.660156 -0.191406 C 2.910156 -0.351562 3.097656 -0.578125 3.222656 -0.859375 L 2.691406 -0.859375 C 2.585938 -0.71875 2.460938 -0.613281 2.308594 -0.53125 C 2.152344 -0.453125 1.996094 -0.417969 1.828125 -0.417969 C 1.574219 -0.417969 1.347656 -0.5 1.148438 -0.664062 C 0.949219 -0.824219 0.824219 -1.03125 0.785156 -1.28125 L 3.355469 -1.28125 Z M 2.863281 -1.683594 L 0.792969 -1.683594 C 0.816406 -1.800781 0.863281 -1.914062 0.929688 -2.019531 C 1.144531 -2.367188 1.441406 -2.539062 1.828125 -2.539062 C 2.074219 -2.539062 2.292969 -2.460938 2.484375 -2.300781 C 2.683594 -2.132812 2.804688 -1.929688 2.863281 -1.683594 Z M 2.863281 -1.683594" transform="translate(28.277 6.834)"/></g></g></g><g><g><g><path d="M 0.917969 -0.414062 C 0.804688 -0.492188 0.71875 -0.625 0.671875 -0.816406 L 0.179688 -0.816406 C 0.277344 -0.210938 0.664062 0.0859375 1.34375 0.0859375 C 1.503906 0.0859375 1.648438 0.0742188 1.789062 0.0351562 C 1.929688 -0.0078125 2.046875 -0.0585938 2.160156 -0.132812 C 2.386719 -0.285156 2.5 -0.519531 2.5 -0.832031 C 2.5 -1.148438 2.351562 -1.375 2.046875 -1.523438 C 1.921875 -1.582031 1.78125 -1.628906 1.628906 -1.660156 C 1.480469 -1.695312 1.34375 -1.734375 1.214844 -1.773438 C 1.082031 -1.816406 0.976562 -1.867188 0.890625 -1.929688 C 0.804688 -1.988281 0.757812 -2.082031 0.757812 -2.214844 C 0.757812 -2.347656 0.8125 -2.445312 0.917969 -2.507812 C 1.023438 -2.574219 1.148438 -2.605469 1.289062 -2.605469 C 1.4375 -2.605469 1.5625 -2.574219 1.660156 -2.519531 C 1.761719 -2.464844 1.839844 -2.359375 1.886719 -2.199219 L 2.386719 -2.199219 C 2.328125 -2.492188 2.199219 -2.699219 2.015625 -2.8125 C 1.820312 -2.929688 1.589844 -2.992188 1.304688 -2.992188 C 1.023438 -2.992188 0.777344 -2.910156 0.570312 -2.765625 C 0.371094 -2.613281 0.265625 -2.394531 0.265625 -2.101562 C 0.265625 -1.960938 0.304688 -1.835938 0.378906 -1.726562 C 0.457031 -1.617188 0.570312 -1.527344 0.71875 -1.460938 C 0.851562 -1.402344 0.992188 -1.355469 1.136719 -1.316406 C 1.28125 -1.28125 1.421875 -1.242188 1.554688 -1.203125 C 1.855469 -1.101562 2.007812 -0.957031 2.007812 -0.769531 C 2.007812 -0.453125 1.792969 -0.300781 1.371094 -0.300781 C 1.191406 -0.300781 1.035156 -0.332031 0.917969 -0.414062 Z M 0.917969 -0.414062" transform="translate(31.9 6.834)"/></g></g></g><g><g><g><path d="M 0.132812 -2.492188 L 0.863281 -2.492188 L 0.863281 0 L 1.328125 0 L 1.328125 -2.492188 L 2.054688 -2.492188 L 2.054688 -2.925781 L 1.328125 -2.925781 L 1.328125 -4.0625 L 0.863281 -4.0625 L 0.863281 -2.925781 L 0.132812 -2.925781 Z M 0.132812 -2.492188" transform="translate(34.572 6.834)"/></g></g></g><g clip-path="url(#o)"><g><g><g><path d="M 0.871094 1.660156 L 2.890625 -2.925781 L 2.375 -2.925781 L 1.535156 -0.964844 L 0.597656 -2.925781 L 0.0664062 -2.925781 L 1.289062 -0.480469 L 0.304688 1.660156 Z M 0.871094 1.660156" transform="translate(36.76 6.834)"/></g></g></g></g><g><g><g><path d="M 0.964844 0 L 0.964844 -4.984375 L 0.5 -4.984375 L 0.5 0 Z M 0.964844 0" transform="translate(39.584 6.834)"/></g></g></g><g><g><g><path d="M 3.355469 -1.527344 C 3.355469 -1.929688 3.199219 -2.273438 2.890625 -2.574219 C 2.59375 -2.859375 2.234375 -3.003906 1.828125 -3.003906 C 1.402344 -3.003906 1.042969 -2.851562 0.746094 -2.550781 C 0.445312 -2.253906 0.300781 -1.894531 0.300781 -1.476562 C 0.300781 -1.050781 0.445312 -0.691406 0.746094 -0.398438 C 0.882812 -0.257812 1.042969 -0.152344 1.230469 -0.0742188 C 1.414062 0.0078125 1.636719 0.046875 1.894531 0.046875 C 2.152344 0.046875 2.40625 -0.0351562 2.660156 -0.191406 C 2.910156 -0.351562 3.097656 -0.578125 3.222656 -0.859375 L 2.691406 -0.859375 C 2.585938 -0.71875 2.460938 -0.613281 2.308594 -0.53125 C 2.152344 -0.453125 1.996094 -0.417969 1.828125 -0.417969 C 1.574219 -0.417969 1.347656 -0.5 1.148438 -0.664062 C 0.949219 -0.824219 0.824219 -1.03125 0.785156 -1.28125 L 3.355469 -1.28125 Z M 2.863281 -1.683594 L 0.792969 -1.683594 C 0.816406 -1.800781 0.863281 -1.914062 0.929688 -2.019531 C 1.144531 -2.367188 1.441406 -2.539062 1.828125 -2.539062 C 2.074219 -2.539062 2.292969 -2.460938 2.484375 -2.300781 C 2.683594 -2.132812 2.804688 -1.929688 2.863281 -1.683594 Z M 2.863281 -1.683594" transform="translate(41.047 6.834)"/></g></g></g></g></g></g></g></svg>