<svg xmlns="http://www.w3.org/2000/svg" xmlns:xlink="http://www.w3.org/1999/xlink" width="151" zoomAndPan="magnify" viewBox="0 0 113.25 30.750001" height="41" preserveAspectRatio="xMidYMid meet" version="1.0"><defs><g><g id="id1"/></g></defs><g fill="rgb(0%, 0%, 0%)" fill-opacity="1"><g transform="translate(4.280249, 20.761272)"><g><path d="M 6.15625 -12.8125 L 6.15625 -13.125 L 0.546875 -13.125 L 0.546875 -12.8125 L 2.234375 -12.8125 L 5.9375 -6.296875 L 2.203125 -0.3125 L 0.515625 -0.3125 L 0.515625 0 L 4.59375 0 L 4.59375 -0.3125 L 2.640625 -0.3125 L 6.15625 -5.921875 L 9.34375 -0.3125 L 7.75 -0.3125 L 7.75 0 L 12.984375 0 L 12.984375 -0.3125 L 11.484375 -0.3125 L 7.328125 -7.640625 L 10.53125 -12.8125 L 12.28125 -12.8125 L 12.28125 -13.125 L 8.1875 -13.125 L 8.1875 -12.8125 L 10.078125 -12.8125 L 7.109375 -8.015625 L 4.375 -12.8125 Z M 6.15625 -12.8125 "/></g></g></g><g fill="rgb(0%, 0%, 0%)" fill-opacity="1"><g transform="translate(17.653863, 20.761272)"><g><path d="M 5.6875 -13.125 L 0.4375 -13.125 L 0.4375 -12.8125 L 2.109375 -12.8125 L 2.109375 -3.265625 C 2.109375 -2.578125 2.238281 -2 2.5 -1.53125 C 2.769531 -1.070312 3.117188 -0.695312 3.546875 -0.40625 C 3.972656 -0.125 4.445312 0.0703125 4.96875 0.1875 C 5.488281 0.3125 6 0.375 6.5 0.375 C 7.738281 0.375 8.703125 0.0703125 9.390625 -0.53125 C 10.085938 -1.144531 10.4375 -2.054688 10.4375 -3.265625 L 10.4375 -12.8125 L 12.109375 -12.8125 L 12.109375 -13.125 L 8.4375 -13.125 L 8.4375 -12.8125 L 10.125 -12.8125 L 10.125 -3.265625 C 10.125 -2.742188 10.039062 -2.273438 9.875 -1.859375 C 9.707031 -1.453125 9.476562 -1.109375 9.1875 -0.828125 C 8.90625 -0.546875 8.570312 -0.332031 8.1875 -0.1875 C 7.8125 -0.0507812 7.398438 0.015625 6.953125 0.015625 C 6.046875 0.015625 5.328125 -0.265625 4.796875 -0.828125 C 4.265625 -1.398438 4 -2.210938 4 -3.265625 L 4 -12.8125 L 5.6875 -12.8125 Z M 5.6875 -13.125 "/></g></g></g><g fill="rgb(0%, 0%, 0%)" fill-opacity="1"><g transform="translate(30.109877, 20.761272)"><g><path d="M 0.4375 -0.3125 L 0.4375 0 L 4.765625 0 L 4.765625 -0.3125 L 2.46875 -0.3125 L 3.6875 -4.078125 L 7.625 -4.078125 L 8.890625 -0.3125 L 6.875 -0.3125 L 6.875 0 L 12.59375 0 L 12.59375 -0.3125 L 10.90625 -0.3125 L 6.625 -13.296875 L 6.390625 -13.296875 L 2.109375 -0.3125 Z M 5.640625 -9.984375 L 7.515625 -4.390625 L 3.8125 -4.390625 Z M 5.640625 -9.984375 "/></g></g></g><g fill="rgb(0%, 0%, 0%)" fill-opacity="1"><g transform="translate(43.014929, 20.761272)"><g><path d="M 0.53125 -0.3125 L 0.53125 0 L 4.203125 0 L 4.203125 -0.3125 L 2.515625 -0.3125 L 2.515625 -12.25 L 10.078125 0.15625 L 10.75 0.15625 L 10.75 -12.8125 L 12.421875 -12.8125 L 12.421875 -13.125 L 8.75 -13.125 L 8.75 -12.8125 L 10.4375 -12.8125 L 10.4375 -3.21875 L 4.375 -13.125 L 0.53125 -13.125 L 0.53125 -12.8125 L 2.203125 -12.8125 L 2.203125 -0.3125 Z M 0.53125 -0.3125 "/></g></g></g><g fill="rgb(0%, 0%, 0%)" fill-opacity="1"><g transform="translate(55.841887, 20.761272)"><g><path d="M 6.078125 -13.125 L 0.625 -13.125 L 0.625 -12.8125 L 2.1875 -12.8125 L 5.984375 -6.453125 L 5.984375 -0.3125 L 4.109375 -0.3125 L 4.109375 0 L 9.75 0 L 9.75 -0.3125 L 7.875 -0.3125 L 7.875 -6.953125 L 11.09375 -12.8125 L 12.671875 -12.8125 L 12.671875 -13.125 L 8.6875 -13.125 L 8.6875 -12.8125 L 10.59375 -12.8125 L 7.5625 -7.3125 L 4.28125 -12.8125 L 6.078125 -12.8125 Z M 6.078125 -13.125 "/></g></g></g><g fill="rgb(0%, 0%, 0%)" fill-opacity="1"><g transform="translate(68.766462, 20.761272)"><g><path d="M 6.84375 0.375 C 7.675781 0.375 8.457031 0.179688 9.1875 -0.203125 C 9.925781 -0.585938 10.566406 -1.097656 11.109375 -1.734375 C 11.660156 -2.378906 12.09375 -3.113281 12.40625 -3.9375 C 12.726562 -4.757812 12.890625 -5.613281 12.890625 -6.5 C 12.890625 -7.382812 12.726562 -8.238281 12.40625 -9.0625 C 12.09375 -9.894531 11.660156 -10.625 11.109375 -11.25 C 10.566406 -11.882812 9.925781 -12.390625 9.1875 -12.765625 C 8.457031 -13.148438 7.675781 -13.34375 6.84375 -13.34375 C 6.007812 -13.34375 5.222656 -13.148438 4.484375 -12.765625 C 3.742188 -12.390625 3.097656 -11.882812 2.546875 -11.25 C 2.003906 -10.625 1.570312 -9.894531 1.25 -9.0625 C 0.9375 -8.238281 0.78125 -7.382812 0.78125 -6.5 C 0.78125 -5.613281 0.9375 -4.757812 1.25 -3.9375 C 1.570312 -3.113281 2.003906 -2.378906 2.546875 -1.734375 C 3.097656 -1.097656 3.742188 -0.585938 4.484375 -0.203125 C 5.222656 0.179688 6.007812 0.375 6.84375 0.375 Z M 6.84375 -12.984375 C 7.425781 -12.984375 7.941406 -12.890625 8.390625 -12.703125 C 8.847656 -12.523438 9.226562 -12.222656 9.53125 -11.796875 C 9.84375 -11.367188 10.078125 -10.800781 10.234375 -10.09375 C 10.398438 -9.394531 10.484375 -8.523438 10.484375 -7.484375 L 10.484375 -5.53125 C 10.484375 -3.644531 10.171875 -2.25 9.546875 -1.34375 C 8.921875 -0.4375 8.019531 0.015625 6.84375 0.015625 C 5.65625 0.015625 4.75 -0.4375 4.125 -1.34375 C 3.5 -2.25 3.1875 -3.644531 3.1875 -5.53125 L 3.1875 -7.484375 C 3.1875 -8.492188 3.265625 -9.347656 3.421875 -10.046875 C 3.585938 -10.742188 3.820312 -11.3125 4.125 -11.75 C 4.4375 -12.1875 4.816406 -12.5 5.265625 -12.6875 C 5.722656 -12.882812 6.25 -12.984375 6.84375 -12.984375 Z M 6.84375 -12.984375 "/></g></g></g><g fill="rgb(0%, 0%, 0%)" fill-opacity="1"><g transform="translate(82.257223, 20.761272)"><g><path d="M 6.703125 -13.34375 C 5.878906 -13.34375 5.101562 -13.160156 4.375 -12.796875 C 3.644531 -12.429688 3.007812 -11.9375 2.46875 -11.3125 C 1.925781 -10.6875 1.492188 -9.957031 1.171875 -9.125 C 0.859375 -8.289062 0.703125 -7.410156 0.703125 -6.484375 C 0.703125 -5.554688 0.863281 -4.675781 1.1875 -3.84375 C 1.519531 -3.007812 1.957031 -2.28125 2.5 -1.65625 C 3.050781 -1.03125 3.679688 -0.535156 4.390625 -0.171875 C 5.109375 0.191406 5.859375 0.375 6.640625 0.375 C 7.265625 0.375 7.851562 0.289062 8.40625 0.125 C 8.957031 -0.0390625 9.445312 -0.289062 9.875 -0.625 C 10.300781 -0.96875 10.632812 -1.398438 10.875 -1.921875 C 11.113281 -2.453125 11.234375 -3.082031 11.234375 -3.8125 L 11.234375 -4.46875 L 12.9375 -4.46875 L 12.9375 -4.78125 L 7.125 -4.78125 L 7.125 -4.46875 L 9.21875 -4.46875 L 9.21875 -2.640625 C 9.21875 -2.328125 9.1875 -2.015625 9.125 -1.703125 C 9.0625 -1.390625 8.9375 -1.101562 8.75 -0.84375 C 8.570312 -0.59375 8.316406 -0.382812 7.984375 -0.21875 C 7.648438 -0.0625 7.21875 0.015625 6.6875 0.015625 C 5.550781 0.015625 4.671875 -0.429688 4.046875 -1.328125 C 3.421875 -2.222656 3.109375 -3.554688 3.109375 -5.328125 L 3.109375 -7.734375 C 3.109375 -8.660156 3.195312 -9.453125 3.375 -10.109375 C 3.550781 -10.773438 3.796875 -11.320312 4.109375 -11.75 C 4.429688 -12.175781 4.8125 -12.488281 5.25 -12.6875 C 5.6875 -12.882812 6.171875 -12.984375 6.703125 -12.984375 C 7.648438 -12.984375 8.460938 -12.707031 9.140625 -12.15625 C 9.816406 -11.601562 10.363281 -10.664062 10.78125 -9.34375 C 10.820312 -9.21875 10.878906 -9.15625 10.953125 -9.15625 C 11.035156 -9.15625 11.078125 -9.21875 11.078125 -9.34375 L 11.078125 -13.03125 C 11.078125 -13.175781 11.023438 -13.25 10.921875 -13.25 C 10.859375 -13.25 10.804688 -13.234375 10.765625 -13.203125 C 10.734375 -13.179688 10.691406 -13.144531 10.640625 -13.09375 L 9.8125 -12.25 C 9.425781 -12.582031 8.960938 -12.847656 8.421875 -13.046875 C 7.890625 -13.242188 7.316406 -13.34375 6.703125 -13.34375 Z M 6.703125 -13.34375 "/></g></g></g><g fill="rgb(0%, 0%, 0%)" fill-opacity="1"><g transform="translate(95.318461, 20.761272)"><g><path d="M 0.4375 -0.3125 L 0.4375 0 L 4.765625 0 L 4.765625 -0.3125 L 2.46875 -0.3125 L 3.6875 -4.078125 L 7.625 -4.078125 L 8.890625 -0.3125 L 6.875 -0.3125 L 6.875 0 L 12.59375 0 L 12.59375 -0.3125 L 10.90625 -0.3125 L 6.625 -13.296875 L 6.390625 -13.296875 L 2.109375 -0.3125 Z M 5.640625 -9.984375 L 7.515625 -4.390625 L 3.8125 -4.390625 Z M 5.640625 -9.984375 "/></g></g></g><g fill="rgb(20.388794%, 27.449036%, 28.239441%)" fill-opacity="1"><g transform="translate(8.948438, 27.321815)"><g><path d="M 2.371094 0 L 2.613281 0 L 2.078125 -2.449219 L 1.324219 -0.484375 L 0.570312 -2.449219 L 0.0351562 0 L 0.277344 0 L 0.632812 -1.636719 L 1.324219 0.136719 L 2.015625 -1.636719 Z M 2.371094 0 "/></g></g></g><g fill="rgb(20.388794%, 27.449036%, 28.239441%)" fill-opacity="1"><g transform="translate(11.594114, 27.321815)"><g><path d="M 1.4375 -0.742188 C 1.4375 -0.597656 1.386719 -0.46875 1.285156 -0.363281 C 1.183594 -0.257812 1.058594 -0.203125 0.914062 -0.203125 C 0.761719 -0.203125 0.636719 -0.257812 0.539062 -0.363281 C 0.4375 -0.46875 0.386719 -0.597656 0.386719 -0.742188 C 0.386719 -0.886719 0.4375 -1.011719 0.539062 -1.121094 C 0.636719 -1.230469 0.761719 -1.285156 0.914062 -1.285156 C 1.058594 -1.285156 1.183594 -1.230469 1.285156 -1.121094 C 1.386719 -1.011719 1.4375 -0.886719 1.4375 -0.742188 Z M 1.671875 0 L 1.671875 -1.488281 L 1.4375 -1.488281 L 1.4375 -1.230469 C 1.421875 -1.25 1.40625 -1.265625 1.390625 -1.285156 C 1.25 -1.4375 1.078125 -1.519531 0.875 -1.519531 C 0.667969 -1.519531 0.496094 -1.4375 0.355469 -1.285156 C 0.21875 -1.128906 0.152344 -0.949219 0.152344 -0.742188 C 0.152344 -0.535156 0.21875 -0.355469 0.355469 -0.203125 C 0.496094 -0.0429688 0.667969 0.0351562 0.875 0.0351562 C 1.078125 0.0351562 1.25 -0.0429688 1.390625 -0.203125 C 1.40625 -0.214844 1.421875 -0.234375 1.4375 -0.253906 L 1.4375 0 Z M 1.671875 0 "/></g></g></g><g fill="rgb(20.388794%, 27.449036%, 28.239441%)" fill-opacity="1"><g transform="translate(13.520082, 27.321815)"><g><path d="M 0.441406 0.84375 L 1.46875 -1.488281 L 1.207031 -1.488281 L 0.78125 -0.488281 L 0.304688 -1.488281 L 0.0351562 -1.488281 L 0.65625 -0.242188 L 0.15625 0.84375 Z M 0.441406 0.84375 "/></g></g></g><g fill="rgb(20.388794%, 27.449036%, 28.239441%)" fill-opacity="1"><g transform="translate(14.956113, 27.321815)"><g/></g></g><g fill="rgb(20.388794%, 27.449036%, 28.239441%)" fill-opacity="1"><g transform="translate(15.868414, 27.321815)"><g><path d="M 0.441406 0.84375 L 1.46875 -1.488281 L 1.207031 -1.488281 L 0.78125 -0.488281 L 0.304688 -1.488281 L 0.0351562 -1.488281 L 0.65625 -0.242188 L 0.15625 0.84375 Z M 0.441406 0.84375 "/></g></g></g><g fill="rgb(20.388794%, 27.449036%, 28.239441%)" fill-opacity="1"><g transform="translate(17.304444, 27.321815)"><g><path d="M 1.46875 -0.75 C 1.46875 -0.601562 1.414062 -0.476562 1.3125 -0.371094 C 1.203125 -0.261719 1.078125 -0.210938 0.929688 -0.210938 C 0.78125 -0.210938 0.652344 -0.261719 0.546875 -0.371094 C 0.4375 -0.476562 0.386719 -0.601562 0.386719 -0.75 C 0.386719 -0.898438 0.4375 -1.023438 0.546875 -1.132812 C 0.652344 -1.238281 0.78125 -1.289062 0.929688 -1.289062 C 1.078125 -1.289062 1.203125 -1.238281 1.3125 -1.132812 C 1.414062 -1.023438 1.46875 -0.898438 1.46875 -0.75 Z M 1.707031 -0.75 C 1.707031 -0.964844 1.628906 -1.144531 1.476562 -1.296875 C 1.324219 -1.449219 1.140625 -1.527344 0.929688 -1.527344 C 0.714844 -1.527344 0.53125 -1.449219 0.378906 -1.296875 C 0.226562 -1.144531 0.152344 -0.964844 0.152344 -0.75 C 0.152344 -0.535156 0.226562 -0.351562 0.378906 -0.203125 C 0.53125 -0.0507812 0.714844 0.0234375 0.929688 0.0234375 C 1.140625 0.0234375 1.324219 -0.0507812 1.476562 -0.203125 C 1.628906 -0.351562 1.707031 -0.535156 1.707031 -0.75 Z M 1.707031 -0.75 "/></g></g></g><g fill="rgb(20.388794%, 27.449036%, 28.239441%)" fill-opacity="1"><g transform="translate(19.162838, 27.321815)"><g><path d="M 1.28125 -0.253906 L 1.28125 0 L 1.515625 0 L 1.515625 -1.488281 L 1.28125 -1.488281 L 1.28125 -0.863281 C 1.28125 -0.65625 1.238281 -0.496094 1.164062 -0.378906 C 1.089844 -0.261719 0.957031 -0.207031 0.773438 -0.207031 C 0.671875 -0.207031 0.597656 -0.238281 0.554688 -0.308594 C 0.511719 -0.375 0.488281 -0.460938 0.488281 -0.558594 L 0.488281 -1.488281 L 0.253906 -1.488281 L 0.253906 -0.558594 C 0.253906 -0.386719 0.296875 -0.242188 0.390625 -0.132812 C 0.488281 -0.0234375 0.613281 0.03125 0.785156 0.03125 C 1.003906 0.03125 1.167969 -0.0625 1.28125 -0.253906 Z M 1.28125 -0.253906 "/></g></g></g><g fill="rgb(20.388794%, 27.449036%, 28.239441%)" fill-opacity="1"><g transform="translate(20.882696, 27.321815)"><g/></g></g><g fill="rgb(20.388794%, 27.449036%, 28.239441%)" fill-opacity="1"><g transform="translate(21.794997, 27.321815)"><g><path d="M 0.488281 0 L 0.488281 -0.253906 C 0.5 -0.234375 0.515625 -0.214844 0.53125 -0.203125 C 0.671875 -0.0429688 0.84375 0.0351562 1.050781 0.0351562 C 1.253906 0.0351562 1.425781 -0.0429688 1.566406 -0.203125 C 1.703125 -0.355469 1.773438 -0.535156 1.773438 -0.742188 C 1.773438 -0.949219 1.703125 -1.128906 1.566406 -1.285156 C 1.425781 -1.4375 1.253906 -1.519531 1.050781 -1.519531 C 0.84375 -1.519531 0.671875 -1.4375 0.53125 -1.285156 C 0.515625 -1.265625 0.5 -1.25 0.488281 -1.230469 L 0.488281 -2.535156 L 0.253906 -2.535156 L 0.253906 0 Z M 1.539062 -0.742188 C 1.539062 -0.597656 1.488281 -0.46875 1.386719 -0.363281 C 1.285156 -0.257812 1.160156 -0.203125 1.011719 -0.203125 C 0.863281 -0.203125 0.738281 -0.257812 0.636719 -0.363281 C 0.539062 -0.46875 0.488281 -0.597656 0.488281 -0.742188 C 0.488281 -0.886719 0.539062 -1.011719 0.636719 -1.121094 C 0.738281 -1.230469 0.863281 -1.285156 1.011719 -1.285156 C 1.160156 -1.285156 1.285156 -1.230469 1.386719 -1.121094 C 1.488281 -1.011719 1.539062 -0.886719 1.539062 -0.742188 Z M 1.539062 -0.742188 "/></g></g></g><g fill="rgb(20.388794%, 27.449036%, 28.239441%)" fill-opacity="1"><g transform="translate(23.720965, 27.321815)"><g><path d="M 1.707031 -0.777344 C 1.707031 -0.980469 1.625 -1.15625 1.46875 -1.308594 C 1.316406 -1.453125 1.136719 -1.527344 0.929688 -1.527344 C 0.714844 -1.527344 0.53125 -1.449219 0.378906 -1.296875 C 0.226562 -1.144531 0.152344 -0.964844 0.152344 -0.75 C 0.152344 -0.535156 0.226562 -0.351562 0.378906 -0.203125 C 0.449219 -0.132812 0.53125 -0.078125 0.625 -0.0390625 C 0.71875 0.00390625 0.832031 0.0234375 0.964844 0.0234375 C 1.09375 0.0234375 1.222656 -0.015625 1.351562 -0.0976562 C 1.480469 -0.179688 1.574219 -0.292969 1.640625 -0.4375 L 1.367188 -0.4375 C 1.3125 -0.363281 1.25 -0.3125 1.171875 -0.269531 C 1.09375 -0.230469 1.011719 -0.210938 0.929688 -0.210938 C 0.800781 -0.210938 0.6875 -0.253906 0.585938 -0.335938 C 0.484375 -0.417969 0.417969 -0.523438 0.398438 -0.652344 L 1.707031 -0.652344 Z M 1.457031 -0.855469 L 0.402344 -0.855469 C 0.414062 -0.914062 0.4375 -0.972656 0.472656 -1.027344 C 0.582031 -1.203125 0.734375 -1.289062 0.929688 -1.289062 C 1.054688 -1.289062 1.164062 -1.25 1.265625 -1.167969 C 1.363281 -1.085938 1.425781 -0.980469 1.457031 -0.855469 Z M 1.457031 -0.855469 "/></g></g></g><g fill="rgb(20.388794%, 27.449036%, 28.239441%)" fill-opacity="1"><g transform="translate(25.562461, 27.321815)"><g/></g></g><g fill="rgb(20.388794%, 27.449036%, 28.239441%)" fill-opacity="1"><g transform="translate(26.474762, 27.321815)"><g><path d="M 1.050781 -2.316406 L 1.050781 -2.535156 L 0.882812 -2.535156 C 0.714844 -2.535156 0.59375 -2.488281 0.523438 -2.410156 C 0.453125 -2.328125 0.417969 -2.210938 0.417969 -2.0625 L 0.417969 -1.488281 L 0.117188 -1.488281 L 0.117188 -1.265625 L 0.417969 -1.265625 L 0.417969 0 L 0.65625 0 L 0.65625 -1.265625 L 1.050781 -1.265625 L 1.050781 -1.488281 L 0.65625 -1.488281 L 0.65625 -2.128906 C 0.65625 -2.179688 0.664062 -2.222656 0.691406 -2.261719 C 0.714844 -2.292969 0.765625 -2.316406 0.847656 -2.316406 Z M 1.050781 -2.316406 "/></g></g></g><g fill="rgb(20.388794%, 27.449036%, 28.239441%)" fill-opacity="1"><g transform="translate(27.626964, 27.321815)"><g><path d="M 1.4375 -0.742188 C 1.4375 -0.597656 1.386719 -0.46875 1.285156 -0.363281 C 1.183594 -0.257812 1.058594 -0.203125 0.914062 -0.203125 C 0.761719 -0.203125 0.636719 -0.257812 0.539062 -0.363281 C 0.4375 -0.46875 0.386719 -0.597656 0.386719 -0.742188 C 0.386719 -0.886719 0.4375 -1.011719 0.539062 -1.121094 C 0.636719 -1.230469 0.761719 -1.285156 0.914062 -1.285156 C 1.058594 -1.285156 1.183594 -1.230469 1.285156 -1.121094 C 1.386719 -1.011719 1.4375 -0.886719 1.4375 -0.742188 Z M 1.671875 0 L 1.671875 -1.488281 L 1.4375 -1.488281 L 1.4375 -1.230469 C 1.421875 -1.25 1.40625 -1.265625 1.390625 -1.285156 C 1.25 -1.4375 1.078125 -1.519531 0.875 -1.519531 C 0.667969 -1.519531 0.496094 -1.4375 0.355469 -1.285156 C 0.21875 -1.128906 0.152344 -0.949219 0.152344 -0.742188 C 0.152344 -0.535156 0.21875 -0.355469 0.355469 -0.203125 C 0.496094 -0.0429688 0.667969 0.0351562 0.875 0.0351562 C 1.078125 0.0351562 1.25 -0.0429688 1.390625 -0.203125 C 1.40625 -0.214844 1.421875 -0.234375 1.4375 -0.253906 L 1.4375 0 Z M 1.671875 0 "/></g></g></g><g fill="rgb(20.388794%, 27.449036%, 28.239441%)" fill-opacity="1"><g transform="translate(29.552932, 27.321815)"><g><path d="M 0.492188 -2 C 0.464844 -2.027344 0.425781 -2.042969 0.386719 -2.042969 C 0.34375 -2.042969 0.308594 -2.027344 0.28125 -2 C 0.25 -1.96875 0.238281 -1.933594 0.238281 -1.890625 C 0.238281 -1.851562 0.25 -1.816406 0.28125 -1.789062 C 0.308594 -1.757812 0.34375 -1.742188 0.386719 -1.742188 C 0.425781 -1.742188 0.464844 -1.757812 0.492188 -1.789062 C 0.519531 -1.816406 0.539062 -1.851562 0.539062 -1.890625 C 0.539062 -1.933594 0.519531 -1.96875 0.492188 -2 Z M 0.507812 0 L 0.507812 -1.488281 L 0.269531 -1.488281 L 0.269531 0 Z M 0.507812 0 "/></g></g></g><g fill="rgb(20.388794%, 27.449036%, 28.239441%)" fill-opacity="1"><g transform="translate(30.326698, 27.321815)"><g><path d="M 0.0664062 -1.265625 L 0.4375 -1.265625 L 0.4375 0 L 0.675781 0 L 0.675781 -1.265625 L 1.042969 -1.265625 L 1.042969 -1.488281 L 0.675781 -1.488281 L 0.675781 -2.066406 L 0.4375 -2.066406 L 0.4375 -1.488281 L 0.0664062 -1.488281 Z M 0.0664062 -1.265625 "/></g></g></g><g fill="rgb(20.388794%, 27.449036%, 28.239441%)" fill-opacity="1"><g transform="translate(31.438355, 27.321815)"><g><path d="M 0.488281 0 L 0.488281 -0.621094 C 0.488281 -0.828125 0.523438 -0.984375 0.59375 -1.089844 C 0.636719 -1.152344 0.6875 -1.195312 0.75 -1.230469 C 0.8125 -1.265625 0.894531 -1.28125 0.996094 -1.28125 C 1.097656 -1.28125 1.167969 -1.242188 1.214844 -1.175781 C 1.257812 -1.109375 1.28125 -1.023438 1.28125 -0.929688 L 1.28125 0 L 1.515625 0 L 1.515625 -0.929688 C 1.515625 -1.101562 1.46875 -1.238281 1.382812 -1.34375 C 1.335938 -1.398438 1.28125 -1.4375 1.214844 -1.46875 C 1.148438 -1.5 1.0625 -1.515625 0.960938 -1.515625 C 0.851562 -1.515625 0.761719 -1.488281 0.679688 -1.433594 C 0.601562 -1.382812 0.539062 -1.3125 0.488281 -1.230469 L 0.488281 -2.535156 L 0.253906 -2.535156 L 0.253906 0 Z M 0.488281 0 "/></g></g></g><g fill="rgb(20.388794%, 27.449036%, 28.239441%)" fill-opacity="1"><g transform="translate(33.158213, 27.321815)"><g><path d="M 1.050781 -2.316406 L 1.050781 -2.535156 L 0.882812 -2.535156 C 0.714844 -2.535156 0.59375 -2.488281 0.523438 -2.410156 C 0.453125 -2.328125 0.417969 -2.210938 0.417969 -2.0625 L 0.417969 -1.488281 L 0.117188 -1.488281 L 0.117188 -1.265625 L 0.417969 -1.265625 L 0.417969 0 L 0.65625 0 L 0.65625 -1.265625 L 1.050781 -1.265625 L 1.050781 -1.488281 L 0.65625 -1.488281 L 0.65625 -2.128906 C 0.65625 -2.179688 0.664062 -2.222656 0.691406 -2.261719 C 0.714844 -2.292969 0.765625 -2.316406 0.847656 -2.316406 Z M 1.050781 -2.316406 "/></g></g></g><g fill="rgb(20.388794%, 27.449036%, 28.239441%)" fill-opacity="1"><g transform="translate(34.310415, 27.321815)"><g><path d="M 1.28125 -0.253906 L 1.28125 0 L 1.515625 0 L 1.515625 -1.488281 L 1.28125 -1.488281 L 1.28125 -0.863281 C 1.28125 -0.65625 1.238281 -0.496094 1.164062 -0.378906 C 1.089844 -0.261719 0.957031 -0.207031 0.773438 -0.207031 C 0.671875 -0.207031 0.597656 -0.238281 0.554688 -0.308594 C 0.511719 -0.375 0.488281 -0.460938 0.488281 -0.558594 L 0.488281 -1.488281 L 0.253906 -1.488281 L 0.253906 -0.558594 C 0.253906 -0.386719 0.296875 -0.242188 0.390625 -0.132812 C 0.488281 -0.0234375 0.613281 0.03125 0.785156 0.03125 C 1.003906 0.03125 1.167969 -0.0625 1.28125 -0.253906 Z M 1.28125 -0.253906 "/></g></g></g><g fill="rgb(20.388794%, 27.449036%, 28.239441%)" fill-opacity="1"><g transform="translate(36.030274, 27.321815)"><g><path d="M 0.488281 0 L 0.488281 -2.535156 L 0.253906 -2.535156 L 0.253906 0 Z M 0.488281 0 "/></g></g></g><g fill="rgb(20.388794%, 27.449036%, 28.239441%)" fill-opacity="1"><g transform="translate(36.77363, 27.321815)"><g/></g></g><g fill="rgb(20.388794%, 27.449036%, 28.239441%)" fill-opacity="1"><g transform="translate(37.685931, 27.321815)"><g><path d="M 0.0664062 -1.265625 L 0.4375 -1.265625 L 0.4375 0 L 0.675781 0 L 0.675781 -1.265625 L 1.042969 -1.265625 L 1.042969 -1.488281 L 0.675781 -1.488281 L 0.675781 -2.066406 L 0.4375 -2.066406 L 0.4375 -1.488281 L 0.0664062 -1.488281 Z M 0.0664062 -1.265625 "/></g></g></g><g fill="rgb(20.388794%, 27.449036%, 28.239441%)" fill-opacity="1"><g transform="translate(38.797587, 27.321815)"><g><path d="M 1.46875 -0.75 C 1.46875 -0.601562 1.414062 -0.476562 1.3125 -0.371094 C 1.203125 -0.261719 1.078125 -0.210938 0.929688 -0.210938 C 0.78125 -0.210938 0.652344 -0.261719 0.546875 -0.371094 C 0.4375 -0.476562 0.386719 -0.601562 0.386719 -0.75 C 0.386719 -0.898438 0.4375 -1.023438 0.546875 -1.132812 C 0.652344 -1.238281 0.78125 -1.289062 0.929688 -1.289062 C 1.078125 -1.289062 1.203125 -1.238281 1.3125 -1.132812 C 1.414062 -1.023438 1.46875 -0.898438 1.46875 -0.75 Z M 1.707031 -0.75 C 1.707031 -0.964844 1.628906 -1.144531 1.476562 -1.296875 C 1.324219 -1.449219 1.140625 -1.527344 0.929688 -1.527344 C 0.714844 -1.527344 0.53125 -1.449219 0.378906 -1.296875 C 0.226562 -1.144531 0.152344 -0.964844 0.152344 -0.75 C 0.152344 -0.535156 0.226562 -0.351562 0.378906 -0.203125 C 0.53125 -0.0507812 0.714844 0.0234375 0.929688 0.0234375 C 1.140625 0.0234375 1.324219 -0.0507812 1.476562 -0.203125 C 1.628906 -0.351562 1.707031 -0.535156 1.707031 -0.75 Z M 1.707031 -0.75 "/></g></g></g><g fill="rgb(20.388794%, 27.449036%, 28.239441%)" fill-opacity="1"><g transform="translate(40.655981, 27.321815)"><g/></g></g><g fill="rgb(20.388794%, 27.449036%, 28.239441%)" fill-opacity="1"><g transform="translate(41.568282, 27.321815)"><g><path d="M 0.441406 0.84375 L 1.46875 -1.488281 L 1.207031 -1.488281 L 0.78125 -0.488281 L 0.304688 -1.488281 L 0.0351562 -1.488281 L 0.65625 -0.242188 L 0.15625 0.84375 Z M 0.441406 0.84375 "/></g></g></g><g fill="rgb(20.388794%, 27.449036%, 28.239441%)" fill-opacity="1"><g transform="translate(43.004312, 27.321815)"><g><path d="M 1.46875 -0.75 C 1.46875 -0.601562 1.414062 -0.476562 1.3125 -0.371094 C 1.203125 -0.261719 1.078125 -0.210938 0.929688 -0.210938 C 0.78125 -0.210938 0.652344 -0.261719 0.546875 -0.371094 C 0.4375 -0.476562 0.386719 -0.601562 0.386719 -0.75 C 0.386719 -0.898438 0.4375 -1.023438 0.546875 -1.132812 C 0.652344 -1.238281 0.78125 -1.289062 0.929688 -1.289062 C 1.078125 -1.289062 1.203125 -1.238281 1.3125 -1.132812 C 1.414062 -1.023438 1.46875 -0.898438 1.46875 -0.75 Z M 1.707031 -0.75 C 1.707031 -0.964844 1.628906 -1.144531 1.476562 -1.296875 C 1.324219 -1.449219 1.140625 -1.527344 0.929688 -1.527344 C 0.714844 -1.527344 0.53125 -1.449219 0.378906 -1.296875 C 0.226562 -1.144531 0.152344 -0.964844 0.152344 -0.75 C 0.152344 -0.535156 0.226562 -0.351562 0.378906 -0.203125 C 0.53125 -0.0507812 0.714844 0.0234375 0.929688 0.0234375 C 1.140625 0.0234375 1.324219 -0.0507812 1.476562 -0.203125 C 1.628906 -0.351562 1.707031 -0.535156 1.707031 -0.75 Z M 1.707031 -0.75 "/></g></g></g><g fill="rgb(20.388794%, 27.449036%, 28.239441%)" fill-opacity="1"><g transform="translate(44.862706, 27.321815)"><g><path d="M 1.28125 -0.253906 L 1.28125 0 L 1.515625 0 L 1.515625 -1.488281 L 1.28125 -1.488281 L 1.28125 -0.863281 C 1.28125 -0.65625 1.238281 -0.496094 1.164062 -0.378906 C 1.089844 -0.261719 0.957031 -0.207031 0.773438 -0.207031 C 0.671875 -0.207031 0.597656 -0.238281 0.554688 -0.308594 C 0.511719 -0.375 0.488281 -0.460938 0.488281 -0.558594 L 0.488281 -1.488281 L 0.253906 -1.488281 L 0.253906 -0.558594 C 0.253906 -0.386719 0.296875 -0.242188 0.390625 -0.132812 C 0.488281 -0.0234375 0.613281 0.03125 0.785156 0.03125 C 1.003906 0.03125 1.167969 -0.0625 1.28125 -0.253906 Z M 1.28125 -0.253906 "/></g></g></g><g fill="rgb(20.388794%, 27.449036%, 28.239441%)" fill-opacity="1"><g transform="translate(46.582564, 27.321815)"><g><path d="M 1.015625 -1.179688 L 1.015625 -1.488281 C 0.96875 -1.507812 0.917969 -1.515625 0.867188 -1.515625 C 0.699219 -1.515625 0.578125 -1.421875 0.5 -1.238281 L 0.488281 -1.179688 L 0.488281 -1.488281 L 0.253906 -1.488281 L 0.253906 0 L 0.488281 0 L 0.488281 -0.742188 C 0.488281 -0.863281 0.515625 -0.972656 0.574219 -1.070312 C 0.601562 -1.121094 0.636719 -1.164062 0.683594 -1.199219 C 0.726562 -1.234375 0.78125 -1.253906 0.839844 -1.253906 C 0.902344 -1.253906 0.960938 -1.226562 1.015625 -1.179688 Z M 1.015625 -1.179688 "/></g></g></g><g fill="rgb(20.388794%, 27.449036%, 28.239441%)" fill-opacity="1"><g transform="translate(47.6334, 27.321815)"><g><path d="M 0.464844 -0.210938 C 0.410156 -0.25 0.363281 -0.316406 0.339844 -0.414062 L 0.0898438 -0.414062 C 0.140625 -0.109375 0.335938 0.0429688 0.683594 0.0429688 C 0.761719 0.0429688 0.839844 0.0390625 0.910156 0.015625 C 0.980469 -0.00390625 1.039062 -0.03125 1.097656 -0.0664062 C 1.214844 -0.144531 1.269531 -0.261719 1.269531 -0.421875 C 1.269531 -0.585938 1.195312 -0.699219 1.039062 -0.773438 C 0.976562 -0.804688 0.90625 -0.828125 0.828125 -0.84375 C 0.753906 -0.863281 0.683594 -0.882812 0.617188 -0.902344 C 0.550781 -0.921875 0.496094 -0.949219 0.453125 -0.980469 C 0.410156 -1.011719 0.386719 -1.058594 0.386719 -1.125 C 0.386719 -1.191406 0.414062 -1.242188 0.464844 -1.273438 C 0.519531 -1.308594 0.585938 -1.324219 0.65625 -1.324219 C 0.730469 -1.324219 0.792969 -1.308594 0.84375 -1.28125 C 0.894531 -1.253906 0.9375 -1.199219 0.960938 -1.117188 L 1.214844 -1.117188 C 1.183594 -1.265625 1.117188 -1.371094 1.023438 -1.429688 C 0.925781 -1.488281 0.808594 -1.519531 0.664062 -1.519531 C 0.519531 -1.519531 0.394531 -1.480469 0.289062 -1.40625 C 0.1875 -1.328125 0.136719 -1.214844 0.136719 -1.066406 C 0.136719 -0.996094 0.15625 -0.933594 0.191406 -0.878906 C 0.234375 -0.820312 0.289062 -0.777344 0.363281 -0.742188 C 0.433594 -0.714844 0.503906 -0.6875 0.578125 -0.667969 C 0.652344 -0.652344 0.722656 -0.632812 0.789062 -0.613281 C 0.941406 -0.5625 1.019531 -0.488281 1.019531 -0.390625 C 1.019531 -0.230469 0.914062 -0.152344 0.695312 -0.152344 C 0.605469 -0.152344 0.527344 -0.167969 0.464844 -0.210938 Z M 0.464844 -0.210938 "/></g></g></g><g fill="rgb(20.388794%, 27.449036%, 28.239441%)" fill-opacity="1"><g transform="translate(48.991716, 27.321815)"><g><path d="M 1.707031 -0.777344 C 1.707031 -0.980469 1.625 -1.15625 1.46875 -1.308594 C 1.316406 -1.453125 1.136719 -1.527344 0.929688 -1.527344 C 0.714844 -1.527344 0.53125 -1.449219 0.378906 -1.296875 C 0.226562 -1.144531 0.152344 -0.964844 0.152344 -0.75 C 0.152344 -0.535156 0.226562 -0.351562 0.378906 -0.203125 C 0.449219 -0.132812 0.53125 -0.078125 0.625 -0.0390625 C 0.71875 0.00390625 0.832031 0.0234375 0.964844 0.0234375 C 1.09375 0.0234375 1.222656 -0.015625 1.351562 -0.0976562 C 1.480469 -0.179688 1.574219 -0.292969 1.640625 -0.4375 L 1.367188 -0.4375 C 1.3125 -0.363281 1.25 -0.3125 1.171875 -0.269531 C 1.09375 -0.230469 1.011719 -0.210938 0.929688 -0.210938 C 0.800781 -0.210938 0.6875 -0.253906 0.585938 -0.335938 C 0.484375 -0.417969 0.417969 -0.523438 0.398438 -0.652344 L 1.707031 -0.652344 Z M 1.457031 -0.855469 L 0.402344 -0.855469 C 0.414062 -0.914062 0.4375 -0.972656 0.472656 -1.027344 C 0.582031 -1.203125 0.734375 -1.289062 0.929688 -1.289062 C 1.054688 -1.289062 1.164062 -1.25 1.265625 -1.167969 C 1.363281 -1.085938 1.425781 -0.980469 1.457031 -0.855469 Z M 1.457031 -0.855469 "/></g></g></g><g fill="rgb(20.388794%, 27.449036%, 28.239441%)" fill-opacity="1"><g transform="translate(50.833212, 27.321815)"><g><path d="M 0.488281 0 L 0.488281 -2.535156 L 0.253906 -2.535156 L 0.253906 0 Z M 0.488281 0 "/></g></g></g><g fill="rgb(20.388794%, 27.449036%, 28.239441%)" fill-opacity="1"><g transform="translate(51.576567, 27.321815)"><g><path d="M 1.050781 -2.316406 L 1.050781 -2.535156 L 0.882812 -2.535156 C 0.714844 -2.535156 0.59375 -2.488281 0.523438 -2.410156 C 0.453125 -2.328125 0.417969 -2.210938 0.417969 -2.0625 L 0.417969 -1.488281 L 0.117188 -1.488281 L 0.117188 -1.265625 L 0.417969 -1.265625 L 0.417969 0 L 0.65625 0 L 0.65625 -1.265625 L 1.050781 -1.265625 L 1.050781 -1.488281 L 0.65625 -1.488281 L 0.65625 -2.128906 C 0.65625 -2.179688 0.664062 -2.222656 0.691406 -2.261719 C 0.714844 -2.292969 0.765625 -2.316406 0.847656 -2.316406 Z M 1.050781 -2.316406 "/></g></g></g><g fill="rgb(20.388794%, 27.449036%, 28.239441%)" fill-opacity="1"><g transform="translate(52.728769, 27.321815)"><g><path d="M 0.6875 -0.398438 L 0.363281 -0.398438 L 0.167969 0.476562 L 0.3125 0.476562 Z M 0.6875 -0.398438 "/></g></g></g><g fill="rgb(20.388794%, 27.449036%, 28.239441%)" fill-opacity="1"><g transform="translate(53.511695, 27.321815)"><g/></g></g><g fill="rgb(20.388794%, 27.449036%, 28.239441%)" fill-opacity="1"><g transform="translate(54.423996, 27.321815)"><g/></g></g><g fill="rgb(20.388794%, 27.449036%, 28.239441%)" fill-opacity="1"><g transform="translate(55.333118, 27.321815)"><g><path d="M 0.488281 0 L 0.488281 -2.535156 L 0.253906 -2.535156 L 0.253906 0 Z M 0.488281 0 "/></g></g></g><g fill="rgb(20.388794%, 27.449036%, 28.239441%)" fill-opacity="1"><g transform="translate(56.076474, 27.321815)"><g><path d="M 0.492188 -2 C 0.464844 -2.027344 0.425781 -2.042969 0.386719 -2.042969 C 0.34375 -2.042969 0.308594 -2.027344 0.28125 -2 C 0.25 -1.96875 0.238281 -1.933594 0.238281 -1.890625 C 0.238281 -1.851562 0.25 -1.816406 0.28125 -1.789062 C 0.308594 -1.757812 0.34375 -1.742188 0.386719 -1.742188 C 0.425781 -1.742188 0.464844 -1.757812 0.492188 -1.789062 C 0.519531 -1.816406 0.539062 -1.851562 0.539062 -1.890625 C 0.539062 -1.933594 0.519531 -1.96875 0.492188 -2 Z M 0.507812 0 L 0.507812 -1.488281 L 0.269531 -1.488281 L 0.269531 0 Z M 0.507812 0 "/></g></g></g><g fill="rgb(20.388794%, 27.449036%, 28.239441%)" fill-opacity="1"><g transform="translate(56.85024, 27.321815)"><g><path d="M 0.71875 0.140625 L 1.402344 -1.488281 L 1.144531 -1.488281 L 0.71875 -0.382812 L 0.289062 -1.488281 L 0.0351562 -1.488281 Z M 0.71875 0.140625 "/></g></g></g><g fill="rgb(20.388794%, 27.449036%, 28.239441%)" fill-opacity="1"><g transform="translate(58.28627, 27.321815)"><g><path d="M 1.707031 -0.777344 C 1.707031 -0.980469 1.625 -1.15625 1.46875 -1.308594 C 1.316406 -1.453125 1.136719 -1.527344 0.929688 -1.527344 C 0.714844 -1.527344 0.53125 -1.449219 0.378906 -1.296875 C 0.226562 -1.144531 0.152344 -0.964844 0.152344 -0.75 C 0.152344 -0.535156 0.226562 -0.351562 0.378906 -0.203125 C 0.449219 -0.132812 0.53125 -0.078125 0.625 -0.0390625 C 0.71875 0.00390625 0.832031 0.0234375 0.964844 0.0234375 C 1.09375 0.0234375 1.222656 -0.015625 1.351562 -0.0976562 C 1.480469 -0.179688 1.574219 -0.292969 1.640625 -0.4375 L 1.367188 -0.4375 C 1.3125 -0.363281 1.25 -0.3125 1.171875 -0.269531 C 1.09375 -0.230469 1.011719 -0.210938 0.929688 -0.210938 C 0.800781 -0.210938 0.6875 -0.253906 0.585938 -0.335938 C 0.484375 -0.417969 0.417969 -0.523438 0.398438 -0.652344 L 1.707031 -0.652344 Z M 1.457031 -0.855469 L 0.402344 -0.855469 C 0.414062 -0.914062 0.4375 -0.972656 0.472656 -1.027344 C 0.582031 -1.203125 0.734375 -1.289062 0.929688 -1.289062 C 1.054688 -1.289062 1.164062 -1.25 1.265625 -1.167969 C 1.363281 -1.085938 1.425781 -0.980469 1.457031 -0.855469 Z M 1.457031 -0.855469 "/></g></g></g><g fill="rgb(20.388794%, 27.449036%, 28.239441%)" fill-opacity="1"><g transform="translate(60.127766, 27.321815)"><g/></g></g><g fill="rgb(20.388794%, 27.449036%, 28.239441%)" fill-opacity="1"><g transform="translate(61.040066, 27.321815)"><g><path d="M 1.707031 -0.777344 C 1.707031 -0.980469 1.625 -1.15625 1.46875 -1.308594 C 1.316406 -1.453125 1.136719 -1.527344 0.929688 -1.527344 C 0.714844 -1.527344 0.53125 -1.449219 0.378906 -1.296875 C 0.226562 -1.144531 0.152344 -0.964844 0.152344 -0.75 C 0.152344 -0.535156 0.226562 -0.351562 0.378906 -0.203125 C 0.449219 -0.132812 0.53125 -0.078125 0.625 -0.0390625 C 0.71875 0.00390625 0.832031 0.0234375 0.964844 0.0234375 C 1.09375 0.0234375 1.222656 -0.015625 1.351562 -0.0976562 C 1.480469 -0.179688 1.574219 -0.292969 1.640625 -0.4375 L 1.367188 -0.4375 C 1.3125 -0.363281 1.25 -0.3125 1.171875 -0.269531 C 1.09375 -0.230469 1.011719 -0.210938 0.929688 -0.210938 C 0.800781 -0.210938 0.6875 -0.253906 0.585938 -0.335938 C 0.484375 -0.417969 0.417969 -0.523438 0.398438 -0.652344 L 1.707031 -0.652344 Z M 1.457031 -0.855469 L 0.402344 -0.855469 C 0.414062 -0.914062 0.4375 -0.972656 0.472656 -1.027344 C 0.582031 -1.203125 0.734375 -1.289062 0.929688 -1.289062 C 1.054688 -1.289062 1.164062 -1.25 1.265625 -1.167969 C 1.363281 -1.085938 1.425781 -0.980469 1.457031 -0.855469 Z M 1.457031 -0.855469 "/></g></g></g><g fill="rgb(20.388794%, 27.449036%, 28.239441%)" fill-opacity="1"><g transform="translate(62.881562, 27.321815)"><g><path d="M 1.4375 -0.742188 C 1.4375 -0.597656 1.386719 -0.46875 1.285156 -0.363281 C 1.183594 -0.257812 1.058594 -0.203125 0.914062 -0.203125 C 0.761719 -0.203125 0.636719 -0.257812 0.539062 -0.363281 C 0.4375 -0.46875 0.386719 -0.597656 0.386719 -0.742188 C 0.386719 -0.886719 0.4375 -1.011719 0.539062 -1.121094 C 0.636719 -1.230469 0.761719 -1.285156 0.914062 -1.285156 C 1.058594 -1.285156 1.183594 -1.230469 1.285156 -1.121094 C 1.386719 -1.011719 1.4375 -0.886719 1.4375 -0.742188 Z M 1.671875 0 L 1.671875 -1.488281 L 1.4375 -1.488281 L 1.4375 -1.230469 C 1.421875 -1.25 1.40625 -1.265625 1.390625 -1.285156 C 1.25 -1.4375 1.078125 -1.519531 0.875 -1.519531 C 0.667969 -1.519531 0.496094 -1.4375 0.355469 -1.285156 C 0.21875 -1.128906 0.152344 -0.949219 0.152344 -0.742188 C 0.152344 -0.535156 0.21875 -0.355469 0.355469 -0.203125 C 0.496094 -0.0429688 0.667969 0.0351562 0.875 0.0351562 C 1.078125 0.0351562 1.25 -0.0429688 1.390625 -0.203125 C 1.40625 -0.214844 1.421875 -0.234375 1.4375 -0.253906 L 1.4375 0 Z M 1.671875 0 "/></g></g></g><g fill="rgb(20.388794%, 27.449036%, 28.239441%)" fill-opacity="1"><g transform="translate(64.80753, 27.321815)"><g><path d="M 1.015625 -1.179688 L 1.015625 -1.488281 C 0.96875 -1.507812 0.917969 -1.515625 0.867188 -1.515625 C 0.699219 -1.515625 0.578125 -1.421875 0.5 -1.238281 L 0.488281 -1.179688 L 0.488281 -1.488281 L 0.253906 -1.488281 L 0.253906 0 L 0.488281 0 L 0.488281 -0.742188 C 0.488281 -0.863281 0.515625 -0.972656 0.574219 -1.070312 C 0.601562 -1.121094 0.636719 -1.164062 0.683594 -1.199219 C 0.726562 -1.234375 0.78125 -1.253906 0.839844 -1.253906 C 0.902344 -1.253906 0.960938 -1.226562 1.015625 -1.179688 Z M 1.015625 -1.179688 "/></g></g></g><g fill="rgb(20.388794%, 27.449036%, 28.239441%)" fill-opacity="1"><g transform="translate(65.858366, 27.321815)"><g><path d="M 1.28125 0 L 1.515625 0 L 1.515625 -0.929688 C 1.515625 -1.101562 1.46875 -1.238281 1.382812 -1.34375 C 1.335938 -1.398438 1.28125 -1.4375 1.214844 -1.46875 C 1.148438 -1.5 1.0625 -1.515625 0.960938 -1.515625 C 0.851562 -1.515625 0.761719 -1.488281 0.679688 -1.433594 C 0.601562 -1.382812 0.539062 -1.3125 0.488281 -1.230469 L 0.488281 -1.488281 L 0.253906 -1.488281 L 0.253906 0 L 0.488281 0 L 0.488281 -0.621094 C 0.488281 -0.8125 0.523438 -0.960938 0.59375 -1.070312 C 0.636719 -1.132812 0.6875 -1.183594 0.75 -1.222656 C 0.8125 -1.261719 0.894531 -1.28125 0.996094 -1.28125 C 1.097656 -1.28125 1.167969 -1.242188 1.214844 -1.175781 C 1.257812 -1.109375 1.28125 -1.023438 1.28125 -0.929688 Z M 1.28125 0 "/></g></g></g><g fill="rgb(20.388794%, 27.449036%, 28.239441%)" fill-opacity="1"><g transform="translate(67.578225, 27.321815)"><g><path d="M 1.707031 -0.777344 C 1.707031 -0.980469 1.625 -1.15625 1.46875 -1.308594 C 1.316406 -1.453125 1.136719 -1.527344 0.929688 -1.527344 C 0.714844 -1.527344 0.53125 -1.449219 0.378906 -1.296875 C 0.226562 -1.144531 0.152344 -0.964844 0.152344 -0.75 C 0.152344 -0.535156 0.226562 -0.351562 0.378906 -0.203125 C 0.449219 -0.132812 0.53125 -0.078125 0.625 -0.0390625 C 0.71875 0.00390625 0.832031 0.0234375 0.964844 0.0234375 C 1.09375 0.0234375 1.222656 -0.015625 1.351562 -0.0976562 C 1.480469 -0.179688 1.574219 -0.292969 1.640625 -0.4375 L 1.367188 -0.4375 C 1.3125 -0.363281 1.25 -0.3125 1.171875 -0.269531 C 1.09375 -0.230469 1.011719 -0.210938 0.929688 -0.210938 C 0.800781 -0.210938 0.6875 -0.253906 0.585938 -0.335938 C 0.484375 -0.417969 0.417969 -0.523438 0.398438 -0.652344 L 1.707031 -0.652344 Z M 1.457031 -0.855469 L 0.402344 -0.855469 C 0.414062 -0.914062 0.4375 -0.972656 0.472656 -1.027344 C 0.582031 -1.203125 0.734375 -1.289062 0.929688 -1.289062 C 1.054688 -1.289062 1.164062 -1.25 1.265625 -1.167969 C 1.363281 -1.085938 1.425781 -0.980469 1.457031 -0.855469 Z M 1.457031 -0.855469 "/></g></g></g><g fill="rgb(20.388794%, 27.449036%, 28.239441%)" fill-opacity="1"><g transform="translate(69.41972, 27.321815)"><g><path d="M 0.464844 -0.210938 C 0.410156 -0.25 0.363281 -0.316406 0.339844 -0.414062 L 0.0898438 -0.414062 C 0.140625 -0.109375 0.335938 0.0429688 0.683594 0.0429688 C 0.761719 0.0429688 0.839844 0.0390625 0.910156 0.015625 C 0.980469 -0.00390625 1.039062 -0.03125 1.097656 -0.0664062 C 1.214844 -0.144531 1.269531 -0.261719 1.269531 -0.421875 C 1.269531 -0.585938 1.195312 -0.699219 1.039062 -0.773438 C 0.976562 -0.804688 0.90625 -0.828125 0.828125 -0.84375 C 0.753906 -0.863281 0.683594 -0.882812 0.617188 -0.902344 C 0.550781 -0.921875 0.496094 -0.949219 0.453125 -0.980469 C 0.410156 -1.011719 0.386719 -1.058594 0.386719 -1.125 C 0.386719 -1.191406 0.414062 -1.242188 0.464844 -1.273438 C 0.519531 -1.308594 0.585938 -1.324219 0.65625 -1.324219 C 0.730469 -1.324219 0.792969 -1.308594 0.84375 -1.28125 C 0.894531 -1.253906 0.9375 -1.199219 0.960938 -1.117188 L 1.214844 -1.117188 C 1.183594 -1.265625 1.117188 -1.371094 1.023438 -1.429688 C 0.925781 -1.488281 0.808594 -1.519531 0.664062 -1.519531 C 0.519531 -1.519531 0.394531 -1.480469 0.289062 -1.40625 C 0.1875 -1.328125 0.136719 -1.214844 0.136719 -1.066406 C 0.136719 -0.996094 0.15625 -0.933594 0.191406 -0.878906 C 0.234375 -0.820312 0.289062 -0.777344 0.363281 -0.742188 C 0.433594 -0.714844 0.503906 -0.6875 0.578125 -0.667969 C 0.652344 -0.652344 0.722656 -0.632812 0.789062 -0.613281 C 0.941406 -0.5625 1.019531 -0.488281 1.019531 -0.390625 C 1.019531 -0.230469 0.914062 -0.152344 0.695312 -0.152344 C 0.605469 -0.152344 0.527344 -0.167969 0.464844 -0.210938 Z M 0.464844 -0.210938 "/></g></g></g><g fill="rgb(20.388794%, 27.449036%, 28.239441%)" fill-opacity="1"><g transform="translate(70.778036, 27.321815)"><g><path d="M 0.0664062 -1.265625 L 0.4375 -1.265625 L 0.4375 0 L 0.675781 0 L 0.675781 -1.265625 L 1.042969 -1.265625 L 1.042969 -1.488281 L 0.675781 -1.488281 L 0.675781 -2.066406 L 0.4375 -2.066406 L 0.4375 -1.488281 L 0.0664062 -1.488281 Z M 0.0664062 -1.265625 "/></g></g></g><g fill="rgb(20.388794%, 27.449036%, 28.239441%)" fill-opacity="1"><g transform="translate(71.889693, 27.321815)"><g><path d="M 0.488281 0 L 0.488281 -2.535156 L 0.253906 -2.535156 L 0.253906 0 Z M 0.488281 0 "/></g></g></g><g fill="rgb(20.388794%, 27.449036%, 28.239441%)" fill-opacity="1"><g transform="translate(72.633048, 27.321815)"><g><path d="M 0.441406 0.84375 L 1.46875 -1.488281 L 1.207031 -1.488281 L 0.78125 -0.488281 L 0.304688 -1.488281 L 0.0351562 -1.488281 L 0.65625 -0.242188 L 0.15625 0.84375 Z M 0.441406 0.84375 "/></g></g></g><g fill="rgb(20.388794%, 27.449036%, 28.239441%)" fill-opacity="1"><g transform="translate(74.069079, 27.321815)"><g/></g></g><g fill="rgb(20.388794%, 27.449036%, 28.239441%)" fill-opacity="1"><g transform="translate(74.98138, 27.321815)"><g><path d="M 1.4375 -0.742188 C 1.4375 -0.597656 1.386719 -0.46875 1.285156 -0.363281 C 1.183594 -0.257812 1.058594 -0.203125 0.914062 -0.203125 C 0.761719 -0.203125 0.636719 -0.257812 0.539062 -0.363281 C 0.4375 -0.46875 0.386719 -0.597656 0.386719 -0.742188 C 0.386719 -0.886719 0.4375 -1.011719 0.539062 -1.121094 C 0.636719 -1.230469 0.761719 -1.285156 0.914062 -1.285156 C 1.058594 -1.285156 1.183594 -1.230469 1.285156 -1.121094 C 1.386719 -1.011719 1.4375 -0.886719 1.4375 -0.742188 Z M 1.671875 0 L 1.671875 -1.488281 L 1.4375 -1.488281 L 1.4375 -1.230469 C 1.421875 -1.25 1.40625 -1.265625 1.390625 -1.285156 C 1.25 -1.4375 1.078125 -1.519531 0.875 -1.519531 C 0.667969 -1.519531 0.496094 -1.4375 0.355469 -1.285156 C 0.21875 -1.128906 0.152344 -0.949219 0.152344 -0.742188 C 0.152344 -0.535156 0.21875 -0.355469 0.355469 -0.203125 C 0.496094 -0.0429688 0.667969 0.0351562 0.875 0.0351562 C 1.078125 0.0351562 1.25 -0.0429688 1.390625 -0.203125 C 1.40625 -0.214844 1.421875 -0.234375 1.4375 -0.253906 L 1.4375 0 Z M 1.671875 0 "/></g></g></g><g fill="rgb(20.388794%, 27.449036%, 28.239441%)" fill-opacity="1"><g transform="translate(76.907348, 27.321815)"><g><path d="M 1.28125 0 L 1.515625 0 L 1.515625 -0.929688 C 1.515625 -1.101562 1.46875 -1.238281 1.382812 -1.34375 C 1.335938 -1.398438 1.28125 -1.4375 1.214844 -1.46875 C 1.148438 -1.5 1.0625 -1.515625 0.960938 -1.515625 C 0.851562 -1.515625 0.761719 -1.488281 0.679688 -1.433594 C 0.601562 -1.382812 0.539062 -1.3125 0.488281 -1.230469 L 0.488281 -1.488281 L 0.253906 -1.488281 L 0.253906 0 L 0.488281 0 L 0.488281 -0.621094 C 0.488281 -0.8125 0.523438 -0.960938 0.59375 -1.070312 C 0.636719 -1.132812 0.6875 -1.183594 0.75 -1.222656 C 0.8125 -1.261719 0.894531 -1.28125 0.996094 -1.28125 C 1.097656 -1.28125 1.167969 -1.242188 1.214844 -1.175781 C 1.257812 -1.109375 1.28125 -1.023438 1.28125 -0.929688 Z M 1.28125 0 "/></g></g></g><g fill="rgb(20.388794%, 27.449036%, 28.239441%)" fill-opacity="1"><g transform="translate(78.627207, 27.321815)"><g><path d="M 1.4375 -0.742188 C 1.4375 -0.597656 1.386719 -0.46875 1.285156 -0.363281 C 1.183594 -0.257812 1.058594 -0.203125 0.914062 -0.203125 C 0.761719 -0.203125 0.636719 -0.257812 0.539062 -0.363281 C 0.4375 -0.46875 0.386719 -0.597656 0.386719 -0.742188 C 0.386719 -0.886719 0.4375 -1.011719 0.539062 -1.121094 C 0.636719 -1.230469 0.761719 -1.285156 0.914062 -1.285156 C 1.058594 -1.285156 1.183594 -1.230469 1.285156 -1.121094 C 1.386719 -1.011719 1.4375 -0.886719 1.4375 -0.742188 Z M 1.671875 0 L 1.671875 -2.535156 L 1.4375 -2.535156 L 1.4375 -1.230469 C 1.421875 -1.25 1.40625 -1.265625 1.390625 -1.285156 C 1.25 -1.4375 1.078125 -1.519531 0.875 -1.519531 C 0.667969 -1.519531 0.496094 -1.4375 0.355469 -1.285156 C 0.21875 -1.128906 0.152344 -0.949219 0.152344 -0.742188 C 0.152344 -0.535156 0.21875 -0.355469 0.355469 -0.203125 C 0.496094 -0.0429688 0.667969 0.0351562 0.875 0.0351562 C 1.078125 0.0351562 1.25 -0.0429688 1.390625 -0.203125 C 1.40625 -0.214844 1.421875 -0.234375 1.4375 -0.253906 L 1.4375 0 Z M 1.671875 0 "/></g></g></g><g fill="rgb(20.388794%, 27.449036%, 28.239441%)" fill-opacity="1"><g transform="translate(80.553175, 27.321815)"><g/></g></g><g fill="rgb(20.388794%, 27.449036%, 28.239441%)" fill-opacity="1"><g transform="translate(81.465476, 27.321815)"><g><path d="M 0.488281 0 L 0.488281 -2.535156 L 0.253906 -2.535156 L 0.253906 0 Z M 0.488281 0 "/></g></g></g><g fill="rgb(20.388794%, 27.449036%, 28.239441%)" fill-opacity="1"><g transform="translate(82.208831, 27.321815)"><g><path d="M 1.4375 -0.742188 C 1.4375 -0.597656 1.386719 -0.46875 1.285156 -0.363281 C 1.183594 -0.257812 1.058594 -0.203125 0.914062 -0.203125 C 0.761719 -0.203125 0.636719 -0.257812 0.539062 -0.363281 C 0.4375 -0.46875 0.386719 -0.597656 0.386719 -0.742188 C 0.386719 -0.886719 0.4375 -1.011719 0.539062 -1.121094 C 0.636719 -1.230469 0.761719 -1.285156 0.914062 -1.285156 C 1.058594 -1.285156 1.183594 -1.230469 1.285156 -1.121094 C 1.386719 -1.011719 1.4375 -0.886719 1.4375 -0.742188 Z M 1.671875 0 L 1.671875 -1.488281 L 1.4375 -1.488281 L 1.4375 -1.230469 C 1.421875 -1.25 1.40625 -1.265625 1.390625 -1.285156 C 1.25 -1.4375 1.078125 -1.519531 0.875 -1.519531 C 0.667969 -1.519531 0.496094 -1.4375 0.355469 -1.285156 C 0.21875 -1.128906 0.152344 -0.949219 0.152344 -0.742188 C 0.152344 -0.535156 0.21875 -0.355469 0.355469 -0.203125 C 0.496094 -0.0429688 0.667969 0.0351562 0.875 0.0351562 C 1.078125 0.0351562 1.25 -0.0429688 1.390625 -0.203125 C 1.40625 -0.214844 1.421875 -0.234375 1.4375 -0.253906 L 1.4375 0 Z M 1.671875 0 "/></g></g></g><g fill="rgb(20.388794%, 27.449036%, 28.239441%)" fill-opacity="1"><g transform="translate(84.134799, 27.321815)"><g><path d="M 1.28125 -0.253906 L 1.28125 0 L 1.515625 0 L 1.515625 -1.488281 L 1.28125 -1.488281 L 1.28125 -0.863281 C 1.28125 -0.65625 1.238281 -0.496094 1.164062 -0.378906 C 1.089844 -0.261719 0.957031 -0.207031 0.773438 -0.207031 C 0.671875 -0.207031 0.597656 -0.238281 0.554688 -0.308594 C 0.511719 -0.375 0.488281 -0.460938 0.488281 -0.558594 L 0.488281 -1.488281 L 0.253906 -1.488281 L 0.253906 -0.558594 C 0.253906 -0.386719 0.296875 -0.242188 0.390625 -0.132812 C 0.488281 -0.0234375 0.613281 0.03125 0.785156 0.03125 C 1.003906 0.03125 1.167969 -0.0625 1.28125 -0.253906 Z M 1.28125 -0.253906 "/></g></g></g><g fill="rgb(20.388794%, 27.449036%, 28.239441%)" fill-opacity="1"><g transform="translate(85.854658, 27.321815)"><g><path d="M 1.457031 -0.742188 C 1.457031 -0.597656 1.40625 -0.46875 1.304688 -0.363281 C 1.203125 -0.257812 1.078125 -0.203125 0.933594 -0.203125 C 0.789062 -0.203125 0.664062 -0.257812 0.5625 -0.363281 C 0.460938 -0.46875 0.410156 -0.59375 0.410156 -0.742188 C 0.410156 -0.886719 0.460938 -1.011719 0.5625 -1.121094 C 0.664062 -1.230469 0.789062 -1.285156 0.933594 -1.285156 C 1.078125 -1.285156 1.203125 -1.230469 1.304688 -1.121094 C 1.40625 -1.011719 1.457031 -0.886719 1.457031 -0.742188 Z M 0.402344 0.203125 L 0.160156 0.203125 C 0.1875 0.363281 0.257812 0.5 0.378906 0.617188 C 0.527344 0.769531 0.710938 0.84375 0.921875 0.84375 C 1.132812 0.84375 1.3125 0.769531 1.464844 0.617188 C 1.613281 0.46875 1.691406 0.289062 1.691406 0.0742188 L 1.691406 -1.488281 L 1.457031 -1.488281 L 1.457031 -1.238281 C 1.441406 -1.25 1.429688 -1.265625 1.414062 -1.285156 C 1.265625 -1.4375 1.09375 -1.519531 0.898438 -1.519531 C 0.6875 -1.519531 0.515625 -1.4375 0.375 -1.285156 C 0.238281 -1.128906 0.171875 -0.949219 0.171875 -0.742188 C 0.171875 -0.535156 0.238281 -0.355469 0.375 -0.203125 C 0.515625 -0.0429688 0.6875 0.0351562 0.898438 0.0351562 C 1.101562 0.0351562 1.273438 -0.0429688 1.414062 -0.203125 C 1.429688 -0.214844 1.441406 -0.234375 1.457031 -0.246094 L 1.457031 0.0742188 C 1.457031 0.222656 1.402344 0.347656 1.296875 0.453125 C 1.191406 0.558594 1.066406 0.609375 0.921875 0.609375 C 0.773438 0.609375 0.648438 0.558594 0.542969 0.453125 C 0.46875 0.378906 0.421875 0.296875 0.402344 0.203125 Z M 0.402344 0.203125 "/></g></g></g><g fill="rgb(20.388794%, 27.449036%, 28.239441%)" fill-opacity="1"><g transform="translate(87.800901, 27.321815)"><g><path d="M 0.488281 0 L 0.488281 -0.621094 C 0.488281 -0.828125 0.523438 -0.984375 0.59375 -1.089844 C 0.636719 -1.152344 0.6875 -1.195312 0.75 -1.230469 C 0.8125 -1.265625 0.894531 -1.28125 0.996094 -1.28125 C 1.097656 -1.28125 1.167969 -1.242188 1.214844 -1.175781 C 1.257812 -1.109375 1.28125 -1.023438 1.28125 -0.929688 L 1.28125 0 L 1.515625 0 L 1.515625 -0.929688 C 1.515625 -1.101562 1.46875 -1.238281 1.382812 -1.34375 C 1.335938 -1.398438 1.28125 -1.4375 1.214844 -1.46875 C 1.148438 -1.5 1.0625 -1.515625 0.960938 -1.515625 C 0.851562 -1.515625 0.761719 -1.488281 0.679688 -1.433594 C 0.601562 -1.382812 0.539062 -1.3125 0.488281 -1.230469 L 0.488281 -2.535156 L 0.253906 -2.535156 L 0.253906 0 Z M 0.488281 0 "/></g></g></g><g fill="rgb(20.388794%, 27.449036%, 28.239441%)" fill-opacity="1"><g transform="translate(89.52076, 27.321815)"><g/></g></g><g fill="rgb(20.388794%, 27.449036%, 28.239441%)" fill-opacity="1"><g transform="translate(90.433061, 27.321815)"><g><path d="M 1.050781 -2.316406 L 1.050781 -2.535156 L 0.882812 -2.535156 C 0.714844 -2.535156 0.59375 -2.488281 0.523438 -2.410156 C 0.453125 -2.328125 0.417969 -2.210938 0.417969 -2.0625 L 0.417969 -1.488281 L 0.117188 -1.488281 L 0.117188 -1.265625 L 0.417969 -1.265625 L 0.417969 0 L 0.65625 0 L 0.65625 -1.265625 L 1.050781 -1.265625 L 1.050781 -1.488281 L 0.65625 -1.488281 L 0.65625 -2.128906 C 0.65625 -2.179688 0.664062 -2.222656 0.691406 -2.261719 C 0.714844 -2.292969 0.765625 -2.316406 0.847656 -2.316406 Z M 1.050781 -2.316406 "/></g></g></g><g fill="rgb(20.388794%, 27.449036%, 28.239441%)" fill-opacity="1"><g transform="translate(91.585263, 27.321815)"><g><path d="M 1.015625 -1.179688 L 1.015625 -1.488281 C 0.96875 -1.507812 0.917969 -1.515625 0.867188 -1.515625 C 0.699219 -1.515625 0.578125 -1.421875 0.5 -1.238281 L 0.488281 -1.179688 L 0.488281 -1.488281 L 0.253906 -1.488281 L 0.253906 0 L 0.488281 0 L 0.488281 -0.742188 C 0.488281 -0.863281 0.515625 -0.972656 0.574219 -1.070312 C 0.601562 -1.121094 0.636719 -1.164062 0.683594 -1.199219 C 0.726562 -1.234375 0.78125 -1.253906 0.839844 -1.253906 C 0.902344 -1.253906 0.960938 -1.226562 1.015625 -1.179688 Z M 1.015625 -1.179688 "/></g></g></g><g fill="rgb(20.388794%, 27.449036%, 28.239441%)" fill-opacity="1"><g transform="translate(92.636099, 27.321815)"><g><path d="M 1.707031 -0.777344 C 1.707031 -0.980469 1.625 -1.15625 1.46875 -1.308594 C 1.316406 -1.453125 1.136719 -1.527344 0.929688 -1.527344 C 0.714844 -1.527344 0.53125 -1.449219 0.378906 -1.296875 C 0.226562 -1.144531 0.152344 -0.964844 0.152344 -0.75 C 0.152344 -0.535156 0.226562 -0.351562 0.378906 -0.203125 C 0.449219 -0.132812 0.53125 -0.078125 0.625 -0.0390625 C 0.71875 0.00390625 0.832031 0.0234375 0.964844 0.0234375 C 1.09375 0.0234375 1.222656 -0.015625 1.351562 -0.0976562 C 1.480469 -0.179688 1.574219 -0.292969 1.640625 -0.4375 L 1.367188 -0.4375 C 1.3125 -0.363281 1.25 -0.3125 1.171875 -0.269531 C 1.09375 -0.230469 1.011719 -0.210938 0.929688 -0.210938 C 0.800781 -0.210938 0.6875 -0.253906 0.585938 -0.335938 C 0.484375 -0.417969 0.417969 -0.523438 0.398438 -0.652344 L 1.707031 -0.652344 Z M 1.457031 -0.855469 L 0.402344 -0.855469 C 0.414062 -0.914062 0.4375 -0.972656 0.472656 -1.027344 C 0.582031 -1.203125 0.734375 -1.289062 0.929688 -1.289062 C 1.054688 -1.289062 1.164062 -1.25 1.265625 -1.167969 C 1.363281 -1.085938 1.425781 -0.980469 1.457031 -0.855469 Z M 1.457031 -0.855469 "/></g></g></g><g fill="rgb(20.388794%, 27.449036%, 28.239441%)" fill-opacity="1"><g transform="translate(94.477594, 27.321815)"><g><path d="M 1.707031 -0.777344 C 1.707031 -0.980469 1.625 -1.15625 1.46875 -1.308594 C 1.316406 -1.453125 1.136719 -1.527344 0.929688 -1.527344 C 0.714844 -1.527344 0.53125 -1.449219 0.378906 -1.296875 C 0.226562 -1.144531 0.152344 -0.964844 0.152344 -0.75 C 0.152344 -0.535156 0.226562 -0.351562 0.378906 -0.203125 C 0.449219 -0.132812 0.53125 -0.078125 0.625 -0.0390625 C 0.71875 0.00390625 0.832031 0.0234375 0.964844 0.0234375 C 1.09375 0.0234375 1.222656 -0.015625 1.351562 -0.0976562 C 1.480469 -0.179688 1.574219 -0.292969 1.640625 -0.4375 L 1.367188 -0.4375 C 1.3125 -0.363281 1.25 -0.3125 1.171875 -0.269531 C 1.09375 -0.230469 1.011719 -0.210938 0.929688 -0.210938 C 0.800781 -0.210938 0.6875 -0.253906 0.585938 -0.335938 C 0.484375 -0.417969 0.417969 -0.523438 0.398438 -0.652344 L 1.707031 -0.652344 Z M 1.457031 -0.855469 L 0.402344 -0.855469 C 0.414062 -0.914062 0.4375 -0.972656 0.472656 -1.027344 C 0.582031 -1.203125 0.734375 -1.289062 0.929688 -1.289062 C 1.054688 -1.289062 1.164062 -1.25 1.265625 -1.167969 C 1.363281 -1.085938 1.425781 -0.980469 1.457031 -0.855469 Z M 1.457031 -0.855469 "/></g></g></g><g fill="rgb(20.388794%, 27.449036%, 28.239441%)" fill-opacity="1"><g transform="translate(96.31909, 27.321815)"><g><path d="M 0.488281 0 L 0.488281 -2.535156 L 0.253906 -2.535156 L 0.253906 0 Z M 0.488281 0 "/></g></g></g><g fill="rgb(20.388794%, 27.449036%, 28.239441%)" fill-opacity="1"><g transform="translate(97.062446, 27.321815)"><g><path d="M 0.441406 0.84375 L 1.46875 -1.488281 L 1.207031 -1.488281 L 0.78125 -0.488281 L 0.304688 -1.488281 L 0.0351562 -1.488281 L 0.65625 -0.242188 L 0.15625 0.84375 Z M 0.441406 0.84375 "/></g></g></g><g fill="rgb(20.388794%, 27.449036%, 28.239441%)" fill-opacity="1"><g transform="translate(98.498476, 27.321815)"><g><path d="M 0.449219 0.0351562 C 0.5 0.0351562 0.546875 0.015625 0.589844 -0.0195312 C 0.628906 -0.0585938 0.648438 -0.101562 0.648438 -0.15625 C 0.648438 -0.210938 0.628906 -0.253906 0.589844 -0.289062 C 0.546875 -0.328125 0.503906 -0.347656 0.449219 -0.347656 C 0.394531 -0.347656 0.347656 -0.328125 0.3125 -0.289062 C 0.269531 -0.25 0.253906 -0.207031 0.253906 -0.15625 C 0.253906 -0.101562 0.269531 -0.0585938 0.3125 -0.0195312 C 0.351562 0.015625 0.394531 0.0351562 0.449219 0.0351562 Z M 0.449219 0.0351562 "/></g></g></g></svg>