<svg xmlns="http://www.w3.org/2000/svg" xmlns:xlink="http://www.w3.org/1999/xlink" width="40" zoomAndPan="magnify" viewBox="0 0 30 30.750001" height="41" preserveAspectRatio="xMidYMid meet" version="1.0"><defs><g><g id="id1"/></g></defs><g fill="rgb(0%, 0%, 0%)" fill-opacity="1"><g transform="translate(6.462887, 14.507058)"><g><path d="M 1.0625 -7.46875 L 3.21875 -3.484375 L 1.328125 -0.765625 C 1.203125 -0.566406 1.0625 -0.421875 0.90625 -0.328125 C 0.757812 -0.234375 0.585938 -0.1875 0.390625 -0.1875 L 0.390625 0 L 2 0 L 2 -0.1875 C 1.800781 -0.1875 1.671875 -0.21875 1.609375 -0.28125 C 1.546875 -0.351562 1.515625 -0.410156 1.515625 -0.453125 C 1.515625 -0.523438 1.523438 -0.585938 1.546875 -0.640625 C 1.578125 -0.691406 1.613281 -0.738281 1.65625 -0.78125 L 3.375 -3.203125 L 5 -0.1875 L 4.390625 -0.1875 L 4.390625 0 L 7.46875 0 L 7.46875 -0.1875 L 6.875 -0.1875 L 4.484375 -4.609375 L 5.953125 -6.703125 C 6.066406 -6.867188 6.164062 -7 6.25 -7.09375 C 6.34375 -7.195312 6.429688 -7.273438 6.515625 -7.328125 C 6.597656 -7.390625 6.675781 -7.425781 6.75 -7.4375 C 6.832031 -7.457031 6.925781 -7.46875 7.03125 -7.46875 L 7.03125 -7.65625 L 5.328125 -7.65625 L 5.328125 -7.46875 C 5.515625 -7.46875 5.640625 -7.425781 5.703125 -7.34375 C 5.773438 -7.257812 5.8125 -7.175781 5.8125 -7.09375 C 5.8125 -6.988281 5.769531 -6.882812 5.6875 -6.78125 L 4.328125 -4.859375 L 2.921875 -7.46875 L 3.546875 -7.46875 L 3.546875 -7.65625 L 0.4375 -7.65625 L 0.4375 -7.46875 Z M 1.0625 -7.46875 "/></g></g></g><g fill="rgb(0%, 0%, 0%)" fill-opacity="1"><g transform="translate(16.336327, 14.507058)"><g><path d="M 5.4375 -7.46875 C 5.601562 -7.46875 5.742188 -7.421875 5.859375 -7.328125 C 5.984375 -7.234375 6.046875 -7.085938 6.046875 -6.890625 L 6.046875 -2.296875 C 6.046875 -1.941406 6 -1.632812 5.90625 -1.375 C 5.820312 -1.113281 5.703125 -0.894531 5.546875 -0.71875 C 5.390625 -0.550781 5.210938 -0.421875 5.015625 -0.328125 C 4.828125 -0.242188 4.625 -0.203125 4.40625 -0.203125 C 4.082031 -0.203125 3.816406 -0.242188 3.609375 -0.328125 C 3.398438 -0.410156 3.234375 -0.523438 3.109375 -0.671875 C 2.992188 -0.816406 2.910156 -0.992188 2.859375 -1.203125 C 2.816406 -1.410156 2.796875 -1.632812 2.796875 -1.875 L 2.796875 -7.46875 L 3.40625 -7.46875 L 3.40625 -7.65625 L 0.359375 -7.65625 L 0.359375 -7.46875 L 0.96875 -7.46875 L 0.96875 -2.25 C 0.96875 -1.851562 1.035156 -1.503906 1.171875 -1.203125 C 1.304688 -0.910156 1.492188 -0.660156 1.734375 -0.453125 C 1.984375 -0.253906 2.28125 -0.101562 2.625 0 C 2.96875 0.09375 3.347656 0.140625 3.765625 0.140625 C 4.578125 0.140625 5.191406 -0.0625 5.609375 -0.46875 C 6.035156 -0.875 6.25 -1.484375 6.25 -2.296875 L 6.25 -6.890625 C 6.25 -7.085938 6.3125 -7.234375 6.4375 -7.328125 C 6.570312 -7.421875 6.710938 -7.46875 6.859375 -7.46875 L 6.859375 -7.65625 L 5.4375 -7.65625 Z M 5.4375 -7.46875 "/></g></g></g><g fill="rgb(0%, 0%, 0%)" fill-opacity="1"><g transform="translate(6.579129, 24.178429)"><g><path d="M 3.546875 -7.71875 L 1.25 -0.765625 C 1.195312 -0.609375 1.097656 -0.472656 0.953125 -0.359375 C 0.816406 -0.242188 0.628906 -0.1875 0.390625 -0.1875 L 0.390625 0 L 2.09375 0 L 2.09375 -0.1875 C 1.957031 -0.1875 1.847656 -0.195312 1.765625 -0.21875 C 1.679688 -0.25 1.617188 -0.285156 1.578125 -0.328125 C 1.535156 -0.367188 1.503906 -0.410156 1.484375 -0.453125 C 1.472656 -0.503906 1.46875 -0.550781 1.46875 -0.59375 C 1.46875 -0.632812 1.46875 -0.671875 1.46875 -0.703125 C 1.46875 -0.742188 1.484375 -0.789062 1.515625 -0.84375 L 1.984375 -2.375 L 4.265625 -2.375 L 4.984375 -0.1875 L 4.375 -0.1875 L 4.375 0 L 7.4375 0 L 7.4375 -0.1875 L 6.8125 -0.1875 L 4.328125 -7.71875 Z M 3.125 -5.828125 L 4.203125 -2.546875 L 2.046875 -2.546875 Z M 3.125 -5.828125 "/></g></g></g><g fill="rgb(0%, 0%, 0%)" fill-opacity="1"><g transform="translate(16.520567, 24.178429)"><g><path d="M 5.234375 -7.46875 C 5.390625 -7.46875 5.53125 -7.421875 5.65625 -7.328125 C 5.78125 -7.234375 5.84375 -7.085938 5.84375 -6.890625 L 5.84375 -2.9375 L 2.578125 -7.65625 L 0.359375 -7.65625 L 0.359375 -7.375 L 1.078125 -6.5 L 1.078125 -0.765625 C 1.078125 -0.566406 1.015625 -0.421875 0.890625 -0.328125 C 0.765625 -0.234375 0.625 -0.1875 0.46875 -0.1875 L 0.46875 0 L 1.890625 0 L 1.890625 -0.1875 C 1.734375 -0.1875 1.585938 -0.234375 1.453125 -0.328125 C 1.328125 -0.421875 1.265625 -0.566406 1.265625 -0.765625 L 1.265625 -6.234375 L 5.65625 0.09375 L 6.03125 0.09375 L 6.03125 -6.90625 C 6.03125 -7.09375 6.09375 -7.234375 6.21875 -7.328125 C 6.351562 -7.421875 6.492188 -7.46875 6.640625 -7.46875 L 6.640625 -7.65625 L 5.234375 -7.65625 Z M 5.234375 -7.46875 "/></g></g></g></svg>