<svg xmlns="http://www.w3.org/2000/svg" width="135.75" viewBox="0 0 135.75 30.75" height="30.75" version="1.0"><defs><clipPath id="a"><path d="M 41 25 L 46 25 L 46 30.503906 L 41 30.503906 Z M 41 25"/></clipPath><clipPath id="b"><path d="M 49 25 L 54 25 L 54 30.503906 L 49 30.503906 Z M 49 25"/></clipPath><clipPath id="c"><path d="M 85 25 L 89 25 L 89 30.503906 L 85 30.503906 Z M 85 25"/></clipPath></defs><g><g><g><path d="M 19.222656 -5.554688 C 19.125 -5.652344 18.980469 -5.714844 18.839844 -5.714844 C 18.699219 -5.714844 18.578125 -5.652344 18.476562 -5.554688 C 15.085938 -2.121094 10.601562 -0.667969 7.046875 -1.859375 C 6.179688 -2.179688 5.351562 -2.625 4.605469 -3.191406 C 4.402344 -3.332031 4.28125 -3.554688 4.28125 -3.796875 C 4.28125 -4.039062 4.402344 -4.28125 4.605469 -4.421875 C 5.3125 -4.925781 5.753906 -5.230469 5.777344 -5.25 C 6.019531 -5.410156 6.078125 -5.734375 5.917969 -5.976562 C 5.753906 -6.21875 5.433594 -6.28125 5.191406 -6.117188 C 5.167969 -6.117188 4.441406 -5.632812 3.414062 -4.867188 C 3.109375 -4.644531 2.707031 -4.664062 2.445312 -4.90625 C 1.351562 -5.875 0.585938 -6.703125 0.566406 -6.722656 C 0.445312 -6.867188 0.242188 -6.925781 0.0625 -6.886719 C -0.140625 -6.84375 -0.28125 -6.703125 -0.34375 -6.523438 C -0.402344 -6.339844 -0.34375 -6.140625 -0.203125 -5.996094 C -0.140625 -5.9375 0.464844 -5.269531 1.394531 -4.441406 C 1.554688 -4.28125 1.636719 -4.078125 1.636719 -3.835938 C 1.617188 -3.613281 1.515625 -3.414062 1.351562 -3.269531 C 0.625 -2.6875 -0.121094 -2.058594 -0.828125 -1.394531 C -1.050781 -1.191406 -1.050781 -0.847656 -0.847656 -0.644531 C -0.667969 -0.425781 -0.324219 -0.402344 -0.101562 -0.605469 C 0.726562 -1.394531 1.59375 -2.121094 2.421875 -2.765625 C 2.6875 -2.988281 3.070312 -2.988281 3.332031 -2.785156 C 4.363281 -1.980469 5.492188 -1.3125 6.703125 -0.847656 C 7.652344 -0.546875 8.644531 -0.382812 9.632812 -0.382812 C 12.902344 -0.382812 16.417969 -1.957031 19.222656 -4.804688 C 19.425781 -5.007812 19.425781 -5.351562 19.222656 -5.554688 Z M 19.222656 -5.554688" transform="translate(24.24 17.292)"/></g></g></g><g><g><g><path d="M 17.507812 -5.675781 C 17.40625 -5.777344 17.265625 -5.816406 17.125 -5.816406 C 16.984375 -5.816406 16.863281 -5.753906 16.761719 -5.652344 C 14.941406 -3.734375 10.863281 -0.929688 7.875 -0.929688 L 7.835938 -0.929688 C 7.007812 -0.886719 6.21875 -1.210938 5.652344 -1.796875 C 4.925781 -2.585938 5.433594 -4.726562 5.675781 -5.410156 C 5.777344 -5.675781 5.652344 -5.957031 5.410156 -6.058594 C 5.191406 -6.179688 4.886719 -6.117188 4.746094 -5.898438 C 3.191406 -3.636719 0.96875 -1.433594 0.242188 -1.859375 C 0 -2.019531 0.363281 -3.574219 1.351562 -5.332031 C 1.472656 -5.574219 1.394531 -5.875 1.152344 -6.019531 C 0.910156 -6.160156 0.585938 -6.097656 0.445312 -5.855469 C -0.242188 -4.664062 -1.675781 -1.777344 -0.304688 -0.949219 C 0.789062 -0.304688 2.261719 -1.351562 3.492188 -2.625 C 3.613281 -2.765625 3.796875 -2.808594 3.957031 -2.746094 C 4.121094 -2.707031 4.242188 -2.566406 4.28125 -2.382812 C 4.339844 -1.898438 4.542969 -1.453125 4.867188 -1.070312 C 5.632812 -0.261719 6.703125 0.183594 7.816406 0.140625 L 7.875 0.140625 C 11.207031 0.140625 15.527344 -2.808594 17.527344 -4.90625 C 17.628906 -5.027344 17.667969 -5.148438 17.667969 -5.289062 C 17.667969 -5.433594 17.609375 -5.574219 17.507812 -5.675781 Z M 17.507812 -5.675781" transform="translate(42.636 17.292)"/></g></g></g><g><g><g><path d="M 16.882812 -4.886719 C 16.679688 -5.109375 16.335938 -5.128906 16.113281 -4.925781 C 16.054688 -4.867188 10.054688 0.523438 6.339844 -1.917969 C 4.867188 -2.886719 4.503906 -5.230469 4.503906 -5.25 C 4.484375 -5.492188 4.300781 -5.675781 4.058594 -5.714844 C 3.835938 -5.734375 3.59375 -5.613281 3.492188 -5.410156 C 2.542969 -3.3125 0.867188 -0.644531 0.402344 -0.949219 C 0.363281 -0.949219 0.28125 -1.03125 0.222656 -1.171875 C -0.0195312 -1.835938 0.0625 -2.566406 0.402344 -3.191406 C 1.171875 -4.765625 2.585938 -5.898438 4.28125 -6.320312 C 4.460938 -6.359375 4.605469 -6.503906 4.664062 -6.683594 C 4.726562 -6.867188 4.664062 -7.066406 4.542969 -7.210938 C 4.402344 -7.332031 4.21875 -7.390625 4.039062 -7.351562 C 2.019531 -6.867188 0.34375 -5.492188 -0.566406 -3.636719 C -1.050781 -2.726562 -1.109375 -1.636719 -0.726562 -0.6875 C -0.546875 -0.222656 -0.101562 0.101562 0.402344 0.101562 L 0.425781 0.101562 C 1.414062 0.0820312 2.644531 -1.152344 3.492188 -2.484375 C 3.59375 -2.644531 3.777344 -2.726562 3.957031 -2.707031 C 4.140625 -2.707031 4.300781 -2.605469 4.382812 -2.445312 C 4.726562 -1.878906 5.191406 -1.394531 5.753906 -1.050781 C 10.15625 1.878906 16.558594 -3.898438 16.839844 -4.140625 C 16.941406 -4.242188 17.003906 -4.382812 17.003906 -4.503906 C 17.023438 -4.644531 16.960938 -4.785156 16.882812 -4.886719 Z M 16.882812 -4.886719" transform="translate(59.336 17.292)"/></g></g></g><g><g><g><path d="M 17.648438 -5.027344 C 17.527344 -5.109375 17.40625 -5.167969 17.265625 -5.167969 C 17.125 -5.148438 16.984375 -5.089844 16.902344 -4.988281 C 16.839844 -4.949219 12.398438 -0.203125 8.542969 -1.757812 C 7.714844 -2.199219 7.046875 -2.867188 6.582031 -3.695312 C 6.421875 -3.957031 6.21875 -4.21875 5.976562 -4.460938 C 5.714844 -4.785156 5.3125 -4.96875 4.886719 -4.988281 C 3.855469 -5.070312 2.605469 -4.382812 1.109375 -2.96875 C 1.070312 -2.929688 1.007812 -2.90625 0.949219 -2.949219 C 0.886719 -2.96875 0.847656 -3.050781 0.867188 -3.109375 L 1.3125 -5.089844 C 1.394531 -5.371094 1.210938 -5.675781 0.929688 -5.734375 C 0.644531 -5.796875 0.363281 -5.613281 0.28125 -5.332031 L -0.726562 -0.910156 C -0.789062 -0.667969 -0.667969 -0.425781 -0.445312 -0.324219 C -0.222656 -0.203125 0.0390625 -0.261719 0.203125 -0.445312 C 2.90625 -3.613281 4.28125 -3.917969 4.765625 -3.9375 C 5.25 -3.957031 5.554688 -3.332031 5.714844 -3.089844 C 6.28125 -2.101562 7.128906 -1.292969 8.136719 -0.789062 C 12.660156 1.050781 17.46875 -4.058594 17.667969 -4.28125 C 17.871094 -4.484375 17.851562 -4.828125 17.648438 -5.027344 Z M 17.648438 -5.027344" transform="translate(75.651 17.292)"/></g></g></g><g><g><g><path d="M 2 -8.5 C 3.515625 -9.371094 3.796875 -10.398438 3.835938 -10.925781 C 3.898438 -11.550781 3.65625 -12.15625 3.171875 -12.558594 C 2.949219 -12.742188 2.605469 -12.683594 2.421875 -12.460938 C 2.242188 -12.238281 2.28125 -11.894531 2.523438 -11.710938 C 2.726562 -11.550781 2.828125 -11.269531 2.785156 -11.003906 C 2.765625 -10.683594 2.566406 -10.035156 1.472656 -9.410156 C 1.253906 -9.308594 1.152344 -9.046875 1.210938 -8.824219 C 1.273438 -8.601562 1.496094 -8.441406 1.738281 -8.441406 C 1.816406 -8.421875 1.917969 -8.460938 2 -8.5 Z M 2 -8.5" transform="translate(92.472 17.292)"/></g></g></g><g><g><g><path d="M 13.851562 -5.59375 C 13.75 -5.695312 13.628906 -5.734375 13.488281 -5.734375 C 13.347656 -5.734375 13.207031 -5.695312 13.105469 -5.59375 C 11.167969 -3.757812 8.785156 -2.464844 6.179688 -1.835938 C 6.078125 -1.796875 5.957031 -1.835938 5.898438 -1.917969 C 5.835938 -2.019531 5.816406 -2.121094 5.875 -2.222656 C 6.238281 -2.929688 6.160156 -3.777344 5.695312 -4.421875 C 5.410156 -4.804688 5.046875 -5.128906 4.625 -5.371094 C 4.058594 -5.753906 3.433594 -6.199219 3.414062 -6.664062 C 3.433594 -6.925781 3.535156 -7.167969 3.714844 -7.371094 L 4.804688 -8.402344 C 5.007812 -8.601562 5.027344 -8.925781 4.847656 -9.128906 C 4.664062 -9.351562 4.363281 -9.390625 4.121094 -9.207031 C 3.695312 -8.886719 3.292969 -8.523438 2.949219 -8.097656 L -0.160156 -5.191406 C -0.304688 -5.070312 -0.363281 -4.867188 -0.324219 -4.683594 C -0.28125 -4.484375 -0.140625 -4.339844 0.0390625 -4.28125 C 0.222656 -4.242188 0.425781 -4.28125 0.566406 -4.421875 L 2.101562 -5.855469 C 2.179688 -5.9375 2.28125 -5.957031 2.382812 -5.957031 C 2.484375 -5.9375 2.566406 -5.875 2.605469 -5.796875 C 2.988281 -5.269531 3.472656 -4.828125 4.019531 -4.503906 C 4.320312 -4.320312 4.582031 -4.121094 4.804688 -3.855469 C 5.007812 -3.636719 5.109375 -3.332031 5.046875 -3.027344 C 4.988281 -2.726562 4.804688 -2.464844 4.542969 -2.324219 C 3.25 -1.59375 1.617188 -1.9375 0.726562 -3.128906 C 0.585938 -3.351562 0.261719 -3.433594 0.0195312 -3.269531 C -0.222656 -3.128906 -0.304688 -2.828125 -0.160156 -2.566406 C 0.503906 -1.414062 1.695312 -0.667969 3.027344 -0.566406 C 3.371094 -0.503906 3.695312 -0.484375 4.039062 -0.484375 C 7.453125 -0.484375 11.652344 -2.625 13.851562 -4.847656 C 14.054688 -5.046875 14.054688 -5.390625 13.851562 -5.59375 Z M 13.851562 -5.59375" transform="translate(98.47 17.292)"/></g></g></g><g clip-path="url(#a)"><g><g><g><path d="M 1.058594 2.019531 L 3.511719 -3.554688 L 2.882812 -3.554688 L 1.867188 -1.171875 L 0.726562 -3.554688 L 0.0820312 -3.554688 L 1.566406 -0.582031 L 0.371094 2.019531 Z M 1.058594 2.019531" transform="translate(41.496 28.715)"/></g></g></g></g><g><g><g><path d="M 3.511719 -1.792969 C 3.511719 -1.4375 3.382812 -1.140625 3.132812 -0.886719 C 2.875 -0.628906 2.578125 -0.507812 2.222656 -0.507812 C 1.867188 -0.507812 1.558594 -0.628906 1.308594 -0.886719 C 1.050781 -1.140625 0.929688 -1.4375 0.929688 -1.792969 C 0.929688 -2.148438 1.050781 -2.445312 1.308594 -2.707031 C 1.558594 -2.957031 1.867188 -3.085938 2.222656 -3.085938 C 2.578125 -3.085938 2.875 -2.957031 3.132812 -2.707031 C 3.382812 -2.445312 3.511719 -2.148438 3.511719 -1.792969 Z M 4.078125 -1.792969 C 4.078125 -2.300781 3.894531 -2.738281 3.53125 -3.101562 C 3.167969 -3.464844 2.730469 -3.652344 2.222656 -3.652344 C 1.703125 -3.652344 1.269531 -3.464844 0.90625 -3.101562 C 0.542969 -2.738281 0.363281 -2.300781 0.363281 -1.792969 C 0.363281 -1.277344 0.542969 -0.839844 0.90625 -0.484375 C 1.269531 -0.121094 1.710938 0.0546875 2.222656 0.0546875 C 2.722656 0.0546875 3.167969 -0.121094 3.53125 -0.484375 C 3.894531 -0.839844 4.078125 -1.277344 4.078125 -1.792969 Z M 4.078125 -1.792969" transform="translate(44.928 28.715)"/></g></g></g><g clip-path="url(#b)"><g><g><g><path d="M 3.480469 -1.777344 C 3.480469 -1.429688 3.359375 -1.121094 3.117188 -0.871094 C 2.875 -0.613281 2.578125 -0.484375 2.230469 -0.484375 C 1.882812 -0.484375 1.582031 -0.613281 1.339844 -0.871094 C 1.097656 -1.121094 0.976562 -1.421875 0.976562 -1.777344 C 0.976562 -2.125 1.097656 -2.421875 1.339844 -2.679688 C 1.582031 -2.941406 1.882812 -3.070312 2.230469 -3.070312 C 2.578125 -3.070312 2.875 -2.941406 3.117188 -2.679688 C 3.359375 -2.421875 3.480469 -2.117188 3.480469 -1.777344 Z M 0.960938 0.484375 L 0.378906 0.484375 C 0.445312 0.863281 0.613281 1.195312 0.90625 1.476562 C 1.261719 1.839844 1.695312 2.019531 2.203125 2.019531 C 2.707031 2.019531 3.140625 1.839844 3.503906 1.476562 C 3.859375 1.121094 4.046875 0.6875 4.046875 0.175781 L 4.046875 -3.554688 L 3.480469 -3.554688 L 3.480469 -2.957031 C 3.449219 -2.988281 3.417969 -3.027344 3.382812 -3.070312 C 3.027344 -3.441406 2.617188 -3.632812 2.148438 -3.632812 C 1.648438 -3.632812 1.234375 -3.441406 0.898438 -3.070312 C 0.574219 -2.699219 0.410156 -2.269531 0.410156 -1.777344 C 0.410156 -1.277344 0.574219 -0.847656 0.898438 -0.484375 C 1.234375 -0.105469 1.648438 0.0820312 2.148438 0.0820312 C 2.632812 0.0820312 3.046875 -0.105469 3.382812 -0.484375 C 3.417969 -0.515625 3.449219 -0.558594 3.480469 -0.589844 L 3.480469 0.175781 C 3.480469 0.53125 3.351562 0.832031 3.101562 1.082031 C 2.851562 1.332031 2.550781 1.453125 2.203125 1.453125 C 1.847656 1.453125 1.550781 1.332031 1.300781 1.082031 C 1.121094 0.90625 1.007812 0.710938 0.960938 0.484375 Z M 0.960938 0.484375" transform="translate(49.37 28.715)"/></g></g></g></g><g><g><g><path d="M 3.433594 -1.777344 C 3.433594 -1.429688 3.3125 -1.121094 3.070312 -0.871094 C 2.828125 -0.613281 2.527344 -0.484375 2.179688 -0.484375 C 1.824219 -0.484375 1.527344 -0.613281 1.285156 -0.871094 C 1.042969 -1.121094 0.929688 -1.429688 0.929688 -1.777344 C 0.929688 -2.117188 1.042969 -2.421875 1.285156 -2.679688 C 1.527344 -2.941406 1.824219 -3.070312 2.179688 -3.070312 C 2.527344 -3.070312 2.828125 -2.941406 3.070312 -2.679688 C 3.3125 -2.421875 3.433594 -2.117188 3.433594 -1.777344 Z M 3.996094 0 L 3.996094 -3.554688 L 3.433594 -3.554688 L 3.433594 -2.941406 C 3.398438 -2.988281 3.359375 -3.027344 3.328125 -3.070312 C 2.988281 -3.441406 2.578125 -3.632812 2.09375 -3.632812 C 1.597656 -3.632812 1.1875 -3.441406 0.847656 -3.070312 C 0.523438 -2.699219 0.363281 -2.269531 0.363281 -1.777344 C 0.363281 -1.277344 0.523438 -0.847656 0.847656 -0.484375 C 1.1875 -0.105469 1.597656 0.0820312 2.09375 0.0820312 C 2.578125 0.0820312 2.988281 -0.105469 3.328125 -0.484375 C 3.359375 -0.515625 3.398438 -0.558594 3.433594 -0.605469 L 3.433594 0 Z M 3.996094 0" transform="translate(54.022 28.715)"/></g></g></g><g><g><g><path d="M 2.125 -2.785156 L 3.328125 -1.242188 C 3.246094 -1.164062 3.15625 -1.074219 3.0625 -0.984375 C 2.707031 -0.644531 2.375 -0.484375 2.082031 -0.484375 C 1.808594 -0.484375 1.566406 -0.589844 1.371094 -0.808594 C 1.179688 -1.019531 1.082031 -1.261719 1.082031 -1.535156 C 1.082031 -1.761719 1.210938 -2.003906 1.476562 -2.269531 C 1.597656 -2.390625 1.808594 -2.558594 2.125 -2.785156 Z M 2.074219 -3.683594 C 1.832031 -3.933594 1.71875 -4.167969 1.71875 -4.410156 C 1.71875 -4.644531 1.785156 -4.8125 1.921875 -4.925781 C 2.050781 -5.03125 2.203125 -5.082031 2.367188 -5.070312 C 2.527344 -5.0625 2.679688 -5.007812 2.820312 -4.894531 C 2.949219 -4.78125 3.019531 -4.621094 3.019531 -4.425781 C 3.019531 -4.222656 2.933594 -4.039062 2.761719 -3.867188 C 2.679688 -3.789062 2.601562 -3.722656 2.511719 -3.660156 C 2.421875 -3.59375 2.34375 -3.539062 2.261719 -3.480469 C 2.195312 -3.546875 2.140625 -3.617188 2.074219 -3.683594 Z M 4.804688 -2.140625 L 4.34375 -2.445312 L 4.039062 -2.058594 C 3.933594 -1.929688 3.828125 -1.800781 3.722656 -1.671875 L 2.59375 -3.117188 C 2.691406 -3.199219 2.800781 -3.277344 2.914062 -3.375 C 3.335938 -3.722656 3.546875 -4.078125 3.546875 -4.433594 C 3.546875 -4.765625 3.433594 -5.039062 3.207031 -5.257812 C 2.988281 -5.46875 2.714844 -5.574219 2.375 -5.574219 C 2.019531 -5.574219 1.726562 -5.460938 1.519531 -5.234375 C 1.300781 -5.007812 1.195312 -4.726562 1.195312 -4.386719 C 1.195312 -4.046875 1.390625 -3.652344 1.777344 -3.207031 C 1.617188 -3.085938 1.453125 -2.972656 1.308594 -2.859375 C 0.785156 -2.480469 0.523438 -2.019531 0.523438 -1.496094 C 0.523438 -1.035156 0.671875 -0.652344 0.976562 -0.347656 C 1.121094 -0.203125 1.292969 -0.0976562 1.484375 -0.015625 C 1.679688 0.0664062 1.90625 0.0976562 2.15625 0.0976562 C 2.414062 0.0976562 2.699219 0 3.027344 -0.210938 C 3.199219 -0.308594 3.410156 -0.492188 3.683594 -0.765625 L 4.28125 0.015625 L 5.023438 0 L 4.078125 -1.234375 C 4.484375 -1.71875 4.726562 -2.027344 4.804688 -2.140625 Z M 4.804688 -2.140625" transform="translate(60.806 28.715)"/></g></g></g><g><g><g><path d="M 1.171875 0 L 1.171875 -6.058594 L 0.605469 -6.058594 L 0.605469 0 Z M 1.171875 0" transform="translate(68.55 28.715)"/></g></g></g><g><g><g><path d="M 1.179688 -4.78125 C 1.105469 -4.847656 1.019531 -4.886719 0.921875 -4.886719 C 0.824219 -4.886719 0.734375 -4.847656 0.671875 -4.78125 C 0.597656 -4.707031 0.566406 -4.621094 0.566406 -4.523438 C 0.566406 -4.425781 0.597656 -4.335938 0.671875 -4.273438 C 0.734375 -4.199219 0.824219 -4.167969 0.921875 -4.167969 C 1.019531 -4.167969 1.105469 -4.199219 1.179688 -4.273438 C 1.242188 -4.335938 1.285156 -4.425781 1.285156 -4.523438 C 1.285156 -4.621094 1.242188 -4.707031 1.179688 -4.78125 Z M 1.210938 0 L 1.210938 -3.554688 L 0.644531 -3.554688 L 0.644531 0 Z M 1.210938 0" transform="translate(70.327 28.715)"/></g></g></g><g><g><g><path d="M 2.511719 -5.53125 L 2.511719 -6.058594 L 2.109375 -6.058594 C 1.703125 -6.058594 1.421875 -5.953125 1.25 -5.757812 C 1.082031 -5.566406 1 -5.28125 1 -4.925781 L 1 -3.554688 L 0.28125 -3.554688 L 0.28125 -3.027344 L 1 -3.027344 L 1 0 L 1.566406 0 L 1.566406 -3.027344 L 2.511719 -3.027344 L 2.511719 -3.554688 L 1.566406 -3.554688 L 1.566406 -5.089844 C 1.566406 -5.210938 1.589844 -5.316406 1.65625 -5.402344 C 1.710938 -5.484375 1.832031 -5.53125 2.027344 -5.53125 Z M 2.511719 -5.53125" transform="translate(72.177 28.715)"/></g></g></g><g><g><g><path d="M 4.078125 -1.859375 C 4.078125 -2.34375 3.886719 -2.761719 3.511719 -3.125 C 3.148438 -3.472656 2.714844 -3.652344 2.222656 -3.652344 C 1.703125 -3.652344 1.269531 -3.464844 0.90625 -3.101562 C 0.542969 -2.738281 0.363281 -2.300781 0.363281 -1.792969 C 0.363281 -1.277344 0.542969 -0.839844 0.90625 -0.484375 C 1.074219 -0.316406 1.269531 -0.1875 1.496094 -0.0898438 C 1.71875 0.0078125 1.988281 0.0546875 2.300781 0.0546875 C 2.617188 0.0546875 2.921875 -0.0390625 3.230469 -0.234375 C 3.539062 -0.429688 3.765625 -0.703125 3.917969 -1.042969 L 3.269531 -1.042969 C 3.140625 -0.871094 2.988281 -0.742188 2.800781 -0.644531 C 2.617188 -0.550781 2.421875 -0.507812 2.222656 -0.507812 C 1.914062 -0.507812 1.640625 -0.605469 1.398438 -0.808594 C 1.15625 -1 1 -1.25 0.953125 -1.558594 L 4.078125 -1.558594 Z M 3.480469 -2.042969 L 0.960938 -2.042969 C 0.992188 -2.1875 1.050781 -2.324219 1.128906 -2.457031 C 1.390625 -2.875 1.753906 -3.085938 2.222656 -3.085938 C 2.519531 -3.085938 2.785156 -2.988281 3.019531 -2.792969 C 3.261719 -2.59375 3.410156 -2.34375 3.480469 -2.042969 Z M 3.480469 -2.042969" transform="translate(74.93 28.715)"/></g></g></g><g><g><g><path d="M 1.113281 -0.5 C 0.976562 -0.597656 0.871094 -0.757812 0.816406 -0.992188 L 0.21875 -0.992188 C 0.339844 -0.257812 0.808594 0.105469 1.632812 0.105469 C 1.824219 0.105469 2.003906 0.0898438 2.171875 0.0390625 C 2.34375 -0.0078125 2.488281 -0.0742188 2.625 -0.160156 C 2.898438 -0.347656 3.035156 -0.628906 3.035156 -1.007812 C 3.035156 -1.398438 2.859375 -1.671875 2.488281 -1.847656 C 2.335938 -1.921875 2.164062 -1.980469 1.980469 -2.019531 C 1.800781 -2.058594 1.632812 -2.109375 1.476562 -2.15625 C 1.316406 -2.203125 1.1875 -2.269531 1.082031 -2.34375 C 0.976562 -2.414062 0.921875 -2.527344 0.921875 -2.691406 C 0.921875 -2.851562 0.984375 -2.972656 1.113281 -3.046875 C 1.242188 -3.125 1.398438 -3.167969 1.566406 -3.167969 C 1.746094 -3.167969 1.898438 -3.125 2.019531 -3.0625 C 2.140625 -2.996094 2.238281 -2.867188 2.292969 -2.671875 L 2.898438 -2.671875 C 2.828125 -3.027344 2.671875 -3.277344 2.445312 -3.417969 C 2.214844 -3.5625 1.929688 -3.632812 1.582031 -3.632812 C 1.242188 -3.632812 0.945312 -3.539062 0.695312 -3.359375 C 0.453125 -3.175781 0.324219 -2.90625 0.324219 -2.550781 C 0.324219 -2.382812 0.371094 -2.230469 0.460938 -2.101562 C 0.558594 -1.960938 0.695312 -1.859375 0.871094 -1.777344 C 1.035156 -1.703125 1.203125 -1.648438 1.382812 -1.597656 C 1.558594 -1.558594 1.726562 -1.511719 1.890625 -1.460938 C 2.253906 -1.339844 2.4375 -1.164062 2.4375 -0.9375 C 2.4375 -0.550781 2.179688 -0.363281 1.664062 -0.363281 C 1.445312 -0.363281 1.261719 -0.402344 1.113281 -0.5 Z M 1.113281 -0.5" transform="translate(79.332 28.715)"/></g></g></g><g><g><g><path d="M 0.160156 -3.027344 L 1.050781 -3.027344 L 1.050781 0 L 1.617188 0 L 1.617188 -3.027344 L 2.496094 -3.027344 L 2.496094 -3.554688 L 1.617188 -3.554688 L 1.617188 -4.933594 L 1.050781 -4.933594 L 1.050781 -3.554688 L 0.160156 -3.554688 Z M 0.160156 -3.027344" transform="translate(82.579 28.715)"/></g></g></g></svg>