<svg xmlns="http://www.w3.org/2000/svg" width="375" viewBox="0 0 375 375" height="375" version="1.0"><g><g><g><path d="M 38.078125 -11 C 37.878906 -11.199219 37.597656 -11.320312 37.316406 -11.320312 C 37.039062 -11.320312 36.796875 -11.199219 36.597656 -11 C 29.878906 -4.199219 21 -1.320312 13.960938 -3.679688 C 12.238281 -4.320312 10.597656 -5.199219 9.121094 -6.320312 C 8.71875 -6.597656 8.480469 -7.039062 8.480469 -7.519531 C 8.480469 -8 8.71875 -8.480469 9.121094 -8.757812 C 10.519531 -9.757812 11.398438 -10.359375 11.4375 -10.398438 C 11.917969 -10.71875 12.039062 -11.359375 11.71875 -11.839844 C 11.398438 -12.320312 10.757812 -12.4375 10.28125 -12.121094 C 10.238281 -12.121094 8.800781 -11.160156 6.757812 -9.640625 C 6.160156 -9.199219 5.359375 -9.238281 4.839844 -9.71875 C 2.679688 -11.640625 1.160156 -13.277344 1.121094 -13.320312 C 0.878906 -13.597656 0.480469 -13.71875 0.121094 -13.640625 C -0.28125 -13.558594 -0.558594 -13.277344 -0.679688 -12.917969 C -0.800781 -12.558594 -0.679688 -12.160156 -0.398438 -11.878906 C -0.28125 -11.757812 0.921875 -10.4375 2.761719 -8.800781 C 3.078125 -8.480469 3.238281 -8.078125 3.238281 -7.597656 C 3.199219 -7.160156 3 -6.757812 2.679688 -6.480469 C 1.238281 -5.320312 -0.238281 -4.078125 -1.640625 -2.761719 C -2.078125 -2.359375 -2.078125 -1.679688 -1.679688 -1.28125 C -1.320312 -0.839844 -0.640625 -0.800781 -0.199219 -1.199219 C 1.441406 -2.761719 3.160156 -4.199219 4.800781 -5.480469 C 5.320312 -5.917969 6.078125 -5.917969 6.597656 -5.519531 C 8.640625 -3.917969 10.878906 -2.601562 13.277344 -1.679688 C 15.160156 -1.078125 17.117188 -0.761719 19.078125 -0.761719 C 25.558594 -0.761719 32.519531 -3.878906 38.078125 -9.519531 C 38.476562 -9.917969 38.476562 -10.597656 38.078125 -11 Z M 38.078125 -11" transform="translate(101.073 205.371)"/></g></g></g><g><g><g><path d="M 34.679688 -11.238281 C 34.476562 -11.4375 34.199219 -11.519531 33.917969 -11.519531 C 33.636719 -11.519531 33.398438 -11.398438 33.199219 -11.199219 C 29.597656 -7.398438 21.519531 -1.839844 15.597656 -1.839844 L 15.519531 -1.839844 C 13.878906 -1.761719 12.320312 -2.398438 11.199219 -3.558594 C 9.757812 -5.121094 10.757812 -9.359375 11.238281 -10.71875 C 11.4375 -11.238281 11.199219 -11.800781 10.71875 -12 C 10.28125 -12.238281 9.679688 -12.121094 9.398438 -11.679688 C 6.320312 -7.199219 1.917969 -2.839844 0.480469 -3.679688 C 0 -4 0.71875 -7.078125 2.679688 -10.558594 C 2.917969 -11.039062 2.761719 -11.640625 2.28125 -11.917969 C 1.800781 -12.199219 1.160156 -12.078125 0.878906 -11.597656 C -0.480469 -9.238281 -3.320312 -3.519531 -0.601562 -1.878906 C 1.558594 -0.601562 4.480469 -2.679688 6.917969 -5.199219 C 7.160156 -5.480469 7.519531 -5.558594 7.839844 -5.441406 C 8.160156 -5.359375 8.398438 -5.078125 8.480469 -4.71875 C 8.597656 -3.757812 9 -2.878906 9.640625 -2.121094 C 11.160156 -0.519531 13.277344 0.359375 15.480469 0.28125 L 15.597656 0.28125 C 22.199219 0.28125 30.757812 -5.558594 34.71875 -9.71875 C 34.917969 -9.960938 34.996094 -10.199219 34.996094 -10.480469 C 34.996094 -10.757812 34.878906 -11.039062 34.679688 -11.238281 Z M 34.679688 -11.238281" transform="translate(137.51 205.371)"/></g></g></g><g><g><g><path d="M 33.4375 -9.679688 C 33.039062 -10.121094 32.359375 -10.160156 31.917969 -9.757812 C 31.796875 -9.640625 19.917969 1.039062 12.558594 -3.800781 C 9.640625 -5.71875 8.917969 -10.359375 8.917969 -10.398438 C 8.878906 -10.878906 8.519531 -11.238281 8.039062 -11.320312 C 7.597656 -11.359375 7.121094 -11.121094 6.917969 -10.71875 C 5.039062 -6.558594 1.71875 -1.28125 0.800781 -1.878906 C 0.71875 -1.878906 0.558594 -2.039062 0.441406 -2.320312 C -0.0390625 -3.640625 0.121094 -5.078125 0.800781 -6.320312 C 2.320312 -9.4375 5.121094 -11.679688 8.480469 -12.519531 C 8.839844 -12.597656 9.121094 -12.878906 9.238281 -13.238281 C 9.359375 -13.597656 9.238281 -14 9 -14.277344 C 8.71875 -14.519531 8.359375 -14.640625 8 -14.558594 C 4 -13.597656 0.679688 -10.878906 -1.121094 -7.199219 C -2.078125 -5.398438 -2.199219 -3.238281 -1.441406 -1.359375 C -1.078125 -0.441406 -0.199219 0.199219 0.800781 0.199219 L 0.839844 0.199219 C 2.800781 0.160156 5.238281 -2.28125 6.917969 -4.917969 C 7.121094 -5.238281 7.480469 -5.398438 7.839844 -5.359375 C 8.199219 -5.359375 8.519531 -5.160156 8.679688 -4.839844 C 9.359375 -3.71875 10.28125 -2.761719 11.398438 -2.078125 C 20.117188 3.71875 32.796875 -7.71875 33.359375 -8.199219 C 33.558594 -8.398438 33.679688 -8.679688 33.679688 -8.917969 C 33.71875 -9.199219 33.597656 -9.480469 33.4375 -9.679688 Z M 33.4375 -9.679688" transform="translate(170.586 205.371)"/></g></g></g><g><g><g><path d="M 34.957031 -9.960938 C 34.71875 -10.121094 34.476562 -10.238281 34.199219 -10.238281 C 33.917969 -10.199219 33.636719 -10.078125 33.476562 -9.878906 C 33.359375 -9.800781 24.558594 -0.398438 16.917969 -3.480469 C 15.277344 -4.359375 13.960938 -5.679688 13.039062 -7.320312 C 12.71875 -7.839844 12.320312 -8.359375 11.839844 -8.839844 C 11.320312 -9.480469 10.519531 -9.839844 9.679688 -9.878906 C 7.640625 -10.039062 5.160156 -8.679688 2.199219 -5.878906 C 2.121094 -5.800781 2 -5.757812 1.878906 -5.839844 C 1.761719 -5.878906 1.679688 -6.039062 1.71875 -6.160156 L 2.601562 -10.078125 C 2.761719 -10.640625 2.398438 -11.238281 1.839844 -11.359375 C 1.28125 -11.480469 0.71875 -11.121094 0.558594 -10.558594 L -1.441406 -1.800781 C -1.558594 -1.320312 -1.320312 -0.839844 -0.878906 -0.640625 C -0.441406 -0.398438 0.078125 -0.519531 0.398438 -0.878906 C 5.757812 -7.160156 8.480469 -7.757812 9.4375 -7.800781 C 10.398438 -7.839844 11 -6.597656 11.320312 -6.121094 C 12.4375 -4.160156 14.117188 -2.558594 16.117188 -1.558594 C 25.078125 2.078125 34.597656 -8.039062 34.996094 -8.480469 C 35.398438 -8.878906 35.359375 -9.558594 34.957031 -9.960938 Z M 34.957031 -9.960938" transform="translate(202.903 205.371)"/></g></g></g><g><g><g><path d="M 3.960938 -16.839844 C 6.960938 -18.558594 7.519531 -20.597656 7.597656 -21.636719 C 7.71875 -22.878906 7.238281 -24.078125 6.28125 -24.878906 C 5.839844 -25.238281 5.160156 -25.117188 4.800781 -24.679688 C 4.441406 -24.238281 4.519531 -23.558594 5 -23.199219 C 5.398438 -22.878906 5.601562 -22.320312 5.519531 -21.796875 C 5.480469 -21.160156 5.078125 -19.878906 2.917969 -18.640625 C 2.480469 -18.4375 2.28125 -17.917969 2.398438 -17.480469 C 2.519531 -17.039062 2.960938 -16.71875 3.441406 -16.71875 C 3.601562 -16.679688 3.800781 -16.757812 3.960938 -16.839844 Z M 3.960938 -16.839844" transform="translate(236.22 205.371)"/></g></g></g><g><g><g><path d="M 27.4375 -11.078125 C 27.238281 -11.277344 27 -11.359375 26.71875 -11.359375 C 26.4375 -11.359375 26.160156 -11.277344 25.957031 -11.078125 C 22.117188 -7.441406 17.398438 -4.878906 12.238281 -3.640625 C 12.039062 -3.558594 11.800781 -3.640625 11.679688 -3.800781 C 11.558594 -4 11.519531 -4.199219 11.640625 -4.398438 C 12.359375 -5.800781 12.199219 -7.480469 11.277344 -8.757812 C 10.71875 -9.519531 10 -10.160156 9.160156 -10.640625 C 8.039062 -11.398438 6.800781 -12.277344 6.757812 -13.199219 C 6.800781 -13.71875 7 -14.199219 7.359375 -14.597656 L 9.519531 -16.640625 C 9.917969 -17.039062 9.960938 -17.679688 9.597656 -18.078125 C 9.238281 -18.519531 8.640625 -18.597656 8.160156 -18.238281 C 7.320312 -17.597656 6.519531 -16.878906 5.839844 -16.039062 L -0.320312 -10.28125 C -0.601562 -10.039062 -0.71875 -9.640625 -0.640625 -9.28125 C -0.558594 -8.878906 -0.28125 -8.597656 0.078125 -8.480469 C 0.441406 -8.398438 0.839844 -8.480469 1.121094 -8.757812 L 4.160156 -11.597656 C 4.320312 -11.757812 4.519531 -11.800781 4.71875 -11.800781 C 4.917969 -11.757812 5.078125 -11.640625 5.160156 -11.480469 C 5.917969 -10.4375 6.878906 -9.558594 7.960938 -8.917969 C 8.558594 -8.558594 9.078125 -8.160156 9.519531 -7.640625 C 9.917969 -7.199219 10.121094 -6.597656 10 -6 C 9.878906 -5.398438 9.519531 -4.878906 9 -4.601562 C 6.441406 -3.160156 3.199219 -3.839844 1.441406 -6.199219 C 1.160156 -6.640625 0.519531 -6.800781 0.0390625 -6.480469 C -0.441406 -6.199219 -0.601562 -5.601562 -0.320312 -5.078125 C 1 -2.800781 3.359375 -1.320312 6 -1.121094 C 6.679688 -1 7.320312 -0.960938 8 -0.960938 C 14.757812 -0.960938 23.078125 -5.199219 27.4375 -9.597656 C 27.839844 -10 27.839844 -10.679688 27.4375 -11.078125 Z M 27.4375 -11.078125" transform="translate(248.098 205.371)"/></g></g></g><g><g><g><path d="M 2.09375 4 L 6.957031 -7.039062 L 5.710938 -7.039062 L 3.695312 -2.320312 L 1.441406 -7.039062 L 0.160156 -7.039062 L 3.101562 -1.152344 L 0.734375 4 Z M 2.09375 4" transform="translate(135.251 227.997)"/></g></g></g><g><g><g><path d="M 6.957031 -3.550781 C 6.957031 -2.847656 6.703125 -2.253906 6.207031 -1.757812 C 5.695312 -1.246094 5.101562 -1.007812 4.398438 -1.007812 C 3.695312 -1.007812 3.085938 -1.246094 2.589844 -1.757812 C 2.078125 -2.253906 1.839844 -2.847656 1.839844 -3.550781 C 1.839844 -4.253906 2.078125 -4.847656 2.589844 -5.359375 C 3.085938 -5.855469 3.695312 -6.109375 4.398438 -6.109375 C 5.101562 -6.109375 5.695312 -5.855469 6.207031 -5.359375 C 6.703125 -4.847656 6.957031 -4.253906 6.957031 -3.550781 Z M 8.078125 -3.550781 C 8.078125 -4.558594 7.710938 -5.421875 6.992188 -6.144531 C 6.269531 -6.863281 5.40625 -7.230469 4.398438 -7.230469 C 3.375 -7.230469 2.511719 -6.863281 1.792969 -6.144531 C 1.070312 -5.421875 0.71875 -4.558594 0.71875 -3.550781 C 0.71875 -2.527344 1.070312 -1.664062 1.792969 -0.960938 C 2.511719 -0.238281 3.390625 0.113281 4.398438 0.113281 C 5.390625 0.113281 6.269531 -0.238281 6.992188 -0.960938 C 7.710938 -1.664062 8.078125 -2.527344 8.078125 -3.550781 Z M 8.078125 -3.550781" transform="translate(142.05 227.997)"/></g></g></g><g><g><g><path d="M 6.894531 -3.519531 C 6.894531 -2.832031 6.65625 -2.222656 6.175781 -1.726562 C 5.695312 -1.214844 5.101562 -0.960938 4.414062 -0.960938 C 3.726562 -0.960938 3.136719 -1.214844 2.65625 -1.726562 C 2.175781 -2.222656 1.9375 -2.816406 1.9375 -3.519531 C 1.9375 -4.207031 2.175781 -4.800781 2.65625 -5.3125 C 3.136719 -5.824219 3.726562 -6.078125 4.414062 -6.078125 C 5.101562 -6.078125 5.695312 -5.824219 6.175781 -5.3125 C 6.65625 -4.800781 6.894531 -4.191406 6.894531 -3.519531 Z M 1.902344 0.960938 L 0.75 0.960938 C 0.878906 1.710938 1.214844 2.367188 1.792969 2.925781 C 2.496094 3.648438 3.359375 4 4.367188 4 C 5.359375 4 6.222656 3.648438 6.941406 2.925781 C 7.648438 2.222656 8.015625 1.359375 8.015625 0.351562 L 8.015625 -7.039062 L 6.894531 -7.039062 L 6.894531 -5.855469 C 6.832031 -5.917969 6.765625 -6 6.703125 -6.078125 C 6 -6.816406 5.183594 -7.199219 4.253906 -7.199219 C 3.261719 -7.199219 2.449219 -6.816406 1.777344 -6.078125 C 1.136719 -5.34375 0.816406 -4.496094 0.816406 -3.519531 C 0.816406 -2.527344 1.136719 -1.679688 1.777344 -0.960938 C 2.449219 -0.207031 3.261719 0.160156 4.253906 0.160156 C 5.214844 0.160156 6.03125 -0.207031 6.703125 -0.960938 C 6.765625 -1.023438 6.832031 -1.105469 6.894531 -1.167969 L 6.894531 0.351562 C 6.894531 1.054688 6.640625 1.648438 6.144531 2.144531 C 5.648438 2.640625 5.054688 2.878906 4.367188 2.878906 C 3.664062 2.878906 3.070312 2.640625 2.574219 2.144531 C 2.222656 1.792969 2 1.40625 1.902344 0.960938 Z M 1.902344 0.960938" transform="translate(150.847 227.997)"/></g></g></g><g><g><g><path d="M 6.800781 -3.519531 C 6.800781 -2.832031 6.558594 -2.222656 6.078125 -1.726562 C 5.597656 -1.214844 5.007812 -0.960938 4.320312 -0.960938 C 3.617188 -0.960938 3.023438 -1.214844 2.542969 -1.726562 C 2.0625 -2.222656 1.839844 -2.832031 1.839844 -3.519531 C 1.839844 -4.191406 2.0625 -4.800781 2.542969 -5.3125 C 3.023438 -5.824219 3.617188 -6.078125 4.320312 -6.078125 C 5.007812 -6.078125 5.597656 -5.824219 6.078125 -5.3125 C 6.558594 -4.800781 6.800781 -4.191406 6.800781 -3.519531 Z M 7.917969 0 L 7.917969 -7.039062 L 6.800781 -7.039062 L 6.800781 -5.824219 C 6.734375 -5.917969 6.65625 -6 6.589844 -6.078125 C 5.917969 -6.816406 5.101562 -7.199219 4.144531 -7.199219 C 3.167969 -7.199219 2.351562 -6.816406 1.679688 -6.078125 C 1.039062 -5.34375 0.71875 -4.496094 0.71875 -3.519531 C 0.71875 -2.527344 1.039062 -1.679688 1.679688 -0.960938 C 2.351562 -0.207031 3.167969 0.160156 4.144531 0.160156 C 5.101562 0.160156 5.917969 -0.207031 6.589844 -0.960938 C 6.65625 -1.023438 6.734375 -1.105469 6.800781 -1.199219 L 6.800781 0 Z M 7.917969 0" transform="translate(160.061 227.997)"/></g></g></g><g><g><g><path d="M 4.207031 -5.519531 L 6.589844 -2.464844 C 6.429688 -2.304688 6.253906 -2.128906 6.0625 -1.953125 C 5.359375 -1.28125 4.703125 -0.960938 4.128906 -0.960938 C 3.582031 -0.960938 3.101562 -1.167969 2.71875 -1.601562 C 2.335938 -2.015625 2.144531 -2.496094 2.144531 -3.039062 C 2.144531 -3.488281 2.398438 -3.96875 2.925781 -4.496094 C 3.167969 -4.734375 3.582031 -5.070312 4.207031 -5.519531 Z M 4.113281 -7.292969 C 3.632812 -7.789062 3.40625 -8.253906 3.40625 -8.734375 C 3.40625 -9.199219 3.535156 -9.535156 3.808594 -9.757812 C 4.0625 -9.964844 4.367188 -10.0625 4.6875 -10.046875 C 5.007812 -10.03125 5.3125 -9.917969 5.582031 -9.695312 C 5.839844 -9.46875 5.984375 -9.152344 5.984375 -8.765625 C 5.984375 -8.367188 5.808594 -8 5.472656 -7.664062 C 5.3125 -7.503906 5.152344 -7.375 4.976562 -7.246094 C 4.800781 -7.117188 4.640625 -7.007812 4.480469 -6.894531 C 4.351562 -7.023438 4.238281 -7.167969 4.113281 -7.292969 Z M 9.519531 -4.238281 L 8.605469 -4.847656 L 8 -4.078125 C 7.789062 -3.824219 7.582031 -3.566406 7.375 -3.3125 L 5.136719 -6.175781 C 5.328125 -6.335938 5.550781 -6.496094 5.773438 -6.6875 C 6.605469 -7.375 7.023438 -8.078125 7.023438 -8.78125 C 7.023438 -9.4375 6.800781 -9.984375 6.351562 -10.414062 C 5.917969 -10.832031 5.375 -11.039062 4.703125 -11.039062 C 4 -11.039062 3.421875 -10.8125 3.007812 -10.367188 C 2.574219 -9.917969 2.367188 -9.359375 2.367188 -8.6875 C 2.367188 -8.015625 2.75 -7.230469 3.519531 -6.351562 C 3.199219 -6.109375 2.878906 -5.886719 2.589844 -5.664062 C 1.550781 -4.910156 1.039062 -4 1.039062 -2.960938 C 1.039062 -2.046875 1.328125 -1.296875 1.9375 -0.6875 C 2.222656 -0.398438 2.558594 -0.191406 2.945312 -0.03125 C 3.328125 0.128906 3.777344 0.191406 4.269531 0.191406 C 4.785156 0.191406 5.34375 0 6 -0.414062 C 6.335938 -0.609375 6.75 -0.976562 7.292969 -1.519531 L 8.480469 0.03125 L 9.949219 0 L 8.078125 -2.449219 C 8.878906 -3.40625 9.359375 -4.015625 9.519531 -4.238281 Z M 9.519531 -4.238281" transform="translate(173.498 227.997)"/></g></g></g><g><g><g><path d="M 2.320312 0 L 2.320312 -12 L 1.199219 -12 L 1.199219 0 Z M 2.320312 0" transform="translate(188.838 227.997)"/></g></g></g><g><g><g><path d="M 2.335938 -9.46875 C 2.191406 -9.597656 2.015625 -9.679688 1.824219 -9.679688 C 1.632812 -9.679688 1.457031 -9.597656 1.328125 -9.46875 C 1.183594 -9.328125 1.121094 -9.152344 1.121094 -8.957031 C 1.121094 -8.765625 1.183594 -8.589844 1.328125 -8.460938 C 1.457031 -8.320312 1.632812 -8.253906 1.824219 -8.253906 C 2.015625 -8.253906 2.191406 -8.320312 2.335938 -8.460938 C 2.464844 -8.589844 2.542969 -8.765625 2.542969 -8.957031 C 2.542969 -9.152344 2.464844 -9.328125 2.335938 -9.46875 Z M 2.398438 0 L 2.398438 -7.039062 L 1.28125 -7.039062 L 1.28125 0 Z M 2.398438 0" transform="translate(192.357 227.997)"/></g></g></g><g><g><g><path d="M 4.976562 -10.957031 L 4.976562 -12 L 4.175781 -12 C 3.375 -12 2.816406 -11.789062 2.480469 -11.40625 C 2.144531 -11.023438 1.984375 -10.460938 1.984375 -9.757812 L 1.984375 -7.039062 L 0.558594 -7.039062 L 0.558594 -6 L 1.984375 -6 L 1.984375 0 L 3.101562 0 L 3.101562 -6 L 4.976562 -6 L 4.976562 -7.039062 L 3.101562 -7.039062 L 3.101562 -10.078125 C 3.101562 -10.320312 3.152344 -10.527344 3.28125 -10.703125 C 3.390625 -10.863281 3.632812 -10.957031 4.015625 -10.957031 Z M 4.976562 -10.957031" transform="translate(196.02 227.997)"/></g></g></g><g><g><g><path d="M 8.078125 -3.679688 C 8.078125 -4.640625 7.695312 -5.472656 6.957031 -6.191406 C 6.238281 -6.878906 5.375 -7.230469 4.398438 -7.230469 C 3.375 -7.230469 2.511719 -6.863281 1.792969 -6.144531 C 1.070312 -5.421875 0.71875 -4.558594 0.71875 -3.550781 C 0.71875 -2.527344 1.070312 -1.664062 1.792969 -0.960938 C 2.128906 -0.625 2.511719 -0.367188 2.960938 -0.175781 C 3.40625 0.015625 3.933594 0.113281 4.558594 0.113281 C 5.183594 0.113281 5.792969 -0.078125 6.398438 -0.464844 C 7.007812 -0.847656 7.453125 -1.390625 7.757812 -2.0625 L 6.480469 -2.0625 C 6.222656 -1.726562 5.917969 -1.472656 5.550781 -1.28125 C 5.183594 -1.085938 4.800781 -1.007812 4.398438 -1.007812 C 3.792969 -1.007812 3.246094 -1.199219 2.765625 -1.601562 C 2.289062 -1.984375 1.984375 -2.480469 1.886719 -3.085938 L 8.078125 -3.085938 Z M 6.894531 -4.046875 L 1.902344 -4.046875 C 1.96875 -4.335938 2.078125 -4.605469 2.238281 -4.863281 C 2.75 -5.695312 3.472656 -6.109375 4.398438 -6.109375 C 4.992188 -6.109375 5.519531 -5.917969 5.984375 -5.535156 C 6.464844 -5.136719 6.75 -4.640625 6.894531 -4.046875 Z M 6.894531 -4.046875" transform="translate(201.475 227.997)"/></g></g></g><g><g><g><path d="M 2.207031 -0.992188 C 1.9375 -1.183594 1.726562 -1.503906 1.617188 -1.96875 L 0.433594 -1.96875 C 0.671875 -0.511719 1.601562 0.207031 3.230469 0.207031 C 3.617188 0.207031 3.96875 0.175781 4.304688 0.078125 C 4.640625 -0.015625 4.925781 -0.144531 5.199219 -0.320312 C 5.742188 -0.6875 6.015625 -1.246094 6.015625 -2 C 6.015625 -2.765625 5.664062 -3.3125 4.925781 -3.664062 C 4.625 -3.808594 4.289062 -3.917969 3.917969 -4 C 3.566406 -4.078125 3.230469 -4.175781 2.925781 -4.269531 C 2.609375 -4.367188 2.351562 -4.496094 2.144531 -4.640625 C 1.9375 -4.785156 1.824219 -5.007812 1.824219 -5.328125 C 1.824219 -5.648438 1.953125 -5.886719 2.207031 -6.03125 C 2.464844 -6.191406 2.765625 -6.269531 3.101562 -6.269531 C 3.457031 -6.269531 3.757812 -6.191406 4 -6.0625 C 4.238281 -5.933594 4.429688 -5.679688 4.542969 -5.296875 L 5.742188 -5.296875 C 5.597656 -6 5.296875 -6.496094 4.847656 -6.765625 C 4.382812 -7.054688 3.824219 -7.199219 3.136719 -7.199219 C 2.464844 -7.199219 1.871094 -7.007812 1.375 -6.65625 C 0.894531 -6.285156 0.640625 -5.757812 0.640625 -5.054688 C 0.640625 -4.71875 0.734375 -4.414062 0.910156 -4.160156 C 1.105469 -3.886719 1.375 -3.679688 1.726562 -3.519531 C 2.046875 -3.375 2.382812 -3.261719 2.734375 -3.167969 C 3.085938 -3.085938 3.421875 -2.992188 3.742188 -2.894531 C 4.464844 -2.65625 4.832031 -2.304688 4.832031 -1.855469 C 4.832031 -1.085938 4.320312 -0.71875 3.296875 -0.71875 C 2.863281 -0.71875 2.496094 -0.800781 2.207031 -0.992188 Z M 2.207031 -0.992188" transform="translate(210.193 227.997)"/></g></g></g><g><g><g><path d="M 0.320312 -6 L 2.078125 -6 L 2.078125 0 L 3.199219 0 L 3.199219 -6 L 4.941406 -6 L 4.941406 -7.039062 L 3.199219 -7.039062 L 3.199219 -9.773438 L 2.078125 -9.773438 L 2.078125 -7.039062 L 0.320312 -7.039062 Z M 0.320312 -6" transform="translate(216.624 227.997)"/></g></g></g></svg>