<svg xmlns="http://www.w3.org/2000/svg" viewBox="0 0 512 512"><defs><style>.cls-1{fill:#3a2230;}</style></defs><title>yoga</title><g id="圖層_1" data-name="圖層 1"><path class="cls-1" d="M252,126.93a42.58,42.58,0,0,0-13.73,4.65,36,36,0,0,0-5.66,4,28.42,28.42,0,0,0-9.74,17.35,42.67,42.67,0,0,0-.45,7.13c0,2.45.19,4.95.3,7.52a34.55,34.55,0,0,1-3-7.11,29.09,29.09,0,0,1-1.2-7.83,24.62,24.62,0,0,1,1.22-8.08,26.29,26.29,0,0,1,3.8-7.32c.43-.54.82-1.11,1.29-1.61s.92-1,1.39-1.52l1.52-1.38c.51-.46,1.07-.86,1.61-1.27a28.53,28.53,0,0,1,7.14-3.8,26.65,26.65,0,0,1,7.79-1.57A22.94,22.94,0,0,1,252,126.93Z"/><path class="cls-1" d="M265.61,126.85a17.64,17.64,0,0,1,3.25,0c.55.06,1.1.09,1.64.2l1.63.36c.54.12,1.05.35,1.59.52l.79.28c.26.1.51.23.77.35.51.24,1,.48,1.52.76s1,.58,1.45.9a14.87,14.87,0,0,1,1.38,1,12.58,12.58,0,0,1,1.3,1.12c.41.4.84.79,1.23,1.22l1.11,1.33a22.55,22.55,0,0,1,3.37,6.07,23.35,23.35,0,0,1,.71,13.54,31.28,31.28,0,0,1-5.54,11.68c.43-4.29,1.12-8.35,1.22-12.27,0-1,0-2,0-2.91,0-.48-.09-.94-.11-1.4l-.05-.7c0-.23-.07-.46-.11-.69-.08-.45-.13-.91-.2-1.37l-.32-1.34a10.07,10.07,0,0,0-.37-1.33,12.36,12.36,0,0,0-.43-1.3l-.49-1.28c-.19-.42-.41-.83-.6-1.24a9.45,9.45,0,0,0-.64-1.22c-.24-.39-.44-.82-.71-1.19a27.32,27.32,0,0,0-3.49-4.37c-.35-.32-.68-.66-1-1s-.73-.61-1.1-.93a6.33,6.33,0,0,0-.56-.47l-.59-.43c-.4-.28-.78-.61-1.2-.87A46.32,46.32,0,0,0,265.61,126.85Z"/><path class="cls-1" d="M265.24,126.31a9.69,9.69,0,0,0,3.42-5.45,9,9,0,0,0,0-3.1,9.5,9.5,0,0,0-1-2.89,10.49,10.49,0,0,0-4.15-4.25,10.86,10.86,0,0,0-2.72-1.1,12.21,12.21,0,0,0-8.63.89,19.79,19.79,0,0,0-4.69,3.07A12,12,0,0,0,244.3,118a15.41,15.41,0,0,0-.93,6.35l-.52.2a10.68,10.68,0,0,1-2.41-7.26,12.75,12.75,0,0,1,3.05-7.62,14,14,0,0,1,6.83-4.43,19.35,19.35,0,0,1,8-.56,16.31,16.31,0,0,1,3.83,1,14.69,14.69,0,0,1,3.51,1.89,13.67,13.67,0,0,1,4.64,6.23,11.07,11.07,0,0,1,.06,7.57,10.1,10.1,0,0,1-1.94,3.18,11,11,0,0,1-2.82,2.24Z"/><path class="cls-1" d="M262.24,149.44a9.21,9.21,0,0,1-3.5,4.49,20.36,20.36,0,0,1-5.12,2.58,53.15,53.15,0,0,1-5.25,1.53c-.85.22-1.7.4-2.51.63-.4.11-.81.2-1.19.33l-.57.17-.62.2A79.69,79.69,0,0,0,234,162.9a20.44,20.44,0,0,0-4.2,2.52,10.46,10.46,0,0,0-3.17,4,8.2,8.2,0,0,1,1.3-5.57,16,16,0,0,1,4-4.27A33.49,33.49,0,0,1,242,154.62l.65-.2.72-.2c.48-.14.93-.24,1.4-.34.93-.19,1.83-.35,2.72-.48,1.79-.26,3.53-.45,5.22-.68a33.47,33.47,0,0,0,5-1A12.59,12.59,0,0,0,262.24,149.44Z"/><path class="cls-1" d="M263.82,150.85a16.69,16.69,0,0,1,3,1.06c.92.43,1.77.88,2.62,1.37a22.64,22.64,0,0,1,4.73,3.69,14.56,14.56,0,0,1,3.43,5.4,7.87,7.87,0,0,1-.35,6.48,21.45,21.45,0,0,0-3.11-4.62c-1.09-1.29-2.33-2.49-3.56-3.8a50.27,50.27,0,0,1-3.73-4.21,22.94,22.94,0,0,1-1.69-2.51A16.26,16.26,0,0,1,263.82,150.85Z"/><path class="cls-1" d="M228.75,171.72c.8,2.71,1.54,5.17,2.49,7.53a52,52,0,0,0,3.21,6.73,53.22,53.22,0,0,0,4.13,6.22c1.54,2,3.27,3.92,5.18,6a16.68,16.68,0,0,1-7.64-3.52,22.64,22.64,0,0,1-8.26-14.58A16.86,16.86,0,0,1,228.75,171.72Z"/><path class="cls-1" d="M280.62,166.63a16.21,16.21,0,0,1,.77,10.17,30,30,0,0,1-4,9.44c-.46.71-.92,1.42-1.41,2.1s-1,1.35-1.51,2A34.37,34.37,0,0,1,271,194.1a20.79,20.79,0,0,1-4.15,3.1,13,13,0,0,1-4.87,1.62,32.21,32.21,0,0,0,6.4-7c.9-1.28,1.77-2.58,2.63-3.92.43-.67.88-1.33,1.3-2s.85-1.33,1.27-2a63.94,63.94,0,0,0,4.45-8.14A31.39,31.39,0,0,0,280.62,166.63Z"/><path class="cls-1" d="M280.6,173.29a1.93,1.93,0,0,1,.8-1.32,3.2,3.2,0,0,1,1.59-.61,4,4,0,0,1,3.41,1.32,5.37,5.37,0,0,1,1.3,3.51,7.07,7.07,0,0,1-.82,3.33,8.09,8.09,0,0,1-4.85,4,6.22,6.22,0,0,1-5.68-.91,12.85,12.85,0,0,0,4.19-2.25,9.6,9.6,0,0,0,2.41-2.85,5.82,5.82,0,0,0,.55-1.5,3.22,3.22,0,0,0,.05-1.3,1.7,1.7,0,0,0-.84-1.16A2.1,2.1,0,0,0,280.6,173.29Z"/><path class="cls-1" d="M227.44,174.62c-.08-.29-.34-.26-.54-.24a1,1,0,0,0-.29.09l-.32.12a3.55,3.55,0,0,0-1,.73,4.6,4.6,0,0,0-1.06,2,4.05,4.05,0,0,0-.15,1,3.39,3.39,0,0,0,0,.46c0,.14,0,.28.07.46a7.06,7.06,0,0,0,.77,2,17.71,17.71,0,0,0,3.24,3.9,13.51,13.51,0,0,0,2.1,1.65,7.49,7.49,0,0,0,2.75,1.05,4.86,4.86,0,0,1-3.27,1.06,8.59,8.59,0,0,1-3.44-.8,12,12,0,0,1-2.92-1.88,10.45,10.45,0,0,1-2.32-2.8,8.12,8.12,0,0,1-1.09-3.77,9.93,9.93,0,0,1,0-1.07,5.24,5.24,0,0,1,.24-1,6.27,6.27,0,0,1,.37-1,8.25,8.25,0,0,1,.53-.86,5.65,5.65,0,0,1,3.18-2.27,4.15,4.15,0,0,1,1.92,0l.43.16.23.09a1.18,1.18,0,0,1,.22.14,1.29,1.29,0,0,1,.33.4A.44.44,0,0,1,227.44,174.62Z"/><path class="cls-1" d="M254,169.73a6.08,6.08,0,0,1,1.63,3.53,8.23,8.23,0,0,1-.46,3.9c-.45,1.19-.95,2-1.18,2.74a2.73,2.73,0,0,0-.14,1.21,1.85,1.85,0,0,0,.73,1.37,2,2,0,0,1-2.09-.47,3.52,3.52,0,0,1-1.12-2.09,5.71,5.71,0,0,1,.13-2.21,17.4,17.4,0,0,1,.55-1.71c.36-.94.67-1.87,1-2.89Z"/><path class="cls-1" d="M255.13,187.06a1.84,1.84,0,0,0-.57-.05,5.45,5.45,0,0,0-.8.18c-.36.08-.58.56-.7.86a2.59,2.59,0,0,0,0,1.65c.25.8,1,1.47,1.75.84a4.06,4.06,0,0,0,.51-.42,8.87,8.87,0,0,0,.54-.71,1.85,1.85,0,0,0,.15-1.52,1,1,0,0,0-.85-.83Z"/><path class="cls-1" d="M245.84,174.87a3.32,3.32,0,0,1-1.45,2.41,4.95,4.95,0,0,1-5.47.13,3.33,3.33,0,0,1-1.56-2.34,15.07,15.07,0,0,0,2.35.3c.67,0,1.28,0,1.9,0s1.24,0,1.9-.11A15.53,15.53,0,0,0,245.84,174.87Z"/><path class="cls-1" d="M268.7,174.87a3.38,3.38,0,0,1-1.45,2.41,4.95,4.95,0,0,1-5.47.13,3.33,3.33,0,0,1-1.56-2.34,15.07,15.07,0,0,0,2.35.3c.66,0,1.28,0,1.9,0s1.23,0,1.9-.11A15.76,15.76,0,0,0,268.7,174.87Z"/><path class="cls-1" d="M243.22,202.81a8,8,0,0,1-.1,4.91,12.27,12.27,0,0,1-2.57,4.41,20.4,20.4,0,0,1-8.3,5.23,45.64,45.64,0,0,1-4.37,1.35c-1.47.38-2.95.7-4.46.94a33.62,33.62,0,0,1-9.26.3,50.24,50.24,0,0,1,8-4.48c1.35-.63,2.71-1.2,4.08-1.76s2.76-1.06,4.1-1.55a38.84,38.84,0,0,0,7.34-3.29,15.26,15.26,0,0,0,3.07-2.48A13.18,13.18,0,0,0,243.22,202.81Z"/><path class="cls-1" d="M207,231.56a78.59,78.59,0,0,0-7.71,17.7c-.93,3.06-1.72,6.17-2.41,9.3s-1.28,6.29-1.83,9.47c-1.11,6.35-2,12.77-3.14,19.21-.55,3.22-1.18,6.44-1.86,9.66s-1.53,6.43-2.46,9.63A82.15,82.15,0,0,1,179.69,325a68.16,68.16,0,0,1-5.83,8.25,65.51,65.51,0,0,1-6.94,7.29,66.81,66.81,0,0,1-16.6,11l-1.13.52-1.15.47c-.76.32-1.53.64-2.29.93a41.42,41.42,0,0,0-4.4,1.84,10.47,10.47,0,0,0-3.62,2.84,7.54,7.54,0,0,0-1.18,2,6.4,6.4,0,0,0-.42,2.35,6.94,6.94,0,0,1,.9-4.84,11.89,11.89,0,0,1,3.51-3.69,37.11,37.11,0,0,1,4.33-2.49c.72-.36,1.41-.76,2.11-1.15l1-.58,1-.63a73.49,73.49,0,0,0,14.85-11.78,72.63,72.63,0,0,0,11.24-15,78.29,78.29,0,0,0,4-8.48,91.6,91.6,0,0,0,3.1-8.94c3.65-12.17,5.47-25,8.52-37.79.77-3.19,1.6-6.37,2.58-9.52s2.09-6.26,3.38-9.3A61.86,61.86,0,0,1,207,231.56Z"/><path class="cls-1" d="M213.7,266.68a76.9,76.9,0,0,1-1.12,19.45,98,98,0,0,1-14.41,36.16,76.24,76.24,0,0,1-12.56,14.89c3-5.77,6-11.35,8.78-17.05s5.32-11.42,7.65-17.25,4.42-11.76,6.32-17.78S211.92,272.94,213.7,266.68Z"/><path class="cls-1" d="M143.63,362.32a17.73,17.73,0,0,0-1.33,3.61,16.67,16.67,0,0,0-.35,1.82,10.64,10.64,0,0,0-.1,1.73,1.72,1.72,0,0,0,.13.59.66.66,0,0,0,.23.28,1.87,1.87,0,0,0,.77.27,4.61,4.61,0,0,0,1.28,0,14.23,14.23,0,0,0,1.49-.38,20.81,20.81,0,0,0,5.91-3.43c1-.74,2-1.53,2.94-2.34s2-1.6,3-2.41c4-3.22,7.88-6.48,11.83-9.75s7.89-6.61,12.15-9.79a69.55,69.55,0,0,1-9.1,12.91,93.3,93.3,0,0,1-11.38,10.93c-1,.82-2.06,1.64-3.11,2.43s-2.12,1.57-3.28,2.32a27,27,0,0,1-3.71,2.05,16.24,16.24,0,0,1-4.26,1.31,8.9,8.9,0,0,1-4.91-.4,6.15,6.15,0,0,1-1.26-.75,4,4,0,0,1-1-1.24,3.74,3.74,0,0,1-.45-1.52,4.47,4.47,0,0,1,.1-1.35,11.3,11.3,0,0,1,.72-2.06,14.72,14.72,0,0,1,1-1.83A12.2,12.2,0,0,1,143.63,362.32Z"/><path class="cls-1" d="M305,231.56a61.86,61.86,0,0,1,10.25,16.77c1.29,3,2.4,6.15,3.38,9.3s1.81,6.33,2.58,9.52c3,12.75,4.87,25.62,8.52,37.79a91.6,91.6,0,0,0,3.1,8.94,78.29,78.29,0,0,0,4,8.48,72.63,72.63,0,0,0,11.24,15A73.49,73.49,0,0,0,363,349.16l1,.63,1,.58c.7.39,1.39.79,2.11,1.15a37.11,37.11,0,0,1,4.33,2.49A11.89,11.89,0,0,1,375,357.7a6.94,6.94,0,0,1,.9,4.84,6.4,6.4,0,0,0-.42-2.35,7.54,7.54,0,0,0-1.18-2,10.47,10.47,0,0,0-3.62-2.84,41.42,41.42,0,0,0-4.4-1.84c-.76-.29-1.53-.61-2.29-.93l-1.15-.47-1.13-.52a66.81,66.81,0,0,1-16.6-11,65.51,65.51,0,0,1-6.94-7.29,68.16,68.16,0,0,1-5.83-8.25,82.15,82.15,0,0,1-7.89-18.46q-1.4-4.8-2.46-9.63c-.68-3.22-1.31-6.44-1.86-9.66-1.11-6.44-2-12.86-3.14-19.21-.55-3.18-1.14-6.34-1.83-9.47s-1.48-6.24-2.41-9.3A78.59,78.59,0,0,0,305,231.56Z"/><path class="cls-1" d="M298.3,266.68c1.78,6.26,3.42,12.39,5.34,18.42s4,11.95,6.32,17.78,4.88,11.57,7.65,17.25,5.78,11.28,8.78,17.05a76.24,76.24,0,0,1-12.56-14.89,98,98,0,0,1-14.41-36.16A76.9,76.9,0,0,1,298.3,266.68Z"/><path class="cls-1" d="M368.37,362.32a12.2,12.2,0,0,1,2.74,3,14.72,14.72,0,0,1,1,1.83,11.3,11.3,0,0,1,.72,2.06,4.47,4.47,0,0,1,.1,1.35,3.74,3.74,0,0,1-.45,1.52,4,4,0,0,1-1,1.24,6.15,6.15,0,0,1-1.26.75,8.9,8.9,0,0,1-4.91.4,16.24,16.24,0,0,1-4.26-1.31,27,27,0,0,1-3.71-2.05c-1.16-.75-2.22-1.55-3.28-2.32s-2.08-1.61-3.11-2.43a93.3,93.3,0,0,1-11.38-10.93,69.55,69.55,0,0,1-9.1-12.91c4.26,3.18,8.18,6.52,12.15,9.79s7.87,6.53,11.83,9.75c1,.81,2,1.61,3,2.41s2,1.6,2.94,2.34a20.81,20.81,0,0,0,5.91,3.43,14.23,14.23,0,0,0,1.49.38,4.61,4.61,0,0,0,1.28,0,1.87,1.87,0,0,0,.77-.27.66.66,0,0,0,.23-.28,1.72,1.72,0,0,0,.13-.59,10.64,10.64,0,0,0-.1-1.73,16.67,16.67,0,0,0-.35-1.82A17.73,17.73,0,0,0,368.37,362.32Z"/><path class="cls-1" d="M222.62,233a49.57,49.57,0,0,1,1.86,22.19c-.25,1.87-.57,3.67-.82,5.41a31.41,31.41,0,0,0-.39,5c0,3.12,1.11,6.28,2.26,9.79.28.88.56,1.78.82,2.7s.49,1.86.7,2.8a54.88,54.88,0,0,1,.91,5.65,64.72,64.72,0,0,1,.17,11.3A102.43,102.43,0,0,1,224,319.64c-.21-7.39.09-14.69-.25-21.83a91.48,91.48,0,0,0-1-10.55c-.12-.87-.31-1.72-.46-2.58s-.38-1.69-.57-2.54-.44-1.67-.66-2.5-.52-1.67-.8-2.53c-.54-1.73-1.14-3.52-1.58-5.45a23.56,23.56,0,0,1-.65-6.09,31.83,31.83,0,0,1,.84-5.85c.42-1.86.92-3.62,1.35-5.33A83.39,83.39,0,0,0,222.62,233Z"/><path class="cls-1" d="M287.84,233a83.83,83.83,0,0,0,2.41,21.38c.43,1.71.93,3.47,1.35,5.33a31,31,0,0,1,.84,5.85,23.56,23.56,0,0,1-.65,6.09c-.44,1.93-1,3.72-1.58,5.45-.28.86-.56,1.7-.8,2.53s-.46,1.66-.66,2.5-.41,1.69-.57,2.54-.34,1.71-.46,2.58a91.48,91.48,0,0,0-1,10.55c-.34,7.14,0,14.44-.25,21.83a103.06,103.06,0,0,1-4.11-21.78,64.72,64.72,0,0,1,.17-11.3c.2-1.89.53-3.77.91-5.65.21-.94.47-1.87.7-2.8s.54-1.82.82-2.7c1.15-3.51,2.22-6.67,2.26-9.79a32.57,32.57,0,0,0-.38-5c-.26-1.74-.58-3.54-.83-5.41A49.71,49.71,0,0,1,287.84,233Z"/><path class="cls-1" d="M230.77,224.63c1.1,2.54,2.06,5.1,3.3,7.36a14.71,14.71,0,0,0,4.6,5.44,12.46,12.46,0,0,0,3.05,1.46,25.7,25.7,0,0,0,3.53.9,28.05,28.05,0,0,0,3.64.45,26.3,26.3,0,0,0,3.66,0,28.85,28.85,0,0,0,13.84-4.55,34.6,34.6,0,0,0,10.73-11.22A24,24,0,0,1,269,239.13a26,26,0,0,1-7.49,4.65,28.59,28.59,0,0,1-4.24,1.34,31.1,31.1,0,0,1-4.4.64,28,28,0,0,1-8.83-.85,24.35,24.35,0,0,1-4.21-1.51,14.84,14.84,0,0,1-3.94-2.59,13.84,13.84,0,0,1-2.84-3.72,18.35,18.35,0,0,1-1.55-4.13A31.49,31.49,0,0,1,230.77,224.63Z"/><path class="cls-1" d="M280.48,321.58a31.67,31.67,0,0,1-11.82,9.49,37.35,37.35,0,0,1-30.29.82A31.49,31.49,0,0,1,226.06,323a73.35,73.35,0,0,0,13.65,4.69A53.59,53.59,0,0,0,267.1,327,73.25,73.25,0,0,0,280.48,321.58Z"/><path class="cls-1" d="M221.27,330.06a85,85,0,0,1-8.29,3.41c-2.72,1-5.39,1.93-8.07,2.85s-5.37,1.83-8.12,2.71a82.76,82.76,0,0,1-8.65,2.38,25.73,25.73,0,0,1,6.75-6.3,35.47,35.47,0,0,1,8.22-4,36.15,36.15,0,0,1,9-1.85A25.84,25.84,0,0,1,221.27,330.06Z"/><path class="cls-1" d="M141.81,383.86a15.82,15.82,0,0,0,.61,3.25c.13.53.34,1,.52,1.54a14.92,14.92,0,0,0,.68,1.46,19.42,19.42,0,0,0,3.81,5,23.46,23.46,0,0,0,10.82,5.77,49.46,49.46,0,0,0,12.58,1.29c1.07,0,2.16,0,3.24-.09s2.17-.05,3.25-.15l3.25-.22,3.24-.33a202.17,202.17,0,0,0,25.8-4.74c8.58-2.05,17.1-4.54,25.81-6.7a157,157,0,0,1-24.59,10.89,122.13,122.13,0,0,1-26.42,6.06l-3.4.31c-1.14.08-2.28.14-3.42.19s-2.28,0-3.42.07h-1.71l-1.72-.05a56,56,0,0,1-6.92-.66,37.65,37.65,0,0,1-6.86-1.72,27.58,27.58,0,0,1-6.39-3.22,22.19,22.19,0,0,1-5.17-4.92,19,19,0,0,1-3.21-6.25A14.61,14.61,0,0,1,141.81,383.86Z"/><path class="cls-1" d="M288.5,329.67a50.72,50.72,0,0,1,11.17.24,79.66,79.66,0,0,1,21.22,5.73c.85.37,1.68.75,2.52,1.16a23.77,23.77,0,0,1,2.55,1.4,11.69,11.69,0,0,1,2.32,1.9,6.5,6.5,0,0,1,1.49,2.55,11.37,11.37,0,0,0-4.86-1.94c-.85-.17-1.71-.3-2.6-.44s-1.8-.29-2.69-.45c-3.58-.67-7.1-1.48-10.59-2.43s-6.94-2-10.36-3.25A69.75,69.75,0,0,1,288.5,329.67Z"/><path class="cls-1" d="M319.47,377.59c-8.72,0-17.33-.06-25.9.25s-17.1.88-25.59,1.8c-2.13.22-4.29.48-6.51.66a55,55,0,0,1-6.81.12c-1.16-.06-2.32-.19-3.47-.36s-2.28-.4-3.38-.68c-2.21-.54-4.33-1.23-6.39-1.95a108.15,108.15,0,0,0-12.14-3.91,31.74,31.74,0,0,0-6.22-.82,21.48,21.48,0,0,0-6.33.79,17,17,0,0,1,3-1.45,22,22,0,0,1,3.23-.87,27.56,27.56,0,0,1,6.73-.35,44.47,44.47,0,0,1,6.63.94c2.17.45,4.29,1,6.37,1.49a51.36,51.36,0,0,0,12.17,1.91,56.14,56.14,0,0,0,6.16-.32c2.09-.2,4.22-.47,6.4-.71a157.54,157.54,0,0,1,26.24-.64A128.74,128.74,0,0,1,319.47,377.59Z"/><path class="cls-1" d="M205.54,375a6.88,6.88,0,0,0,2,3.07,11.32,11.32,0,0,0,2.95,1.86,24,24,0,0,0,3.37,1.17c1.17.32,2.32.56,3.59.83,4.95,1.07,9.86,2.12,14.79,3.14s9.86,2,14.83,3,10,1.94,15,3.26a56.62,56.62,0,0,1-7.75,1,77.9,77.9,0,0,1-7.79.09,92.26,92.26,0,0,1-15.45-1.89,93.36,93.36,0,0,1-14.93-4.41,34.41,34.41,0,0,1-3.68-1.62,20.3,20.3,0,0,1-3.48-2.26,10.83,10.83,0,0,1-2.72-3.22A6.31,6.31,0,0,1,205.54,375Z"/><path class="cls-1" d="M351,375a8.39,8.39,0,0,1,3.17,1.77,11,11,0,0,1,2.28,3,12,12,0,0,1,1.16,7.57,15.24,15.24,0,0,1-3.37,7,20.65,20.65,0,0,1-6,4.92,30.58,30.58,0,0,1-7.12,2.73,62.71,62.71,0,0,1-7.22,1.37,133.34,133.34,0,0,1-14.39,1.18c-1.2,0-2.41,0-3.61,0l-3.61-.05c-1.21,0-2.41-.13-3.61-.18s-2.4-.15-3.6-.27A114.37,114.37,0,0,1,290.77,402a108,108,0,0,1-13.84-3.89c-1.14-.38-2.25-.84-3.36-1.27l-1.67-.65-1.64-.73c-1.09-.5-2.19-.95-3.25-1.49s-2.13-1.07-3.18-1.64c2.33.54,4.61,1.17,6.92,1.67l1.72.4,1.73.37c1.15.23,2.29.52,3.45.71,4.6.94,9.22,1.64,13.85,2.22,2.31.31,4.63.51,6.94.75s4.63.37,7,.45l1.74.09c.58,0,1.16,0,1.74.05,1.16,0,2.32.08,3.48.08l3.48,0,3.48-.07c1.16,0,2.32-.08,3.48-.12s2.32-.1,3.48-.19,2.31-.13,3.47-.24l3.47-.31c4.62-.44,9.09-1.05,13-2.77a18.32,18.32,0,0,0,5.29-3.48,13.15,13.15,0,0,0,3.42-5.24,10.54,10.54,0,0,0,0-6.34,9.39,9.39,0,0,0-1.48-3A8.55,8.55,0,0,0,351,375Z"/><path class="cls-1" d="M263.59,201.42c.69.91,1.35,1.83,2,2.68a13.63,13.63,0,0,0,2.15,2.2,7.3,7.3,0,0,0,2.42,1.23,16.94,16.94,0,0,0,2.85.55c1,.14,2.14.23,3.29.44s2.27.41,3.39.65a45.53,45.53,0,0,1,6.62,2.12c.54.21,1.07.45,1.6.7l1.58.74c1,.58,2.06,1.09,3,1.74a34.4,34.4,0,0,1,5.55,4.29c.42.4.83.82,1.24,1.23l1.16,1.32c.38.44.74.91,1.08,1.38s.69.93,1,1.43l.89,1.5c.29.5.52,1,.77,1.56a19.8,19.8,0,0,1,1.17,3.23c-1.65-1.6-3.2-3.13-4.88-4.49-.4-.36-.84-.67-1.26-1s-.82-.67-1.27-1-.86-.62-1.28-.93-.9-.57-1.33-.86-.88-.57-1.33-.83-.88-.57-1.35-.81-.92-.5-1.37-.77-.93-.48-1.39-.72c-1.85-1-3.76-1.83-5.7-2.62-.49-.2-1-.41-1.46-.6l-1.48-.54c-1-.39-2-.7-3-1.05s-2-.65-3-.95-2.07-.6-3.2-1a15.89,15.89,0,0,1-3.44-1.51,10.28,10.28,0,0,1-1.6-1.2,9.36,9.36,0,0,1-1.27-1.5,11.41,11.41,0,0,1-1.51-3.31A19.79,19.79,0,0,1,263.59,201.42Z"/><path class="cls-1" d="M292.87,363a10.29,10.29,0,0,0-5-.1,19.86,19.86,0,0,0-4.48,1.63c-2.83,1.4-5.72,3.5-9.49,4.82a21.36,21.36,0,0,1-3,.75,22.12,22.12,0,0,1-3,.22c-1.91,0-3.65-.17-5.28-.27l-1.21-.05c-.39,0-.78,0-1.17,0a14,14,0,0,0-2.32.3,8,8,0,0,0-4.34,2.32,5.7,5.7,0,0,1,1-2.69,8.42,8.42,0,0,1,2.15-2.1,12,12,0,0,1,2.68-1.39,14.14,14.14,0,0,1,1.44-.45c.48-.12.95-.23,1.43-.31,1.88-.34,3.68-.44,5.29-.63a21.09,21.09,0,0,0,2.29-.37,14.61,14.61,0,0,0,2.14-.6c.74-.24,1.48-.54,2.24-.86s1.54-.66,2.36-1a31.86,31.86,0,0,1,5.29-1.83,14.82,14.82,0,0,1,5.9-.23A7.9,7.9,0,0,1,292.87,363Z"/></g></svg>