<svg xmlns="http://www.w3.org/2000/svg" viewBox="0 0 512 512"><defs><style>.cls-1{fill:#3a2230;}</style></defs><title>yoga</title><g id="圖層_1" data-name="圖層 1"><path class="cls-1" d="M250.54,80.87a57.61,57.61,0,0,0-18.63,6.32,49,49,0,0,0-7.68,5.36A38.26,38.26,0,0,0,218,99.28a37.46,37.46,0,0,0-7,16.81,58,58,0,0,0-.61,9.68c0,3.32.26,6.71.41,10.2a46.19,46.19,0,0,1-4.07-9.65,39.31,39.31,0,0,1-1.63-10.61,33.33,33.33,0,0,1,1.66-11,35.41,35.41,0,0,1,5.15-9.93c.58-.73,1.12-1.5,1.75-2.19s1.25-1.39,1.89-2.06l2.06-1.87c.7-.62,1.45-1.16,2.18-1.72a39.13,39.13,0,0,1,9.69-5.16,35.88,35.88,0,0,1,10.58-2.13A31.08,31.08,0,0,1,250.54,80.87Z"/><path class="cls-1" d="M269,80.77a22.4,22.4,0,0,1,4.41,0c.74.08,1.5.12,2.23.27s1.46.32,2.2.49,1.43.46,2.16.69l1.08.39c.35.14.69.32,1,.48.69.32,1.39.65,2.06,1s1.32.8,2,1.22,1.24.92,1.87,1.38a17.18,17.18,0,0,1,1.77,1.53c.55.55,1.14,1.07,1.67,1.65l1.5,1.81a30.75,30.75,0,0,1,4.58,8.23,31.78,31.78,0,0,1,1,18.38A42.83,42.83,0,0,1,291,134.12c.59-5.83,1.52-11.33,1.66-16.66,0-1.33.05-2.64,0-3.94,0-.65-.12-1.27-.15-1.9l-.06-1c0-.31-.1-.62-.15-.93-.11-.62-.18-1.25-.28-1.86l-.43-1.83a14.55,14.55,0,0,0-.49-1.8,15.19,15.19,0,0,0-.6-1.76l-.66-1.75c-.26-.56-.55-1.11-.81-1.68a14.41,14.41,0,0,0-.87-1.65c-.33-.53-.59-1.1-1-1.61a37,37,0,0,0-4.74-5.93c-.47-.43-.93-.9-1.39-1.36s-1-.82-1.49-1.26c-.26-.21-.5-.45-.76-.64L278,86c-.54-.38-1.06-.83-1.63-1.17A61,61,0,0,0,269,80.77Z"/><path class="cls-1" d="M268.54,80a13.08,13.08,0,0,0,4.63-7.39,12.1,12.1,0,0,0,.07-4.2,12.88,12.88,0,0,0-1.34-3.93,14.35,14.35,0,0,0-5.63-5.77,14.86,14.86,0,0,0-3.7-1.49,16.35,16.35,0,0,0-4-.55,16.64,16.64,0,0,0-7.7,1.75,27.52,27.52,0,0,0-6.37,4.18,16.46,16.46,0,0,0-4.38,6.14,20.79,20.79,0,0,0-1.25,8.62l-.71.27a14.44,14.44,0,0,1-3.27-9.85A17.37,17.37,0,0,1,239,57.46a19.13,19.13,0,0,1,9.27-6,26.2,26.2,0,0,1,10.8-.76,22.16,22.16,0,0,1,5.2,1.31,19.56,19.56,0,0,1,4.76,2.57A18.73,18.73,0,0,1,275.36,63a15.16,15.16,0,0,1,.08,10.27,13.91,13.91,0,0,1-2.64,4.32,15.23,15.23,0,0,1-3.83,3Z"/><path class="cls-1" d="M264.47,111.42a12.38,12.38,0,0,1-4.76,6.09,27.6,27.6,0,0,1-6.94,3.5,70.81,70.81,0,0,1-7.12,2.07c-1.16.3-2.31.55-3.41.86-.54.15-1.1.28-1.61.44l-.78.23-.84.28a107.66,107.66,0,0,0-12.93,4.78,28.76,28.76,0,0,0-5.7,3.43,14.31,14.31,0,0,0-4.3,5.4,11.12,11.12,0,0,1,1.76-7.56,21.66,21.66,0,0,1,5.44-5.8,45.25,45.25,0,0,1,13.67-6.7l.89-.27,1-.27c.66-.19,1.27-.33,1.91-.46,1.26-.25,2.48-.48,3.7-.65,2.42-.35,4.77-.61,7.08-.93a47.52,47.52,0,0,0,6.72-1.3A17.26,17.26,0,0,0,264.47,111.42Z"/><path class="cls-1" d="M266.61,113.33a22.08,22.08,0,0,1,4,1.44c1.25.58,2.4,1.19,3.56,1.86a30.18,30.18,0,0,1,6.42,5,19.66,19.66,0,0,1,4.65,7.32c1,2.84,1.09,6.22-.47,8.8a28.8,28.8,0,0,0-4.22-6.28c-1.49-1.75-3.16-3.38-4.84-5.15a70.46,70.46,0,0,1-5.06-5.72,28.79,28.79,0,0,1-2.28-3.4A21.51,21.51,0,0,1,266.61,113.33Z"/><path class="cls-1" d="M219,141.65c1.08,3.67,2.09,7,3.37,10.21a70.38,70.38,0,0,0,4.36,9.14,71.73,71.73,0,0,0,5.61,8.43c2.09,2.74,4.43,5.32,7,8.14A22.66,22.66,0,0,1,229,172.78a30,30,0,0,1-7.51-8.81,30.34,30.34,0,0,1-3.7-11A22.9,22.9,0,0,1,219,141.65Z"/><path class="cls-1" d="M289.4,134.74a21.94,21.94,0,0,1,1.05,13.81,40.92,40.92,0,0,1-5.44,12.8c-.62,1-1.26,1.92-1.91,2.85s-1.34,1.83-2.05,2.72a46.26,46.26,0,0,1-4.64,5.1,29,29,0,0,1-5.63,4.19,17.46,17.46,0,0,1-6.61,2.2,43.69,43.69,0,0,0,8.69-9.52c1.21-1.73,2.39-3.5,3.56-5.32.59-.91,1.19-1.8,1.76-2.71s1.16-1.8,1.72-2.71a86.1,86.1,0,0,0,6.05-11A42.28,42.28,0,0,0,289.4,134.74Z"/><path class="cls-1" d="M289.37,143.77a2.71,2.71,0,0,1,1.09-1.79,4.42,4.42,0,0,1,2.16-.82,5.43,5.43,0,0,1,4.63,1.79A7.24,7.24,0,0,1,299,147.7a9.58,9.58,0,0,1-1.11,4.53,10.92,10.92,0,0,1-6.58,5.37,8.43,8.43,0,0,1-7.7-1.23,17.4,17.4,0,0,0,5.67-3.05,12.92,12.92,0,0,0,3.27-3.87,8.31,8.31,0,0,0,.75-2,4.42,4.42,0,0,0,.07-1.76,2.33,2.33,0,0,0-1.14-1.57A2.85,2.85,0,0,0,289.37,143.77Z"/><path class="cls-1" d="M217.24,145.58c-.1-.39-.45-.36-.72-.33a1.43,1.43,0,0,0-.4.13l-.43.16a4.62,4.62,0,0,0-1.37,1,6.12,6.12,0,0,0-1.44,2.65,5.67,5.67,0,0,0-.2,1.37,4.33,4.33,0,0,0,0,.63,5.9,5.9,0,0,0,.1.61,9.56,9.56,0,0,0,1,2.67,24,24,0,0,0,4.39,5.3,18.76,18.76,0,0,0,2.85,2.22,10,10,0,0,0,3.73,1.43,6.62,6.62,0,0,1-4.44,1.45,11.85,11.85,0,0,1-4.67-1.1,16.5,16.5,0,0,1-4-2.54,14.3,14.3,0,0,1-3.14-3.8,11.06,11.06,0,0,1-1.48-5.12,10.35,10.35,0,0,1,.06-1.45,8.23,8.23,0,0,1,.31-1.41,9.37,9.37,0,0,1,.51-1.31,11.53,11.53,0,0,1,.71-1.18,7.66,7.66,0,0,1,4.32-3.07,5.45,5.45,0,0,1,2.6,0l.59.21.32.14a1.12,1.12,0,0,1,.29.19,1.69,1.69,0,0,1,.45.54A.57.57,0,0,1,217.24,145.58Z"/><path class="cls-1" d="M253.32,139a8.34,8.34,0,0,1,2.21,4.78,11.25,11.25,0,0,1-.62,5.3c-.62,1.62-1.3,2.74-1.61,3.72a3.69,3.69,0,0,0-.19,1.64,2.53,2.53,0,0,0,1,1.85,2.67,2.67,0,0,1-2.84-.63,4.81,4.81,0,0,1-1.52-2.83,7.79,7.79,0,0,1,.18-3,22.78,22.78,0,0,1,.75-2.32c.48-1.27.91-2.53,1.32-3.92Z"/><path class="cls-1" d="M254.82,162.45a3.42,3.42,0,0,0-.78-.06,9.91,9.91,0,0,0-1.08.24c-.48.12-.79.76-1,1.18a3.41,3.41,0,0,0,0,2.23c.32,1.08,1.29,2,2.36,1.15a6.42,6.42,0,0,0,.69-.58,8.86,8.86,0,0,0,.74-1,2.52,2.52,0,0,0,.21-2.06,1.43,1.43,0,0,0-1.16-1.13Z"/><path class="cls-1" d="M242.22,145.92a4.58,4.58,0,0,1-2,3.27,6.58,6.58,0,0,1-3.68,1.21,6.51,6.51,0,0,1-3.74-1,4.52,4.52,0,0,1-2.12-3.17,22.62,22.62,0,0,0,3.19.4c.9.06,1.74.06,2.58,0s1.67-.06,2.58-.15A21.46,21.46,0,0,0,242.22,145.92Z"/><path class="cls-1" d="M273.23,145.92a4.58,4.58,0,0,1-2,3.27,6.71,6.71,0,0,1-7.42.18,4.52,4.52,0,0,1-2.12-3.17,22.8,22.8,0,0,0,3.19.4c.91.06,1.74.06,2.58,0s1.67-.06,2.58-.15A21.23,21.23,0,0,0,273.23,145.92Z"/><path class="cls-1" d="M238.66,183.82a11,11,0,0,1-.13,6.67,16.54,16.54,0,0,1-3.49,6,27.75,27.75,0,0,1-11.26,7.1c-2,.73-3.94,1.31-5.94,1.83s-4,1-6.05,1.26a45.34,45.34,0,0,1-12.56.41A68.2,68.2,0,0,1,210.08,201c1.83-.86,3.69-1.63,5.54-2.39s3.75-1.44,5.56-2.11a52.21,52.21,0,0,0,10-4.45,21.7,21.7,0,0,0,4.17-3.37A17.61,17.61,0,0,0,238.66,183.82Z"/><path class="cls-1" d="M189.5,222.84a106.52,106.52,0,0,0-10.45,24c-1.27,4.16-2.34,8.38-3.28,12.62S174,268,173.28,272.32c-1.49,8.61-2.74,17.32-4.25,26.06q-1.12,6.56-2.53,13.12t-3.34,13.05a110.51,110.51,0,0,1-10.7,25.06,93.29,93.29,0,0,1-7.91,11.19,88.87,88.87,0,0,1-9.41,9.89,90.37,90.37,0,0,1-22.53,15l-1.53.71-1.56.64c-1,.43-2.07.87-3.12,1.25a59.32,59.32,0,0,0-6,2.5,14.42,14.42,0,0,0-4.9,3.86,10.18,10.18,0,0,0-1.61,2.74,8.54,8.54,0,0,0-.56,3.19A9.4,9.4,0,0,1,94.58,394a16,16,0,0,1,4.76-5,48.46,48.46,0,0,1,5.87-3.38c1-.5,1.92-1,2.87-1.56l1.42-.8,1.38-.85a99.22,99.22,0,0,0,20.15-16A98.4,98.4,0,0,0,146.28,346a102.58,102.58,0,0,0,5.45-11.51A119.84,119.84,0,0,0,156,322.4c4.94-16.5,7.42-34,11.55-51.27,1.05-4.33,2.18-8.65,3.5-12.92s2.84-8.49,4.59-12.62A84.31,84.31,0,0,1,189.5,222.84Z"/><path class="cls-1" d="M198.61,270.49a104.31,104.31,0,0,1-1.52,26.39,132.52,132.52,0,0,1-7.32,25.51A131,131,0,0,1,177.54,346a104.06,104.06,0,0,1-17,20.2c4.08-7.84,8.17-15.41,11.91-23.14s7.22-15.49,10.38-23.4,6-15.95,8.58-24.13S196.2,279,198.61,270.49Z"/><path class="cls-1" d="M103.53,400.25a25.18,25.18,0,0,0-1.81,4.91,21.26,21.26,0,0,0-.46,2.46,14,14,0,0,0-.14,2.35,2.52,2.52,0,0,0,.17.8.88.88,0,0,0,.32.38,2.32,2.32,0,0,0,1,.37,6.33,6.33,0,0,0,1.73,0,17.27,17.27,0,0,0,2-.52,28.36,28.36,0,0,0,8-4.64c1.3-1,2.65-2.08,4-3.19s2.7-2.16,4-3.26c5.37-4.37,10.69-8.79,16-13.24s10.71-9,16.48-13.27a93.84,93.84,0,0,1-12.34,17.51,127.28,127.28,0,0,1-15.44,14.83c-1.4,1.12-2.79,2.23-4.23,3.3s-2.87,2.13-4.45,3.14a35.69,35.69,0,0,1-5,2.8,22.83,22.83,0,0,1-5.78,1.77,12.13,12.13,0,0,1-6.66-.54,7.92,7.92,0,0,1-1.72-1,5.45,5.45,0,0,1-1.4-1.67,5.13,5.13,0,0,1-.61-2.07,6.22,6.22,0,0,1,.13-1.82,15.28,15.28,0,0,1,1-2.8,17,17,0,0,1,1.37-2.48A16.56,16.56,0,0,1,103.53,400.25Z"/><path class="cls-1" d="M322.5,222.84a84.31,84.31,0,0,1,13.91,22.75c1.75,4.13,3.26,8.35,4.59,12.62s2.45,8.59,3.5,12.92c4.13,17.3,6.61,34.77,11.55,51.27a119.84,119.84,0,0,0,4.22,12.13A102.58,102.58,0,0,0,365.72,346a99.48,99.48,0,0,0,35.4,36.36l1.38.85,1.42.8c.95.52,1.89,1.06,2.87,1.56a48.46,48.46,0,0,1,5.87,3.38,16,16,0,0,1,4.76,5,9.4,9.4,0,0,1,1.22,6.57,8.54,8.54,0,0,0-.56-3.19,10.18,10.18,0,0,0-1.61-2.74,14.42,14.42,0,0,0-4.9-3.86,59.32,59.32,0,0,0-6-2.5c-1.05-.38-2.08-.82-3.12-1.25l-1.56-.64-1.53-.71a90.37,90.37,0,0,1-22.53-15,88.87,88.87,0,0,1-9.41-9.89,93.29,93.29,0,0,1-7.91-11.19,110.51,110.51,0,0,1-10.7-25.06q-1.9-6.49-3.34-13.05T343,298.38c-1.51-8.74-2.76-17.45-4.25-26.06-.75-4.31-1.56-8.59-2.49-12.85s-2-8.46-3.28-12.62A106.52,106.52,0,0,0,322.5,222.84Z"/><path class="cls-1" d="M313.39,270.49c2.41,8.5,4.65,16.81,7.25,25s5.42,16.21,8.58,24.13,6.62,15.7,10.38,23.4,7.83,15.3,11.91,23.14A104.06,104.06,0,0,1,334.46,346a131,131,0,0,1-12.23-23.56,132.52,132.52,0,0,1-7.32-25.51A104.31,104.31,0,0,1,313.39,270.49Z"/><path class="cls-1" d="M408.47,400.25a16.56,16.56,0,0,1,3.71,4.06,17,17,0,0,1,1.37,2.48,15.28,15.28,0,0,1,1,2.8,6.22,6.22,0,0,1,.13,1.82,5.13,5.13,0,0,1-.61,2.07,5.45,5.45,0,0,1-1.4,1.67,7.92,7.92,0,0,1-1.72,1,12.13,12.13,0,0,1-6.66.54A22.83,22.83,0,0,1,398.5,415a35.69,35.69,0,0,1-5-2.8c-1.58-1-3-2.09-4.45-3.14s-2.83-2.18-4.23-3.3a127.28,127.28,0,0,1-15.44-14.83A93.84,93.84,0,0,1,357,373.37c5.77,4.3,11.09,8.84,16.48,13.27s10.68,8.87,16.05,13.24c1.33,1.1,2.68,2.19,4,3.26s2.69,2.18,4,3.19a28.36,28.36,0,0,0,8,4.64,17.27,17.27,0,0,0,2,.52,6.33,6.33,0,0,0,1.73,0,2.32,2.32,0,0,0,1.05-.37.88.88,0,0,0,.32-.38,2.52,2.52,0,0,0,.17-.8,14,14,0,0,0-.14-2.35,21.26,21.26,0,0,0-.46-2.46A25.18,25.18,0,0,0,408.47,400.25Z"/><path class="cls-1" d="M210.71,224.81a67.48,67.48,0,0,1,2.53,30.11c-.35,2.54-.78,5-1.13,7.33a45.27,45.27,0,0,0-.52,6.81c0,4.23,1.5,8.51,3.07,13.27.38,1.19.76,2.42,1.11,3.67s.67,2.52.95,3.79c.52,2.55,1,5.11,1.24,7.68a88.33,88.33,0,0,1,.23,15.33,140,140,0,0,1-5.58,29.55c-.29-10,.12-19.93-.34-29.62a127.4,127.4,0,0,0-1.39-14.32c-.17-1.17-.42-2.33-.63-3.49s-.52-2.3-.77-3.45-.6-2.26-.9-3.4-.7-2.26-1.08-3.43c-.73-2.34-1.55-4.77-2.15-7.39a31.75,31.75,0,0,1-.88-8.27,41.73,41.73,0,0,1,1.14-7.94c.56-2.51,1.25-4.9,1.83-7.23A113.33,113.33,0,0,0,210.71,224.81Z"/><path class="cls-1" d="M299.2,224.81a113.77,113.77,0,0,0,3.27,29c.58,2.33,1.27,4.72,1.83,7.23a41.73,41.73,0,0,1,1.14,7.94,31.74,31.74,0,0,1-.87,8.27c-.61,2.62-1.42,5.05-2.16,7.39-.37,1.17-.75,2.31-1.08,3.43s-.62,2.26-.9,3.4-.56,2.29-.77,3.45-.46,2.32-.63,3.49a127.4,127.4,0,0,0-1.39,14.32c-.46,9.69-.05,19.59-.34,29.62a140.6,140.6,0,0,1-5.58-29.55,88.34,88.34,0,0,1,.24-15.33,77.64,77.64,0,0,1,1.23-7.68c.28-1.27.63-2.52.95-3.79s.73-2.48,1.11-3.67c1.57-4.76,3-9,3.07-13.27a42.8,42.8,0,0,0-.52-6.81c-.35-2.35-.78-4.79-1.13-7.33A67.48,67.48,0,0,1,299.2,224.81Z"/><path class="cls-1" d="M221.77,213.44c1.49,3.44,2.79,6.91,4.48,10a19.83,19.83,0,0,0,6.23,7.37,17.31,17.31,0,0,0,4.15,2,36.9,36.9,0,0,0,4.79,1.22,35.49,35.49,0,0,0,4.93.6,34.21,34.21,0,0,0,5,0,39.16,39.16,0,0,0,18.78-6.17,47.08,47.08,0,0,0,14.57-15.22c-.92,7.49-5.05,14.66-11,19.91a35.37,35.37,0,0,1-10.16,6.31,38.74,38.74,0,0,1-5.75,1.81,40.28,40.28,0,0,1-6,.87,37.42,37.42,0,0,1-12-1.15,32.82,32.82,0,0,1-5.72-2,20.59,20.59,0,0,1-5.34-3.52,18.88,18.88,0,0,1-3.85-5,24.86,24.86,0,0,1-2.11-5.61A42.64,42.64,0,0,1,221.77,213.44Z"/><path class="cls-1" d="M289.21,345a42.7,42.7,0,0,1-16,12.87A50.55,50.55,0,0,1,232.08,359a42.63,42.63,0,0,1-16.71-12,99.74,99.74,0,0,0,18.53,6.37,72.71,72.71,0,0,0,37.16-1A98,98,0,0,0,289.21,345Z"/><path class="cls-1" d="M208.88,356.48a116.13,116.13,0,0,1-11.25,4.64c-3.69,1.34-7.31,2.62-10.95,3.86s-7.29,2.48-11,3.68a114.6,114.6,0,0,1-11.73,3.23,34.92,34.92,0,0,1,9.15-8.56,49.38,49.38,0,0,1,23.33-8A35,35,0,0,1,208.88,356.48Z"/><path class="cls-1" d="M101.07,429.48a21.56,21.56,0,0,0,.82,4.42,21.16,21.16,0,0,0,.7,2.08c.29.68.58,1.34.92,2a26.56,26.56,0,0,0,5.18,6.82,31.85,31.85,0,0,0,14.68,7.83,67,67,0,0,0,17.06,1.74c1.46,0,2.93-.05,4.41-.11s2.94-.08,4.4-.21l4.41-.31,4.4-.44a273.76,273.76,0,0,0,35-6.43c11.63-2.78,23.2-6.16,35-9.1a212,212,0,0,1-33.36,14.78,165.86,165.86,0,0,1-35.86,8.23l-4.61.42c-1.55.1-3.09.19-4.64.26s-3.09.06-4.64.09h-2.32c-.78,0-1.55,0-2.33-.06a77,77,0,0,1-9.4-.9,50.08,50.08,0,0,1-9.3-2.34,37.23,37.23,0,0,1-8.66-4.36,30.14,30.14,0,0,1-7-6.67,25.92,25.92,0,0,1-4.35-8.49A19.88,19.88,0,0,1,101.07,429.48Z"/><path class="cls-1" d="M300.1,356a68.32,68.32,0,0,1,15.15.32,106.88,106.88,0,0,1,14.67,2.89A104.3,104.3,0,0,1,344,364.06c1.15.5,2.28,1,3.43,1.57a30.93,30.93,0,0,1,3.45,1.9,15.25,15.25,0,0,1,3.15,2.59,8.82,8.82,0,0,1,2,3.44,15.53,15.53,0,0,0-6.6-2.62c-1.14-.23-2.31-.4-3.52-.59s-2.44-.4-3.65-.62c-4.86-.9-9.64-2-14.37-3.3s-9.41-2.73-14.06-4.41A93.72,93.72,0,0,1,300.1,356Z"/><path class="cls-1" d="M342.12,421c-11.84,0-23.51-.09-35.14.34s-23.2,1.19-34.72,2.44c-2.89.3-5.83.64-8.84.89a74.56,74.56,0,0,1-9.24.17c-1.57-.09-3.15-.26-4.71-.49s-3.08-.55-4.58-.92c-3-.73-5.87-1.67-8.67-2.64-5.61-2-10.93-4.09-16.47-5.32a42.8,42.8,0,0,0-8.44-1.1,29.14,29.14,0,0,0-8.6,1.06,23.84,23.84,0,0,1,4-2,28.41,28.41,0,0,1,4.39-1.18,36.67,36.67,0,0,1,9.12-.48,62.64,62.64,0,0,1,9,1.27c2.94.61,5.81,1.34,8.64,2,5.66,1.38,11.11,2.6,16.52,2.59a74.2,74.2,0,0,0,8.35-.44c2.84-.27,5.73-.63,8.68-1a211.8,211.8,0,0,1,35.61-.86A173.69,173.69,0,0,1,342.12,421Z"/><path class="cls-1" d="M187.53,417.48a9.4,9.4,0,0,0,2.69,4.16,15.16,15.16,0,0,0,4,2.52,32.07,32.07,0,0,0,4.57,1.6c1.58.43,3.15.76,4.86,1.11,6.72,1.46,13.39,2.89,20.08,4.26s13.38,2.72,20.11,4.07,13.53,2.64,20.42,4.42A76.74,76.74,0,0,1,253.74,441c-3.52.23-7.05.24-10.57.13A128.38,128.38,0,0,1,202,432.52a47.82,47.82,0,0,1-5-2.19,27.36,27.36,0,0,1-4.71-3.07,14.7,14.7,0,0,1-3.7-4.37A8.63,8.63,0,0,1,187.53,417.48Z"/><path class="cls-1" d="M384.88,417.48a11.19,11.19,0,0,1,4.3,2.4,14.62,14.62,0,0,1,3.09,4,16.18,16.18,0,0,1,1.59,10.27,20.87,20.87,0,0,1-4.58,9.56,28.2,28.2,0,0,1-8.19,6.67,41.41,41.41,0,0,1-9.66,3.71,84.86,84.86,0,0,1-9.81,1.85,179.2,179.2,0,0,1-19.51,1.6c-1.64,0-3.27.06-4.9.06l-4.9-.08c-1.64,0-3.27-.16-4.9-.24s-3.26-.19-4.88-.36a155.46,155.46,0,0,1-19.35-2.91,148.32,148.32,0,0,1-18.79-5.28c-1.54-.52-3-1.14-4.55-1.72l-2.26-.9-2.23-1c-1.47-.68-3-1.29-4.41-2s-2.89-1.45-4.32-2.22c3.16.74,6.25,1.58,9.39,2.27l2.33.55,2.35.49c1.57.31,3.11.71,4.68,1,6.24,1.27,12.52,2.22,18.79,3,3.14.42,6.29.69,9.42,1s6.29.51,9.44.62l2.36.12c.79,0,1.58.05,2.36.07,1.58,0,3.15.11,4.73.1l4.72,0,4.72-.1c1.58,0,3.15-.09,4.72-.16s3.15-.13,4.72-.25,3.15-.18,4.72-.32l4.71-.42c6.27-.61,12.33-1.43,17.68-3.77a24.82,24.82,0,0,0,7.19-4.72,17.77,17.77,0,0,0,4.63-7.11,14.32,14.32,0,0,0,.08-8.6,13.28,13.28,0,0,0-2-4.06A11.48,11.48,0,0,0,384.88,417.48Z"/><path class="cls-1" d="M266.29,182c.94,1.23,1.84,2.48,2.76,3.63a17.27,17.27,0,0,0,2.93,3,9.7,9.7,0,0,0,3.27,1.68,25.19,25.19,0,0,0,3.88.75c1.38.18,2.9.31,4.45.58s3.08.56,4.61.9a59.61,59.61,0,0,1,9,2.87c.74.28,1.46.6,2.17.94l2.14,1c1.39.78,2.8,1.48,4.13,2.36a46.5,46.5,0,0,1,7.52,5.82c.58.54,1.13,1.11,1.69,1.67s1.06,1.19,1.57,1.8a22.29,22.29,0,0,1,1.46,1.87c.45.65,1,1.26,1.35,1.94l1.21,2c.39.67.71,1.4,1,2.11a28,28,0,0,1,1.59,4.38c-2.25-2.16-4.35-4.24-6.62-6.08-.54-.49-1.15-.91-1.71-1.36s-1.12-.9-1.73-1.3-1.16-.84-1.74-1.26-1.21-.77-1.8-1.17-1.2-.77-1.81-1.13-1.19-.77-1.82-1.1-1.25-.68-1.86-1-1.26-.65-1.89-1c-2.51-1.31-5.1-2.49-7.74-3.55-.66-.27-1.31-.56-2-.81l-2-.75c-1.33-.51-2.7-.94-4.05-1.42s-2.74-.88-4.13-1.29-2.8-.8-4.34-1.3a21.58,21.58,0,0,1-4.67-2,13.45,13.45,0,0,1-2.16-1.63,12.24,12.24,0,0,1-1.73-2,15.72,15.72,0,0,1-2.05-4.49A28.09,28.09,0,0,1,266.29,182Z"/><path class="cls-1" d="M306,401.23a13.84,13.84,0,0,0-6.81-.14,25.75,25.75,0,0,0-6.06,2.21c-3.85,1.89-7.77,4.74-12.88,6.53a27.31,27.31,0,0,1-4,1,28.26,28.26,0,0,1-4,.3c-2.59,0-4.94-.23-7.16-.36l-1.64-.07c-.53,0-1.05,0-1.58,0a20,20,0,0,0-3.16.41,10.9,10.9,0,0,0-5.88,3.16,7.59,7.59,0,0,1,1.4-3.65,11.47,11.47,0,0,1,2.91-2.86,16.32,16.32,0,0,1,3.64-1.88,16.92,16.92,0,0,1,1.95-.61,19.82,19.82,0,0,1,1.94-.42c2.55-.47,5-.6,7.18-.86a29.57,29.57,0,0,0,3.1-.5,20.65,20.65,0,0,0,2.92-.82c1-.32,2-.72,3-1.16s2.1-.9,3.2-1.35a43.8,43.8,0,0,1,7.18-2.48,20.12,20.12,0,0,1,8-.31A10.74,10.74,0,0,1,306,401.23Z"/></g></svg>