<svg id="Layer_1" data-name="Layer 1" xmlns="http://www.w3.org/2000/svg" viewBox="0 0 449.03 381.06"><defs><style>.cls-1{fill:#3a2230;}</style></defs><title>yoga-08</title><g id="圖層_1" data-name="圖層 1"><path class="cls-1" d="M276.48,112.56a22.72,22.72,0,0,1-2.27,8.31c-1.21,2.63-2.61,5-3.88,7.48-2.63,4.84-5.11,9.71-7.54,14.61s-4.72,9.87-7,14.89-4.44,10.12-6.9,15.26a70.1,70.1,0,0,1,2.66-16.78,92.59,92.59,0,0,1,15-30.4C270,121.29,273.9,117.64,276.48,112.56Z" transform="translate(-31.47 -65.51)"/><path class="cls-1" d="M280.74,105.72a49.88,49.88,0,0,0,17.94,15.61c3.5,1.76,7.26,3.17,11.1,4.72a94.26,94.26,0,0,1,11.38,5.45A85.18,85.18,0,0,1,341,147.1a74.45,74.45,0,0,1,13.92,20.72,156.79,156.79,0,0,0-17-17.48,123.9,123.9,0,0,0-19.54-13.87c-.85-.52-1.74-1-2.61-1.45l-1.32-.72-1.33-.66c-1.77-.93-3.58-1.76-5.44-2.62a91.68,91.68,0,0,1-11.17-5.81A38.68,38.68,0,0,1,280.74,105.72Z" transform="translate(-31.47 -65.51)"/><path class="cls-1" d="M298.59,78.68c7.81,8.19,15.6,16.24,23.75,23.88q6.11,5.73,12.42,11.21c2.11,1.82,4.22,3.64,6.38,5.41l6.47,5.39c8.62,7.21,17.32,14.82,24.24,24.12a72.15,72.15,0,0,1,4.75,7.24,68.07,68.07,0,0,1,3.8,7.77,46.81,46.81,0,0,1,3.53,16.71c-2.56-11-8.41-20.64-15.6-28.9S352.55,136.17,343.94,129c-4.3-3.62-8.64-7.27-12.8-11.16s-8.17-7.9-12-12.1A181.93,181.93,0,0,1,298.59,78.68Z" transform="translate(-31.47 -65.51)"/><path class="cls-1" d="M373.91,183.82c-.26,6.58,1.45,12.57,3.21,18.72.89,3.08,1.8,6.21,2.52,9.46a41.48,41.48,0,0,1,.87,15.25c-.18,1.66-.44,3.27-.69,4.85a60,60,0,0,0-.95,9.17,19.69,19.69,0,0,0,1.94,8.5,14,14,0,0,0,2.58,3.66,10.63,10.63,0,0,0,4,2.49h-1.25a6.07,6.07,0,0,1-1.25-.22,7.57,7.57,0,0,1-1.22-.4,10.52,10.52,0,0,1-1.18-.55,13.58,13.58,0,0,1-4-3.39,19.74,19.74,0,0,1-4.07-9.72,44.26,44.26,0,0,1,0-10.16c.15-1.63.33-3.21.46-4.77s.24-3.07.23-4.56c0-6-1.4-12.15-2.38-18.61a57.86,57.86,0,0,1-.77-9.92A26.35,26.35,0,0,1,373.91,183.82Z" transform="translate(-31.47 -65.51)"/><path class="cls-1" d="M389.7,192.18a20.14,20.14,0,0,1,3.54,5.27,47.7,47.7,0,0,1,2.27,6c1.27,4,2.48,8.09,3.69,12.14,2.43,8.1,4.77,16.21,7.6,24.12a151.76,151.76,0,0,0,10,23l1.54,2.71c.51.9,1.08,1.77,1.62,2.65,1.06,1.78,2.24,3.49,3.43,5.2,2.4,3.4,5,6.72,7.54,10.08s5.16,6.77,7.57,10.35c1.22,1.78,2.31,3.65,3.42,5.5.57.93,1.05,1.89,1.58,2.83s1,1.89,1.51,2.86l1.44,2.89,1.35,2.93c.46,1,.88,2,1.3,2.94s.85,2,1.26,3c1.62,4,3.13,7.94,4.59,11.92,2.94,8,5.6,15.95,8.77,23.67.77,1.94,1.61,3.84,2.44,5.74.42.95.88,1.88,1.31,2.82s.88,1.88,1.35,2.8c1.86,3.72,3.89,7.44,5.78,11.33a67.2,67.2,0,0,1,4.68,12.35,37.84,37.84,0,0,1,1,13.57,40.74,40.74,0,0,1-11.61,24,38,38,0,0,1-11.11,7.76A44.32,44.32,0,0,1,444.62,436c-4.35.54-8.59.72-12.81.95s-8.46.4-12.69.58c-33.82,1.42-67.71,1.44-101.49-.28,33.82-.66,67.57-1.93,101.25-4.18q6.31-.44,12.63-.91c4.21-.32,8.42-.56,12.45-1.13a39.38,39.38,0,0,0,11.42-3.18,32.52,32.52,0,0,0,9.44-6.84,35.52,35.52,0,0,0,9.9-20.82l.14-1.45a14,14,0,0,0,0-1.45V395.8c0-.48-.09-1-.12-1.44a30.33,30.33,0,0,0-1-5.76,63.35,63.35,0,0,0-4.36-11.29c-1.78-3.73-3.78-7.44-5.68-11.29-.48-1-.94-1.94-1.39-2.92s-.92-2-1.34-2.93c-.85-2-1.71-3.94-2.49-5.94-3.19-8-5.9-16-8.67-23.94-1.39-4-2.82-7.91-4.34-11.8-.38-1-.79-1.93-1.18-2.89s-.79-1.93-1.21-2.88l-1.26-2.85-1.35-2.8c-.43-.94-.92-1.85-1.4-2.77s-.94-1.84-1.46-2.73c-1-1.78-2.06-3.58-3.17-5.32-2.22-3.49-4.66-6.89-7.14-10.3s-5-6.85-7.37-10.42c-1.18-1.79-2.36-3.59-3.41-5.47-.54-.94-1.1-1.86-1.6-2.81l-1.48-2.86a151,151,0,0,1-9.34-23.84q-1.85-6.11-3.41-12.27t-3-12.28q-1.47-6.17-3-12.31a46.72,46.72,0,0,0-1.85-6A19.17,19.17,0,0,0,389.7,192.18Z" transform="translate(-31.47 -65.51)"/><path class="cls-1" d="M398.47,274.37a47.4,47.4,0,0,1,4.54,5.75,66.51,66.51,0,0,1,3.7,6.38c1.08,2.22,2,4.49,2.94,6.78a72.8,72.8,0,0,1,2.35,7c2.78,9.44,4.29,19.06,6.18,28.39s4.14,18.49,8.28,26.86a65.18,65.18,0,0,0,3.4,6.1A54.83,54.83,0,0,0,434,367.3a44.68,44.68,0,0,0,10.67,9.41,35.53,35.53,0,0,1-6.69-3,43.94,43.94,0,0,1-6-4.42,53.94,53.94,0,0,1-5.15-5.43,56.88,56.88,0,0,1-4.31-6.14A65,65,0,0,1,419,351c-1-2.28-1.9-4.61-2.72-7s-1.46-4.74-2.1-7.12-1.13-4.78-1.63-7.17c-1.93-9.59-3-19.14-4.92-28.45S403.16,282.9,398.47,274.37Z" transform="translate(-31.47 -65.51)"/><path class="cls-1" d="M262.51,343.13a17.64,17.64,0,0,0,6.31,7.65,26.12,26.12,0,0,0,9,4,67.44,67.44,0,0,0,9.88,1.64c3.38.35,6.82.75,10.23,1.23a156.84,156.84,0,0,1,20.37,4.17c3.36.93,6.7,2.07,9.94,3.27s6.4,2.5,9.56,3.67c12.46,4.82,25.72,7.07,39.21,8s27.16.7,40.89.94a251.3,251.3,0,0,1-41.07,3.56A134.57,134.57,0,0,1,356,379.54c-.86-.12-1.72-.28-2.58-.46l-2.57-.52c-1.72-.35-3.41-.81-5.12-1.22s-3.36-1-5.05-1.5-3.32-1.13-4.94-1.74c-6.51-2.48-12.64-5.16-19-7.11a200.67,200.67,0,0,0-19.6-4.94c-3.32-.69-6.65-1.3-10-2A68.31,68.31,0,0,1,277,357.43a27.17,27.17,0,0,1-9.12-5.42A19.94,19.94,0,0,1,264.5,348,15.09,15.09,0,0,1,262.51,343.13Z" transform="translate(-31.47 -65.51)"/><path class="cls-1" d="M254.58,355.49a15.45,15.45,0,0,1-4.8,6.22,26.48,26.48,0,0,1-7,3.92c-5,1.89-10.07,2.62-14.72,3.67a62,62,0,0,0-13.38,4.7A85.21,85.21,0,0,0,202,381.53a33.62,33.62,0,0,1,10.4-11.46,40.14,40.14,0,0,1,14.44-6.35c5.12-1.14,10.06-1.46,14.7-2.39S250.68,358.87,254.58,355.49Z" transform="translate(-31.47 -65.51)"/><path class="cls-1" d="M193.44,420.21a18.1,18.1,0,0,0,6.18,1.52,25.37,25.37,0,0,0,6.21-.41,50.06,50.06,0,0,0,11.84-4.05,106.57,106.57,0,0,1,12.27-5.06,33.74,33.74,0,0,1,6.89-1.42,27.31,27.31,0,0,1,3.62-.1,32.61,32.61,0,0,1,3.55.37,58,58,0,0,1,6.63,1.56l6.25,1.84c4.15,1.25,8.3,2.54,12.42,3.9s8.23,2.78,12.32,4.28c2,.76,4.08,1.51,6.11,2.32.24.1.53.21.82.35a7.28,7.28,0,0,1,.78.46,7.38,7.38,0,0,1,1.31,1.19,3.69,3.69,0,0,1,.8,1.59,1.4,1.4,0,0,1-.12.9,1.28,1.28,0,0,1-.26.35l-.34.25a1.2,1.2,0,0,0,.29-1.37,3.1,3.1,0,0,0-1-1.1,5.94,5.94,0,0,0-1.3-.73,6.2,6.2,0,0,0-.69-.23c-.22-.05-.45-.08-.73-.13-2.16-.34-4.3-.74-6.44-1.14q-6.42-1.22-12.77-2.65c-4.24-.94-8.46-2-12.67-3l-6.29-1.62a59.09,59.09,0,0,0-6-1.36,23.56,23.56,0,0,0-2.91-.33,27.86,27.86,0,0,0-2.89,0,31.6,31.6,0,0,0-5.87,1c-3.95,1-7.94,2.61-12.11,4a43.25,43.25,0,0,1-13.21,2.66,22.7,22.7,0,0,1-6.76-.82,18.72,18.72,0,0,1-3.14-1.22,15.22,15.22,0,0,1-1.44-.86C194.35,420.87,193.87,420.54,193.44,420.21Z" transform="translate(-31.47 -65.51)"/><path class="cls-1" d="M283.71,438.77a90.92,90.92,0,0,1-22,3.87,208.66,208.66,0,0,1-22.37,0c-7.41-.34-14.78-.83-22.09-1a170.75,170.75,0,0,0-21.81.69c-3.64.33-7.28.74-10.95,1.18s-7.34.87-11,1.25c-7.41.75-14.84,1.31-22.28,1.57a293.08,293.08,0,0,1-44.53-1.6c14.83-.67,29.57-1.46,44.23-2.89q11-1,21.94-2.47l11-1.47c3.68-.47,7.39-.92,11.12-1.27s7.49-.6,11.27-.63c1.89,0,3.77-.05,5.65,0l2.82.06c.94,0,1.87.1,2.8.15,7.48.39,14.87,1.18,22.22,2C254.34,439.67,269,441,283.71,438.77Z" transform="translate(-31.47 -65.51)"/><path class="cls-1" d="M169.29,347.73c-9.12,10.82-18.88,21-28.95,31s-20.5,19.41-31.35,28.59a102,102,0,0,1-8.69,6.52A54.58,54.58,0,0,1,90.46,419a87.88,87.88,0,0,1-10.38,3.25c-3.46.88-6.87,1.67-10.31,2.48-6.86,1.62-13.75,3.13-20.64,4.63a42,42,0,0,0-9.85,3,14.92,14.92,0,0,0-4.17,2.87,9.46,9.46,0,0,0-2.57,4.44,9.59,9.59,0,0,1,1.91-5,16.29,16.29,0,0,1,4-3.68,40.91,40.91,0,0,1,9.91-4.35c6.73-2.13,13.46-4.26,20.22-6.27s13.61-3.77,19.78-6.4,11.61-6.6,16.94-11.05c10.68-9,21.35-18.26,32-27.48S158.49,356.86,169.29,347.73Z" transform="translate(-31.47 -65.51)"/><path class="cls-1" d="M175.87,372.4a222.76,222.76,0,0,1-24.71,24.15c-8.8,7.44-18,14.41-27.28,21.12-4.67,3.35-9.32,6.66-14.09,9.91a128.23,128.23,0,0,1-15,8.95,63.21,63.21,0,0,1-16.71,5.63,40.18,40.18,0,0,1-17.39-.55,47.94,47.94,0,0,0,16.74-2.18,70.47,70.47,0,0,0,15.23-6.87,164.72,164.72,0,0,0,14-9.42l6.91-5.07,7-5c9.29-6.69,18.61-13.29,27.84-20S166.73,379.42,175.87,372.4Z" transform="translate(-31.47 -65.51)"/><path class="cls-1" d="M261.75,224.4a20.56,20.56,0,0,0-8.19,1.92,26.57,26.57,0,0,0-6.85,4.58c-4.11,3.67-7.11,8.4-10,13.25l-17.37,29.63q-8.7,14.81-17.51,29.57c-5.91,9.82-11.78,19.68-18.06,29.36,4.14-10.77,9-21.22,14.12-31.52s10.68-20.4,16.52-30.31,12-19.63,18.53-29.16c3.31-4.76,7.1-9.51,12-13a26.9,26.9,0,0,1,8.06-3.87,20.91,20.91,0,0,1,4.37-.74A16.92,16.92,0,0,1,261.75,224.4Z" transform="translate(-31.47 -65.51)"/><path class="cls-1" d="M270.77,232.42a34.14,34.14,0,0,1,3.06,9.91,44.53,44.53,0,0,1,.25,10.51A55.46,55.46,0,0,1,272,263.2a65.43,65.43,0,0,1-3.91,9.82,124,124,0,0,1-11,17.77c-2,2.81-4.09,5.54-6.15,8.3s-4.2,5.44-6.34,8.13q-12.87,16.13-27.24,31a344.81,344.81,0,0,1-30.29,27.92c9-10.37,18.12-20.55,27-31s17.58-20.86,26.09-31.5c4.26-5.31,8.46-10.7,12.61-16.08a149.24,149.24,0,0,0,11.36-16.63,61.6,61.6,0,0,0,7.2-18.5,46,46,0,0,0,.95-10,40,40,0,0,0-.43-5A38.85,38.85,0,0,0,270.77,232.42Z" transform="translate(-31.47 -65.51)"/><path class="cls-1" d="M129.16,369.13c-11.19,1.81-22.45,3-33.64,4.07s-22.2,2.54-32.31,6.38a60.7,60.7,0,0,0-7.36,3.32,51.67,51.67,0,0,0-6.77,4.26,40.39,40.39,0,0,0-10.7,11.59,27.3,27.3,0,0,0-3,7.21,18.4,18.4,0,0,0-.32,7.71,16.74,16.74,0,0,0,3.16,7.2,14.13,14.13,0,0,0,6.55,4.82,12.64,12.64,0,0,1-4.12-1.22A15.64,15.64,0,0,1,37,421.94a18.29,18.29,0,0,1-4.71-7.58,21.44,21.44,0,0,1-.64-9.08,28.28,28.28,0,0,1,2.7-8.65,37.06,37.06,0,0,1,4.94-7.51,44.56,44.56,0,0,1,6.41-6.25,53.15,53.15,0,0,1,7.39-4.94,63.68,63.68,0,0,1,8-3.7,80.19,80.19,0,0,1,17-4.23,150.67,150.67,0,0,1,17.11-1.3C106.56,368.52,117.82,368.56,129.16,369.13Z" transform="translate(-31.47 -65.51)"/><path class="cls-1" d="M277.07,164.66a21.4,21.4,0,0,1-6.28,14.17,32.61,32.61,0,0,1-6.31,4.85c-2.2,1.33-4.4,2.5-6.66,3.64a92.46,92.46,0,0,1-14.06,5.58,65.62,65.62,0,0,1-14.89,2.83c4.4-2.6,8.83-4.79,13.23-7l13.18-6.52,6.56-3.24a44.93,44.93,0,0,0,6-3.5A31.44,31.44,0,0,0,277.07,164.66Z" transform="translate(-31.47 -65.51)"/><path class="cls-1" d="M205.19,203.58c-4.28,3.6-8.7,7-12.8,10.65A80.38,80.38,0,0,0,181.2,226a46.11,46.11,0,0,0-7.36,13.84,31.55,31.55,0,0,0-1.43,7.51,36,36,0,0,0,.28,7.69,56.52,56.52,0,0,0,1.69,7.72c.72,2.57,1.61,5.12,2.55,7.68s2,5.13,2.95,7.73,2,5.23,2.88,7.93A63.6,63.6,0,0,1,186,302.88a36.11,36.11,0,0,1-.76,8.55c-.17.7-.31,1.39-.54,2.07l-.33,1a6,6,0,0,1-.36,1c-.29.65-.54,1.31-.86,1.94s-.67,1.23-1,1.84a33.5,33.5,0,0,0,1.06-16.15,50.54,50.54,0,0,0-1.89-7.86c-.81-2.58-1.75-5.12-2.78-7.64-2.07-5-4.52-10-6.66-15.24-1.07-2.61-2-5.3-2.91-8a61,61,0,0,1-1.94-8.54,40.41,40.41,0,0,1-.23-8.93,36.07,36.07,0,0,1,1.91-8.77,46,46,0,0,1,9-15,69.45,69.45,0,0,1,13-11.13A145.3,145.3,0,0,1,205.19,203.58Z" transform="translate(-31.47 -65.51)"/><path class="cls-1" d="M256.79,297.71c.67,3.22,1,6.23,1.35,9.21l1,8.82,1,8.81c.29,3,.63,6,.67,9.29a25.83,25.83,0,0,1-5-8.19,36.2,36.2,0,0,1-2.07-18.85A25.93,25.93,0,0,1,256.79,297.71Z" transform="translate(-31.47 -65.51)"/><path class="cls-1" d="M310,151.47a7.24,7.24,0,0,1,3.4-.08,10.8,10.8,0,0,1,3.24,1.28,19.69,19.69,0,0,1,5.13,4.67c1.44,1.81,2.66,3.72,4,5.42a15.1,15.1,0,0,0,4.63,4.12c1.71.94,3.82,1.26,6.11,1.83a24.5,24.5,0,0,1,6.68,2.84,29.48,29.48,0,0,1,10,10.45,34,34,0,0,1,2.95,6.61,41.84,41.84,0,0,1,1.54,7,56.62,56.62,0,0,1-.06,14.13c-1.11,9.35-4.23,18-5.42,26.49a44.88,44.88,0,0,0-.48,6.34,34.38,34.38,0,0,0,.54,6.24,99.22,99.22,0,0,0,3.33,12.7A82.41,82.41,0,0,1,358.85,275a38.17,38.17,0,0,1,.2,7.25,36.93,36.93,0,0,1-1.35,7.07c-1.33,4.54-3.18,8.71-4.8,12.84a61.55,61.55,0,0,0-2.12,6.22,42,42,0,0,0-1.18,6.39,43.07,43.07,0,0,0,5.4,25.65,41.23,41.23,0,0,1-8.2-25.78,43.36,43.36,0,0,1,.79-7,65.22,65.22,0,0,1,1.79-6.72c1.38-4.37,3-8.53,4-12.72a32.13,32.13,0,0,0,.88-6.24,33.4,33.4,0,0,0-.41-6.24,84.6,84.6,0,0,0-3.45-12.61c-.71-2.14-1.42-4.3-2.07-6.53a62.11,62.11,0,0,1-1.66-6.85,39.63,39.63,0,0,1-.66-7.21,50,50,0,0,1,.51-7.13c1.37-9.36,4.52-17.84,5.72-26.41a52.07,52.07,0,0,0,.45-12.84,37.65,37.65,0,0,0-1.16-6.22,29.17,29.17,0,0,0-2.26-5.84,26.34,26.34,0,0,0-8-9.44,21.32,21.32,0,0,0-5.55-2.81c-2-.68-4.44-1.16-6.62-2.57a17.69,17.69,0,0,1-5-5.23c-1.28-1.94-2.36-3.93-3.52-5.8a18.51,18.51,0,0,0-4.33-4.88A8.47,8.47,0,0,0,310,151.47Z" transform="translate(-31.47 -65.51)"/><path class="cls-1" d="M279.75,221.77c1.48,5.24,2.7,10.52,3.94,15.79l1.74,7.93q.93,4,1.45,8.17a28.42,28.42,0,0,1-.25,8.78,33.9,33.9,0,0,1-3,8.22c-1.22,2.52-2.57,4.85-3.65,7.17a46.44,46.44,0,0,0-2.75,7.11,31.2,31.2,0,0,0-1.32,7.29,26.26,26.26,0,0,0,.61,7.29c.53,2.47,1.34,5,2.09,7.62.38,1.32.75,2.66,1.07,4a41.2,41.2,0,0,1,.73,4.26c.63,6-1,11.26-.6,16.3a12.78,12.78,0,0,0,2.52,6.93,9.22,9.22,0,0,0,2.81,2.54,6.89,6.89,0,0,0,3.79.93,7,7,0,0,1-4.13-.14,10.28,10.28,0,0,1-3.64-2.26,14.71,14.71,0,0,1-4.14-7.59,42.86,42.86,0,0,1-.59-8.39A43,43,0,0,0,276,316a51.35,51.35,0,0,0-2.15-7.4c-.89-2.51-1.83-5.11-2.56-7.91a30.33,30.33,0,0,1-1-8.79,36.2,36.2,0,0,1,1.48-8.64,51,51,0,0,1,3.17-8c1.27-2.54,2.67-4.88,3.9-7.17a31.79,31.79,0,0,0,2.89-6.86,26,26,0,0,0,.68-7.35c-.08-2.56-.4-5.2-.67-7.9l-.81-8.08C280.46,232.6,280,227.21,279.75,221.77Z" transform="translate(-31.47 -65.51)"/><path class="cls-1" d="M333,233c-1.09,4.39-2.3,8.71-3,13.06a39.26,39.26,0,0,0-.29,12.75c.62,4.08,2.31,8,4,12.19.84,2.1,1.65,4.28,2.32,6.59a29.22,29.22,0,0,1,1.12,7.32,31.59,31.59,0,0,1-.83,7.31,66.09,66.09,0,0,1-2,6.69c-1.46,4.28-3,8.33-3.7,12.43a28.57,28.57,0,0,0-.31,3.06,26.34,26.34,0,0,0,.08,3.08,23.87,23.87,0,0,0,1.41,6.12,26.69,26.69,0,0,0,7.27,10.76,23.38,23.38,0,0,1-9.82-9.58,26.67,26.67,0,0,1-2.56-6.68,24.89,24.89,0,0,1-.54-7.25,38.6,38.6,0,0,1,1.16-7c.54-2.26,1.22-4.43,1.83-6.56,1.26-4.24,2.36-8.34,2.27-12.27s-1.33-7.92-2.8-12.11c-.72-2.11-1.49-4.26-2.11-6.53-.31-1.13-.59-2.29-.81-3.47-.09-.6-.2-1.2-.27-1.8s-.13-1.2-.17-1.8a37.31,37.31,0,0,1,2-13.9A69.17,69.17,0,0,1,333,233Z" transform="translate(-31.47 -65.51)"/><path class="cls-1" d="M305.62,257.71a11.87,11.87,0,0,1,.11,5,18.4,18.4,0,0,1-1.73,4.84,69.74,69.74,0,0,1-5.42,8.28,32.21,32.21,0,0,0-4.44,7.69,13.57,13.57,0,0,0-.31,7.88,24.2,24.2,0,0,0,1.34,4.15c.53,1.4,1.21,2.81,1.87,4.26a70.81,70.81,0,0,1,3.8,9.19,28.83,28.83,0,0,1-.92,19.86,39.19,39.19,0,0,0-3.3-18.28c-1.27-2.75-2.87-5.46-4.44-8.34a38.91,38.91,0,0,1-3.93-9.56,19.52,19.52,0,0,1-.48-5.6,21.1,21.1,0,0,1,.44-2.85,17.07,17.07,0,0,1,.89-2.7,30.36,30.36,0,0,1,6-8.55c2.26-2.41,4.56-4.57,6.54-7a21.89,21.89,0,0,0,2.58-3.82A14.46,14.46,0,0,0,305.62,257.71Z" transform="translate(-31.47 -65.51)"/><path class="cls-1" d="M334.94,189.29a6.88,6.88,0,0,1-1.76,3.31,13.23,13.23,0,0,1-3,2.37c-.55.31-1.12.6-1.69.86s-1.15.49-1.73.72a28,28,0,0,1-3.58,1.11,32.49,32.49,0,0,1-15,0c-1.23-.31-2.45-.66-3.65-1.09a37,37,0,0,1-3.49-1.5c-2.22-1.14-4.16-2.35-6.07-3.28a17.31,17.31,0,0,0-3-1.09,9.51,9.51,0,0,0-3-.33,7,7,0,0,0-5.63,2.79,5.69,5.69,0,0,1,1.64-3.4,8.9,8.9,0,0,1,3.38-2.14,11,11,0,0,1,4.05-.65,16.51,16.51,0,0,1,3.95.62,65.08,65.08,0,0,1,6.78,2.56c1,.4,2,.78,3.07,1.1.51.18,1,.31,1.55.47l1.58.4a45.85,45.85,0,0,0,13,1.11c1.11-.06,2.22-.17,3.34-.3a29.12,29.12,0,0,0,3.3-.56A10.21,10.21,0,0,0,334.94,189.29Z" transform="translate(-31.47 -65.51)"/><path class="cls-1" d="M329.62,168.76a35.87,35.87,0,0,0-1.77,3.36,25,25,0,0,0-1.19,3,29.18,29.18,0,0,0-.84,3.18,36.43,36.43,0,0,0-.55,3.75,6,6,0,0,1-2.26-3.66,8.58,8.58,0,0,1,2.63-8A6,6,0,0,1,329.62,168.76Z" transform="translate(-31.47 -65.51)"/><path class="cls-1" d="M301.18,150.71a14.39,14.39,0,0,1-3.48,1.64,13.59,13.59,0,0,1-3.9.63,11.4,11.4,0,0,1-2.1-.2,11.68,11.68,0,0,1-2-.57l-1.55-.56a7.08,7.08,0,0,0-1.12-.29,7.28,7.28,0,0,0-4.49.77,9.07,9.07,0,0,0-3.87,4.79c-1.5-2.24-1.17-5.61.76-8a9.1,9.1,0,0,1,8.55-3.16,9.59,9.59,0,0,1,2.27.69,17.55,17.55,0,0,1,1.67.86c.48.29.85.48,1.26.7a11.73,11.73,0,0,0,1.34.57C296.38,149.3,298.73,149.74,301.18,150.71Z" transform="translate(-31.47 -65.51)"/><path class="cls-1" d="M301.75,151.37c-.36,1.06-.69,2-1,2.91a20.73,20.73,0,0,0-.66,2.75c-.17.93-.29,1.86-.37,2.8s-.12,1.95-.18,3.06A6.15,6.15,0,0,1,298,160a8.34,8.34,0,0,1,1.21-6.41A6,6,0,0,1,301.75,151.37Z" transform="translate(-31.47 -65.51)"/><path class="cls-1" d="M288.56,67.33a16,16,0,0,0-9.93,0,31,31,0,0,0-8.89,4.44c-1.36,1-2.7,2-4,3S263.19,77,262,78.11c-2.47,2.3-4.85,4.7-7.1,7.19s-4.38,5.11-6.39,7.79-3.88,5.45-5.64,8.33-3.44,5.8-5.07,8.79-3.25,6-4.88,9l-4.92,9.1-5,9c-3.36,6-6.78,11.95-10,17.94-6.53,12-12.41,24.29-15.78,37.7a82.79,82.79,0,0,1,1.43-10.28c.16-.86.37-1.7.57-2.55s.4-1.69.63-2.52l.69-2.52.75-2.5A163.67,163.67,0,0,1,209,153.23c2.92-6.29,6.11-12.41,9.28-18.5l4.8-9.13,4.88-9.09c3.27-6,6.55-12.15,10.41-18A96.73,96.73,0,0,1,251.63,82.2a91.55,91.55,0,0,1,7.92-6.93c1.38-1.08,2.79-2.11,4.22-3.12a44.42,44.42,0,0,1,4.51-2.81,41.56,41.56,0,0,1,4.85-2.22,25,25,0,0,1,5.16-1.37,17.57,17.57,0,0,1,5.32-.08A14.93,14.93,0,0,1,288.56,67.33Z" transform="translate(-31.47 -65.51)"/><path class="cls-1" d="M205.41,387c1.11,1.21,2.07,2.4,3.06,3.52s2,2.16,3,3.11a28.83,28.83,0,0,0,6.52,4.66c.28.17.59.31.89.46s.6.3.92.43l.93.43,1,.38,4.11,1.62a27.3,27.3,0,0,1,8.24,4.65,78.37,78.37,0,0,1-9.32-.28,32.41,32.41,0,0,1-4.69-.82,20.85,20.85,0,0,1-4.71-1.81,18.75,18.75,0,0,1-7.38-7A17.7,17.7,0,0,1,205.41,387Z" transform="translate(-31.47 -65.51)"/></g></svg>