<svg xmlns="http://www.w3.org/2000/svg" xmlns:xlink="http://www.w3.org/1999/xlink" width="181" zoomAndPan="magnify" viewBox="0 0 135.75 30.750001" height="41" preserveAspectRatio="xMidYMid meet" version="1.0"><defs><g><g id="id1"/></g></defs><g fill="rgb(0%, 0%, 0%)" fill-opacity="1"><g transform="translate(2.079563, 23.614333)"><g><path d="M 7.78125 -16.21875 L 7.78125 -16.609375 L 0.6875 -16.609375 L 0.6875 -16.21875 L 2.8125 -16.21875 L 7.515625 -7.953125 L 2.796875 -0.390625 L 0.640625 -0.390625 L 0.640625 0 L 5.8125 0 L 5.8125 -0.390625 L 3.34375 -0.390625 L 7.78125 -7.484375 L 11.8125 -0.390625 L 9.8125 -0.390625 L 9.8125 0 L 16.4375 0 L 16.4375 -0.390625 L 14.53125 -0.390625 L 9.265625 -9.671875 L 13.328125 -16.21875 L 15.546875 -16.21875 L 15.546875 -16.609375 L 10.359375 -16.609375 L 10.359375 -16.21875 L 12.75 -16.21875 L 9 -10.140625 L 5.53125 -16.21875 Z M 7.78125 -16.21875 "/></g></g></g><g fill="rgb(0%, 0%, 0%)" fill-opacity="1"><g transform="translate(19.007278, 23.614333)"><g><path d="M 7.1875 -16.609375 L 0.546875 -16.609375 L 0.546875 -16.21875 L 2.671875 -16.21875 L 2.671875 -4.125 C 2.671875 -3.25 2.835938 -2.519531 3.171875 -1.9375 C 3.515625 -1.351562 3.953125 -0.878906 4.484375 -0.515625 C 5.023438 -0.148438 5.625 0.101562 6.28125 0.25 C 6.9375 0.394531 7.585938 0.46875 8.234375 0.46875 C 9.796875 0.46875 11.015625 0.0859375 11.890625 -0.671875 C 12.765625 -1.441406 13.203125 -2.59375 13.203125 -4.125 L 13.203125 -16.21875 L 15.328125 -16.21875 L 15.328125 -16.609375 L 10.671875 -16.609375 L 10.671875 -16.21875 L 12.796875 -16.21875 L 12.796875 -4.125 C 12.796875 -3.46875 12.691406 -2.878906 12.484375 -2.359375 C 12.285156 -1.835938 12.003906 -1.398438 11.640625 -1.046875 C 11.273438 -0.691406 10.847656 -0.421875 10.359375 -0.234375 C 9.878906 -0.0546875 9.359375 0.03125 8.796875 0.03125 C 7.640625 0.03125 6.726562 -0.328125 6.0625 -1.046875 C 5.394531 -1.765625 5.0625 -2.789062 5.0625 -4.125 L 5.0625 -16.21875 L 7.1875 -16.21875 Z M 7.1875 -16.609375 "/></g></g></g><g fill="rgb(0%, 0%, 0%)" fill-opacity="1"><g transform="translate(34.773533, 23.614333)"><g><path d="M 0.546875 -0.390625 L 0.546875 0 L 6.03125 0 L 6.03125 -0.390625 L 3.109375 -0.390625 L 4.671875 -5.171875 L 9.640625 -5.171875 L 11.25 -0.390625 L 8.703125 -0.390625 L 8.703125 0 L 15.9375 0 L 15.9375 -0.390625 L 13.796875 -0.390625 L 8.375 -16.828125 L 8.078125 -16.828125 L 2.671875 -0.390625 Z M 7.140625 -12.625 L 9.515625 -5.5625 L 4.8125 -5.5625 Z M 7.140625 -12.625 "/></g></g></g><g fill="rgb(0%, 0%, 0%)" fill-opacity="1"><g transform="translate(51.108161, 23.614333)"><g><path d="M 0.671875 -0.390625 L 0.671875 0 L 5.3125 0 L 5.3125 -0.390625 L 3.1875 -0.390625 L 3.1875 -15.5 L 12.75 0.203125 L 13.59375 0.203125 L 13.59375 -16.21875 L 15.71875 -16.21875 L 15.71875 -16.609375 L 11.078125 -16.609375 L 11.078125 -16.21875 L 13.203125 -16.21875 L 13.203125 -4.078125 L 5.53125 -16.609375 L 0.671875 -16.609375 L 0.671875 -16.21875 L 2.796875 -16.21875 L 2.796875 -0.390625 Z M 0.671875 -0.390625 "/></g></g></g><g fill="rgb(0%, 0%, 0%)" fill-opacity="1"><g transform="translate(67.34395, 23.614333)"><g><path d="M 7.6875 -16.609375 L 0.796875 -16.609375 L 0.796875 -16.21875 L 2.765625 -16.21875 L 7.5625 -8.15625 L 7.5625 -0.390625 L 5.1875 -0.390625 L 5.1875 0 L 12.328125 0 L 12.328125 -0.390625 L 9.96875 -0.390625 L 9.96875 -8.796875 L 14.046875 -16.21875 L 16.046875 -16.21875 L 16.046875 -16.609375 L 11 -16.609375 L 11 -16.21875 L 13.390625 -16.21875 L 9.5625 -9.25 L 5.40625 -16.21875 L 7.6875 -16.21875 Z M 7.6875 -16.609375 "/></g></g></g><g fill="rgb(0%, 0%, 0%)" fill-opacity="1"><g transform="translate(83.703291, 23.614333)"><g><path d="M 8.65625 0.46875 C 9.707031 0.46875 10.695312 0.226562 11.625 -0.25 C 12.5625 -0.738281 13.375 -1.382812 14.0625 -2.1875 C 14.757812 -3 15.304688 -3.925781 15.703125 -4.96875 C 16.109375 -6.019531 16.3125 -7.109375 16.3125 -8.234375 C 16.3125 -9.347656 16.109375 -10.425781 15.703125 -11.46875 C 15.304688 -12.519531 14.757812 -13.445312 14.0625 -14.25 C 13.375 -15.050781 12.5625 -15.691406 11.625 -16.171875 C 10.695312 -16.648438 9.707031 -16.890625 8.65625 -16.890625 C 7.59375 -16.890625 6.597656 -16.648438 5.671875 -16.171875 C 4.742188 -15.691406 3.929688 -15.050781 3.234375 -14.25 C 2.546875 -13.445312 2 -12.519531 1.59375 -11.46875 C 1.1875 -10.425781 0.984375 -9.347656 0.984375 -8.234375 C 0.984375 -7.109375 1.1875 -6.019531 1.59375 -4.96875 C 2 -3.925781 2.546875 -3 3.234375 -2.1875 C 3.929688 -1.382812 4.742188 -0.738281 5.671875 -0.25 C 6.597656 0.226562 7.59375 0.46875 8.65625 0.46875 Z M 8.65625 -16.4375 C 9.394531 -16.4375 10.050781 -16.320312 10.625 -16.09375 C 11.207031 -15.863281 11.691406 -15.472656 12.078125 -14.921875 C 12.460938 -14.378906 12.757812 -13.660156 12.96875 -12.765625 C 13.175781 -11.878906 13.28125 -10.78125 13.28125 -9.46875 L 13.28125 -7 C 13.28125 -4.601562 12.882812 -2.832031 12.09375 -1.6875 C 11.300781 -0.539062 10.15625 0.03125 8.65625 0.03125 C 7.15625 0.03125 6.007812 -0.539062 5.21875 -1.6875 C 4.425781 -2.832031 4.03125 -4.601562 4.03125 -7 L 4.03125 -9.46875 C 4.03125 -10.75 4.128906 -11.832031 4.328125 -12.71875 C 4.535156 -13.601562 4.832031 -14.320312 5.21875 -14.875 C 5.613281 -15.425781 6.097656 -15.820312 6.671875 -16.0625 C 7.253906 -16.3125 7.914062 -16.4375 8.65625 -16.4375 Z M 8.65625 -16.4375 "/></g></g></g><g fill="rgb(0%, 0%, 0%)" fill-opacity="1"><g transform="translate(100.779284, 23.614333)"><g><path d="M 8.484375 -16.890625 C 7.441406 -16.890625 6.457031 -16.65625 5.53125 -16.1875 C 4.613281 -15.726562 3.8125 -15.101562 3.125 -14.3125 C 2.4375 -13.519531 1.890625 -12.597656 1.484375 -11.546875 C 1.085938 -10.492188 0.890625 -9.378906 0.890625 -8.203125 C 0.890625 -7.035156 1.09375 -5.921875 1.5 -4.859375 C 1.914062 -3.804688 2.46875 -2.882812 3.15625 -2.09375 C 3.851562 -1.3125 4.65625 -0.6875 5.5625 -0.21875 C 6.46875 0.238281 7.414062 0.46875 8.40625 0.46875 C 9.195312 0.46875 9.941406 0.363281 10.640625 0.15625 C 11.335938 -0.0390625 11.953125 -0.351562 12.484375 -0.78125 C 13.023438 -1.21875 13.445312 -1.769531 13.75 -2.4375 C 14.0625 -3.101562 14.21875 -3.894531 14.21875 -4.8125 L 14.21875 -5.65625 L 16.359375 -5.65625 L 16.359375 -6.0625 L 9.015625 -6.0625 L 9.015625 -5.65625 L 11.671875 -5.65625 L 11.671875 -3.34375 C 11.671875 -2.945312 11.628906 -2.550781 11.546875 -2.15625 C 11.460938 -1.757812 11.304688 -1.398438 11.078125 -1.078125 C 10.847656 -0.753906 10.519531 -0.488281 10.09375 -0.28125 C 9.675781 -0.0703125 9.128906 0.03125 8.453125 0.03125 C 7.015625 0.03125 5.898438 -0.535156 5.109375 -1.671875 C 4.328125 -2.816406 3.9375 -4.507812 3.9375 -6.75 L 3.9375 -9.78125 C 3.9375 -10.957031 4.046875 -11.960938 4.265625 -12.796875 C 4.484375 -13.640625 4.796875 -14.328125 5.203125 -14.859375 C 5.609375 -15.398438 6.085938 -15.796875 6.640625 -16.046875 C 7.191406 -16.304688 7.804688 -16.4375 8.484375 -16.4375 C 9.679688 -16.4375 10.707031 -16.085938 11.5625 -15.390625 C 12.425781 -14.691406 13.117188 -13.5 13.640625 -11.8125 C 13.691406 -11.664062 13.769531 -11.59375 13.875 -11.59375 C 13.96875 -11.59375 14.015625 -11.664062 14.015625 -11.8125 L 14.015625 -16.484375 C 14.015625 -16.671875 13.945312 -16.765625 13.8125 -16.765625 C 13.726562 -16.765625 13.664062 -16.742188 13.625 -16.703125 C 13.59375 -16.671875 13.539062 -16.625 13.46875 -16.5625 L 12.40625 -15.5 C 11.925781 -15.925781 11.34375 -16.265625 10.65625 -16.515625 C 9.976562 -16.765625 9.253906 -16.890625 8.484375 -16.890625 Z M 8.484375 -16.890625 "/></g></g></g><g fill="rgb(0%, 0%, 0%)" fill-opacity="1"><g transform="translate(117.311616, 23.614333)"><g><path d="M 0.546875 -0.390625 L 0.546875 0 L 6.03125 0 L 6.03125 -0.390625 L 3.109375 -0.390625 L 4.671875 -5.171875 L 9.640625 -5.171875 L 11.25 -0.390625 L 8.703125 -0.390625 L 8.703125 0 L 15.9375 0 L 15.9375 -0.390625 L 13.796875 -0.390625 L 8.375 -16.828125 L 8.078125 -16.828125 L 2.671875 -0.390625 Z M 7.140625 -12.625 L 9.515625 -5.5625 L 4.8125 -5.5625 Z M 7.140625 -12.625 "/></g></g></g></svg>