<svg xmlns="http://www.w3.org/2000/svg" xmlns:xlink="http://www.w3.org/1999/xlink" width="40" zoomAndPan="magnify" viewBox="0 0 30 30.750001" height="41" preserveAspectRatio="xMidYMid meet" version="1.0"><defs><g><g id="id1"/></g></defs><g fill="rgb(0%, 0%, 0%)" fill-opacity="1"><g transform="translate(5.173366, 14.507058)"><g><path d="M 1.234375 -8.78125 L 3.78125 -4.09375 L 1.5625 -0.890625 C 1.40625 -0.671875 1.238281 -0.503906 1.0625 -0.390625 C 0.894531 -0.273438 0.691406 -0.21875 0.453125 -0.21875 L 0.453125 0 L 2.34375 0 L 2.34375 -0.21875 C 2.113281 -0.21875 1.960938 -0.253906 1.890625 -0.328125 C 1.816406 -0.410156 1.78125 -0.476562 1.78125 -0.53125 C 1.78125 -0.613281 1.796875 -0.6875 1.828125 -0.75 C 1.859375 -0.8125 1.898438 -0.867188 1.953125 -0.921875 L 3.953125 -3.765625 L 5.875 -0.21875 L 5.15625 -0.21875 L 5.15625 0 L 8.78125 0 L 8.78125 -0.21875 L 8.078125 -0.21875 L 5.265625 -5.40625 L 7 -7.875 C 7.132812 -8.070312 7.253906 -8.226562 7.359375 -8.34375 C 7.460938 -8.457031 7.5625 -8.546875 7.65625 -8.609375 C 7.75 -8.679688 7.84375 -8.726562 7.9375 -8.75 C 8.03125 -8.769531 8.140625 -8.78125 8.265625 -8.78125 L 8.265625 -9 L 6.265625 -9 L 6.265625 -8.78125 C 6.472656 -8.78125 6.617188 -8.726562 6.703125 -8.625 C 6.785156 -8.53125 6.828125 -8.4375 6.828125 -8.34375 C 6.828125 -8.207031 6.78125 -8.082031 6.6875 -7.96875 L 5.09375 -5.703125 L 3.4375 -8.78125 L 4.15625 -8.78125 L 4.15625 -9 L 0.515625 -9 L 0.515625 -8.78125 Z M 1.234375 -8.78125 "/></g></g></g><g fill="rgb(0%, 0%, 0%)" fill-opacity="1"><g transform="translate(16.77727, 14.507058)"><g><path d="M 6.390625 -8.78125 C 6.578125 -8.78125 6.742188 -8.722656 6.890625 -8.609375 C 7.035156 -8.503906 7.109375 -8.335938 7.109375 -8.109375 L 7.109375 -2.6875 C 7.109375 -2.28125 7.050781 -1.921875 6.9375 -1.609375 C 6.832031 -1.304688 6.691406 -1.050781 6.515625 -0.84375 C 6.335938 -0.644531 6.132812 -0.492188 5.90625 -0.390625 C 5.675781 -0.285156 5.4375 -0.234375 5.1875 -0.234375 C 4.800781 -0.234375 4.484375 -0.28125 4.234375 -0.375 C 3.992188 -0.476562 3.800781 -0.613281 3.65625 -0.78125 C 3.519531 -0.957031 3.421875 -1.164062 3.359375 -1.40625 C 3.304688 -1.644531 3.28125 -1.910156 3.28125 -2.203125 L 3.28125 -8.78125 L 4 -8.78125 L 4 -9 L 0.40625 -9 L 0.40625 -8.78125 L 1.140625 -8.78125 L 1.140625 -2.65625 C 1.140625 -2.1875 1.21875 -1.773438 1.375 -1.421875 C 1.53125 -1.066406 1.753906 -0.769531 2.046875 -0.53125 C 2.335938 -0.300781 2.679688 -0.128906 3.078125 -0.015625 C 3.484375 0.0976562 3.929688 0.15625 4.421875 0.15625 C 5.378906 0.15625 6.101562 -0.078125 6.59375 -0.546875 C 7.09375 -1.023438 7.34375 -1.742188 7.34375 -2.703125 L 7.34375 -8.109375 C 7.34375 -8.335938 7.414062 -8.503906 7.5625 -8.609375 C 7.71875 -8.722656 7.882812 -8.78125 8.0625 -8.78125 L 8.0625 -9 L 6.390625 -9 Z M 6.390625 -8.78125 "/></g></g></g><g fill="rgb(0%, 0%, 0%)" fill-opacity="1"><g transform="translate(5.10362, 25.666332)"><g><path d="M 4.15625 -9.078125 L 1.46875 -0.90625 C 1.40625 -0.71875 1.289062 -0.554688 1.125 -0.421875 C 0.957031 -0.285156 0.734375 -0.21875 0.453125 -0.21875 L 0.453125 0 L 2.46875 0 L 2.46875 -0.21875 C 2.300781 -0.21875 2.171875 -0.234375 2.078125 -0.265625 C 1.984375 -0.296875 1.90625 -0.332031 1.84375 -0.375 C 1.789062 -0.425781 1.753906 -0.476562 1.734375 -0.53125 C 1.722656 -0.59375 1.71875 -0.644531 1.71875 -0.6875 C 1.71875 -0.738281 1.71875 -0.785156 1.71875 -0.828125 C 1.726562 -0.867188 1.742188 -0.925781 1.765625 -1 L 2.328125 -2.78125 L 5.015625 -2.78125 L 5.859375 -0.21875 L 5.140625 -0.21875 L 5.140625 0 L 8.734375 0 L 8.734375 -0.21875 L 8.015625 -0.21875 L 5.078125 -9.078125 Z M 3.671875 -6.84375 L 4.9375 -3 L 2.40625 -3 Z M 3.671875 -6.84375 "/></g></g></g><g fill="rgb(0%, 0%, 0%)" fill-opacity="1"><g transform="translate(16.787453, 25.666332)"><g><path d="M 6.140625 -8.78125 C 6.328125 -8.78125 6.492188 -8.722656 6.640625 -8.609375 C 6.785156 -8.492188 6.859375 -8.320312 6.859375 -8.09375 L 6.859375 -3.453125 L 3.03125 -9 L 0.421875 -9 L 0.421875 -8.65625 L 1.265625 -7.640625 L 1.265625 -0.90625 C 1.265625 -0.675781 1.191406 -0.503906 1.046875 -0.390625 C 0.898438 -0.273438 0.734375 -0.21875 0.546875 -0.21875 L 0.546875 0 L 2.21875 0 L 2.21875 -0.21875 C 2.039062 -0.21875 1.875 -0.273438 1.71875 -0.390625 C 1.570312 -0.503906 1.5 -0.675781 1.5 -0.90625 L 1.5 -7.3125 L 6.640625 0.109375 L 7.09375 0.109375 L 7.09375 -8.109375 C 7.09375 -8.335938 7.164062 -8.503906 7.3125 -8.609375 C 7.46875 -8.722656 7.632812 -8.78125 7.8125 -8.78125 L 7.8125 -9 L 6.140625 -9 Z M 6.140625 -8.78125 "/></g></g></g></svg>