<svg id="Layer_1" data-name="Layer 1" xmlns="http://www.w3.org/2000/svg" viewBox="0 0 149.47 29.01"><defs><style>.cls-1{font-size:18.64px;fill:#251d1d;font-family:BodoniSvtyTwoITCTT-Book, Bodoni 72;}.cls-2{fill:#1a191a;}</style></defs><title>xianlogo</title><text class="cls-1" transform="translate(32.34 23.98) scale(1.19 1)">Xuan yogalife </text><g id="圖層_1" data-name="圖層 1"><path class="cls-2" d="M21.25,11a1.73,1.73,0,0,1-.15.55c-.09.18-.18.33-.26.5-.18.32-.34.65-.51,1s-.31.66-.46,1-.3.68-.46,1a4.29,4.29,0,0,1,.18-1.12,6,6,0,0,1,1-2A8.19,8.19,0,0,0,21.25,11Z" transform="translate(-4.93 -7.81)"/><path class="cls-2" d="M21.53,10.49a3.3,3.3,0,0,0,1.19,1c.24.12.49.21.74.32a5.28,5.28,0,0,1,.76.36,5.56,5.56,0,0,1,1.32,1,4.79,4.79,0,0,1,.93,1.38,11.37,11.37,0,0,0-1.13-1.17,8.28,8.28,0,0,0-1.3-.92l-.18-.1-.09,0-.08-.05-.37-.17a5.83,5.83,0,0,1-.74-.39A2.59,2.59,0,0,1,21.53,10.49Z" transform="translate(-4.93 -7.81)"/><path class="cls-2" d="M22.72,8.69c.52.55,1,1.08,1.58,1.59.27.26.55.51.83.75l.42.36.43.36a9.43,9.43,0,0,1,1.62,1.6,5,5,0,0,1,.31.49,4.89,4.89,0,0,1,.26.51,3.29,3.29,0,0,1,.23,1.12,4.48,4.48,0,0,0-1-1.93A14.46,14.46,0,0,0,25.74,12c-.29-.24-.58-.48-.85-.74s-.55-.53-.8-.81A12,12,0,0,1,22.72,8.69Z" transform="translate(-4.93 -7.81)"/><path class="cls-2" d="M27.73,15.69A4.06,4.06,0,0,0,28,16.94a5.8,5.8,0,0,1,.16.63,3.08,3.08,0,0,1,.09.67c0,.12,0,.23,0,.34s0,.22,0,.33a4.07,4.07,0,0,0-.07.61,1.35,1.35,0,0,0,.13.56,1.1,1.1,0,0,0,.17.25.74.74,0,0,0,.27.16h-.17l-.08,0-.08,0a.78.78,0,0,1-.26-.22,1.29,1.29,0,0,1-.27-.65,2.51,2.51,0,0,1,0-.67l0-.32c0-.11,0-.21,0-.31A8.11,8.11,0,0,0,27.65,17a4.65,4.65,0,0,1,0-.66A1.84,1.84,0,0,1,27.73,15.69Z" transform="translate(-4.93 -7.81)"/><path class="cls-2" d="M28.78,16.25a1.21,1.21,0,0,1,.24.35,2.74,2.74,0,0,1,.15.4c.09.27.17.54.25.81.16.54.31,1.08.5,1.6a9.46,9.46,0,0,0,.67,1.53l.1.18.11.18c.07.12.15.23.23.35l.5.67c.17.22.34.45.5.69s.16.24.23.36l.11.19a1.74,1.74,0,0,0,.1.19l.09.19.09.2.09.2a1.19,1.19,0,0,1,.08.2c.11.26.21.52.31.79.19.53.37,1.06.58,1.57l.16.39.09.18.09.19.39.76a4.47,4.47,0,0,1,.31.82,2.48,2.48,0,0,1,.06.9,2.69,2.69,0,0,1-.77,1.6,2.6,2.6,0,0,1-.74.52,3.11,3.11,0,0,1-.86.22,8.29,8.29,0,0,1-.85.06l-.85,0c-2.25.1-4.5.1-6.75,0,2.25,0,4.49-.12,6.74-.27l.84-.06c.28,0,.56,0,.83-.08a2.53,2.53,0,0,0,.76-.21,2.17,2.17,0,0,0,.63-.46,2.32,2.32,0,0,0,.65-1.38V30a.34.34,0,0,0,0-.1v-.19a2.32,2.32,0,0,0-.07-.38,4.11,4.11,0,0,0-.29-.76l-.38-.75-.09-.19-.09-.2L33.36,27c-.21-.54-.39-1.07-.57-1.6l-.29-.78c0-.07-.06-.13-.08-.19l-.08-.2-.09-.19-.09-.18a3.22,3.22,0,0,0-.19-.37,2.5,2.5,0,0,0-.21-.35c-.14-.24-.31-.46-.47-.69S31,22,30.8,21.8s-.16-.24-.23-.37l-.11-.18-.1-.19a10.26,10.26,0,0,1-.62-1.59c-.08-.27-.15-.54-.22-.82s-.14-.54-.2-.82-.14-.54-.2-.82-.08-.26-.13-.39A1.23,1.23,0,0,0,28.78,16.25Z" transform="translate(-4.93 -7.81)"/><path class="cls-2" d="M29.37,21.72a3.57,3.57,0,0,1,.3.38c.09.14.17.28.25.43s.13.3.19.45a3.71,3.71,0,0,1,.16.47c.18.62.28,1.26.41,1.89a7.52,7.52,0,0,0,.55,1.78c.07.14.15.28.23.41a3.28,3.28,0,0,0,.27.38,3.51,3.51,0,0,0,.33.34,3.37,3.37,0,0,0,.38.28,1.93,1.93,0,0,1-.44-.2,2.27,2.27,0,0,1-.4-.29,2.9,2.9,0,0,1-.34-.36,3.81,3.81,0,0,1-.29-.41,3.21,3.21,0,0,1-.24-.45l-.18-.46c-.05-.16-.09-.32-.14-.48s-.07-.32-.1-.48c-.13-.63-.2-1.27-.33-1.89A6.43,6.43,0,0,0,29.37,21.72Z" transform="translate(-4.93 -7.81)"/><path class="cls-2" d="M20.32,26.3a1.15,1.15,0,0,0,.42.51,1.79,1.79,0,0,0,.6.26,3.53,3.53,0,0,0,.65.11c.23,0,.46.05.68.09a10.22,10.22,0,0,1,1.36.27c.22.06.45.14.66.22l.64.24a8.55,8.55,0,0,0,2.61.54c.9.06,1.81,0,2.72.06a17.87,17.87,0,0,1-2.73.24,9.2,9.2,0,0,1-1.39-.12l-.17,0-.17,0-.34-.08-.34-.1-.33-.12c-.43-.16-.84-.34-1.26-.47s-.87-.24-1.31-.33L22,27.42a4,4,0,0,1-.68-.17,1.89,1.89,0,0,1-.61-.36,1.44,1.44,0,0,1-.22-.27A1,1,0,0,1,20.32,26.3Z" transform="translate(-4.93 -7.81)"/><path class="cls-2" d="M19.79,27.12a1.1,1.1,0,0,1-.32.42,2,2,0,0,1-.47.26A7.75,7.75,0,0,1,18,28a4.69,4.69,0,0,0-.89.31,5.53,5.53,0,0,0-.84.51,2.22,2.22,0,0,1,.69-.77,2.84,2.84,0,0,1,1-.42c.34-.08.67-.1,1-.16A1.76,1.76,0,0,0,19.79,27.12Z" transform="translate(-4.93 -7.81)"/><path class="cls-2" d="M15.72,31.43a1.17,1.17,0,0,0,.41.1,1.39,1.39,0,0,0,.41,0,2.74,2.74,0,0,0,.79-.27,8.26,8.26,0,0,1,.82-.33,2.36,2.36,0,0,1,.46-.1,1.92,1.92,0,0,1,.24,0l.23,0,.45.1.41.13.83.26.82.28.41.16.05,0,.05,0,.09.08a.22.22,0,0,1,0,.11.07.07,0,0,1,0,.06v0l0,0a.08.08,0,0,0,0-.1s0,0-.06-.07l-.09-.05H22l-.43-.08-.85-.17-.85-.2-.42-.11A2.74,2.74,0,0,0,19,31.2l-.2,0h-.19l-.39.06c-.26.07-.53.18-.81.27a3.28,3.28,0,0,1-.88.18,1.74,1.74,0,0,1-.45-.06l-.21-.08-.09-.06Z" transform="translate(-4.93 -7.81)"/><path class="cls-2" d="M21.73,32.67a6.11,6.11,0,0,1-1.47.25,12.34,12.34,0,0,1-1.49,0c-.49,0-1-.05-1.47-.06a11.71,11.71,0,0,0-1.45,0l-.73.08-.73.08c-.49,0-1,.09-1.48.11a19.67,19.67,0,0,1-3-.11c1,0,2-.09,3-.19.48,0,1-.1,1.46-.16l.73-.1.74-.09c.25,0,.5,0,.75,0h.75c.5,0,1,.07,1.48.13A12,12,0,0,0,21.73,32.67Z" transform="translate(-4.93 -7.81)"/><path class="cls-2" d="M14.11,26.6c-.61.73-1.26,1.4-1.93,2.07S10.82,30,10.1,30.57c-.19.16-.38.3-.58.44a4.12,4.12,0,0,1-.66.34,5.05,5.05,0,0,1-.69.22l-.69.16L6.11,32a3,3,0,0,0-.66.2,1,1,0,0,0-.27.19.51.51,0,0,0-.17.3.7.7,0,0,1,.12-.34,1.22,1.22,0,0,1,.27-.24,2.76,2.76,0,0,1,.66-.29c.45-.14.89-.29,1.34-.42A10.2,10.2,0,0,0,8.72,31a4.45,4.45,0,0,0,1.13-.73L12,28.45C12.69,27.84,13.39,27.21,14.11,26.6Z" transform="translate(-4.93 -7.81)"/><path class="cls-2" d="M14.55,28.25a16.74,16.74,0,0,1-1.65,1.61c-.58.49-1.2.95-1.81,1.4l-.94.66a9.12,9.12,0,0,1-1,.6A4.39,4.39,0,0,1,8,32.89a2.67,2.67,0,0,1-1.16,0A3.2,3.2,0,0,0,8,32.71a4.69,4.69,0,0,0,1-.46c.32-.19.63-.4.93-.62l.46-.34.47-.34c.61-.44,1.24-.88,1.85-1.33S13.94,28.71,14.55,28.25Z" transform="translate(-4.93 -7.81)"/><path class="cls-2" d="M20.27,18.39a1.48,1.48,0,0,0-.55.13,1.77,1.77,0,0,0-.46.31,3.62,3.62,0,0,0-.66.88l-1.16,2c-.38.66-.77,1.31-1.16,2s-.79,1.31-1.21,2c.28-.71.6-1.41.94-2.09s.72-1.36,1.1-2,.8-1.31,1.24-1.94a3.31,3.31,0,0,1,.8-.87,2,2,0,0,1,.53-.26l.29-.05A1.51,1.51,0,0,1,20.27,18.39Z" transform="translate(-4.93 -7.81)"/><path class="cls-2" d="M20.87,18.93a2.19,2.19,0,0,1,.2.66,3.26,3.26,0,0,1,0,.7A4.22,4.22,0,0,1,21,21a5.18,5.18,0,0,1-.26.65A8.31,8.31,0,0,1,20,22.81c-.14.19-.28.37-.41.56l-.43.54c-.57.71-1.17,1.4-1.81,2.06a22.25,22.25,0,0,1-2,1.86c.6-.69,1.21-1.37,1.8-2.06s1.17-1.39,1.74-2.1l.84-1.07a9.38,9.38,0,0,0,.75-1.11,3.94,3.94,0,0,0,.48-1.23,3,3,0,0,0,.07-.67l0-.33C20.92,19.15,20.9,19,20.87,18.93Z" transform="translate(-4.93 -7.81)"/><path class="cls-2" d="M11.44,28c-.75.12-1.5.2-2.24.27a8,8,0,0,0-2.15.43,3.06,3.06,0,0,0-.49.22,2.6,2.6,0,0,0-.45.28,2.78,2.78,0,0,0-.72.77,2,2,0,0,0-.2.48,1.25,1.25,0,0,0,0,.51,1.16,1.16,0,0,0,.21.48,1,1,0,0,0,.44.33.78.78,0,0,1-.27-.09,1,1,0,0,1-.24-.16A1.19,1.19,0,0,1,5,31a1.36,1.36,0,0,1,0-.6,2,2,0,0,1,.18-.58,2.41,2.41,0,0,1,.33-.5,4.16,4.16,0,0,1,.42-.42,3.27,3.27,0,0,1,.5-.32,3.65,3.65,0,0,1,.53-.25A4.79,4.79,0,0,1,8,28.09,10.94,10.94,0,0,1,9.18,28C9.93,28,10.68,28,11.44,28Z" transform="translate(-4.93 -7.81)"/><path class="cls-2" d="M21.29,14.42a1.46,1.46,0,0,1-.42.94,2.59,2.59,0,0,1-.42.32l-.45.25a7.5,7.5,0,0,1-.93.37,4.21,4.21,0,0,1-1,.18c.29-.17.58-.31.88-.46l.87-.44.44-.21c.14-.07.27-.15.4-.23A2.14,2.14,0,0,0,21.29,14.42Z" transform="translate(-4.93 -7.81)"/><path class="cls-2" d="M16.5,17c-.28.24-.58.46-.85.71a4.62,4.62,0,0,0-.75.78,3.26,3.26,0,0,0-.49.92,2.1,2.1,0,0,0-.09.5,2.18,2.18,0,0,0,0,.51,3,3,0,0,0,.11.52c.05.17.11.34.17.51s.13.34.2.51.13.35.19.53a4.26,4.26,0,0,1,.21,1.12,2.2,2.2,0,0,1-.05.57l0,.14,0,.06a.14.14,0,0,1,0,.07l-.06.13-.06.12A2.29,2.29,0,0,0,15,23.64a3.16,3.16,0,0,0-.13-.53c-.05-.17-.12-.34-.18-.51-.14-.33-.31-.66-.45-1-.07-.17-.13-.35-.19-.53a3.9,3.9,0,0,1-.13-.57,3,3,0,0,1,0-.6,2.32,2.32,0,0,1,.13-.58,3.17,3.17,0,0,1,.6-1,4.73,4.73,0,0,1,.87-.74A9.23,9.23,0,0,1,16.5,17Z" transform="translate(-4.93 -7.81)"/><path class="cls-2" d="M19.94,23.27c0,.22.06.42.09.62l.06.58.07.59a6.06,6.06,0,0,1,0,.62,1.79,1.79,0,0,1-.33-.55,2.42,2.42,0,0,1-.14-1.25A1.7,1.7,0,0,1,19.94,23.27Z" transform="translate(-4.93 -7.81)"/><path class="cls-2" d="M23.48,13.54a.55.55,0,0,1,.22,0,.85.85,0,0,1,.22.09,1.26,1.26,0,0,1,.34.31c.1.12.18.25.27.36a.89.89,0,0,0,.31.27,1.45,1.45,0,0,0,.4.13,1.49,1.49,0,0,1,.45.19,2,2,0,0,1,.66.69,2.48,2.48,0,0,1,.2.44,2.46,2.46,0,0,1,.1.47,3.7,3.7,0,0,1,0,.94c-.08.62-.28,1.2-.36,1.76,0,.14,0,.28,0,.42a3,3,0,0,0,0,.42,7.38,7.38,0,0,0,.22.84,5.9,5.9,0,0,1,.22.9,2.66,2.66,0,0,1,0,.49,2,2,0,0,1-.09.47,7.12,7.12,0,0,1-.32.85c0,.14-.1.27-.14.41s-.06.29-.08.43a2.92,2.92,0,0,0,.36,1.71,2.73,2.73,0,0,1-.54-1.72,2.4,2.4,0,0,1,.05-.46,3.31,3.31,0,0,1,.12-.45c.09-.29.2-.57.27-.85a1.84,1.84,0,0,0,.05-.41,2,2,0,0,0,0-.42,6.14,6.14,0,0,0-.23-.84c-.05-.14-.1-.29-.14-.43a3.84,3.84,0,0,1-.11-.46,2.59,2.59,0,0,1,0-.48,3.59,3.59,0,0,1,0-.47c.09-.63.3-1.19.38-1.76a3.1,3.1,0,0,0,0-.86,1.86,1.86,0,0,0-.08-.41,1.32,1.32,0,0,0-.15-.39,1.79,1.79,0,0,0-.53-.63,1.62,1.62,0,0,0-.37-.19,1.42,1.42,0,0,1-.44-.17,1.1,1.1,0,0,1-.33-.35c-.09-.12-.16-.26-.24-.38a1,1,0,0,0-.29-.33A.54.54,0,0,0,23.48,13.54Z" transform="translate(-4.93 -7.81)"/><path class="cls-2" d="M21.46,18.22c.1.35.18.7.27,1.05l.11.53a5.12,5.12,0,0,1,.1.54,2,2,0,0,1,0,.59,2.06,2.06,0,0,1-.2.54c-.08.17-.17.33-.24.48a2.68,2.68,0,0,0-.18.47,2.11,2.11,0,0,0-.09.49,1.63,1.63,0,0,0,0,.49c0,.16.09.33.14.5s.05.18.07.27a2.74,2.74,0,0,1,.05.28c0,.4-.07.75,0,1.09a.89.89,0,0,0,.17.46.49.49,0,0,0,.44.23.53.53,0,0,1-.28,0,.61.61,0,0,1-.24-.15,1,1,0,0,1-.28-.51,3.39,3.39,0,0,1,0-.55,2.24,2.24,0,0,0,0-.52,3,3,0,0,0-.14-.49c-.06-.17-.12-.34-.17-.53a1.88,1.88,0,0,1-.07-.58,2.27,2.27,0,0,1,.1-.58,3.44,3.44,0,0,1,.21-.53c.09-.17.18-.32.26-.48a1.79,1.79,0,0,0,.19-.45,1.63,1.63,0,0,0,.05-.49c0-.17,0-.35-.05-.53l-.05-.54C21.51,18.94,21.48,18.58,21.46,18.22Z" transform="translate(-4.93 -7.81)"/><path class="cls-2" d="M25,19c-.07.29-.15.58-.2.87a2.63,2.63,0,0,0,0,.84,3.28,3.28,0,0,0,.27.82c.05.14.11.28.15.43a2.09,2.09,0,0,1,.08.49,2,2,0,0,1-.06.49c0,.15-.08.3-.13.44a6,6,0,0,0-.25.83,1.49,1.49,0,0,0,0,.21,1.41,1.41,0,0,0,0,.2,1.43,1.43,0,0,0,.09.41,1.83,1.83,0,0,0,.48.71,1.58,1.58,0,0,1-.65-.63,1.74,1.74,0,0,1-.17-.45,1.56,1.56,0,0,1,0-.48,2.57,2.57,0,0,1,.08-.47l.12-.43a2.5,2.5,0,0,0,.15-.82,2.76,2.76,0,0,0-.18-.81c0-.14-.1-.28-.14-.43L24.52,21a.5.5,0,0,0,0-.12.49.49,0,0,0,0-.12,2.45,2.45,0,0,1,.14-.93A4.34,4.34,0,0,1,25,19Z" transform="translate(-4.93 -7.81)"/><path class="cls-2" d="M23.19,20.61a.74.74,0,0,1,0,.33,1.17,1.17,0,0,1-.11.33,6.49,6.49,0,0,1-.36.55,2.36,2.36,0,0,0-.3.51.92.92,0,0,0,0,.52,1.31,1.31,0,0,0,.09.28c0,.09.08.19.13.28s.18.41.25.62a1.93,1.93,0,0,1-.06,1.32,2.68,2.68,0,0,0-.22-1.22c-.09-.18-.19-.36-.3-.55a3,3,0,0,1-.26-.64,1.16,1.16,0,0,1,0-.37.58.58,0,0,1,0-.19.64.64,0,0,1,.06-.18,1.9,1.9,0,0,1,.4-.57c.15-.16.3-.31.43-.46a1.06,1.06,0,0,0,.17-.26A1,1,0,0,0,23.19,20.61Z" transform="translate(-4.93 -7.81)"/><path class="cls-2" d="M25.14,16.06a.48.48,0,0,1-.12.22.75.75,0,0,1-.2.15l-.11.06-.12.05-.23.07a2.11,2.11,0,0,1-1,0l-.25-.07-.23-.1c-.15-.07-.28-.16-.4-.22l-.2-.07a.68.68,0,0,0-.2,0,.46.46,0,0,0-.37.18.32.32,0,0,1,.1-.22A.46.46,0,0,1,22,16a.65.65,0,0,1,.27,0,1.09,1.09,0,0,1,.26,0,4.7,4.7,0,0,1,.45.17l.21.08.1,0,.11,0a2.76,2.76,0,0,0,.86.08l.22,0,.22,0A.7.7,0,0,0,25.14,16.06Z" transform="translate(-4.93 -7.81)"/><path class="cls-2" d="M24.78,14.69a2.26,2.26,0,0,0-.11.22,2.12,2.12,0,0,0-.14.41c0,.09,0,.17,0,.25a.43.43,0,0,1-.15-.24.58.58,0,0,1,.18-.54A.42.42,0,0,1,24.78,14.69Z" transform="translate(-4.93 -7.81)"/><path class="cls-2" d="M22.89,13.49l-.23.11a1.09,1.09,0,0,1-.26,0h-.14l-.13,0-.11,0-.07,0a.52.52,0,0,0-.3.05.68.68,0,0,0-.26.32.46.46,0,0,1,.05-.53.6.6,0,0,1,.57-.21l.15,0,.11.06.09.05.09,0A4.3,4.3,0,0,1,22.89,13.49Z" transform="translate(-4.93 -7.81)"/><path class="cls-2" d="M22.93,13.53a1.59,1.59,0,0,0-.07.2,1.16,1.16,0,0,0,0,.18l0,.18a1.55,1.55,0,0,1,0,.21.47.47,0,0,1-.1-.2.57.57,0,0,1,.08-.42A.35.35,0,0,1,22.93,13.53Z" transform="translate(-4.93 -7.81)"/><path class="cls-2" d="M22.05,7.94a1.06,1.06,0,0,0-.66,0,1.91,1.91,0,0,0-.59.29l-.27.2-.25.22-.47.48c-.15.17-.29.34-.43.52s-.25.36-.37.56-.23.38-.34.58-.22.4-.32.6L18,12l-.33.6c-.23.39-.46.79-.67,1.19a10.84,10.84,0,0,0-1,2.51c0-.23,0-.46.09-.68a1.36,1.36,0,0,0,0-.17,1.36,1.36,0,0,0,0-.17l.05-.17,0-.17a9.48,9.48,0,0,1,.51-1.28c.2-.42.41-.83.62-1.24l.32-.6.32-.61c.22-.4.44-.81.7-1.2a6.49,6.49,0,0,1,.88-1.08,4.6,4.6,0,0,1,.53-.46,1.86,1.86,0,0,1,.28-.21,2.49,2.49,0,0,1,.3-.19A1.87,1.87,0,0,1,21,7.92a2,2,0,0,1,.35-.09,1,1,0,0,1,.35,0A.76.76,0,0,1,22.05,7.94Z" transform="translate(-4.93 -7.81)"/><path class="cls-2" d="M16.51,29.22l.21.23a1.34,1.34,0,0,0,.2.21,1.88,1.88,0,0,0,.43.31l.06,0,.06,0,.06,0,.07,0,.27.11a1.86,1.86,0,0,1,.55.31,4.33,4.33,0,0,1-.62,0l-.31-.05a1.66,1.66,0,0,1-.31-.12,1.17,1.17,0,0,1-.49-.47A1.15,1.15,0,0,1,16.51,29.22Z" transform="translate(-4.93 -7.81)"/></g></svg>