<svg xmlns="http://www.w3.org/2000/svg" width="270" viewBox="0 0 270 60" height="60" version="1.0"><path fill="#FFF" d="M-27 -6H297V66H-27z"/><path fill="#FFF" d="M-27 -6H297V66H-27z"/><path fill="#FFF" d="M-27 -6H297V66H-27z"/><g><g><g><path d="M 37.746094 -10.902344 C 37.546875 -11.101562 37.269531 -11.222656 36.992188 -11.222656 C 36.714844 -11.222656 36.476562 -11.101562 36.28125 -10.902344 C 29.617188 -4.164062 20.816406 -1.308594 13.835938 -3.648438 C 12.132812 -4.28125 10.507812 -5.15625 9.039062 -6.265625 C 8.644531 -6.542969 8.40625 -6.976562 8.40625 -7.453125 C 8.40625 -7.929688 8.644531 -8.40625 9.039062 -8.683594 C 10.429688 -9.675781 11.300781 -10.269531 11.339844 -10.308594 C 11.816406 -10.625 11.933594 -11.261719 11.617188 -11.734375 C 11.300781 -12.210938 10.664062 -12.332031 10.191406 -12.015625 C 10.148438 -12.015625 8.722656 -11.0625 6.699219 -9.554688 C 6.105469 -9.121094 5.3125 -9.160156 4.796875 -9.636719 C 2.65625 -11.539062 1.148438 -13.164062 1.109375 -13.203125 C 0.871094 -13.480469 0.476562 -13.601562 0.117188 -13.519531 C -0.277344 -13.441406 -0.554688 -13.164062 -0.675781 -12.808594 C -0.792969 -12.449219 -0.675781 -12.054688 -0.398438 -11.777344 C -0.277344 -11.65625 0.910156 -10.347656 2.734375 -8.722656 C 3.054688 -8.40625 3.210938 -8.007812 3.210938 -7.535156 C 3.171875 -7.097656 2.972656 -6.699219 2.65625 -6.421875 C 1.230469 -5.273438 -0.238281 -4.042969 -1.625 -2.734375 C -2.0625 -2.339844 -2.0625 -1.664062 -1.664062 -1.269531 C -1.308594 -0.832031 -0.632812 -0.792969 -0.199219 -1.191406 C 1.425781 -2.734375 3.132812 -4.164062 4.757812 -5.433594 C 5.273438 -5.867188 6.027344 -5.867188 6.542969 -5.472656 C 8.5625 -3.886719 10.785156 -2.578125 13.164062 -1.664062 C 15.027344 -1.070312 16.96875 -0.753906 18.914062 -0.753906 C 25.335938 -0.753906 32.234375 -3.847656 37.746094 -9.4375 C 38.144531 -9.832031 38.144531 -10.507812 37.746094 -10.902344 Z M 37.746094 -10.902344" transform="translate(49.325 33.952)"/></g></g></g><g><g><g><path d="M 34.375 -11.140625 C 34.179688 -11.339844 33.902344 -11.417969 33.621094 -11.417969 C 33.34375 -11.417969 33.109375 -11.300781 32.910156 -11.101562 C 29.339844 -7.335938 21.332031 -1.824219 15.464844 -1.824219 L 15.382812 -1.824219 C 13.757812 -1.746094 12.210938 -2.378906 11.101562 -3.527344 C 9.675781 -5.074219 10.664062 -9.277344 11.140625 -10.625 C 11.339844 -11.140625 11.101562 -11.695312 10.625 -11.894531 C 10.191406 -12.132812 9.59375 -12.015625 9.316406 -11.578125 C 6.265625 -7.136719 1.902344 -2.816406 0.476562 -3.648438 C 0 -3.964844 0.714844 -7.019531 2.65625 -10.46875 C 2.894531 -10.941406 2.734375 -11.539062 2.261719 -11.816406 C 1.785156 -12.09375 1.148438 -11.972656 0.871094 -11.5 C -0.476562 -9.160156 -3.289062 -3.488281 -0.59375 -1.863281 C 1.546875 -0.59375 4.441406 -2.65625 6.859375 -5.15625 C 7.097656 -5.433594 7.453125 -5.511719 7.769531 -5.390625 C 8.089844 -5.3125 8.328125 -5.035156 8.40625 -4.679688 C 8.523438 -3.726562 8.921875 -2.855469 9.554688 -2.101562 C 11.0625 -0.515625 13.164062 0.355469 15.34375 0.277344 L 15.464844 0.277344 C 22.003906 0.277344 30.492188 -5.511719 34.414062 -9.636719 C 34.613281 -9.871094 34.695312 -10.109375 34.695312 -10.386719 C 34.695312 -10.664062 34.574219 -10.941406 34.375 -11.140625 Z M 34.375 -11.140625" transform="translate(85.444 33.952)"/></g></g></g><g><g><g><path d="M 33.148438 -9.59375 C 32.75 -10.03125 32.078125 -10.070312 31.640625 -9.675781 C 31.523438 -9.554688 19.746094 1.03125 12.449219 -3.765625 C 9.554688 -5.667969 8.84375 -10.269531 8.84375 -10.308594 C 8.800781 -10.785156 8.445312 -11.140625 7.96875 -11.222656 C 7.535156 -11.261719 7.058594 -11.023438 6.859375 -10.625 C 4.996094 -6.503906 1.703125 -1.269531 0.792969 -1.863281 C 0.714844 -1.863281 0.554688 -2.023438 0.4375 -2.300781 C -0.0390625 -3.609375 0.117188 -5.035156 0.792969 -6.265625 C 2.300781 -9.355469 5.074219 -11.578125 8.40625 -12.410156 C 8.761719 -12.488281 9.039062 -12.765625 9.160156 -13.125 C 9.277344 -13.480469 9.160156 -13.878906 8.921875 -14.15625 C 8.644531 -14.394531 8.285156 -14.511719 7.929688 -14.433594 C 3.964844 -13.480469 0.675781 -10.785156 -1.109375 -7.136719 C -2.0625 -5.351562 -2.179688 -3.210938 -1.425781 -1.347656 C -1.070312 -0.4375 -0.199219 0.199219 0.792969 0.199219 L 0.832031 0.199219 C 2.777344 0.160156 5.195312 -2.261719 6.859375 -4.875 C 7.058594 -5.195312 7.414062 -5.351562 7.769531 -5.3125 C 8.128906 -5.3125 8.445312 -5.113281 8.605469 -4.796875 C 9.277344 -3.6875 10.191406 -2.734375 11.300781 -2.0625 C 19.945312 3.6875 32.511719 -7.652344 33.066406 -8.128906 C 33.265625 -8.328125 33.386719 -8.605469 33.386719 -8.84375 C 33.425781 -9.121094 33.304688 -9.398438 33.148438 -9.59375 Z M 33.148438 -9.59375" transform="translate(118.233 33.952)"/></g></g></g><g><g><g><path d="M 34.652344 -9.871094 C 34.414062 -10.03125 34.179688 -10.148438 33.902344 -10.148438 C 33.621094 -10.109375 33.34375 -9.992188 33.1875 -9.792969 C 33.066406 -9.714844 24.34375 -0.398438 16.773438 -3.449219 C 15.144531 -4.320312 13.835938 -5.628906 12.925781 -7.257812 C 12.609375 -7.769531 12.210938 -8.285156 11.734375 -8.761719 C 11.222656 -9.398438 10.429688 -9.753906 9.59375 -9.792969 C 7.574219 -9.953125 5.113281 -8.605469 2.179688 -5.828125 C 2.101562 -5.75 1.984375 -5.710938 1.863281 -5.789062 C 1.746094 -5.828125 1.664062 -5.988281 1.703125 -6.105469 L 2.578125 -9.992188 C 2.734375 -10.546875 2.378906 -11.140625 1.824219 -11.261719 C 1.269531 -11.378906 0.714844 -11.023438 0.554688 -10.46875 L -1.425781 -1.785156 C -1.546875 -1.308594 -1.308594 -0.832031 -0.871094 -0.632812 C -0.4375 -0.398438 0.078125 -0.515625 0.398438 -0.871094 C 5.710938 -7.097656 8.40625 -7.691406 9.355469 -7.730469 C 10.308594 -7.769531 10.902344 -6.542969 11.222656 -6.066406 C 12.332031 -4.125 13.996094 -2.539062 15.980469 -1.546875 C 24.859375 2.0625 34.296875 -7.96875 34.695312 -8.40625 C 35.089844 -8.800781 35.050781 -9.476562 34.652344 -9.871094 Z M 34.652344 -9.871094" transform="translate(150.269 33.952)"/></g></g></g><g><g><g><path d="M 3.925781 -16.691406 C 6.898438 -18.398438 7.453125 -20.417969 7.535156 -21.449219 C 7.652344 -22.679688 7.175781 -23.867188 6.226562 -24.660156 C 5.789062 -25.019531 5.113281 -24.898438 4.757812 -24.464844 C 4.402344 -24.027344 4.480469 -23.355469 4.957031 -22.996094 C 5.351562 -22.679688 5.550781 -22.125 5.472656 -21.609375 C 5.433594 -20.976562 5.035156 -19.707031 2.894531 -18.476562 C 2.457031 -18.277344 2.261719 -17.761719 2.378906 -17.328125 C 2.496094 -16.890625 2.933594 -16.574219 3.410156 -16.574219 C 3.570312 -16.535156 3.765625 -16.613281 3.925781 -16.691406 Z M 3.925781 -16.691406" transform="translate(183.296 33.952)"/></g></g></g><g><g><g><path d="M 27.199219 -10.984375 C 27 -11.179688 26.761719 -11.261719 26.484375 -11.261719 C 26.207031 -11.261719 25.929688 -11.179688 25.734375 -10.984375 C 21.925781 -7.375 17.246094 -4.835938 12.132812 -3.609375 C 11.933594 -3.527344 11.695312 -3.609375 11.578125 -3.765625 C 11.457031 -3.964844 11.417969 -4.164062 11.539062 -4.363281 C 12.25 -5.75 12.09375 -7.414062 11.179688 -8.683594 C 10.625 -9.4375 9.914062 -10.070312 9.078125 -10.546875 C 7.96875 -11.300781 6.742188 -12.171875 6.699219 -13.085938 C 6.742188 -13.601562 6.9375 -14.074219 7.296875 -14.472656 L 9.4375 -16.496094 C 9.832031 -16.890625 9.871094 -17.523438 9.515625 -17.921875 C 9.160156 -18.359375 8.5625 -18.4375 8.089844 -18.082031 C 7.257812 -17.445312 6.464844 -16.730469 5.789062 -15.898438 L -0.316406 -10.191406 C -0.59375 -9.953125 -0.714844 -9.554688 -0.632812 -9.199219 C -0.554688 -8.800781 -0.277344 -8.523438 0.078125 -8.40625 C 0.4375 -8.328125 0.832031 -8.40625 1.109375 -8.683594 L 4.125 -11.5 C 4.28125 -11.65625 4.480469 -11.695312 4.679688 -11.695312 C 4.875 -11.65625 5.035156 -11.539062 5.113281 -11.378906 C 5.867188 -10.347656 6.820312 -9.476562 7.890625 -8.84375 C 8.484375 -8.484375 9 -8.089844 9.4375 -7.574219 C 9.832031 -7.136719 10.03125 -6.542969 9.914062 -5.949219 C 9.792969 -5.351562 9.4375 -4.835938 8.921875 -4.558594 C 6.382812 -3.132812 3.171875 -3.804688 1.425781 -6.144531 C 1.148438 -6.582031 0.515625 -6.742188 0.0390625 -6.421875 C -0.4375 -6.144531 -0.59375 -5.550781 -0.316406 -5.035156 C 0.992188 -2.777344 3.332031 -1.308594 5.949219 -1.109375 C 6.621094 -0.992188 7.257812 -0.953125 7.929688 -0.953125 C 14.628906 -0.953125 22.878906 -5.15625 27.199219 -9.515625 C 27.597656 -9.914062 27.597656 -10.585938 27.199219 -10.984375 Z M 27.199219 -10.984375" transform="translate(195.071 33.952)"/></g></g></g><g><g><g><path d="M 2.078125 3.964844 L 6.898438 -6.976562 L 5.660156 -6.976562 L 3.664062 -2.300781 L 1.425781 -6.976562 L 0.160156 -6.976562 L 3.078125 -1.140625 L 0.730469 3.964844 Z M 2.078125 3.964844" transform="translate(83.205 56.382)"/></g></g></g><g><g><g><path d="M 6.898438 -3.519531 C 6.898438 -2.824219 6.644531 -2.234375 6.152344 -1.746094 C 5.644531 -1.238281 5.058594 -1 4.359375 -1 C 3.664062 -1 3.0625 -1.238281 2.570312 -1.746094 C 2.0625 -2.234375 1.824219 -2.824219 1.824219 -3.519531 C 1.824219 -4.21875 2.0625 -4.804688 2.570312 -5.3125 C 3.0625 -5.804688 3.664062 -6.058594 4.359375 -6.058594 C 5.058594 -6.058594 5.644531 -5.804688 6.152344 -5.3125 C 6.644531 -4.804688 6.898438 -4.21875 6.898438 -3.519531 Z M 8.007812 -3.519531 C 8.007812 -4.519531 7.644531 -5.375 6.929688 -6.089844 C 6.214844 -6.804688 5.359375 -7.167969 4.359375 -7.167969 C 3.347656 -7.167969 2.488281 -6.804688 1.777344 -6.089844 C 1.0625 -5.375 0.714844 -4.519531 0.714844 -3.519531 C 0.714844 -2.503906 1.0625 -1.648438 1.777344 -0.953125 C 2.488281 -0.238281 3.363281 0.109375 4.359375 0.109375 C 5.34375 0.109375 6.214844 -0.238281 6.929688 -0.953125 C 7.644531 -1.648438 8.007812 -2.503906 8.007812 -3.519531 Z M 8.007812 -3.519531" transform="translate(89.945 56.382)"/></g></g></g><g><g><g><path d="M 6.835938 -3.488281 C 6.835938 -2.808594 6.597656 -2.203125 6.121094 -1.710938 C 5.644531 -1.207031 5.058594 -0.953125 4.375 -0.953125 C 3.695312 -0.953125 3.109375 -1.207031 2.632812 -1.710938 C 2.15625 -2.203125 1.917969 -2.792969 1.917969 -3.488281 C 1.917969 -4.171875 2.15625 -4.757812 2.632812 -5.265625 C 3.109375 -5.773438 3.695312 -6.027344 4.375 -6.027344 C 5.058594 -6.027344 5.644531 -5.773438 6.121094 -5.265625 C 6.597656 -4.757812 6.835938 -4.15625 6.835938 -3.488281 Z M 1.886719 0.953125 L 0.746094 0.953125 C 0.871094 1.695312 1.207031 2.347656 1.777344 2.902344 C 2.472656 3.617188 3.332031 3.964844 4.328125 3.964844 C 5.3125 3.964844 6.167969 3.617188 6.882812 2.902344 C 7.582031 2.203125 7.945312 1.347656 7.945312 0.347656 L 7.945312 -6.976562 L 6.835938 -6.976562 L 6.835938 -5.804688 C 6.773438 -5.867188 6.707031 -5.945312 6.644531 -6.027344 C 5.945312 -6.753906 5.136719 -7.136719 4.21875 -7.136719 C 3.234375 -7.136719 2.425781 -6.753906 1.761719 -6.027344 C 1.125 -5.296875 0.808594 -4.457031 0.808594 -3.488281 C 0.808594 -2.503906 1.125 -1.664062 1.761719 -0.953125 C 2.425781 -0.207031 3.234375 0.160156 4.21875 0.160156 C 5.167969 0.160156 5.980469 -0.207031 6.644531 -0.953125 C 6.707031 -1.015625 6.773438 -1.09375 6.835938 -1.15625 L 6.835938 0.347656 C 6.835938 1.046875 6.582031 1.632812 6.089844 2.125 C 5.597656 2.617188 5.011719 2.855469 4.328125 2.855469 C 3.632812 2.855469 3.042969 2.617188 2.554688 2.125 C 2.203125 1.777344 1.980469 1.394531 1.886719 0.953125 Z M 1.886719 0.953125" transform="translate(98.666 56.382)"/></g></g></g><g><g><g><path d="M 6.738281 -3.488281 C 6.738281 -2.808594 6.5 -2.203125 6.027344 -1.710938 C 5.550781 -1.207031 4.964844 -0.953125 4.28125 -0.953125 C 3.585938 -0.953125 2.996094 -1.207031 2.519531 -1.710938 C 2.046875 -2.203125 1.824219 -2.808594 1.824219 -3.488281 C 1.824219 -4.15625 2.046875 -4.757812 2.519531 -5.265625 C 2.996094 -5.773438 3.585938 -6.027344 4.28125 -6.027344 C 4.964844 -6.027344 5.550781 -5.773438 6.027344 -5.265625 C 6.5 -4.757812 6.738281 -4.15625 6.738281 -3.488281 Z M 7.851562 0 L 7.851562 -6.976562 L 6.738281 -6.976562 L 6.738281 -5.773438 C 6.675781 -5.867188 6.597656 -5.945312 6.535156 -6.027344 C 5.867188 -6.753906 5.058594 -7.136719 4.105469 -7.136719 C 3.140625 -7.136719 2.332031 -6.753906 1.664062 -6.027344 C 1.03125 -5.296875 0.714844 -4.457031 0.714844 -3.488281 C 0.714844 -2.503906 1.03125 -1.664062 1.664062 -0.953125 C 2.332031 -0.207031 3.140625 0.160156 4.105469 0.160156 C 5.058594 0.160156 5.867188 -0.207031 6.535156 -0.953125 C 6.597656 -1.015625 6.675781 -1.09375 6.738281 -1.1875 L 6.738281 0 Z M 7.851562 0" transform="translate(107.8 56.382)"/></g></g></g><g><g><g><path d="M 4.171875 -5.472656 L 6.535156 -2.441406 C 6.375 -2.285156 6.199219 -2.109375 6.011719 -1.933594 C 5.3125 -1.269531 4.664062 -0.953125 4.089844 -0.953125 C 3.550781 -0.953125 3.078125 -1.15625 2.695312 -1.585938 C 2.316406 -2 2.125 -2.472656 2.125 -3.011719 C 2.125 -3.457031 2.378906 -3.933594 2.902344 -4.457031 C 3.140625 -4.695312 3.550781 -5.027344 4.171875 -5.472656 Z M 4.074219 -7.230469 C 3.601562 -7.722656 3.378906 -8.183594 3.378906 -8.660156 C 3.378906 -9.117188 3.503906 -9.453125 3.773438 -9.671875 C 4.027344 -9.878906 4.328125 -9.976562 4.648438 -9.960938 C 4.964844 -9.941406 5.265625 -9.832031 5.535156 -9.609375 C 5.789062 -9.386719 5.929688 -9.070312 5.929688 -8.691406 C 5.929688 -8.292969 5.757812 -7.929688 5.421875 -7.597656 C 5.265625 -7.4375 5.105469 -7.3125 4.933594 -7.183594 C 4.757812 -7.058594 4.597656 -6.945312 4.441406 -6.835938 C 4.3125 -6.960938 4.203125 -7.105469 4.074219 -7.230469 Z M 9.4375 -4.203125 L 8.53125 -4.804688 L 7.929688 -4.042969 C 7.722656 -3.789062 7.515625 -3.535156 7.3125 -3.28125 L 5.089844 -6.121094 C 5.28125 -6.28125 5.503906 -6.4375 5.726562 -6.628906 C 6.550781 -7.3125 6.960938 -8.007812 6.960938 -8.707031 C 6.960938 -9.355469 6.738281 -9.894531 6.296875 -10.324219 C 5.867188 -10.734375 5.328125 -10.941406 4.664062 -10.941406 C 3.964844 -10.941406 3.394531 -10.71875 2.980469 -10.277344 C 2.554688 -9.832031 2.347656 -9.277344 2.347656 -8.609375 C 2.347656 -7.945312 2.726562 -7.167969 3.488281 -6.296875 C 3.171875 -6.058594 2.855469 -5.835938 2.570312 -5.613281 C 1.539062 -4.867188 1.03125 -3.964844 1.03125 -2.933594 C 1.03125 -2.03125 1.316406 -1.285156 1.917969 -0.683594 C 2.203125 -0.394531 2.539062 -0.191406 2.917969 -0.03125 C 3.296875 0.125 3.742188 0.191406 4.234375 0.191406 C 4.742188 0.191406 5.296875 0 5.945312 -0.414062 C 6.28125 -0.601562 6.691406 -0.96875 7.230469 -1.507812 L 8.40625 0.03125 L 9.863281 0 L 8.007812 -2.425781 C 8.800781 -3.378906 9.277344 -3.980469 9.4375 -4.203125 Z M 9.4375 -4.203125" transform="translate(121.12 56.382)"/></g></g></g><g><g><g><path d="M 2.300781 0 L 2.300781 -11.894531 L 1.1875 -11.894531 L 1.1875 0 Z M 2.300781 0" transform="translate(136.327 56.382)"/></g></g></g><g><g><g><path d="M 2.316406 -9.386719 C 2.171875 -9.515625 2 -9.59375 1.808594 -9.59375 C 1.617188 -9.59375 1.441406 -9.515625 1.316406 -9.386719 C 1.171875 -9.246094 1.109375 -9.070312 1.109375 -8.878906 C 1.109375 -8.691406 1.171875 -8.515625 1.316406 -8.390625 C 1.441406 -8.246094 1.617188 -8.183594 1.808594 -8.183594 C 2 -8.183594 2.171875 -8.246094 2.316406 -8.390625 C 2.441406 -8.515625 2.519531 -8.691406 2.519531 -8.878906 C 2.519531 -9.070312 2.441406 -9.246094 2.316406 -9.386719 Z M 2.378906 0 L 2.378906 -6.976562 L 1.269531 -6.976562 L 1.269531 0 Z M 2.378906 0" transform="translate(139.815 56.382)"/></g></g></g><g><g><g><path d="M 4.933594 -10.863281 L 4.933594 -11.894531 L 4.140625 -11.894531 C 3.347656 -11.894531 2.792969 -11.6875 2.457031 -11.308594 C 2.125 -10.925781 1.964844 -10.371094 1.964844 -9.671875 L 1.964844 -6.976562 L 0.554688 -6.976562 L 0.554688 -5.945312 L 1.964844 -5.945312 L 1.964844 0 L 3.078125 0 L 3.078125 -5.945312 L 4.933594 -5.945312 L 4.933594 -6.976562 L 3.078125 -6.976562 L 3.078125 -9.992188 C 3.078125 -10.230469 3.125 -10.433594 3.25 -10.609375 C 3.363281 -10.769531 3.601562 -10.863281 3.980469 -10.863281 Z M 4.933594 -10.863281" transform="translate(143.446 56.382)"/></g></g></g><g><g><g><path d="M 8.007812 -3.648438 C 8.007812 -4.597656 7.628906 -5.421875 6.898438 -6.136719 C 6.183594 -6.820312 5.328125 -7.167969 4.359375 -7.167969 C 3.347656 -7.167969 2.488281 -6.804688 1.777344 -6.089844 C 1.0625 -5.375 0.714844 -4.519531 0.714844 -3.519531 C 0.714844 -2.503906 1.0625 -1.648438 1.777344 -0.953125 C 2.109375 -0.617188 2.488281 -0.363281 2.933594 -0.175781 C 3.378906 0.015625 3.902344 0.109375 4.519531 0.109375 C 5.136719 0.109375 5.742188 -0.078125 6.34375 -0.460938 C 6.945312 -0.839844 7.390625 -1.378906 7.691406 -2.046875 L 6.421875 -2.046875 C 6.167969 -1.710938 5.867188 -1.457031 5.503906 -1.269531 C 5.136719 -1.078125 4.757812 -1 4.359375 -1 C 3.757812 -1 3.21875 -1.1875 2.742188 -1.585938 C 2.269531 -1.964844 1.964844 -2.457031 1.871094 -3.0625 L 8.007812 -3.0625 Z M 6.835938 -4.011719 L 1.886719 -4.011719 C 1.949219 -4.296875 2.0625 -4.566406 2.21875 -4.820312 C 2.726562 -5.644531 3.441406 -6.058594 4.359375 -6.058594 C 4.949219 -6.058594 5.472656 -5.867188 5.929688 -5.488281 C 6.40625 -5.089844 6.691406 -4.597656 6.835938 -4.011719 Z M 6.835938 -4.011719" transform="translate(148.854 56.382)"/></g></g></g><g><g><g><path d="M 2.1875 -0.984375 C 1.917969 -1.171875 1.710938 -1.492188 1.601562 -1.949219 L 0.429688 -1.949219 C 0.667969 -0.507812 1.585938 0.207031 3.203125 0.207031 C 3.585938 0.207031 3.933594 0.175781 4.265625 0.078125 C 4.597656 -0.015625 4.882812 -0.144531 5.152344 -0.316406 C 5.691406 -0.683594 5.960938 -1.238281 5.960938 -1.980469 C 5.960938 -2.742188 5.613281 -3.28125 4.882812 -3.632812 C 4.582031 -3.773438 4.25 -3.886719 3.886719 -3.964844 C 3.535156 -4.042969 3.203125 -4.140625 2.902344 -4.234375 C 2.585938 -4.328125 2.332031 -4.457031 2.125 -4.597656 C 1.917969 -4.742188 1.808594 -4.964844 1.808594 -5.28125 C 1.808594 -5.597656 1.933594 -5.835938 2.1875 -5.980469 C 2.441406 -6.136719 2.742188 -6.214844 3.078125 -6.214844 C 3.425781 -6.214844 3.726562 -6.136719 3.964844 -6.011719 C 4.203125 -5.882812 4.394531 -5.628906 4.503906 -5.25 L 5.691406 -5.25 C 5.550781 -5.945312 5.25 -6.4375 4.804688 -6.707031 C 4.34375 -6.992188 3.789062 -7.136719 3.109375 -7.136719 C 2.441406 -7.136719 1.855469 -6.945312 1.363281 -6.597656 C 0.886719 -6.230469 0.632812 -5.710938 0.632812 -5.011719 C 0.632812 -4.679688 0.730469 -4.375 0.902344 -4.125 C 1.09375 -3.855469 1.363281 -3.648438 1.710938 -3.488281 C 2.03125 -3.347656 2.363281 -3.234375 2.710938 -3.140625 C 3.0625 -3.0625 3.394531 -2.964844 3.710938 -2.871094 C 4.425781 -2.632812 4.789062 -2.285156 4.789062 -1.839844 C 4.789062 -1.078125 4.28125 -0.714844 3.265625 -0.714844 C 2.839844 -0.714844 2.472656 -0.792969 2.1875 -0.984375 Z M 2.1875 -0.984375" transform="translate(157.496 56.382)"/></g></g></g><g><g><g><path d="M 0.316406 -5.945312 L 2.0625 -5.945312 L 2.0625 0 L 3.171875 0 L 3.171875 -5.945312 L 4.898438 -5.945312 L 4.898438 -6.976562 L 3.171875 -6.976562 L 3.171875 -9.691406 L 2.0625 -9.691406 L 2.0625 -6.976562 L 0.316406 -6.976562 Z M 0.316406 -5.945312" transform="translate(163.87 56.382)"/></g></g></g></svg>