<svg xmlns="http://www.w3.org/2000/svg" xmlns:xlink="http://www.w3.org/1999/xlink" width="40" zoomAndPan="magnify" viewBox="0 0 30 30.750001" height="41" preserveAspectRatio="xMidYMid meet" version="1.0"><path fill="rgb(22.749329%, 13.328552%, 18.818665%)" d="M 16.59375 6.707031 C 16.578125 6.878906 16.535156 7.042969 16.457031 7.199219 C 16.382812 7.355469 16.300781 7.5 16.226562 7.644531 C 16.070312 7.933594 15.921875 8.226562 15.777344 8.515625 C 15.632812 8.808594 15.496094 9.105469 15.359375 9.402344 C 15.222656 9.703125 15.09375 10.007812 14.949219 10.3125 C 14.960938 9.972656 15.011719 9.640625 15.105469 9.3125 C 15.292969 8.652344 15.589844 8.050781 16 7.503906 C 16.207031 7.226562 16.4375 7.007812 16.59375 6.707031 Z M 16.59375 6.707031 " fill-opacity="1" fill-rule="nonzero"/><path fill="rgb(22.749329%, 13.328552%, 18.818665%)" d="M 16.847656 6.296875 C 17.125 6.695312 17.480469 7.003906 17.914062 7.226562 C 18.125 7.332031 18.347656 7.417969 18.574219 7.507812 C 18.808594 7.601562 19.035156 7.710938 19.253906 7.835938 C 19.695312 8.085938 20.089844 8.394531 20.4375 8.761719 C 20.78125 9.128906 21.058594 9.539062 21.265625 9.996094 C 20.953125 9.625 20.617188 9.277344 20.253906 8.957031 C 19.890625 8.644531 19.503906 8.367188 19.089844 8.128906 C 19.039062 8.097656 18.984375 8.070312 18.933594 8.042969 L 18.855469 8 L 18.773438 7.960938 C 18.667969 7.90625 18.5625 7.855469 18.449219 7.804688 C 18.222656 7.707031 18 7.589844 17.785156 7.460938 C 17.339844 7.179688 17.027344 6.792969 16.847656 6.296875 Z M 16.847656 6.296875 " fill-opacity="1" fill-rule="nonzero"/><path fill="rgb(22.749329%, 13.328552%, 18.818665%)" d="M 17.910156 4.6875 C 18.375 5.175781 18.839844 5.65625 19.324219 6.109375 C 19.566406 6.335938 19.8125 6.558594 20.0625 6.777344 C 20.191406 6.886719 20.316406 6.996094 20.445312 7.101562 L 20.828125 7.421875 C 21.34375 7.851562 21.863281 8.304688 22.273438 8.859375 C 22.375 8.996094 22.472656 9.140625 22.554688 9.289062 C 22.640625 9.4375 22.71875 9.59375 22.78125 9.753906 C 22.914062 10.070312 22.984375 10.402344 22.992188 10.746094 C 22.839844 10.09375 22.492188 9.519531 22.0625 9.027344 C 21.636719 8.535156 21.125 8.113281 20.609375 7.683594 C 20.355469 7.46875 20.097656 7.253906 19.847656 7.019531 C 19.601562 6.789062 19.363281 6.550781 19.132812 6.300781 C 18.675781 5.800781 18.265625 5.261719 17.910156 4.6875 Z M 17.910156 4.6875 " fill-opacity="1" fill-rule="nonzero"/><path fill="rgb(22.749329%, 13.328552%, 18.818665%)" d="M 22.394531 10.949219 C 22.382812 11.34375 22.484375 11.699219 22.585938 12.066406 C 22.640625 12.25 22.695312 12.4375 22.738281 12.628906 C 22.785156 12.828125 22.808594 13.03125 22.808594 13.234375 C 22.808594 13.335938 22.800781 13.4375 22.789062 13.539062 C 22.777344 13.636719 22.761719 13.734375 22.75 13.828125 C 22.714844 14.007812 22.695312 14.191406 22.691406 14.375 C 22.691406 14.550781 22.730469 14.71875 22.808594 14.878906 C 22.847656 14.960938 22.898438 15.035156 22.960938 15.097656 C 23.03125 15.164062 23.109375 15.214844 23.199219 15.246094 C 23.175781 15.246094 23.148438 15.246094 23.125 15.246094 C 23.101562 15.246094 23.074219 15.238281 23.050781 15.234375 C 23.027344 15.226562 23 15.21875 22.976562 15.210938 C 22.953125 15.199219 22.929688 15.1875 22.90625 15.175781 C 22.816406 15.125 22.734375 15.058594 22.667969 14.972656 C 22.535156 14.804688 22.453125 14.609375 22.425781 14.394531 C 22.402344 14.195312 22.402344 13.992188 22.425781 13.789062 C 22.4375 13.691406 22.445312 13.597656 22.453125 13.507812 C 22.460938 13.414062 22.46875 13.324219 22.46875 13.234375 C 22.46875 12.878906 22.382812 12.511719 22.324219 12.125 C 22.292969 11.929688 22.277344 11.734375 22.28125 11.535156 C 22.28125 11.332031 22.320312 11.136719 22.394531 10.949219 Z M 22.394531 10.949219 " fill-opacity="1" fill-rule="nonzero"/><path fill="rgb(22.749329%, 13.328552%, 18.818665%)" d="M 23.335938 11.449219 C 23.425781 11.542969 23.496094 11.648438 23.546875 11.761719 C 23.601562 11.878906 23.644531 12 23.683594 12.121094 C 23.757812 12.359375 23.832031 12.601562 23.902344 12.84375 C 24.046875 13.324219 24.1875 13.808594 24.355469 14.28125 C 24.515625 14.753906 24.714844 15.210938 24.953125 15.652344 L 25.042969 15.8125 C 25.074219 15.867188 25.109375 15.917969 25.140625 15.96875 C 25.203125 16.074219 25.273438 16.179688 25.34375 16.28125 C 25.488281 16.480469 25.640625 16.679688 25.792969 16.878906 C 25.945312 17.082031 26.101562 17.285156 26.246094 17.496094 C 26.316406 17.601562 26.382812 17.714844 26.449219 17.824219 C 26.480469 17.878906 26.511719 17.9375 26.542969 17.992188 C 26.574219 18.050781 26.601562 18.105469 26.632812 18.164062 L 26.71875 18.335938 L 26.796875 18.511719 C 26.824219 18.570312 26.851562 18.628906 26.875 18.683594 C 26.902344 18.742188 26.925781 18.804688 26.949219 18.863281 C 27.046875 19.097656 27.136719 19.335938 27.222656 19.574219 C 27.398438 20.050781 27.558594 20.523438 27.746094 20.984375 C 27.792969 21.101562 27.84375 21.214844 27.890625 21.328125 C 27.917969 21.382812 27.945312 21.4375 27.96875 21.496094 C 27.996094 21.550781 28.023438 21.605469 28.050781 21.660156 C 28.160156 21.882812 28.28125 22.105469 28.394531 22.335938 C 28.511719 22.570312 28.605469 22.816406 28.671875 23.070312 C 28.742188 23.335938 28.761719 23.605469 28.734375 23.878906 C 28.667969 24.4375 28.4375 24.914062 28.042969 25.308594 C 27.847656 25.503906 27.628906 25.65625 27.378906 25.773438 C 27.132812 25.878906 26.875 25.945312 26.609375 25.972656 C 26.351562 26.007812 26.097656 26.015625 25.847656 26.03125 C 25.59375 26.042969 25.339844 26.054688 25.089844 26.066406 C 23.074219 26.148438 21.054688 26.152344 19.042969 26.050781 C 21.058594 26.007812 23.070312 25.933594 25.074219 25.800781 C 25.324219 25.78125 25.578125 25.765625 25.828125 25.746094 C 26.078125 25.726562 26.328125 25.710938 26.570312 25.679688 C 26.804688 25.648438 27.03125 25.585938 27.25 25.488281 C 27.460938 25.386719 27.648438 25.25 27.8125 25.082031 C 28.152344 24.734375 28.347656 24.320312 28.402344 23.839844 L 28.410156 23.753906 C 28.414062 23.726562 28.410156 23.695312 28.410156 23.667969 L 28.410156 23.578125 C 28.410156 23.550781 28.40625 23.519531 28.402344 23.492188 C 28.394531 23.378906 28.375 23.261719 28.34375 23.152344 C 28.277344 22.917969 28.191406 22.695312 28.082031 22.476562 C 27.976562 22.253906 27.859375 22.035156 27.746094 21.804688 C 27.71875 21.746094 27.691406 21.691406 27.664062 21.632812 C 27.636719 21.574219 27.609375 21.511719 27.582031 21.457031 C 27.53125 21.335938 27.480469 21.222656 27.433594 21.101562 C 27.246094 20.625 27.082031 20.148438 26.917969 19.675781 C 26.835938 19.4375 26.75 19.207031 26.660156 18.972656 C 26.636719 18.914062 26.613281 18.859375 26.589844 18.800781 C 26.566406 18.746094 26.542969 18.6875 26.515625 18.628906 L 26.441406 18.460938 L 26.363281 18.292969 C 26.335938 18.238281 26.308594 18.183594 26.277344 18.128906 C 26.25 18.074219 26.222656 18.019531 26.191406 17.964844 C 26.132812 17.859375 26.070312 17.753906 26.003906 17.648438 C 25.871094 17.441406 25.726562 17.238281 25.578125 17.035156 C 25.429688 16.832031 25.277344 16.628906 25.136719 16.414062 C 25.066406 16.308594 24.996094 16.199219 24.933594 16.089844 C 24.902344 16.03125 24.871094 15.976562 24.839844 15.921875 L 24.75 15.75 C 24.527344 15.292969 24.339844 14.820312 24.195312 14.332031 C 24.121094 14.089844 24.054688 13.84375 23.992188 13.597656 C 23.929688 13.355469 23.871094 13.109375 23.8125 12.867188 C 23.753906 12.621094 23.695312 12.378906 23.632812 12.132812 C 23.605469 12.011719 23.570312 11.894531 23.523438 11.777344 C 23.480469 11.65625 23.417969 11.546875 23.335938 11.449219 Z M 23.335938 11.449219 " fill-opacity="1" fill-rule="nonzero"/><path fill="rgb(22.749329%, 13.328552%, 18.818665%)" d="M 23.859375 16.34375 C 23.957031 16.453125 24.046875 16.566406 24.128906 16.6875 C 24.210938 16.808594 24.285156 16.9375 24.351562 17.066406 C 24.414062 17.199219 24.46875 17.335938 24.527344 17.472656 C 24.582031 17.609375 24.625 17.75 24.664062 17.890625 C 24.832031 18.453125 24.921875 19.023438 25.035156 19.582031 C 25.144531 20.136719 25.28125 20.683594 25.527344 21.179688 C 25.585938 21.304688 25.65625 21.425781 25.730469 21.542969 C 25.804688 21.660156 25.886719 21.773438 25.976562 21.882812 C 26.066406 21.988281 26.164062 22.089844 26.269531 22.183594 C 26.378906 22.277344 26.492188 22.363281 26.613281 22.441406 C 26.472656 22.398438 26.339844 22.335938 26.214844 22.261719 C 26.085938 22.1875 25.96875 22.097656 25.855469 22 C 25.746094 21.898438 25.644531 21.792969 25.550781 21.675781 C 25.457031 21.558594 25.371094 21.4375 25.292969 21.3125 C 25.214844 21.179688 25.144531 21.046875 25.082031 20.910156 C 25.023438 20.773438 24.96875 20.636719 24.921875 20.492188 C 24.871094 20.351562 24.832031 20.210938 24.796875 20.070312 C 24.757812 19.925781 24.726562 19.785156 24.699219 19.640625 C 24.582031 19.070312 24.519531 18.503906 24.40625 17.949219 C 24.289062 17.394531 24.140625 16.855469 23.859375 16.34375 Z M 23.859375 16.34375 " fill-opacity="1" fill-rule="nonzero"/><path fill="rgb(22.749329%, 13.328552%, 18.818665%)" d="M 15.761719 20.441406 C 15.839844 20.628906 15.964844 20.78125 16.136719 20.898438 C 16.300781 21.011719 16.476562 21.089844 16.671875 21.136719 C 16.867188 21.183594 17.0625 21.214844 17.261719 21.234375 C 17.460938 21.253906 17.667969 21.277344 17.871094 21.308594 C 18.28125 21.363281 18.683594 21.445312 19.082031 21.554688 C 19.285156 21.609375 19.484375 21.679688 19.675781 21.75 C 19.867188 21.820312 20.058594 21.898438 20.246094 21.96875 C 20.988281 22.253906 21.777344 22.390625 22.582031 22.445312 C 23.382812 22.5 24.199219 22.488281 25.015625 22.5 C 24.207031 22.640625 23.390625 22.710938 22.570312 22.714844 C 22.152344 22.710938 21.742188 22.675781 21.328125 22.609375 C 21.277344 22.605469 21.226562 22.59375 21.175781 22.582031 L 21.023438 22.550781 C 20.921875 22.53125 20.820312 22.503906 20.71875 22.480469 C 20.617188 22.457031 20.515625 22.421875 20.417969 22.390625 C 20.316406 22.359375 20.21875 22.324219 20.121094 22.285156 C 19.734375 22.140625 19.371094 21.980469 18.992188 21.863281 C 18.605469 21.746094 18.21875 21.648438 17.824219 21.570312 C 17.625 21.527344 17.425781 21.492188 17.226562 21.449219 C 17.023438 21.414062 16.820312 21.363281 16.621094 21.292969 C 16.421875 21.222656 16.238281 21.113281 16.078125 20.972656 C 16 20.898438 15.933594 20.820312 15.878906 20.730469 C 15.820312 20.640625 15.78125 20.542969 15.761719 20.441406 Z M 15.761719 20.441406 " fill-opacity="1" fill-rule="nonzero"/><path fill="rgb(22.749329%, 13.328552%, 18.818665%)" d="M 15.289062 21.179688 C 15.222656 21.328125 15.128906 21.449219 15 21.546875 C 14.875 21.648438 14.734375 21.726562 14.585938 21.78125 C 14.285156 21.894531 13.984375 21.9375 13.707031 22 C 13.429688 22.0625 13.164062 22.15625 12.910156 22.28125 C 12.644531 22.410156 12.394531 22.558594 12.15625 22.730469 C 12.308594 22.453125 12.515625 22.226562 12.773438 22.046875 C 13.035156 21.863281 13.324219 21.738281 13.636719 21.667969 C 13.941406 21.601562 14.234375 21.582031 14.511719 21.527344 C 14.785156 21.46875 15.054688 21.378906 15.289062 21.179688 Z M 15.289062 21.179688 " fill-opacity="1" fill-rule="nonzero"/><path fill="rgb(22.749329%, 13.328552%, 18.818665%)" d="M 11.644531 25.035156 C 11.761719 25.085938 11.886719 25.117188 12.011719 25.125 C 12.136719 25.132812 12.261719 25.125 12.382812 25.101562 C 12.628906 25.046875 12.863281 24.96875 13.089844 24.859375 C 13.324219 24.742188 13.570312 24.640625 13.820312 24.558594 C 13.953125 24.515625 14.089844 24.488281 14.230469 24.472656 C 14.300781 24.464844 14.375 24.464844 14.445312 24.464844 C 14.515625 24.46875 14.585938 24.476562 14.65625 24.488281 C 14.789062 24.511719 14.921875 24.542969 15.050781 24.582031 L 15.425781 24.691406 C 15.671875 24.765625 15.917969 24.84375 16.164062 24.921875 C 16.410156 25.003906 16.65625 25.089844 16.898438 25.179688 C 17.015625 25.222656 17.140625 25.269531 17.261719 25.316406 C 17.277344 25.324219 17.292969 25.328125 17.3125 25.335938 C 17.328125 25.347656 17.34375 25.355469 17.359375 25.363281 C 17.386719 25.386719 17.414062 25.410156 17.4375 25.4375 C 17.460938 25.464844 17.476562 25.496094 17.484375 25.53125 C 17.488281 25.550781 17.484375 25.566406 17.476562 25.585938 C 17.472656 25.59375 17.46875 25.597656 17.460938 25.605469 C 17.453125 25.609375 17.449219 25.617188 17.441406 25.621094 C 17.464844 25.597656 17.472656 25.570312 17.457031 25.539062 C 17.441406 25.511719 17.421875 25.488281 17.398438 25.472656 C 17.375 25.453125 17.347656 25.441406 17.320312 25.429688 C 17.308594 25.425781 17.292969 25.417969 17.28125 25.414062 C 17.265625 25.414062 17.253906 25.410156 17.234375 25.40625 C 17.105469 25.386719 16.980469 25.363281 16.851562 25.339844 C 16.597656 25.292969 16.34375 25.238281 16.089844 25.183594 C 15.839844 25.125 15.585938 25.0625 15.335938 25.003906 L 14.960938 24.90625 C 14.84375 24.875 14.726562 24.847656 14.605469 24.824219 C 14.546875 24.816406 14.488281 24.808594 14.429688 24.804688 C 14.375 24.804688 14.316406 24.804688 14.257812 24.804688 C 14.140625 24.816406 14.023438 24.835938 13.910156 24.867188 C 13.675781 24.925781 13.4375 25.019531 13.1875 25.105469 C 12.933594 25.199219 12.671875 25.25 12.402344 25.261719 C 12.265625 25.265625 12.128906 25.25 12 25.214844 C 11.933594 25.195312 11.871094 25.171875 11.8125 25.140625 C 11.78125 25.125 11.75 25.105469 11.726562 25.089844 C 11.699219 25.074219 11.671875 25.054688 11.644531 25.035156 Z M 11.644531 25.035156 " fill-opacity="1" fill-rule="nonzero"/><path fill="rgb(22.749329%, 13.328552%, 18.818665%)" d="M 17.023438 26.140625 C 16.59375 26.269531 16.160156 26.347656 15.710938 26.371094 C 15.269531 26.394531 14.824219 26.394531 14.378906 26.371094 C 13.9375 26.351562 13.5 26.320312 13.0625 26.308594 C 12.628906 26.296875 12.195312 26.308594 11.765625 26.351562 C 11.546875 26.371094 11.332031 26.394531 11.113281 26.421875 C 10.894531 26.449219 10.675781 26.472656 10.457031 26.496094 C 10.015625 26.539062 9.574219 26.574219 9.128906 26.589844 C 8.242188 26.625 7.359375 26.59375 6.476562 26.496094 C 7.359375 26.453125 8.238281 26.40625 9.109375 26.324219 C 9.546875 26.28125 9.984375 26.234375 10.417969 26.175781 L 11.074219 26.085938 C 11.292969 26.058594 11.515625 26.03125 11.734375 26.011719 C 11.957031 25.992188 12.183594 25.976562 12.40625 25.972656 C 12.519531 25.972656 12.632812 25.972656 12.746094 25.972656 L 12.914062 25.976562 C 12.96875 25.976562 13.023438 25.984375 13.078125 25.988281 C 13.523438 26.011719 13.964844 26.058594 14.402344 26.101562 C 15.273438 26.191406 16.144531 26.273438 17.023438 26.140625 Z M 17.023438 26.140625 " fill-opacity="1" fill-rule="nonzero"/><path fill="rgb(22.749329%, 13.328552%, 18.818665%)" d="M 10.207031 20.714844 C 9.664062 21.359375 9.082031 21.96875 8.480469 22.5625 C 7.882812 23.160156 7.261719 23.71875 6.613281 24.265625 C 6.449219 24.40625 6.277344 24.535156 6.097656 24.652344 C 5.910156 24.777344 5.714844 24.878906 5.511719 24.960938 C 5.308594 25.039062 5.101562 25.101562 4.890625 25.15625 C 4.683594 25.207031 4.480469 25.253906 4.277344 25.304688 C 3.867188 25.398438 3.457031 25.488281 3.046875 25.578125 C 2.84375 25.613281 2.648438 25.671875 2.460938 25.757812 C 2.367188 25.800781 2.285156 25.855469 2.210938 25.929688 C 2.136719 26.003906 2.085938 26.089844 2.058594 26.191406 C 2.070312 26.082031 2.105469 25.984375 2.171875 25.894531 C 2.238281 25.808594 2.320312 25.734375 2.410156 25.675781 C 2.597656 25.5625 2.792969 25.476562 3.003906 25.417969 C 3.402344 25.289062 3.804688 25.164062 4.207031 25.042969 C 4.609375 24.921875 5.015625 24.820312 5.386719 24.660156 C 5.753906 24.503906 6.078125 24.269531 6.394531 24.003906 C 7.03125 23.46875 7.667969 22.914062 8.300781 22.367188 C 8.933594 21.816406 9.5625 21.257812 10.207031 20.714844 Z M 10.207031 20.714844 " fill-opacity="1" fill-rule="nonzero"/><path fill="rgb(22.749329%, 13.328552%, 18.818665%)" d="M 10.597656 22.183594 C 10.144531 22.703125 9.652344 23.183594 9.125 23.625 C 8.601562 24.066406 8.054688 24.484375 7.5 24.882812 C 7.222656 25.082031 6.945312 25.277344 6.660156 25.472656 C 6.375 25.671875 6.078125 25.847656 5.769531 26.007812 C 5.453125 26.164062 5.121094 26.277344 4.773438 26.339844 C 4.425781 26.40625 4.078125 26.394531 3.738281 26.308594 C 4.078125 26.324219 4.410156 26.28125 4.734375 26.179688 C 5.050781 26.078125 5.355469 25.941406 5.640625 25.769531 C 5.929688 25.601562 6.203125 25.410156 6.476562 25.207031 L 6.886719 24.90625 L 7.304688 24.609375 C 7.855469 24.210938 8.414062 23.816406 8.960938 23.417969 C 9.511719 23.015625 10.054688 22.605469 10.597656 22.183594 Z M 10.597656 22.183594 " fill-opacity="1" fill-rule="nonzero"/><path fill="rgb(22.749329%, 13.328552%, 18.818665%)" d="M 15.714844 13.367188 C 15.542969 13.371094 15.382812 13.410156 15.226562 13.484375 C 15.078125 13.550781 14.941406 13.644531 14.820312 13.753906 C 14.574219 13.972656 14.394531 14.257812 14.222656 14.546875 L 13.1875 16.308594 C 12.84375 16.898438 12.496094 17.484375 12.144531 18.070312 C 11.792969 18.65625 11.441406 19.246094 11.070312 19.820312 C 11.316406 19.179688 11.605469 18.558594 11.910156 17.941406 C 12.214844 17.328125 12.546875 16.726562 12.894531 16.136719 C 13.242188 15.546875 13.609375 14.96875 14 14.398438 C 14.195312 14.117188 14.421875 13.832031 14.714844 13.625 C 14.859375 13.523438 15.019531 13.445312 15.191406 13.394531 C 15.277344 13.371094 15.363281 13.355469 15.453125 13.351562 C 15.542969 13.34375 15.628906 13.351562 15.714844 13.367188 Z M 15.714844 13.367188 " fill-opacity="1" fill-rule="nonzero"/><path fill="rgb(22.749329%, 13.328552%, 18.818665%)" d="M 16.25 13.847656 C 16.34375 14.035156 16.402344 14.230469 16.433594 14.4375 C 16.464844 14.644531 16.46875 14.851562 16.449219 15.0625 C 16.425781 15.273438 16.386719 15.476562 16.324219 15.679688 C 16.261719 15.882812 16.1875 16.078125 16.09375 16.265625 C 15.902344 16.636719 15.683594 16.988281 15.4375 17.324219 C 15.316406 17.492188 15.191406 17.652344 15.070312 17.816406 C 14.949219 17.984375 14.820312 18.140625 14.691406 18.300781 C 14.183594 18.941406 13.640625 19.558594 13.070312 20.148438 C 12.5 20.738281 11.898438 21.292969 11.265625 21.8125 C 11.800781 21.195312 12.34375 20.589844 12.875 19.964844 C 13.402344 19.34375 13.921875 18.722656 14.429688 18.089844 C 14.683594 17.773438 14.933594 17.453125 15.179688 17.132812 C 15.425781 16.816406 15.652344 16.484375 15.855469 16.140625 C 16.058594 15.796875 16.203125 15.429688 16.285156 15.039062 C 16.324219 14.84375 16.34375 14.644531 16.34375 14.441406 C 16.339844 14.34375 16.332031 14.242188 16.316406 14.144531 C 16.300781 14.042969 16.28125 13.945312 16.25 13.847656 Z M 16.25 13.847656 " fill-opacity="1" fill-rule="nonzero"/><path fill="rgb(22.749329%, 13.328552%, 18.818665%)" d="M 7.816406 21.992188 C 7.148438 22.097656 6.476562 22.167969 5.8125 22.234375 C 5.144531 22.296875 4.488281 22.382812 3.886719 22.613281 C 3.734375 22.667969 3.589844 22.734375 3.449219 22.8125 C 3.308594 22.886719 3.171875 22.96875 3.042969 23.066406 C 2.785156 23.253906 2.574219 23.484375 2.40625 23.753906 C 2.328125 23.890625 2.265625 24.03125 2.230469 24.183594 C 2.1875 24.335938 2.183594 24.488281 2.210938 24.644531 C 2.238281 24.800781 2.300781 24.945312 2.398438 25.074219 C 2.5 25.207031 2.628906 25.304688 2.789062 25.359375 C 2.703125 25.351562 2.621094 25.324219 2.542969 25.289062 C 2.464844 25.246094 2.390625 25.199219 2.328125 25.136719 C 2.195312 25.011719 2.101562 24.859375 2.046875 24.683594 C 1.996094 24.507812 1.984375 24.328125 2.007812 24.144531 C 2.035156 23.964844 2.089844 23.792969 2.167969 23.628906 C 2.25 23.46875 2.347656 23.320312 2.464844 23.179688 C 2.578125 23.042969 2.707031 22.921875 2.847656 22.808594 C 2.984375 22.699219 3.132812 22.601562 3.285156 22.515625 C 3.441406 22.429688 3.597656 22.355469 3.761719 22.292969 C 4.089844 22.171875 4.429688 22.089844 4.773438 22.042969 C 5.113281 21.996094 5.453125 21.972656 5.792969 21.964844 C 6.46875 21.953125 7.140625 21.957031 7.816406 21.992188 Z M 7.816406 21.992188 " fill-opacity="1" fill-rule="nonzero"/><path fill="rgb(22.749329%, 13.328552%, 18.818665%)" d="M 16.628906 9.808594 C 16.613281 10.140625 16.488281 10.421875 16.253906 10.652344 C 16.140625 10.765625 16.015625 10.863281 15.878906 10.941406 C 15.746094 11.023438 15.613281 11.089844 15.480469 11.160156 C 15.210938 11.292969 14.929688 11.402344 14.644531 11.492188 C 14.355469 11.582031 14.058594 11.636719 13.753906 11.660156 C 14.019531 11.503906 14.28125 11.375 14.542969 11.242188 L 15.328125 10.855469 L 15.71875 10.660156 C 15.84375 10.601562 15.964844 10.53125 16.078125 10.453125 C 16.308594 10.28125 16.492188 10.066406 16.628906 9.808594 Z M 16.628906 9.808594 " fill-opacity="1" fill-rule="nonzero"/><path fill="rgb(22.749329%, 13.328552%, 18.818665%)" d="M 12.34375 12.128906 C 12.089844 12.34375 11.828125 12.546875 11.582031 12.761719 C 11.335938 12.972656 11.113281 13.207031 10.914062 13.464844 C 10.722656 13.714844 10.574219 13.988281 10.476562 14.289062 C 10.429688 14.433594 10.402344 14.582031 10.390625 14.734375 C 10.382812 14.890625 10.386719 15.042969 10.410156 15.195312 C 10.429688 15.347656 10.464844 15.503906 10.507812 15.652344 C 10.550781 15.808594 10.605469 15.957031 10.660156 16.109375 C 10.71875 16.265625 10.78125 16.417969 10.835938 16.570312 C 10.894531 16.726562 10.957031 16.882812 11.007812 17.042969 C 11.117188 17.367188 11.183594 17.703125 11.203125 18.042969 C 11.207031 18.214844 11.191406 18.386719 11.15625 18.554688 C 11.144531 18.59375 11.136719 18.636719 11.125 18.675781 L 11.105469 18.734375 C 11.097656 18.757812 11.09375 18.777344 11.082031 18.796875 C 11.066406 18.835938 11.050781 18.875 11.03125 18.910156 C 11.011719 18.949219 10.992188 18.984375 10.972656 19.019531 C 11.074219 18.707031 11.09375 18.382812 11.035156 18.058594 C 11.011719 17.898438 10.972656 17.742188 10.921875 17.589844 C 10.875 17.4375 10.820312 17.285156 10.757812 17.136719 C 10.632812 16.835938 10.488281 16.539062 10.359375 16.226562 C 10.296875 16.070312 10.238281 15.910156 10.1875 15.75 C 10.136719 15.585938 10.097656 15.414062 10.070312 15.242188 C 10.046875 15.066406 10.042969 14.886719 10.058594 14.710938 C 10.074219 14.53125 10.113281 14.355469 10.171875 14.1875 C 10.292969 13.855469 10.472656 13.558594 10.707031 13.292969 C 10.9375 13.039062 11.195312 12.820312 11.480469 12.632812 C 11.761719 12.445312 12.046875 12.277344 12.34375 12.128906 Z M 12.34375 12.128906 " fill-opacity="1" fill-rule="nonzero"/><path fill="rgb(22.749329%, 13.328552%, 18.818665%)" d="M 15.417969 17.734375 C 15.457031 17.925781 15.480469 18.105469 15.5 18.285156 L 15.558594 18.808594 L 15.617188 19.335938 C 15.636719 19.511719 15.65625 19.691406 15.660156 19.886719 C 15.527344 19.746094 15.429688 19.582031 15.359375 19.398438 C 15.21875 19.039062 15.175781 18.664062 15.238281 18.277344 C 15.265625 18.085938 15.324219 17.90625 15.417969 17.734375 Z M 15.417969 17.734375 " fill-opacity="1" fill-rule="nonzero"/><path fill="rgb(22.749329%, 13.328552%, 18.818665%)" d="M 18.589844 9.023438 C 18.65625 9.003906 18.722656 9.003906 18.792969 9.019531 C 18.859375 9.035156 18.925781 9.058594 18.984375 9.09375 C 19.101562 9.167969 19.203125 9.261719 19.289062 9.375 C 19.375 9.480469 19.449219 9.59375 19.527344 9.695312 C 19.601562 9.796875 19.695312 9.878906 19.804688 9.941406 C 19.90625 9.996094 20.03125 10.015625 20.167969 10.050781 C 20.308594 10.085938 20.441406 10.144531 20.566406 10.21875 C 20.816406 10.378906 21.015625 10.585938 21.160156 10.84375 C 21.234375 10.96875 21.292969 11.097656 21.335938 11.234375 C 21.378906 11.371094 21.410156 11.511719 21.429688 11.652344 C 21.460938 11.933594 21.460938 12.214844 21.425781 12.496094 C 21.359375 13.050781 21.171875 13.566406 21.101562 14.074219 C 21.082031 14.199219 21.074219 14.324219 21.074219 14.449219 C 21.074219 14.574219 21.082031 14.699219 21.105469 14.824219 C 21.15625 15.078125 21.222656 15.332031 21.304688 15.578125 C 21.390625 15.839844 21.457031 16.109375 21.5 16.382812 C 21.515625 16.527344 21.519531 16.671875 21.511719 16.816406 C 21.5 16.957031 21.472656 17.097656 21.429688 17.234375 C 21.351562 17.507812 21.242188 17.753906 21.144531 18 C 21.097656 18.121094 21.054688 18.246094 21.019531 18.371094 C 20.984375 18.496094 20.960938 18.625 20.949219 18.753906 C 20.894531 19.296875 21 19.804688 21.269531 20.28125 C 20.929688 19.824219 20.765625 19.3125 20.78125 18.746094 C 20.785156 18.605469 20.800781 18.464844 20.828125 18.328125 C 20.855469 18.191406 20.890625 18.058594 20.933594 17.925781 C 21.015625 17.667969 21.113281 17.417969 21.171875 17.167969 C 21.203125 17.046875 21.21875 16.921875 21.226562 16.796875 C 21.230469 16.671875 21.222656 16.550781 21.203125 16.425781 C 21.152344 16.171875 21.082031 15.917969 20.996094 15.675781 C 20.953125 15.546875 20.910156 15.417969 20.871094 15.285156 C 20.832031 15.152344 20.796875 15.015625 20.773438 14.878906 C 20.746094 14.734375 20.734375 14.59375 20.734375 14.449219 C 20.734375 14.304688 20.746094 14.164062 20.765625 14.023438 C 20.847656 13.464844 21.035156 12.960938 21.105469 12.449219 C 21.144531 12.195312 21.15625 11.941406 21.132812 11.683594 C 21.121094 11.558594 21.097656 11.4375 21.0625 11.3125 C 21.03125 11.195312 20.984375 11.078125 20.929688 10.964844 C 20.816406 10.742188 20.65625 10.554688 20.453125 10.402344 C 20.351562 10.332031 20.238281 10.277344 20.121094 10.238281 C 20.003906 10.195312 19.855469 10.167969 19.726562 10.082031 C 19.605469 10 19.507812 9.898438 19.429688 9.773438 C 19.351562 9.65625 19.289062 9.539062 19.21875 9.425781 C 19.152344 9.3125 19.066406 9.21875 18.960938 9.136719 C 18.851562 9.046875 18.730469 9.007812 18.589844 9.023438 Z M 18.589844 9.023438 " fill-opacity="1" fill-rule="nonzero"/><path fill="rgb(22.749329%, 13.328552%, 18.818665%)" d="M 16.785156 13.210938 C 16.875 13.523438 16.949219 13.839844 17.023438 14.152344 L 17.125 14.625 C 17.164062 14.785156 17.191406 14.949219 17.210938 15.113281 C 17.234375 15.285156 17.230469 15.460938 17.195312 15.632812 C 17.160156 15.804688 17.097656 15.96875 17.019531 16.125 C 16.945312 16.273438 16.863281 16.414062 16.800781 16.550781 C 16.734375 16.6875 16.679688 16.828125 16.636719 16.976562 C 16.59375 17.117188 16.566406 17.261719 16.558594 17.410156 C 16.550781 17.554688 16.5625 17.699219 16.59375 17.84375 C 16.625 17.992188 16.675781 18.140625 16.71875 18.296875 C 16.742188 18.375 16.761719 18.457031 16.78125 18.535156 C 16.800781 18.621094 16.816406 18.703125 16.828125 18.789062 C 16.863281 19.148438 16.765625 19.460938 16.789062 19.761719 C 16.800781 19.914062 16.847656 20.050781 16.941406 20.171875 C 16.984375 20.234375 17.042969 20.285156 17.109375 20.324219 C 17.179688 20.367188 17.253906 20.382812 17.332031 20.378906 C 17.25 20.402344 17.167969 20.398438 17.085938 20.371094 C 17.003906 20.34375 16.933594 20.296875 16.871094 20.238281 C 16.742188 20.113281 16.660156 19.960938 16.625 19.785156 C 16.597656 19.621094 16.585938 19.453125 16.589844 19.285156 C 16.59375 19.132812 16.582031 18.980469 16.558594 18.828125 C 16.527344 18.675781 16.484375 18.53125 16.433594 18.386719 C 16.378906 18.238281 16.324219 18.082031 16.28125 17.914062 C 16.234375 17.742188 16.214844 17.570312 16.21875 17.390625 C 16.230469 17.214844 16.257812 17.042969 16.308594 16.875 C 16.359375 16.710938 16.421875 16.554688 16.496094 16.398438 C 16.574219 16.25 16.65625 16.109375 16.730469 15.972656 C 16.804688 15.84375 16.859375 15.707031 16.902344 15.5625 C 16.9375 15.421875 16.949219 15.273438 16.941406 15.125 C 16.9375 14.972656 16.917969 14.816406 16.902344 14.65625 L 16.855469 14.175781 C 16.828125 13.855469 16.800781 13.535156 16.785156 13.210938 Z M 16.785156 13.210938 " fill-opacity="1" fill-rule="nonzero"/><path fill="rgb(22.749329%, 13.328552%, 18.818665%)" d="M 19.960938 13.878906 C 19.894531 14.140625 19.820312 14.398438 19.78125 14.660156 C 19.734375 14.910156 19.726562 15.164062 19.761719 15.417969 C 19.800781 15.660156 19.902344 15.894531 20 16.144531 C 20.050781 16.269531 20.101562 16.398438 20.140625 16.539062 C 20.179688 16.679688 20.203125 16.824219 20.207031 16.972656 C 20.207031 17.121094 20.191406 17.265625 20.15625 17.410156 C 20.125 17.546875 20.082031 17.679688 20.039062 17.808594 C 19.949219 18.0625 19.859375 18.304688 19.816406 18.546875 C 19.808594 18.609375 19.800781 18.667969 19.800781 18.730469 C 19.796875 18.792969 19.796875 18.851562 19.804688 18.914062 C 19.816406 19.039062 19.84375 19.160156 19.886719 19.277344 C 19.976562 19.527344 20.121094 19.742188 20.320312 19.917969 C 20.066406 19.789062 19.871094 19.597656 19.734375 19.347656 C 19.667969 19.222656 19.617188 19.089844 19.582031 18.949219 C 19.550781 18.808594 19.539062 18.664062 19.550781 18.519531 C 19.5625 18.378906 19.585938 18.238281 19.621094 18.101562 C 19.652344 17.96875 19.691406 17.835938 19.730469 17.710938 C 19.804688 17.457031 19.871094 17.214844 19.863281 16.980469 C 19.859375 16.746094 19.785156 16.507812 19.699219 16.257812 C 19.65625 16.132812 19.609375 16.003906 19.570312 15.871094 C 19.554688 15.800781 19.535156 15.734375 19.523438 15.664062 C 19.519531 15.625 19.511719 15.589844 19.507812 15.554688 C 19.503906 15.519531 19.5 15.484375 19.496094 15.449219 C 19.484375 15.164062 19.523438 14.886719 19.617188 14.621094 C 19.707031 14.363281 19.820312 14.117188 19.960938 13.878906 Z M 19.960938 13.878906 " fill-opacity="1" fill-rule="nonzero"/><path fill="rgb(22.749329%, 13.328552%, 18.818665%)" d="M 18.328125 15.351562 C 18.351562 15.453125 18.355469 15.550781 18.335938 15.652344 C 18.3125 15.75 18.28125 15.847656 18.230469 15.9375 C 18.136719 16.109375 18.027344 16.277344 17.910156 16.433594 C 17.800781 16.574219 17.710938 16.726562 17.644531 16.890625 C 17.589844 17.046875 17.585938 17.203125 17.625 17.359375 C 17.644531 17.445312 17.671875 17.527344 17.707031 17.605469 C 17.738281 17.691406 17.777344 17.773438 17.816406 17.859375 C 17.90625 18.039062 17.980469 18.222656 18.042969 18.410156 C 18.167969 18.808594 18.152344 19.203125 17.988281 19.589844 C 18.011719 19.210938 17.945312 18.847656 17.792969 18.503906 C 17.714844 18.339844 17.621094 18.175781 17.527344 18.003906 C 17.425781 17.828125 17.347656 17.636719 17.292969 17.4375 C 17.265625 17.328125 17.257812 17.214844 17.265625 17.101562 C 17.269531 17.046875 17.277344 16.988281 17.289062 16.933594 C 17.304688 16.878906 17.320312 16.824219 17.34375 16.773438 C 17.433594 16.582031 17.550781 16.410156 17.703125 16.261719 C 17.835938 16.117188 17.972656 15.992188 18.089844 15.847656 C 18.148438 15.777344 18.203125 15.703125 18.246094 15.621094 C 18.289062 15.535156 18.316406 15.445312 18.328125 15.351562 Z M 18.328125 15.351562 " fill-opacity="1" fill-rule="nonzero"/><path fill="rgb(22.749329%, 13.328552%, 18.818665%)" d="M 20.074219 11.277344 C 20.058594 11.351562 20.023438 11.417969 19.96875 11.472656 C 19.917969 11.53125 19.859375 11.578125 19.792969 11.613281 C 19.757812 11.632812 19.722656 11.652344 19.691406 11.667969 C 19.65625 11.683594 19.621094 11.695312 19.585938 11.710938 C 19.519531 11.734375 19.445312 11.757812 19.375 11.777344 C 19.078125 11.847656 18.777344 11.847656 18.480469 11.777344 C 18.40625 11.757812 18.335938 11.734375 18.261719 11.710938 C 18.191406 11.683594 18.121094 11.65625 18.054688 11.621094 C 17.921875 11.554688 17.808594 11.480469 17.695312 11.425781 C 17.636719 11.398438 17.578125 11.378906 17.515625 11.359375 C 17.457031 11.34375 17.398438 11.339844 17.339844 11.339844 C 17.199219 11.339844 17.085938 11.394531 17.003906 11.507812 C 17.011719 11.429688 17.042969 11.359375 17.101562 11.304688 C 17.15625 11.246094 17.222656 11.203125 17.300781 11.175781 C 17.378906 11.148438 17.460938 11.136719 17.542969 11.136719 C 17.621094 11.140625 17.703125 11.152344 17.777344 11.175781 C 17.914062 11.21875 18.050781 11.269531 18.183594 11.328125 C 18.242188 11.351562 18.300781 11.375 18.363281 11.394531 C 18.394531 11.40625 18.425781 11.410156 18.457031 11.421875 L 18.550781 11.445312 C 18.804688 11.503906 19.066406 11.527344 19.324219 11.511719 C 19.390625 11.507812 19.457031 11.5 19.523438 11.492188 C 19.589844 11.484375 19.660156 11.476562 19.722656 11.460938 C 19.859375 11.441406 19.976562 11.378906 20.074219 11.277344 Z M 20.074219 11.277344 " fill-opacity="1" fill-rule="nonzero"/><path fill="rgb(22.749329%, 13.328552%, 18.818665%)" d="M 19.757812 10.054688 C 19.71875 10.117188 19.683594 10.183594 19.652344 10.253906 C 19.625 10.3125 19.601562 10.371094 19.582031 10.433594 C 19.5625 10.496094 19.542969 10.558594 19.53125 10.621094 C 19.515625 10.695312 19.503906 10.769531 19.5 10.84375 C 19.425781 10.789062 19.382812 10.71875 19.363281 10.628906 C 19.324219 10.4375 19.378906 10.277344 19.519531 10.148438 C 19.585938 10.085938 19.667969 10.054688 19.757812 10.054688 Z M 19.757812 10.054688 " fill-opacity="1" fill-rule="nonzero"/><path fill="rgb(22.749329%, 13.328552%, 18.818665%)" d="M 18.0625 8.976562 C 18 9.019531 17.929688 9.050781 17.855469 9.074219 C 17.78125 9.101562 17.703125 9.113281 17.625 9.113281 C 17.582031 9.113281 17.539062 9.109375 17.5 9.101562 C 17.457031 9.09375 17.417969 9.082031 17.378906 9.066406 L 17.289062 9.035156 C 17.265625 9.027344 17.242188 9.019531 17.21875 9.015625 C 17.125 9.003906 17.039062 9.019531 16.953125 9.0625 C 16.84375 9.128906 16.765625 9.226562 16.722656 9.347656 C 16.632812 9.214844 16.652344 9.015625 16.769531 8.871094 C 16.902344 8.710938 17.070312 8.648438 17.277344 8.683594 C 17.324219 8.691406 17.367188 8.707031 17.414062 8.726562 C 17.445312 8.738281 17.480469 8.757812 17.511719 8.777344 C 17.539062 8.792969 17.5625 8.804688 17.585938 8.816406 C 17.613281 8.832031 17.640625 8.839844 17.667969 8.851562 C 17.777344 8.894531 17.917969 8.921875 18.0625 8.976562 Z M 18.0625 8.976562 " fill-opacity="1" fill-rule="nonzero"/><path fill="rgb(22.749329%, 13.328552%, 18.818665%)" d="M 18.097656 9.019531 C 18.074219 9.082031 18.054688 9.136719 18.039062 9.191406 C 18.019531 9.246094 18.007812 9.300781 18 9.355469 C 17.988281 9.410156 17.980469 9.464844 17.976562 9.523438 C 17.972656 9.582031 17.96875 9.636719 17.964844 9.703125 C 17.917969 9.652344 17.890625 9.597656 17.875 9.53125 C 17.847656 9.390625 17.871094 9.265625 17.949219 9.148438 C 17.984375 9.089844 18.035156 9.046875 18.097656 9.019531 Z M 18.097656 9.019531 " fill-opacity="1" fill-rule="nonzero"/><path fill="rgb(22.749329%, 13.328552%, 18.818665%)" d="M 17.3125 4.011719 C 17.113281 3.945312 16.917969 3.945312 16.71875 4.011719 C 16.527344 4.070312 16.351562 4.160156 16.191406 4.277344 C 16.109375 4.335938 16.03125 4.394531 15.953125 4.453125 C 15.875 4.515625 15.800781 4.585938 15.730469 4.652344 C 15.582031 4.789062 15.441406 4.933594 15.304688 5.082031 C 15.171875 5.230469 15.046875 5.386719 14.925781 5.546875 C 14.804688 5.707031 14.695312 5.871094 14.589844 6.042969 C 14.484375 6.214844 14.386719 6.386719 14.289062 6.566406 C 14.191406 6.742188 14.09375 6.921875 13.996094 7.101562 L 13.703125 7.644531 L 13.40625 8.179688 C 13.207031 8.539062 13.003906 8.890625 12.808594 9.25 C 12.421875 9.964844 12.070312 10.695312 11.871094 11.496094 C 11.886719 11.289062 11.914062 11.085938 11.957031 10.882812 C 11.964844 10.832031 11.976562 10.78125 11.988281 10.730469 C 12 10.679688 12.011719 10.628906 12.027344 10.582031 L 12.066406 10.429688 L 12.113281 10.28125 C 12.242188 9.886719 12.394531 9.503906 12.570312 9.128906 C 12.746094 8.753906 12.933594 8.390625 13.125 8.027344 L 13.410156 7.484375 L 13.699219 6.941406 C 13.894531 6.582031 14.089844 6.21875 14.320312 5.867188 C 14.550781 5.515625 14.8125 5.191406 15.113281 4.898438 C 15.261719 4.75 15.417969 4.613281 15.582031 4.484375 C 15.664062 4.417969 15.75 4.359375 15.835938 4.296875 C 15.921875 4.238281 16.011719 4.179688 16.105469 4.132812 C 16.195312 4.082031 16.292969 4.035156 16.390625 4 C 16.492188 3.960938 16.59375 3.933594 16.699219 3.917969 C 16.804688 3.898438 16.910156 3.898438 17.015625 3.914062 C 17.121094 3.925781 17.21875 3.960938 17.3125 4.011719 Z M 17.3125 4.011719 " fill-opacity="1" fill-rule="nonzero"/><path fill="rgb(22.749329%, 13.328552%, 18.818665%)" d="M 12.359375 23.054688 C 12.425781 23.128906 12.480469 23.199219 12.539062 23.265625 C 12.597656 23.332031 12.660156 23.394531 12.71875 23.449219 C 12.835938 23.5625 12.964844 23.652344 13.109375 23.726562 C 13.125 23.738281 13.144531 23.746094 13.160156 23.753906 C 13.179688 23.765625 13.195312 23.773438 13.214844 23.78125 L 13.269531 23.804688 C 13.289062 23.8125 13.308594 23.820312 13.332031 23.828125 L 13.574219 23.925781 C 13.753906 23.988281 13.917969 24.082031 14.066406 24.203125 C 13.878906 24.207031 13.695312 24.203125 13.511719 24.1875 C 13.417969 24.175781 13.324219 24.160156 13.230469 24.136719 C 13.132812 24.113281 13.039062 24.078125 12.949219 24.027344 C 12.765625 23.929688 12.617188 23.792969 12.511719 23.613281 C 12.40625 23.441406 12.355469 23.253906 12.359375 23.054688 Z M 12.359375 23.054688 " fill-opacity="1" fill-rule="nonzero"/></svg>