<svg id="Layer_1" data-name="Layer 1" xmlns="http://www.w3.org/2000/svg" viewBox="0 0 35.92 30.52"><defs><style>.cls-1{fill:#3a2230;stroke:#000;stroke-miterlimit:10;stroke-width:0.25px;}</style></defs><title>xuanlogo</title><path class="cls-1" d="M22.12,8.94a1.71,1.71,0,0,1-.18.66c-.1.21-.21.4-.3.59-.21.39-.41.78-.6,1.16s-.38.79-.56,1.19l-.55,1.21a6,6,0,0,1,.21-1.33A7.34,7.34,0,0,1,21.33,10,7.19,7.19,0,0,0,22.12,8.94Z" transform="translate(-2.54 -5.08)"/><path class="cls-1" d="M22.46,8.4a3.89,3.89,0,0,0,1.43,1.24c.28.14.57.25.88.37a7.49,7.49,0,0,1,.9.44,6.52,6.52,0,0,1,1.58,1.23,5.88,5.88,0,0,1,1.1,1.65A12.57,12.57,0,0,0,27,11.94a10.69,10.69,0,0,0-1.56-1.1l-.21-.12-.1-.05L25,10.61l-.43-.2a8.35,8.35,0,0,1-.89-.46A3,3,0,0,1,22.46,8.4Z" transform="translate(-2.54 -5.08)"/><path class="cls-1" d="M23.88,6.25c.62.65,1.24,1.29,1.89,1.9l1,.89.51.43.51.43a11.25,11.25,0,0,1,1.93,1.91,5.72,5.72,0,0,1,.37.58,3.23,3.23,0,0,1,.3.62,3.52,3.52,0,0,1,.29,1.32A5.44,5.44,0,0,0,29.42,12a16.67,16.67,0,0,0-1.94-1.8c-.34-.28-.68-.57-1-.88s-.64-.63-.95-1A14.14,14.14,0,0,1,23.88,6.25Z" transform="translate(-2.54 -5.08)"/><path class="cls-1" d="M29.86,14.6a5,5,0,0,0,.25,1.49q.12.36.21.75a3.59,3.59,0,0,1,.09.81c0,.13,0,.27,0,.4l-.06.39a4.4,4.4,0,0,0-.07.73,1.59,1.59,0,0,0,.15.67,1,1,0,0,0,.2.29.91.91,0,0,0,.32.2h-.1l-.1,0-.09,0-.1-.05a.91.91,0,0,1-.32-.27,1.6,1.6,0,0,1-.32-.77,3.57,3.57,0,0,1,0-.8c0-.13,0-.26,0-.38s0-.24,0-.36a11.32,11.32,0,0,0-.19-1.48,3.46,3.46,0,0,1-.06-.79A2.08,2.08,0,0,1,29.86,14.6Z" transform="translate(-2.54 -5.08)"/><path class="cls-1" d="M31.11,15.27a1.46,1.46,0,0,1,.29.41,4.68,4.68,0,0,1,.18.48c.1.32.2.64.29,1,.19.65.38,1.29.6,1.92a12.37,12.37,0,0,0,.8,1.83l.12.21c0,.08.09.14.13.21s.18.28.27.42l.6.8c.2.27.41.54.6.82s.19.29.28.44l.12.22.12.23.11.23.11.23c0,.08.07.16.1.23a2.44,2.44,0,0,1,.1.24c.13.31.25.63.37,1,.23.63.44,1.26.69,1.88.07.16.13.31.2.46s.07.14.1.22l.11.22c.15.3.31.59.46.9a4.82,4.82,0,0,1,.37,1,3,3,0,0,1,.08,1.08,3.11,3.11,0,0,1-.92,1.9,2.82,2.82,0,0,1-.88.62,3.41,3.41,0,0,1-1,.27c-.34,0-.68.06-1,.08l-1,0c-2.68.1-5.38.11-8.06,0,2.69,0,5.37-.15,8-.33l1-.07,1-.09a3.2,3.2,0,0,0,.9-.26,2.47,2.47,0,0,0,.75-.54,2.68,2.68,0,0,0,.79-1.65v-.12a.41.41,0,0,0,0-.11v-.12s0-.08,0-.12a2.36,2.36,0,0,0-.08-.45,4.93,4.93,0,0,0-.35-.9c-.14-.3-.29-.59-.45-.9,0-.08-.07-.15-.1-.23a2.4,2.4,0,0,1-.11-.23c-.07-.16-.14-.31-.2-.47-.25-.64-.47-1.28-.69-1.91-.11-.31-.22-.62-.34-.93,0-.08-.07-.15-.1-.23a2.29,2.29,0,0,0-.1-.23l-.09-.23-.11-.22c0-.07-.07-.15-.11-.22L34.92,24c-.08-.14-.16-.28-.25-.42s-.37-.55-.57-.82-.4-.54-.58-.82l-.28-.44-.12-.22L33,21a11.76,11.76,0,0,1-.74-1.89c-.1-.32-.19-.65-.27-1l-.24-1-.24-1a3,3,0,0,0-.15-.48A1.24,1.24,0,0,0,31.11,15.27Z" transform="translate(-2.54 -5.08)"/><path class="cls-1" d="M31.81,21.79a5.19,5.19,0,0,1,.36.46,4.27,4.27,0,0,1,.3.51c.08.17.15.35.23.54s.13.37.19.55c.22.75.34,1.51.49,2.26A8.51,8.51,0,0,0,34,28.24a2.82,2.82,0,0,0,.27.48,3.74,3.74,0,0,0,.72.86,3.79,3.79,0,0,0,.45.34,2.79,2.79,0,0,1-.53-.24,3.09,3.09,0,0,1-.88-.78c-.13-.16-.24-.32-.35-.48s-.19-.36-.28-.54a4.63,4.63,0,0,1-.21-.56,5.18,5.18,0,0,1-.17-.56c-.05-.19-.09-.38-.13-.57-.15-.76-.24-1.52-.39-2.26A7.23,7.23,0,0,0,31.81,21.79Z" transform="translate(-2.54 -5.08)"/><path class="cls-1" d="M21,27.26a1.27,1.27,0,0,0,.5.6,1.83,1.83,0,0,0,.71.32,5.21,5.21,0,0,0,.79.13l.81.1a11.22,11.22,0,0,1,1.61.33c.27.07.54.17.79.26l.76.29a11,11,0,0,0,3.12.64c1.07.07,2.16.05,3.24.07a19.66,19.66,0,0,1-3.26.29,13.12,13.12,0,0,1-1.65-.14l-.21,0-.2,0-.41-.1a7.82,7.82,0,0,1-.79-.26c-.52-.19-1-.4-1.51-.56a14.06,14.06,0,0,0-1.55-.39L23,28.6a6,6,0,0,1-.81-.21,2.12,2.12,0,0,1-.72-.43,1.35,1.35,0,0,1-.27-.32A1,1,0,0,1,21,27.26Z" transform="translate(-2.54 -5.08)"/><path class="cls-1" d="M20.39,28.24a1.25,1.25,0,0,1-.39.49,2,2,0,0,1-.55.31,8,8,0,0,1-1.17.29,5,5,0,0,0-1.07.38,6.79,6.79,0,0,0-1,.6A2.65,2.65,0,0,1,17,29.4a3.12,3.12,0,0,1,1.15-.51c.41-.09.8-.11,1.17-.19A2.3,2.3,0,0,0,20.39,28.24Z" transform="translate(-2.54 -5.08)"/><path class="cls-1" d="M15.53,33.38a1.36,1.36,0,0,0,.49.12,2,2,0,0,0,.49,0,4.34,4.34,0,0,0,.94-.32,7,7,0,0,1,1-.41,3.23,3.23,0,0,1,.54-.11h.29l.28,0a3.16,3.16,0,0,1,.53.13l.5.14,1,.31,1,.34.49.19.06,0,.07,0,.1.1a.23.23,0,0,1,.06.12.08.08,0,0,1,0,.07l0,0,0,0a.09.09,0,0,0,0-.11A.34.34,0,0,0,23.2,34l-.11-.05-.05,0-.06,0-.51-.08-1-.21-1-.24-.5-.13-.48-.11-.23,0H19a2.34,2.34,0,0,0-.46.09c-.32.07-.63.2-1,.31a3.11,3.11,0,0,1-1,.21,1.6,1.6,0,0,1-.54-.06l-.25-.1-.11-.07A.41.41,0,0,1,15.53,33.38Z" transform="translate(-2.54 -5.08)"/><path class="cls-1" d="M22.7,34.85a7,7,0,0,1-1.75.31,17.61,17.61,0,0,1-1.78,0c-.59,0-1.17-.07-1.75-.08a12.45,12.45,0,0,0-1.73.06q-.43,0-.87.09l-.88.1c-.59.06-1.17.1-1.77.12a23.11,23.11,0,0,1-3.53-.12c1.17-.06,2.34-.12,3.51-.23.58-.06,1.16-.12,1.74-.2l.88-.12.88-.1.89,0h.9c.59,0,1.18.09,1.76.15A13.67,13.67,0,0,0,22.7,34.85Z" transform="translate(-2.54 -5.08)"/><path class="cls-1" d="M13.61,27.62c-.72.86-1.5,1.67-2.3,2.46s-1.63,1.54-2.49,2.27a6.92,6.92,0,0,1-.69.52,4.16,4.16,0,0,1-.78.41,6.13,6.13,0,0,1-.83.26l-.82.2-1.64.36a3.52,3.52,0,0,0-.78.24,1.23,1.23,0,0,0-.33.23.84.84,0,0,0-.21.35.83.83,0,0,1,.16-.39,1.11,1.11,0,0,1,.31-.3,3.16,3.16,0,0,1,.8-.34l1.6-.5a14.43,14.43,0,0,0,1.57-.51A5.75,5.75,0,0,0,8.53,32l2.54-2.19C11.91,29.09,12.75,28.34,13.61,27.62Z" transform="translate(-2.54 -5.08)"/><path class="cls-1" d="M14.13,29.58a17.77,17.77,0,0,1-2,1.92c-.7.59-1.43,1.15-2.17,1.68L8.88,34a11.07,11.07,0,0,1-1.19.72,4.73,4.73,0,0,1-1.33.44,3.22,3.22,0,0,1-1.38,0,4,4,0,0,0,1.33-.17,6,6,0,0,0,1.21-.55,11.51,11.51,0,0,0,1.12-.75l.54-.4.56-.4c.73-.53,1.48-1.05,2.21-1.59S13.41,30.14,14.13,29.58Z" transform="translate(-2.54 -5.08)"/><path class="cls-1" d="M21,17.82a1.64,1.64,0,0,0-.65.16,2,2,0,0,0-.54.36A4.22,4.22,0,0,0,19,19.4l-1.38,2.34c-.46.79-.92,1.57-1.39,2.35s-.93,1.57-1.43,2.34c.33-.86.71-1.69,1.12-2.51s.85-1.62,1.31-2.4,1-1.56,1.48-2.32a3.88,3.88,0,0,1,.95-1,2.11,2.11,0,0,1,.64-.31,1.86,1.86,0,0,1,.34-.06A1.35,1.35,0,0,1,21,17.82Z" transform="translate(-2.54 -5.08)"/><path class="cls-1" d="M21.67,18.46a2.68,2.68,0,0,1,.24.79,3.3,3.3,0,0,1,0,.83,4.68,4.68,0,0,1-.16.83,6.67,6.67,0,0,1-.31.78,11.45,11.45,0,0,1-.88,1.41l-.49.66c-.16.22-.33.43-.5.64a31.66,31.66,0,0,1-2.16,2.46A28,28,0,0,1,15,29.08c.71-.82,1.44-1.63,2.15-2.46s1.39-1.66,2.07-2.5c.34-.42.67-.85,1-1.28a11.81,11.81,0,0,0,.9-1.32,4.88,4.88,0,0,0,.57-1.47,3.47,3.47,0,0,0,.08-.79,2.6,2.6,0,0,0,0-.4C21.73,18.72,21.71,18.59,21.67,18.46Z" transform="translate(-2.54 -5.08)"/><path class="cls-1" d="M10.42,29.32c-.89.14-1.78.24-2.67.33a9.45,9.45,0,0,0-2.57.5,3.38,3.38,0,0,0-.58.27,3.06,3.06,0,0,0-.54.34,3.07,3.07,0,0,0-.85.91,2,2,0,0,0-.24.57,1.44,1.44,0,0,0,0,.62,1.22,1.22,0,0,0,.25.57,1,1,0,0,0,.52.38.9.9,0,0,1-.33-.09,1.87,1.87,0,0,1-.29-.2,1.42,1.42,0,0,1-.37-.61,1.74,1.74,0,0,1,0-.72,2.24,2.24,0,0,1,.21-.68,2.73,2.73,0,0,1,.4-.6,3,3,0,0,1,.51-.5A5.87,5.87,0,0,1,4.38,30c.21-.11.42-.21.64-.3a6.25,6.25,0,0,1,1.34-.33,12.62,12.62,0,0,1,1.36-.1Q9.07,29.26,10.42,29.32Z" transform="translate(-2.54 -5.08)"/><path class="cls-1" d="M22.17,13.08a1.62,1.62,0,0,1-.5,1.12,2.69,2.69,0,0,1-.5.39c-.18.11-.35.2-.53.29a7.54,7.54,0,0,1-1.11.44,5.44,5.44,0,0,1-1.19.23c.35-.21.7-.38,1.05-.56l1.05-.52.52-.26a3.26,3.26,0,0,0,.48-.27A2.64,2.64,0,0,0,22.17,13.08Z" transform="translate(-2.54 -5.08)"/><path class="cls-1" d="M16.46,16.17c-.34.29-.69.56-1,.85a6.53,6.53,0,0,0-.89.93,3.87,3.87,0,0,0-.58,1.1,2.9,2.9,0,0,0-.12.6,3.12,3.12,0,0,0,0,.61,4.42,4.42,0,0,0,.13.61c.06.21.13.41.2.61l.24.61c.08.21.16.42.23.63a5.58,5.58,0,0,1,.26,1.34,3.08,3.08,0,0,1-.07.68.94.94,0,0,1,0,.16l0,.08,0,.08-.07.15-.08.15a2.53,2.53,0,0,0,.08-1.28,3.4,3.4,0,0,0-.15-.63,4.84,4.84,0,0,0-.22-.6c-.16-.4-.36-.8-.53-1.21-.08-.21-.16-.43-.23-.64a5.15,5.15,0,0,1-.15-.68,3.35,3.35,0,0,1,0-.71,2.65,2.65,0,0,1,.15-.69,3.59,3.59,0,0,1,.72-1.2,5.44,5.44,0,0,1,1-.88A10.14,10.14,0,0,1,16.46,16.17Z" transform="translate(-2.54 -5.08)"/><path class="cls-1" d="M20.56,23.65c.05.25.08.49.11.73l.07.7.08.7c0,.24.05.48.06.74a1.86,1.86,0,0,1-.4-.66,2.69,2.69,0,0,1-.16-1.49A1.81,1.81,0,0,1,20.56,23.65Z" transform="translate(-2.54 -5.08)"/><path class="cls-1" d="M24.79,12a.61.61,0,0,1,.27,0,1.06,1.06,0,0,1,.25.09,1.64,1.64,0,0,1,.41.38l.32.43a1.31,1.31,0,0,0,.37.33,2.51,2.51,0,0,0,.48.14,2.06,2.06,0,0,1,1.32,1.06,2.45,2.45,0,0,1,.24.52,2.66,2.66,0,0,1,.12.56,5.24,5.24,0,0,1,0,1.12c-.09.74-.34,1.43-.43,2.11a2.74,2.74,0,0,0,0,.5,2.89,2.89,0,0,0,0,.5,9.27,9.27,0,0,0,.27,1,7.94,7.94,0,0,1,.26,1.07,3.77,3.77,0,0,1,0,.58,2.14,2.14,0,0,1-.11.56,10.24,10.24,0,0,1-.38,1,4.66,4.66,0,0,0-.16.49,3,3,0,0,0-.1.52,3.35,3.35,0,0,0,.43,2A3.22,3.22,0,0,1,27.71,25a2.57,2.57,0,0,1,.06-.55,5.36,5.36,0,0,1,.14-.54c.11-.34.24-.68.32-1a2.76,2.76,0,0,0,.07-.49,2.1,2.1,0,0,0,0-.5,6.72,6.72,0,0,0-.28-1c0-.17-.11-.34-.16-.52a5.29,5.29,0,0,1-.13-.54,2.75,2.75,0,0,1-.05-.57,3.56,3.56,0,0,1,0-.57c.11-.75.36-1.42.45-2.1a4.36,4.36,0,0,0,0-1,3,3,0,0,0-.1-.5,2.85,2.85,0,0,0-.17-.46,2.1,2.1,0,0,0-.64-.75,1.81,1.81,0,0,0-.44-.22,2.09,2.09,0,0,1-.53-.21,1.27,1.27,0,0,1-.39-.41c-.11-.16-.19-.31-.29-.46a1.26,1.26,0,0,0-.34-.39A.63.63,0,0,0,24.79,12Z" transform="translate(-2.54 -5.08)"/><path class="cls-1" d="M22.38,17.61c.12.42.22.84.32,1.26l.13.63a4.66,4.66,0,0,1,.12.65,2.28,2.28,0,0,1,0,.69,2.61,2.61,0,0,1-.24.66c-.1.2-.21.39-.29.57a3.54,3.54,0,0,0-.22.57,2.2,2.2,0,0,0-.1.57,2.24,2.24,0,0,0,0,.58c.05.2.11.4.17.61s.06.21.08.31.05.23.07.34c0,.48-.09.9-.05,1.3a1,1,0,0,0,.2.55.7.7,0,0,0,.22.2.48.48,0,0,0,.3.07.53.53,0,0,1-.33,0,.88.88,0,0,1-.29-.18,1.07,1.07,0,0,1-.32-.6,3,3,0,0,1-.05-.67,4.26,4.26,0,0,0,0-.61,3.86,3.86,0,0,0-.17-.58c-.07-.2-.14-.41-.2-.63a2.74,2.74,0,0,1-.09-.7,3.82,3.82,0,0,1,.12-.69c.07-.22.16-.43.25-.64l.32-.56a2.91,2.91,0,0,0,.23-.55,2.28,2.28,0,0,0,.05-.58c0-.21,0-.41-.05-.63l-.07-.64C22.44,18.47,22.4,18.05,22.38,17.61Z" transform="translate(-2.54 -5.08)"/><path class="cls-1" d="M26.61,18.51c-.08.34-.18.69-.24,1a3.11,3.11,0,0,0,0,1,5,5,0,0,0,.32,1,5.24,5.24,0,0,1,.18.52,1.9,1.9,0,0,1,.09.58,2.25,2.25,0,0,1-.07.58,4.1,4.1,0,0,1-.15.53,6.91,6.91,0,0,0-.3,1,1.94,1.94,0,0,0,0,.24,2,2,0,0,0,0,.25,1.53,1.53,0,0,0,.11.48,2.1,2.1,0,0,0,.57.86,1.84,1.84,0,0,1-.78-.76,2.62,2.62,0,0,1-.2-.53,1.87,1.87,0,0,1,0-.58,2.63,2.63,0,0,1,.09-.55c0-.18.1-.36.15-.53a3.1,3.1,0,0,0,.17-1,3.14,3.14,0,0,0-.21-1l-.18-.52L26,20.89a.68.68,0,0,0,0-.15l0-.14a3,3,0,0,1,.17-1.11A5.79,5.79,0,0,1,26.61,18.51Z" transform="translate(-2.54 -5.08)"/><path class="cls-1" d="M24.44,20.47a1.07,1.07,0,0,1,0,.4,1.74,1.74,0,0,1-.14.38,5.74,5.74,0,0,1-.43.66,2.19,2.19,0,0,0-.35.61,1,1,0,0,0,0,.63,1.73,1.73,0,0,0,.11.32,2.07,2.07,0,0,0,.15.34c.11.24.21.49.3.74A2.24,2.24,0,0,1,24,26.12a2.89,2.89,0,0,0-.26-1.45c-.1-.22-.23-.44-.35-.66a3,3,0,0,1-.31-.76,1.38,1.38,0,0,1,0-.45l0-.22a1.87,1.87,0,0,1,.07-.22,2.47,2.47,0,0,1,.48-.68c.18-.19.36-.36.52-.55a1.61,1.61,0,0,0,.21-.3A1.24,1.24,0,0,0,24.44,20.47Z" transform="translate(-2.54 -5.08)"/><path class="cls-1" d="M26.77,15a.57.57,0,0,1-.15.26.68.68,0,0,1-.23.18l-.13.08-.15,0a1.15,1.15,0,0,1-.28.09,2.4,2.4,0,0,1-1.19,0,1.61,1.61,0,0,1-.29-.09,1.69,1.69,0,0,1-.28-.12c-.17-.08-.33-.18-.48-.26l-.24-.08a.58.58,0,0,0-.23,0,.52.52,0,0,0-.45.22.43.43,0,0,1,.13-.27.62.62,0,0,1,.27-.17.86.86,0,0,1,.32-.05,1.12,1.12,0,0,1,.31.05c.19.06.37.13.54.2a1.17,1.17,0,0,0,.24.09l.13,0,.12,0a3.63,3.63,0,0,0,1,.09l.26,0,.27,0A.79.79,0,0,0,26.77,15Z" transform="translate(-2.54 -5.08)"/><path class="cls-1" d="M26.34,13.41a2.15,2.15,0,0,0-.14.26l-.09.24a2.33,2.33,0,0,0-.07.25c0,.1,0,.2,0,.3a.43.43,0,0,1-.18-.29.65.65,0,0,1,.21-.64A.43.43,0,0,1,26.34,13.41Z" transform="translate(-2.54 -5.08)"/><path class="cls-1" d="M24.08,12a1.07,1.07,0,0,1-.58.18h-.17l-.16-.05-.12,0L23,12a.74.74,0,0,0-.36.06.71.71,0,0,0-.3.38.53.53,0,0,1,.06-.63.66.66,0,0,1,.68-.25.64.64,0,0,1,.18.06l.13.06.1.06.11,0C23.7,11.86,23.89,11.9,24.08,12Z" transform="translate(-2.54 -5.08)"/><path class="cls-1" d="M24.13,12a2.09,2.09,0,0,0-.08.23,1.6,1.6,0,0,0-.05.21.91.91,0,0,0,0,.23c0,.08,0,.15,0,.24a.51.51,0,0,1-.12-.23.69.69,0,0,1,.1-.51A.41.41,0,0,1,24.13,12Z" transform="translate(-2.54 -5.08)"/><path class="cls-1" d="M23.08,5.35a1.19,1.19,0,0,0-.79,0,2.55,2.55,0,0,0-.7.35l-.32.24L21,6.2c-.19.19-.38.38-.56.58a6.23,6.23,0,0,0-.51.62,7.66,7.66,0,0,0-.45.66c-.14.23-.27.46-.4.7l-.39.71-.39.72-.4.72c-.26.48-.53.94-.79,1.42a12.52,12.52,0,0,0-1.25,3,7.35,7.35,0,0,1,.11-.82c0-.07,0-.14,0-.2l.06-.2.05-.2.06-.2a13.7,13.7,0,0,1,.61-1.54c.23-.5.48-1,.74-1.47l.38-.72.39-.72c.26-.48.52-1,.82-1.44a7.75,7.75,0,0,1,1.06-1.29A6.53,6.53,0,0,1,20.78,6l.33-.25a3.48,3.48,0,0,1,.36-.22,2.64,2.64,0,0,1,.38-.18,2,2,0,0,1,.42-.11,1.48,1.48,0,0,1,.42,0A.9.9,0,0,1,23.08,5.35Z" transform="translate(-2.54 -5.08)"/><path class="cls-1" d="M16.48,30.74l.24.28.24.25a2.14,2.14,0,0,0,.52.37l.07,0,.07,0,.07,0,.09,0,.32.13a2.15,2.15,0,0,1,.66.37,6,6,0,0,1-.74,0l-.38-.07a1.66,1.66,0,0,1-.37-.14,1.45,1.45,0,0,1-.59-.56A1.27,1.27,0,0,1,16.48,30.74Z" transform="translate(-2.54 -5.08)"/></svg>