<svg xmlns="http://www.w3.org/2000/svg" viewBox="0 0 512 512"><defs><style>.cls-1{fill:#3a2230;}</style></defs><title>yoga</title><g id="圖層_1" data-name="圖層 1"><path class="cls-1" d="M374,98.2a34.86,34.86,0,0,1,4.1-.94,42.07,42.07,0,0,1,4.23-.43,40,40,0,0,1,8.57.7,45,45,0,0,1,8.32,2.6,46.05,46.05,0,0,1,7.67,4.32,41.53,41.53,0,0,1,12,13.14,49.77,49.77,0,0,1,3.69,8.15,54.34,54.34,0,0,1,2.06,8.69,56.53,56.53,0,0,1,.43,8.91,55.69,55.69,0,0,1-1.21,8.82,51.54,51.54,0,0,1-2.83,8.43,52.47,52.47,0,0,1-4.29,7.69A49.44,49.44,0,0,1,389.45,188a62.13,62.13,0,0,0,22.18-22.86,60.38,60.38,0,0,0,3.18-7.08,53.57,53.57,0,0,0,2-7.4,48.59,48.59,0,0,0,.32-15.22A45.05,45.05,0,0,0,412.58,121a45.79,45.79,0,0,0-4.09-6.38,46.75,46.75,0,0,0-5.27-5.55A44,44,0,0,0,374,98.2Z"/><path class="cls-1" d="M356.84,98.16a23.79,23.79,0,0,1-5.08,3.7c-1.8,1-3.62,2-5.24,3a17,17,0,0,0-4.11,3.55,18.37,18.37,0,0,0-1.52,2.13,18.1,18.1,0,0,0-1.15,2.34,16.25,16.25,0,0,0-1.17,4.94,10.22,10.22,0,0,0,0,1.24c0,.41,0,.81,0,1.22s.11.8.16,1.2l.28,1.21a18.05,18.05,0,0,0,2,4.58,24.89,24.89,0,0,0,3.21,4.14,34.86,34.86,0,0,0,4.09,3.73c1.44,1.2,3,2.29,4.64,3.38s3.28,2.09,5,3.16,3.55,2.18,5.31,3.46a28.78,28.78,0,0,1,5,4.49,19.11,19.11,0,0,1,2,2.81,15,15,0,0,1,1.41,3.22,14.55,14.55,0,0,1,.61,3.39,12.38,12.38,0,0,1-.24,3.38,9.57,9.57,0,0,1-1.2,3.1,8.26,8.26,0,0,1-2.16,2.35,9.09,9.09,0,0,0,1.27-5.61,11.27,11.27,0,0,0-.57-2.71,12.27,12.27,0,0,0-1.13-2.47,11,11,0,0,0-1.55-2.12,15.45,15.45,0,0,0-1.95-1.83,29,29,0,0,0-4.66-3c-1.68-.91-3.47-1.74-5.31-2.62s-3.76-1.87-5.6-2.94a45.92,45.92,0,0,1-10.44-8,31.12,31.12,0,0,1-4.16-5.59,23.8,23.8,0,0,1-2.48-6.77l-.27-1.8c0-.62-.11-1.23-.1-1.85a15.91,15.91,0,0,1,.07-1.83A17.71,17.71,0,0,1,332,117a20.13,20.13,0,0,1,2.45-6.7,19.57,19.57,0,0,1,4.51-5.36l.68-.55.71-.5a17.27,17.27,0,0,1,1.48-.91,21.66,21.66,0,0,1,3.07-1.36C349.05,100.13,353,99.75,356.84,98.16Z"/><path class="cls-1" d="M377.85,155.2a4.61,4.61,0,0,1,2.14-2.11,6.61,6.61,0,0,1,3.24-.65,6.84,6.84,0,0,1,3.48,1.22,8.91,8.91,0,0,1,2.45,2.77,16.06,16.06,0,0,1,1.46,12.43,15,15,0,0,1-3.19,5.76,13.32,13.32,0,0,1-5.45,3.66,12.32,12.32,0,0,1-6.23.56,8.76,8.76,0,0,1-5.17-2.74,14.32,14.32,0,0,0,5-.95,14,14,0,0,0,3.74-2.14,11.9,11.9,0,0,0,2.56-2.84,14.06,14.06,0,0,0,1.54-3.44,17.12,17.12,0,0,0,.35-7.95,8.77,8.77,0,0,0-.4-1.53,3.39,3.39,0,0,0-1-1.25A5.28,5.28,0,0,0,377.85,155.2Z"/><path class="cls-1" d="M329.68,130.13a36.59,36.59,0,0,0-1.3,11.88c.12,1.92.38,4,.35,6.28a18,18,0,0,1-.42,3.62,14.43,14.43,0,0,1-1.41,3.61c-.6,1-1.19,1.91-1.68,2.71a9.76,9.76,0,0,0-1.08,2,2.31,2.31,0,0,0-.16,1.32,11.3,11.3,0,0,0,1.15,2.28,15.33,15.33,0,0,1,1.1,13.15,22.12,22.12,0,0,0-5-10.45,12.53,12.53,0,0,1-2.16-3,7.42,7.42,0,0,1-.46-4.78,13.82,13.82,0,0,1,1.49-3.61c.57-1,1.12-1.84,1.54-2.61a8.83,8.83,0,0,0,.91-2.15,14.62,14.62,0,0,0,.49-2.52c.24-1.84.28-3.93.63-6.16A19.41,19.41,0,0,1,329.68,130.13Z"/><path class="cls-1" d="M328.53,186.26c.72,1.4,1.24,2.79,1.92,3.9a5.51,5.51,0,0,0,2.2,2.3A20.18,20.18,0,0,0,339.3,194a46.66,46.66,0,0,0,7.66,0c2.68-.18,5.42-.58,8.53-.79a18,18,0,0,1-7.4,5.38,20,20,0,0,1-9.34,1.42,19,19,0,0,1-4.76-1.09,11.09,11.09,0,0,1-4.52-2.94,7.34,7.34,0,0,1-1.45-2.51,8.25,8.25,0,0,1-.43-2.58A12,12,0,0,1,328.53,186.26Z"/><path class="cls-1" d="M387.18,194.26a49.76,49.76,0,0,1,1.15,7.53,57.34,57.34,0,0,1,.14,6.93,40.76,40.76,0,0,1-.84,7.08,30.19,30.19,0,0,1-1,3.64,14.19,14.19,0,0,0-.58,1.49,2.45,2.45,0,0,0-.12.75,1,1,0,0,0,.37.81,1.41,1.41,0,0,1-1.2,0,3,3,0,0,1-1-.82,7.07,7.07,0,0,1-1.14-2.09,26.64,26.64,0,0,1-1.19-3.64,26.25,26.25,0,0,1-.76-7.5,23.39,23.39,0,0,1,1.55-7.57A15.28,15.28,0,0,1,387.18,194.26Z"/><path class="cls-1" d="M422.61,112.3c.93-.31,1.86-.62,2.81-.92s1.92-.44,2.89-.67l.74-.15.74-.09,1.49-.16a23,23,0,0,1,3-.17,39.58,39.58,0,0,1,12,1.68,40.88,40.88,0,0,1,20.28,13.76c.62.85,1.3,1.67,1.86,2.58s1.11,1.81,1.64,2.73a46,46,0,0,1,2.56,5.75,68,68,0,0,1,3.07,11.89,98.6,98.6,0,0,1,1.43,12.06,47.81,47.81,0,0,1-1,12.61,60.12,60.12,0,0,1-4.21,11.74c-1.75,3.66-3.66,7.14-5.52,10.54s-3.65,6.75-5.15,10.14a34.27,34.27,0,0,0-2.92,10.23,20.68,20.68,0,0,0,.16,5.14c.27,1.77.72,3.6,1.17,5.51s.91,3.9,1.18,6a23.66,23.66,0,0,1-.06,6.4,23.16,23.16,0,0,1-5.12,11.24,22.54,22.54,0,0,1-4.49,4.08,20.19,20.19,0,0,1-5.35,2.59,22.1,22.1,0,0,0,11.28-18.27,19.65,19.65,0,0,0-.56-5.28c-.43-1.76-1-3.53-1.64-5.37s-1.28-3.77-1.77-5.83a29.23,29.23,0,0,1-.57-3.2,24.36,24.36,0,0,1-.14-3.3,37.43,37.43,0,0,1,2.68-12.41,110.81,110.81,0,0,1,5-11c3.54-7,7.14-13.69,8.71-20.63s.93-14.33-.1-21.88a69.76,69.76,0,0,0-2.31-10.88,42.31,42.31,0,0,0-1.92-5.07l-1.22-2.37c-.41-.79-.95-1.51-1.41-2.28A39.22,39.22,0,0,0,445,115.28a42,42,0,0,0-10.86-3.07,22.6,22.6,0,0,0-2.84-.3l-1.44-.07-.72,0-.72,0c-1,0-1.94,0-2.91.12Z"/><path class="cls-1" d="M426.13,129.52c8.6,8.41,13.49,20.95,13.09,33.59l0,1.18-.09,1.19c-.07.79-.13,1.58-.24,2.37-.2,1.56-.48,3.11-.8,4.62-.63,3-1.47,6-2.27,8.83-1.64,5.72-3.2,11.17-3.5,16.56a26.56,26.56,0,0,0,.54,7.76,22.83,22.83,0,0,0,3,7.1,76.82,76.82,0,0,0,4.88,6.94c1.8,2.34,3.68,4.77,5.36,7.45a31,31,0,0,1,4,8.82,26.74,26.74,0,0,1,.71,9.61,25.44,25.44,0,0,1-8.08,16.3,27.93,27.93,0,0,0,2.09-3.92,25.64,25.64,0,0,0,1.45-4.1,28.24,28.24,0,0,0,.84-8.4,24.74,24.74,0,0,0-1.72-8,29,29,0,0,0-4.15-7c-1.7-2.21-3.65-4.35-5.62-6.6a67.17,67.17,0,0,1-5.79-7.34,29.3,29.3,0,0,1-4.15-9.17,33.47,33.47,0,0,1-.82-10,53.75,53.75,0,0,1,1.54-9.44c.8-3,1.71-5.93,2.66-8.75,1.88-5.65,3.73-11,4.37-16.53a50.08,50.08,0,0,0-.81-16.88,55.42,55.42,0,0,0-2.51-8.31c-.52-1.37-1.14-2.7-1.79-4-.33-.66-.65-1.33-1-2S426.49,130.18,426.13,129.52Z"/><path class="cls-1" d="M346.28,205.1a14.1,14.1,0,0,1-.7,4.09,18.72,18.72,0,0,1-1.8,3.85,23.65,23.65,0,0,1-5.81,6.33c-4.64,3.52-10.09,5.49-15.2,7.25s-10.12,3.48-15.12,5.36c-2.47,1-5,1.89-7.41,2.88a24.45,24.45,0,0,0-6.14,3.35,15.43,15.43,0,0,0-4.1,5,18.7,18.7,0,0,0-1.34,3.11,23.81,23.81,0,0,0-.8,3.36,23.13,23.13,0,0,0-.08,7c.31,2.33,1.12,4.94,1.56,7.92a21.13,21.13,0,0,1,.23,2.29c0,.79,0,1.57,0,2.34s-.14,1.55-.29,2.3l-.25,1.13-.12.56-.17.54a26.88,26.88,0,0,1-3.95,7.84,42.92,42.92,0,0,1-5.58,6.26c-1,.93-2.05,1.84-3.1,2.72s-2.13,1.71-3.23,2.52l2.41-3.3c.8-1.09,1.58-2.19,2.33-3.3a54.32,54.32,0,0,0,4-6.8,25.49,25.49,0,0,0,2.31-7.06c.13-.58.1-1.18.18-1.76s0-1.16,0-1.74-.13-1.14-.19-1.71-.21-1.13-.36-1.71c-.58-2.33-1.63-4.83-2.28-7.83a28.11,28.11,0,0,1-.47-9.15,26.1,26.1,0,0,1,2.62-8.94,22.54,22.54,0,0,1,6-7.49,30.86,30.86,0,0,1,8.05-4.35c1.35-.51,2.63-1,3.92-1.4s2.59-.9,3.9-1.3c5.22-1.67,10.54-3.12,15.84-4.31s10.31-2.35,14.83-4.68S344.51,210.32,346.28,205.1Z"/><path class="cls-1" d="M376,222.78l-1.79-.58-1.8-.43c-.6-.12-1.21-.21-1.8-.32s-1.21-.11-1.81-.17a27.73,27.73,0,0,0-7.07.51,28.13,28.13,0,0,0-12.28,5.8c-6.92,5.73-10.79,14.62-11.57,23.6a36.35,36.35,0,0,0,0,6.76,34.23,34.23,0,0,0,1.22,6.61,26.73,26.73,0,0,0,6.4,11.44,21.35,21.35,0,0,0,18.63,6,17.7,17.7,0,0,0,1.75-.4c.58-.14,1.13-.39,1.71-.59s1.11-.5,1.68-.76l1.61-.95c-.41.47-.82,1-1.26,1.43s-.95.87-1.46,1.27-1.06.77-1.64,1.08a18.27,18.27,0,0,1-1.76.91,20.51,20.51,0,0,1-7.81,1.71,23.89,23.89,0,0,1-8.09-1.23,23.21,23.21,0,0,1-7.33-4.07,30.11,30.11,0,0,1-9.24-13.66,38.77,38.77,0,0,1-1.8-8,42.19,42.19,0,0,1-.1-8.18,40.37,40.37,0,0,1,4.64-15.6,33.42,33.42,0,0,1,11-12.12,29,29,0,0,1,15.37-4.68A23.07,23.07,0,0,1,376,222.78Z"/><path class="cls-1" d="M389.31,229a4.58,4.58,0,0,1,1.95-.36,6.18,6.18,0,0,1,2,.46,12,12,0,0,1,3.39,2.32,27.22,27.22,0,0,1,2.67,3c.81,1,1.63,2,2.41,3a132.31,132.31,0,0,1,8.71,12.89,145,145,0,0,1,7.26,13.8q1.61,3.56,3,7.19c.5,1.2.93,2.43,1.38,3.65s.9,2.45,1.31,3.69c.83,2.46,1.57,5,2.3,7.46l1,3.78c.31,1.26.61,2.53.9,3.8a126.25,126.25,0,0,1,2.51,15.45,74.81,74.81,0,0,1-.11,15.76,42.62,42.62,0,0,1-1.6,7.76,20.23,20.23,0,0,1-1.56,3.68,13.43,13.43,0,0,1-2.4,3.12,14.8,14.8,0,0,0,1.34-3.54,20.77,20.77,0,0,0,.58-3.67,60.11,60.11,0,0,0-.06-7.47,106.51,106.51,0,0,0-2.05-14.79c-.5-2.44-1.07-4.87-1.66-7.3s-1.25-4.86-1.92-7.28l-1-3.62-1.09-3.59c-.73-2.4-1.47-4.79-2.3-7.16-.38-1.19-.79-2.37-1.21-3.55s-.83-2.37-1.27-3.54-.85-2.36-1.31-3.52l-1.36-3.51c-1.85-4.66-3.84-9.27-5.93-13.86s-4.28-9.14-6.6-13.66c-.56-1.14-1.18-2.25-1.75-3.39a33.22,33.22,0,0,0-1.8-3.24,10.5,10.5,0,0,0-2.37-2.68,5.08,5.08,0,0,0-1.56-.87A4.71,4.71,0,0,0,389.31,229Z"/><path class="cls-1" d="M391.26,331.63c-4.38,7.67-10.76,14.15-17.78,19.57a118.62,118.62,0,0,1-22.81,13.49c-2,.91-4,1.79-6,2.65a54.6,54.6,0,0,1-6.54,2.26,28.26,28.26,0,0,1-7.2,1,35.76,35.76,0,0,1-7-.65c-4.49-.85-8.6-2.2-12.7-3.24a48.62,48.62,0,0,0-6.19-1.19,28.68,28.68,0,0,0-6.41.06,20.5,20.5,0,0,1,6.34-2.16,35.66,35.66,0,0,1,6.76-.37c4.48.14,8.81.81,12.92,1l1.53.07c.5,0,1,0,1.5,0a14.34,14.34,0,0,0,1.47-.05,13.74,13.74,0,0,0,1.44-.11,24.93,24.93,0,0,0,5.55-1.24,58.69,58.69,0,0,0,5.64-2.26c1.92-.85,3.89-1.74,5.81-2.65,7.75-3.56,15.36-7.27,22.67-11.54A153.07,153.07,0,0,0,391.26,331.63Z"/><path class="cls-1" d="M418,348.62a13,13,0,0,1-2.53,3.35,26.25,26.25,0,0,1-3.31,2.64c-2.33,1.58-4.66,2.95-7,4.39-4.68,2.83-9.43,5.56-14.2,8.23q-14.31,8-29,15.19L354.61,386c-2.48,1.15-4.9,2.35-7.49,3.49a56.82,56.82,0,0,1-8.14,3,30,30,0,0,1-9,1.1,25.71,25.71,0,0,1-16.32-6.84,28.71,28.71,0,0,1-2.89-3.24c-.84-1.1-1.65-2.17-2.5-3.18a13.58,13.58,0,0,0-2.84-2.63,5.93,5.93,0,0,0-3.75-1,6.14,6.14,0,0,1,4.23-.05,14.92,14.92,0,0,1,3.78,2.13c2.3,1.72,4.2,3.73,6.28,5.06a23.15,23.15,0,0,0,14,3.81,27.12,27.12,0,0,0,7.09-1.53,62.44,62.44,0,0,0,7-3.09l7.24-3.69,7.32-3.66q14.7-7.23,29.74-13.74c5-2.15,10.08-4.24,15.18-6.23l7.65-2.92a25.92,25.92,0,0,0,3.61-1.71,15.15,15.15,0,0,0,1.68-1.1A16.07,16.07,0,0,0,418,348.62Z"/><path class="cls-1" d="M369.37,266.27a85.85,85.85,0,0,0,11.19,12.23,147.16,147.16,0,0,1,12,12c.93,1.14,1.84,2.3,2.72,3.52s1.67,2.5,2.41,3.83a33.92,33.92,0,0,1,2,4.17,30.35,30.35,0,0,1,1.34,4.45,26.5,26.5,0,0,1,.55,4.61,23.62,23.62,0,0,1-.32,4.61,19.78,19.78,0,0,1-1.35,4.37,14.9,14.9,0,0,1-2.44,3.71,26.51,26.51,0,0,0-2.1-15.55c-2-4.67-5.11-8.76-8.55-12.88s-7.29-8.21-10.67-13a46.29,46.29,0,0,1-4.43-7.6A25.65,25.65,0,0,1,369.37,266.27Z"/><path class="cls-1" d="M355.07,290.62a26.84,26.84,0,0,0-4.54,3.09,34,34,0,0,0-3.74,3.76,50,50,0,0,0-3.2,4.2c-.5.72-1,1.48-1.44,2.22l-.71,1.12-.67,1.14a84.39,84.39,0,0,0-8.19,19.28,117.58,117.58,0,0,0-3.91,20.84,87.29,87.29,0,0,0-.55,10.67,31,31,0,0,0,.57,5.25,22.22,22.22,0,0,0,1.75,5.17,15.8,15.8,0,0,1-3.7-4.4,24.78,24.78,0,0,1-2.27-5.42,40.38,40.38,0,0,1-1.19-5.7c-.14-.95-.23-1.9-.31-2.85s-.2-1.89-.21-2.85a69.53,69.53,0,0,1,2.59-22.81,58.61,58.61,0,0,1,10.59-20.56c.3-.38.6-.76.92-1.13l1-1.07c.65-.71,1.29-1.43,2-2.1a35.86,35.86,0,0,1,4.5-3.74A21.21,21.21,0,0,1,355.07,290.62Z"/><path class="cls-1" d="M340.55,395.14c3.79,2.38,7.2,4.49,10.74,6.33A111.88,111.88,0,0,0,362,406.41c3.64,1.47,7.37,2.8,11.23,4.12s7.81,2.62,11.91,4.44a36.43,36.43,0,0,1-13.06,1.37,42,42,0,0,1-12.9-2.95,37.07,37.07,0,0,1-11.33-7.14A25.79,25.79,0,0,1,340.55,395.14Z"/><path class="cls-1" d="M426.25,276.86c9.06.69,17.9,4.42,25.41,9.88a62.59,62.59,0,0,1,18.19,21.14,77.25,77.25,0,0,1,8.21,26.82,95.32,95.32,0,0,1,.64,14,112.05,112.05,0,0,1-1.33,13.93,79.08,79.08,0,0,1-3.48,13.74,55.47,55.47,0,0,1-6.61,12.8,64.22,64.22,0,0,1-20.95,18.95,76.24,76.24,0,0,1-26.28,9,97.44,97.44,0,0,1-27.28.26,128.57,128.57,0,0,0,26.53-3.88,80.88,80.88,0,0,0,23.94-10.41,70,70,0,0,0,10-8.07,59.12,59.12,0,0,0,8.07-9.83c4.68-7,7.22-15.17,8.59-23.77a102.71,102.71,0,0,0,1-26,77.81,77.81,0,0,0-6.42-25,63.74,63.74,0,0,0-15.22-20.89A55.57,55.57,0,0,0,426.25,276.86Z"/><path class="cls-1" d="M442.19,301.79c.74.48,1.49.95,2.21,1.46s1.43,1,2.11,1.61a45,45,0,0,1,3.92,3.65,45.52,45.52,0,0,1,6.46,8.66,46.11,46.11,0,0,1,6.06,21,54.45,54.45,0,0,1-.68,11.05,62.46,62.46,0,0,1-2.7,10.69A66.08,66.08,0,0,1,449,379.29a63.77,63.77,0,0,1-16.4,14.79,57.37,57.37,0,0,1-20.58,7.86c-.9.19-1.82.27-2.72.4l-1.37.17-1.37.1c-.91.05-1.82.15-2.73.16h-2.74a58.21,58.21,0,0,1-10.8-1.24,55.46,55.46,0,0,1-10.24-3.33c-1.61-.8-3.23-1.52-4.74-2.46a49.68,49.68,0,0,1-4.41-2.94,60.7,60.7,0,0,0,39.89,3.34,60,60,0,0,0,32.29-21.5,61.3,61.3,0,0,0,5.51-8.21,62.41,62.41,0,0,0,4.25-8.93,60.23,60.23,0,0,0,4.18-19.28C457.61,325.12,452.19,311.66,442.19,301.79Z"/><path class="cls-1" d="M269.68,300.25a24.91,24.91,0,0,1-1.89,9.69,28.29,28.29,0,0,1-5.21,8.4,24,24,0,0,1-8.14,6,16.13,16.13,0,0,1-10,1.31c2.59-2.29,4.74-4.22,6.78-6.25s3.92-4,5.79-6.1,3.75-4.26,5.79-6.47A53.4,53.4,0,0,1,269.68,300.25Z"/><path class="cls-1" d="M266,325.1a48.51,48.51,0,0,0,6.88,6.48c2.36,1.86,4.86,3.51,7.43,5.18s5.24,3.32,7.87,5.11a73.27,73.27,0,0,1,7.84,6,30.83,30.83,0,0,1-9.93-1.72,40.28,40.28,0,0,1-9-4.31,28.46,28.46,0,0,1-7.6-7A16.3,16.3,0,0,1,266,325.1Z"/><path class="cls-1" d="M170,253.42a9.13,9.13,0,0,1,3.25-2.4,11.91,11.91,0,0,1,4.09-.94,21,21,0,0,1,8.24,1.37,29.17,29.17,0,0,1,3.82,1.7c1.2.65,2.4,1.29,3.54,2a62,62,0,0,1,6.65,4.72c8.44,6.91,15.1,15.49,21.11,24.1s11.7,17.37,17,26.47a177.16,177.16,0,0,1,13.73,28.46c-6.35-8.45-12.49-16.83-18.68-25.22s-12.31-16.83-18.23-25.4-11.8-16.86-18.88-24c-1.79-1.76-3.61-3.51-5.56-5.1-1-.83-2-1.56-3-2.34a26.68,26.68,0,0,0-3.06-2,21.06,21.06,0,0,0-6.81-2.64,10.46,10.46,0,0,0-3.66-.06A9.38,9.38,0,0,0,170,253.42Z"/><path class="cls-1" d="M173.91,328.12a111,111,0,0,1,24.38,42.77,54.06,54.06,0,0,0,4.4,10.67,55.53,55.53,0,0,0,6.87,9.19q2,2.19,4.07,4.35c1.39,1.44,2.84,2.94,4.22,4.31a41.3,41.3,0,0,0,4.17,3.71,21.08,21.08,0,0,0,4.52,2.62,52,52,0,0,0,5.38,2c1.86.62,3.75,1.16,5.64,1.65a92.53,92.53,0,0,0,11.53,2.28,81.47,81.47,0,0,0,23.39-.14,70.42,70.42,0,0,0,22.32-7.38,65.22,65.22,0,0,0,18.83-14.89,55.91,55.91,0,0,1-16.91,18,66.9,66.9,0,0,1-23.13,10,78.68,78.68,0,0,1-25.33,1.41,93.08,93.08,0,0,1-12.52-2.16c-1-.26-2.06-.51-3.07-.82s-2-.58-3-.91a59.77,59.77,0,0,1-6.12-2.21,28.79,28.79,0,0,1-6-3.55,44.34,44.34,0,0,1-4.92-4.45c-1.49-1.54-2.84-3-4.25-4.52s-2.81-3.07-4.16-4.7a57.19,57.19,0,0,1-7.3-10.7,41.14,41.14,0,0,1-2.53-6.1c-.67-2.05-1.2-4.08-1.71-6.07s-1-3.93-1.52-5.85-1.13-3.83-1.73-5.74q-1.86-5.7-4.22-11.27A154.65,154.65,0,0,0,173.91,328.12Z"/><path class="cls-1" d="M69.31,384.44a44.93,44.93,0,0,1-12.85,9.3A104.47,104.47,0,0,1,42,399.57l-3.66,1.16c-1.24.35-2.46.72-3.7,1.06s-2.48.67-3.74,1l-1.85.45c-.6.13-1.16.26-1.69.4a11.19,11.19,0,0,0-2.71,1,4.73,4.73,0,0,0-1.77,1.81,2.92,2.92,0,0,0-.34,1.17,2.22,2.22,0,0,0,.3,1.26A3,3,0,0,0,23.93,410a2.51,2.51,0,0,0,1.74.39,2.89,2.89,0,0,1-2,.72,4.33,4.33,0,0,1-2.24-.74,4.58,4.58,0,0,1-1.68-2,5.78,5.78,0,0,1-.45-2.65,8.07,8.07,0,0,1,2-4.73,12.89,12.89,0,0,1,3.84-2.91c.66-.35,1.3-.64,1.92-.92l1.8-.76c1.18-.52,2.38-1,3.57-1.44s2.41-.9,3.61-1.35l3.64-1.24c4.89-1.61,9.79-2.92,14.67-4.19S64.1,385.7,69.31,384.44Z"/><path class="cls-1" d="M168,244.36a22.44,22.44,0,0,1,2.19-3.58,19.48,19.48,0,0,1,1.38-1.63l.74-.78.79-.73a26.53,26.53,0,0,1,7.29-4.69,31.93,31.93,0,0,1,8.49-2.35,32.67,32.67,0,0,1,8.89,0,45.41,45.41,0,0,1,16.59,5.79,62.08,62.08,0,0,1,7.24,4.84,83.85,83.85,0,0,1,6.49,5.69,100.15,100.15,0,0,1,11,13c3.26,4.59,6.23,9.31,9,14.13s5.34,9.65,7.87,14.55c1.26,2.46,2.51,4.92,3.71,7.41l1.79,3.74c.57,1.27,1.16,2.51,1.71,3.79-7.18-8.45-13.7-17.38-20.06-26.29-3.19-4.44-6.38-8.82-9.7-13-1.69-2.08-3.35-4.18-5.14-6.14-.86-1-1.78-2-2.66-2.95s-1.82-1.91-2.78-2.8a73.25,73.25,0,0,0-12.13-9.8,51.31,51.31,0,0,0-6.76-3.65,42.14,42.14,0,0,0-7.2-2.45c-1.24-.29-2.48-.51-3.74-.69-.63-.05-1.25-.13-1.88-.17s-1.27-.08-1.9-.06a31.83,31.83,0,0,0-7.62.92A27,27,0,0,0,168,244.36Z"/><path class="cls-1" d="M167,316.05a75.69,75.69,0,0,1-7.53,23.19,116.55,116.55,0,0,1-13.52,20.51c-10.36,12.74-22.59,23.59-34.24,34.6-2.93,2.75-5.82,5.52-8.63,8.35a55.86,55.86,0,0,0-7.53,8.67c-.51.76-1,1.53-1.48,2.44a29.54,29.54,0,0,1-1.82,2.84,13.63,13.63,0,0,1-2.65,2.66,17,17,0,0,1-3.09,1.84,29.6,29.6,0,0,1-6.32,2c-2.05.39-4.08.76-6.13,1a113.1,113.1,0,0,1-12.29,1c-4.1.09-8.18,0-12.25-.21-8.13-.51-16.17-1.47-24.17-2.74,8.11-.06,16.18.1,24.21-.22,4-.12,8-.36,12-.77s7.89-.93,11.76-1.7c1.94-.37,3.86-.84,5.76-1.31a25.16,25.16,0,0,0,5.15-1.83,9.57,9.57,0,0,0,3.6-3c.93-1.29,1.74-3.17,3-5.09a59.73,59.73,0,0,1,8.11-9.77c2.85-2.91,5.78-5.74,8.72-8.54,11.8-11.15,24.12-21.47,34.82-33.27,2.69-2.94,5.22-6,7.67-9.13a110.42,110.42,0,0,0,6.85-9.77A91.89,91.89,0,0,0,167,316.05Z"/><path class="cls-1" d="M162.53,259.74c-1.58,1.16-3.14,2.3-4.58,3.59l-1.1.94-1,1c-.72.64-1.38,1.34-2.05,2a76.57,76.57,0,0,0-7.31,8.79A131.81,131.81,0,0,0,135,295.83c-3.35,6.9-6.45,14-9.93,21.05-1.72,3.52-3.58,7-5.57,10.47s-4.08,6.77-6.25,10c-8.68,13.13-18.37,25.19-26.55,38.1-2.07,3.19-4,6.58-6.26,9.89a45.94,45.94,0,0,1-7.91,9.24,36.12,36.12,0,0,1-21.81,8.89,39.42,39.42,0,0,0,5.49-1.87,37.44,37.44,0,0,0,5.1-2.57A38.4,38.4,0,0,0,70,392c5-5.46,7.86-12.5,11.64-19.47C89.11,358.58,98.53,346,107,333.25a224.42,224.42,0,0,0,11.77-19.63c3.63-6.76,7.11-13.75,11.05-20.56a108.1,108.1,0,0,1,13.79-19.33A56.73,56.73,0,0,1,162.53,259.74Z"/><path class="cls-1" d="M33.76,412.29A61.11,61.11,0,0,1,29,416.2a13.75,13.75,0,0,0-3.25,3.39,9.25,9.25,0,0,0-.47.88c-.12.22-.11.37-.18.13a1.18,1.18,0,0,0-.29-.42c-.13-.12-.27-.14-.28-.11s.27.24.69.37A20.75,20.75,0,0,1,31.07,423a21,21,0,0,1-6.22,1.59,5.2,5.2,0,0,1-2.27-.27,3.65,3.65,0,0,1-1.5-1,3.91,3.91,0,0,1-.92-1.78,5.26,5.26,0,0,1,.2-2.84l.38-.95c.14-.31.32-.6.49-.9A9.28,9.28,0,0,1,23.92,414a11.49,11.49,0,0,1,3.21-1.53A13.19,13.19,0,0,1,33.76,412.29Z"/><path class="cls-1" d="M337.18,150.79a5.22,5.22,0,0,1-2.13,3.9,7,7,0,0,1-8.79-.19,5.21,5.21,0,0,1-1.94-4,24.85,24.85,0,0,0,3.62.87,21,21,0,0,0,2.79.27,19.83,19.83,0,0,0,2.8-.13A24.67,24.67,0,0,0,337.18,150.79Z"/><path class="cls-1" d="M335.24,177.12a6,6,0,0,1-1.27,1.76,11.21,11.21,0,0,1-1.65,1.37c-.59.4-1.11,1-1.86,1a3.08,3.08,0,0,1-1.15-.12,2.94,2.94,0,0,1-1.21-.67l-.05-.3a5.44,5.44,0,0,1,.72-1.08,3.64,3.64,0,0,1,.74-.69,1.59,1.59,0,0,1,.87-.29,7.61,7.61,0,0,0,1-.09l.92-.22c.31-.07.62-.14.93-.23a9.75,9.75,0,0,0,1.82-.67Z"/></g></svg>